M48
; DRILL file {KiCad (5.1.9)-1} date 05/07/21 14:06:37
; FORMAT={-:-/ absolute / metric / decimal}
; #@! TF.CreationDate,2021-05-07T14:06:37-04:00
; #@! TF.GenerationSoftware,Kicad,Pcbnew,(5.1.9)-1
; #@! TF.FileFunction,Plated,1,2,PTH
FMAT,2
METRIC
T1C0.400
T2C0.800
T3C0.900
T4C1.000
%
G90
G05
T1
X130.048Y-106.68
X132.334Y-111.76
X132.334Y-116.586
X136.906Y-97.282
X138.938Y-93.218
X140.462Y-107.95
X141.859Y-92.329
X143.256Y-97.536
X144.526Y-110.744
X145.283Y-115.565
X146.558Y-87.63
X149.606Y-93.98
X150.077Y-109.22
X150.622Y-107.696
X154.686Y-87.63
X156.21Y-84.074
X163.576Y-103.886
X173.736Y-87.63
X179.07Y-97.536
X191.77Y-101.092
T2
X120.65Y-106.68
X120.65Y-109.22
X120.65Y-111.76
X120.65Y-114.3
X120.65Y-116.84
X120.65Y-119.38
X120.65Y-121.92
X123.23Y-102.87
X125.73Y-102.87
X126.746Y-72.39
X126.746Y-77.47
X126.746Y-82.55
X128.27Y-106.68
X128.27Y-109.22
X128.27Y-111.76
X128.27Y-114.3
X128.27Y-116.84
X128.27Y-119.38
X128.27Y-121.92
X130.556Y-87.122
X133.056Y-87.122
X134.62Y-106.68
X134.62Y-109.22
X134.62Y-111.76
X134.62Y-114.3
X134.62Y-116.84
X134.62Y-119.38
X134.62Y-121.92
X136.906Y-72.39
X136.906Y-77.47
X136.906Y-82.55
X137.2Y-102.87
X139.7Y-102.87
X142.24Y-106.68
X142.24Y-109.22
X142.24Y-111.76
X142.24Y-114.3
X142.24Y-116.84
X142.24Y-119.38
X142.24Y-121.92
X150.368Y-121.452
X150.368Y-123.952
X167.386Y-123.444
X177.546Y-123.444
T3
X182.626Y-123.444
X185.166Y-123.444
T4
X151.13Y-76.2
X151.13Y-91.44
X151.13Y-100.33
X151.13Y-115.57
X153.67Y-76.2
X153.67Y-91.44
X153.67Y-100.33
X153.67Y-115.57
X156.21Y-76.2
X156.21Y-91.44
X156.21Y-100.33
X156.21Y-115.57
X158.75Y-76.2
X158.75Y-91.44
X158.75Y-100.33
X158.75Y-115.57
X161.29Y-76.2
X161.29Y-91.44
X161.29Y-100.33
X161.29Y-115.57
X163.83Y-76.2
X163.83Y-91.44
X163.83Y-100.33
X163.83Y-115.57
X166.37Y-76.2
X166.37Y-91.44
X166.37Y-100.33
X166.37Y-115.57
X168.91Y-76.2
X168.91Y-91.44
X168.91Y-100.33
X168.91Y-115.57
X171.45Y-76.2
X171.45Y-91.44
X171.45Y-100.33
X171.45Y-115.57
X173.99Y-76.2
X173.99Y-91.44
X173.99Y-100.33
X173.99Y-115.57
X176.53Y-76.2
X176.53Y-91.44
X176.53Y-100.33
X176.53Y-115.57
X179.07Y-76.2
X179.07Y-91.44
X179.07Y-100.33
X179.07Y-115.57
X181.61Y-76.2
X181.61Y-91.44
X181.61Y-100.33
X181.61Y-115.57
X184.15Y-76.2
X184.15Y-91.44
X184.15Y-100.33
X184.15Y-115.57
X186.69Y-100.33
X186.69Y-115.57
T0
M30
