G04 #@! TF.GenerationSoftware,KiCad,Pcbnew,(5.1.9)-1*
G04 #@! TF.CreationDate,2021-05-07T14:06:33-04:00*
G04 #@! TF.ProjectId,TommyPROM-schematics,546f6d6d-7950-4524-9f4d-2d736368656d,rev?*
G04 #@! TF.SameCoordinates,Original*
G04 #@! TF.FileFunction,Soldermask,Top*
G04 #@! TF.FilePolarity,Negative*
%FSLAX46Y46*%
G04 Gerber Fmt 4.6, Leading zero omitted, Abs format (unit mm)*
G04 Created by KiCad (PCBNEW (5.1.9)-1) date 2021-05-07 14:06:33*
%MOMM*%
%LPD*%
G01*
G04 APERTURE LIST*
%ADD10C,1.701600*%
%ADD11O,1.701600X1.701600*%
%ADD12O,1.541600X2.101600*%
%ADD13C,1.901600*%
G04 APERTURE END LIST*
D10*
X150368000Y-121452000D03*
X150368000Y-123952000D03*
D11*
X167386000Y-123444000D03*
D10*
X177546000Y-123444000D03*
D11*
X136906000Y-72390000D03*
D10*
X126746000Y-72390000D03*
D11*
X136906000Y-77470000D03*
D10*
X126746000Y-77470000D03*
D11*
X136906000Y-82550000D03*
D10*
X126746000Y-82550000D03*
X123230000Y-102870000D03*
X125730000Y-102870000D03*
X137200000Y-102870000D03*
X139700000Y-102870000D03*
X133056000Y-87122000D03*
X130556000Y-87122000D03*
D12*
X184150000Y-76200000D03*
X184150000Y-91440000D03*
X181610000Y-76200000D03*
X181610000Y-91440000D03*
X179070000Y-76200000D03*
X179070000Y-91440000D03*
X176530000Y-76200000D03*
X176530000Y-91440000D03*
X173990000Y-76200000D03*
X173990000Y-91440000D03*
X171450000Y-76200000D03*
X171450000Y-91440000D03*
X168910000Y-76200000D03*
X168910000Y-91440000D03*
X166370000Y-76200000D03*
X166370000Y-91440000D03*
X163830000Y-76200000D03*
X163830000Y-91440000D03*
X161290000Y-76200000D03*
X161290000Y-91440000D03*
X158750000Y-76200000D03*
X158750000Y-91440000D03*
X156210000Y-76200000D03*
X156210000Y-91440000D03*
X153670000Y-76200000D03*
X153670000Y-91440000D03*
X151130000Y-76200000D03*
G36*
G01*
X151850001Y-92490800D02*
X150409999Y-92490800D01*
G75*
G02*
X150359200Y-92440001I0J50799D01*
G01*
X150359200Y-90439999D01*
G75*
G02*
X150409999Y-90389200I50799J0D01*
G01*
X151850001Y-90389200D01*
G75*
G02*
X151900800Y-90439999I0J-50799D01*
G01*
X151900800Y-92440001D01*
G75*
G02*
X151850001Y-92490800I-50799J0D01*
G01*
G37*
D11*
X142240000Y-106680000D03*
X134620000Y-121920000D03*
X142240000Y-109220000D03*
X134620000Y-119380000D03*
X142240000Y-111760000D03*
X134620000Y-116840000D03*
X142240000Y-114300000D03*
X134620000Y-114300000D03*
X142240000Y-116840000D03*
X134620000Y-111760000D03*
X142240000Y-119380000D03*
X134620000Y-109220000D03*
X142240000Y-121920000D03*
G36*
G01*
X133769200Y-107480000D02*
X133769200Y-105880000D01*
G75*
G02*
X133820000Y-105829200I50800J0D01*
G01*
X135420000Y-105829200D01*
G75*
G02*
X135470800Y-105880000I0J-50800D01*
G01*
X135470800Y-107480000D01*
G75*
G02*
X135420000Y-107530800I-50800J0D01*
G01*
X133820000Y-107530800D01*
G75*
G02*
X133769200Y-107480000I0J50800D01*
G01*
G37*
X128270000Y-106680000D03*
X120650000Y-121920000D03*
X128270000Y-109220000D03*
X120650000Y-119380000D03*
X128270000Y-111760000D03*
X120650000Y-116840000D03*
X128270000Y-114300000D03*
X120650000Y-114300000D03*
X128270000Y-116840000D03*
X120650000Y-111760000D03*
X128270000Y-119380000D03*
X120650000Y-109220000D03*
X128270000Y-121920000D03*
G36*
G01*
X119799200Y-107480000D02*
X119799200Y-105880000D01*
G75*
G02*
X119850000Y-105829200I50800J0D01*
G01*
X121450000Y-105829200D01*
G75*
G02*
X121500800Y-105880000I0J-50800D01*
G01*
X121500800Y-107480000D01*
G75*
G02*
X121450000Y-107530800I-50800J0D01*
G01*
X119850000Y-107530800D01*
G75*
G02*
X119799200Y-107480000I0J50800D01*
G01*
G37*
D13*
X185166000Y-123444000D03*
G36*
G01*
X181675200Y-124344000D02*
X181675200Y-122544000D01*
G75*
G02*
X181726000Y-122493200I50800J0D01*
G01*
X183526000Y-122493200D01*
G75*
G02*
X183576800Y-122544000I0J-50800D01*
G01*
X183576800Y-124344000D01*
G75*
G02*
X183526000Y-124394800I-50800J0D01*
G01*
X181726000Y-124394800D01*
G75*
G02*
X181675200Y-124344000I0J50800D01*
G01*
G37*
D11*
X186690000Y-100330000D03*
X186690000Y-115570000D03*
X151130000Y-100330000D03*
X184150000Y-115570000D03*
X153670000Y-100330000D03*
X181610000Y-115570000D03*
X156210000Y-100330000D03*
X179070000Y-115570000D03*
X158750000Y-100330000D03*
X176530000Y-115570000D03*
X161290000Y-100330000D03*
X173990000Y-115570000D03*
X163830000Y-100330000D03*
X171450000Y-115570000D03*
X166370000Y-100330000D03*
X168910000Y-115570000D03*
X168910000Y-100330000D03*
X166370000Y-115570000D03*
X171450000Y-100330000D03*
X163830000Y-115570000D03*
X173990000Y-100330000D03*
X161290000Y-115570000D03*
X176530000Y-100330000D03*
X158750000Y-115570000D03*
X179070000Y-100330000D03*
X156210000Y-115570000D03*
X181610000Y-100330000D03*
X153670000Y-115570000D03*
X184150000Y-100330000D03*
G36*
G01*
X151930000Y-116420800D02*
X150330000Y-116420800D01*
G75*
G02*
X150279200Y-116370000I0J50800D01*
G01*
X150279200Y-114770000D01*
G75*
G02*
X150330000Y-114719200I50800J0D01*
G01*
X151930000Y-114719200D01*
G75*
G02*
X151980800Y-114770000I0J-50800D01*
G01*
X151980800Y-116370000D01*
G75*
G02*
X151930000Y-116420800I-50800J0D01*
G01*
G37*
M02*
