%FSLAX45Y45*%
G04 Gerber Fmt 4.5, Leading zero omitted, Abs format (unit mm)*
G04 Created by KiCad (PCBNEW (5.1.9)-1) date 2022-12-20 17:35:52*
%MOMM*%
%LPD*%
G01*
G04 APERTURE LIST*
%TA.AperFunction,Profile*%
%ADD10C,0.050000*%
%TD*%
%ADD11C,0.200000*%
%ADD12C,0.300000*%
G04 APERTURE END LIST*
D10*
X15500000Y-3500000D02*
X5500000Y-3500000D01*
X15500000Y-13500000D02*
X15500000Y-3500000D01*
X5500000Y-13500000D02*
X15500000Y-13500000D01*
X5500000Y-3500000D02*
X5500000Y-13500000D01*
D11*
D12*
X5783928Y-13968214D02*
X5783928Y-13668214D01*
X5855357Y-13668214D01*
X5898214Y-13682500D01*
X5926786Y-13711071D01*
X5941071Y-13739643D01*
X5955357Y-13796786D01*
X5955357Y-13839643D01*
X5941071Y-13896786D01*
X5926786Y-13925357D01*
X5898214Y-13953929D01*
X5855357Y-13968214D01*
X5783928Y-13968214D01*
X6083928Y-13968214D02*
X6083928Y-13768214D01*
X6083928Y-13825357D02*
X6098214Y-13796786D01*
X6112500Y-13782500D01*
X6141071Y-13768214D01*
X6169643Y-13768214D01*
X6269643Y-13968214D02*
X6269643Y-13768214D01*
X6269643Y-13668214D02*
X6255357Y-13682500D01*
X6269643Y-13696786D01*
X6283928Y-13682500D01*
X6269643Y-13668214D01*
X6269643Y-13696786D01*
X6455357Y-13968214D02*
X6426786Y-13953929D01*
X6412500Y-13925357D01*
X6412500Y-13668214D01*
X6612500Y-13968214D02*
X6583928Y-13953929D01*
X6569643Y-13925357D01*
X6569643Y-13668214D01*
X6955357Y-13968214D02*
X6955357Y-13668214D01*
X7055357Y-13882500D01*
X7155357Y-13668214D01*
X7155357Y-13968214D01*
X7426786Y-13968214D02*
X7426786Y-13811071D01*
X7412500Y-13782500D01*
X7383928Y-13768214D01*
X7326786Y-13768214D01*
X7298214Y-13782500D01*
X7426786Y-13953929D02*
X7398214Y-13968214D01*
X7326786Y-13968214D01*
X7298214Y-13953929D01*
X7283928Y-13925357D01*
X7283928Y-13896786D01*
X7298214Y-13868214D01*
X7326786Y-13853929D01*
X7398214Y-13853929D01*
X7426786Y-13839643D01*
X7569643Y-13768214D02*
X7569643Y-14068214D01*
X7569643Y-13782500D02*
X7598214Y-13768214D01*
X7655357Y-13768214D01*
X7683928Y-13782500D01*
X7698214Y-13796786D01*
X7712500Y-13825357D01*
X7712500Y-13911071D01*
X7698214Y-13939643D01*
X7683928Y-13953929D01*
X7655357Y-13968214D01*
X7598214Y-13968214D01*
X7569643Y-13953929D01*
X7841071Y-13939643D02*
X7855357Y-13953929D01*
X7841071Y-13968214D01*
X7826786Y-13953929D01*
X7841071Y-13939643D01*
X7841071Y-13968214D01*
X7841071Y-13782500D02*
X7855357Y-13796786D01*
X7841071Y-13811071D01*
X7826786Y-13796786D01*
X7841071Y-13782500D01*
X7841071Y-13811071D01*
M02*
