M48
; DRILL file {KiCad (5.1.9)-1} date 11/18/22 16:49:30
; FORMAT={-:-/ absolute / metric / decimal}
; #@! TF.CreationDate,2022-11-18T16:49:30-05:00
; #@! TF.GenerationSoftware,Kicad,Pcbnew,(5.1.9)-1
; #@! TF.FileFunction,Plated,1,2,PTH
FMAT,2
METRIC
T1C0.400
T2C0.800
T3C0.900
T4C1.000
T5C1.100
%
G90
G05
T1
X63.5Y-77.0
X64.6Y-74.4
X65.64Y-71.86
X67.5Y-70.5
X72.5Y-65.5
X73.5Y-67.0
X74.5Y-68.0
X75.5Y-69.5
X102.0Y-68.0
X104.0Y-63.0
X106.0Y-75.5
X108.0Y-71.0
X113.0Y-103.5
X114.5Y-131.5
X114.934Y-117.434
X115.5Y-102.0
X133.5Y-72.5
X134.5Y-66.5
X135.0Y-74.5
X136.0Y-70.5
X137.5Y-69.5
X141.5Y-70.5
T2
X59.5Y-117.5
X59.5Y-127.66
X62.5Y-84.5
X62.5Y-87.04
X62.5Y-89.58
X62.5Y-92.12
X62.5Y-94.66
X62.5Y-97.2
X62.5Y-99.74
X62.5Y-117.5
X62.5Y-127.66
X65.0Y-80.0
X65.5Y-117.5
X65.5Y-127.66
X67.5Y-80.0
X70.12Y-84.5
X70.12Y-87.04
X70.12Y-89.58
X70.12Y-92.12
X70.12Y-94.66
X70.12Y-97.2
X70.12Y-99.74
X120.5Y-44.5
X123.0Y-44.5
X140.0Y-84.5
X140.0Y-87.04
X140.0Y-89.58
X140.0Y-92.12
X140.0Y-94.66
X140.0Y-97.2
X140.0Y-99.74
X142.5Y-80.0
X145.0Y-80.0
X147.62Y-84.5
X147.62Y-87.04
X147.62Y-89.58
X147.62Y-92.12
X147.62Y-94.66
X147.62Y-97.2
X147.62Y-99.74
T3
X146.0Y-116.0
X146.0Y-118.5
X146.0Y-121.0
T4
X60.0Y-45.0
X60.0Y-47.54
X60.0Y-50.08
X60.0Y-52.62
X60.0Y-64.0
X60.0Y-66.54
X60.0Y-69.08
X60.0Y-71.62
X66.0Y-112.0
X78.44Y-113.0
X78.44Y-128.24
X80.98Y-113.0
X80.98Y-128.24
X83.5Y-49.0
X83.5Y-51.54
X83.5Y-54.08
X83.5Y-56.62
X83.5Y-59.16
X83.5Y-61.7
X83.5Y-64.24
X83.5Y-66.78
X83.5Y-69.32
X83.5Y-71.86
X83.5Y-74.4
X83.5Y-76.94
X83.5Y-79.48
X83.5Y-82.02
X83.5Y-84.56
X83.5Y-87.1
X83.52Y-113.0
X83.52Y-128.24
X86.04Y-49.0
X86.04Y-51.54
X86.04Y-54.08
X86.04Y-56.62
X86.04Y-59.16
X86.04Y-61.7
X86.04Y-64.24
X86.04Y-66.78
X86.04Y-69.32
X86.04Y-71.86
X86.04Y-74.4
X86.04Y-76.94
X86.04Y-79.48
X86.04Y-82.02
X86.04Y-84.56
X86.04Y-87.1
X86.06Y-113.0
X86.06Y-128.24
X88.6Y-113.0
X88.6Y-128.24
X91.14Y-113.0
X91.14Y-128.24
X93.68Y-113.0
X93.68Y-128.24
X96.22Y-113.0
X96.22Y-128.24
X98.0Y-49.0
X98.0Y-51.54
X98.0Y-54.08
X98.0Y-56.62
X98.0Y-59.16
X98.0Y-61.7
X98.0Y-64.24
X98.0Y-66.78
X98.0Y-69.32
X98.0Y-71.86
X98.0Y-74.4
X98.0Y-76.94
X98.0Y-79.48
X98.0Y-82.02
X98.0Y-84.56
X98.0Y-87.1
X98.76Y-113.0
X98.76Y-128.24
X101.3Y-113.0
X101.3Y-128.24
X103.84Y-113.0
X103.84Y-128.24
X106.38Y-113.0
X106.38Y-128.24
X108.92Y-113.0
X108.92Y-128.24
X111.46Y-113.0
X111.46Y-128.24
X113.24Y-49.0
X113.24Y-51.54
X113.24Y-54.08
X113.24Y-56.62
X113.24Y-59.16
X113.24Y-61.7
X113.24Y-64.24
X113.24Y-66.78
X113.24Y-69.32
X113.24Y-71.86
X113.24Y-74.4
X113.24Y-76.94
X113.24Y-79.48
X113.24Y-82.02
X113.24Y-84.56
X113.24Y-87.1
X114.0Y-113.0
X114.0Y-128.24
X122.3Y-54.08
X122.3Y-59.16
X124.85Y-49.0
X124.85Y-51.54
X124.85Y-54.08
X124.85Y-56.62
X124.85Y-59.16
X124.85Y-61.7
X124.85Y-64.24
X124.85Y-66.78
X124.85Y-69.32
X124.85Y-71.86
X124.85Y-74.4
X124.85Y-76.94
X124.85Y-79.48
X124.85Y-82.02
X124.85Y-84.56
X124.85Y-87.1
X127.39Y-49.0
X127.39Y-51.54
X127.39Y-54.08
X127.39Y-56.62
X127.39Y-59.16
X127.39Y-61.7
X127.39Y-64.24
X127.39Y-66.78
X127.39Y-69.32
X127.39Y-71.86
X127.39Y-74.4
X127.39Y-76.94
X127.39Y-79.48
X127.39Y-82.02
X127.39Y-84.56
X127.39Y-87.1
X129.0Y-131.0
X132.0Y-108.0
X134.85Y-131.0
X143.15Y-131.0
X149.0Y-131.0
X150.0Y-45.0
X150.0Y-47.54
X150.0Y-50.08
X150.0Y-52.62
X150.0Y-64.0
X150.0Y-66.54
X150.0Y-69.08
X150.0Y-71.62
T5
X129.0Y-114.0
X129.0Y-124.16
X135.0Y-114.0
X135.0Y-124.16
T0
M30
