M48
; DRILL file {KiCad (5.1.9)-1} date 12/20/22 17:35:50
; FORMAT={-:-/ absolute / metric / decimal}
; #@! TF.CreationDate,2022-12-20T17:35:50-05:00
; #@! TF.GenerationSoftware,Kicad,Pcbnew,(5.1.9)-1
; #@! TF.FileFunction,Plated,1,2,PTH
FMAT,2
METRIC
T1C0.400
T2C0.800
T3C0.900
T4C1.000
T5C1.100
%
G90
G05
T1
X59.67Y-124.76
X63.56Y-71.05
X65.28Y-68.48
X65.32Y-69.99
X65.33Y-67.24
X72.46Y-60.47
X73.45Y-62.21
X74.5Y-64.28
X75.5Y-65.67
X76.555Y-55.945
X77.34Y-57.7
X102.43Y-117.31
X104.42Y-68.78
X105.22Y-63.1
X106.0Y-75.89
X106.05Y-131.5
X106.88Y-71.02
X112.36Y-91.99
X112.37Y-97.67
X115.21Y-68.04
X115.23Y-55.38
X115.24Y-70.62
X115.27Y-75.64
X134.5Y-66.5
X135.04Y-72.71
X135.86Y-74.28
X136.63Y-70.74
X137.5Y-69.5
X142.1Y-68.08
T2
X62.5Y-78.38
X62.5Y-80.92
X62.5Y-83.46
X62.5Y-86.0
X62.5Y-88.54
X62.5Y-91.08
X62.5Y-93.62
X62.52Y-100.01
X62.52Y-103.01
X62.52Y-106.01
X65.0Y-73.98
X67.5Y-73.98
X70.12Y-78.38
X70.12Y-80.92
X70.12Y-83.46
X70.12Y-86.0
X70.12Y-88.54
X70.12Y-91.08
X70.12Y-93.62
X72.68Y-100.01
X72.68Y-103.01
X72.68Y-106.01
X120.5Y-44.5
X122.26Y-104.78
X123.0Y-44.5
X124.76Y-104.78
X136.72Y-104.79
X139.22Y-104.79
X139.98Y-78.34
X139.98Y-80.88
X139.98Y-83.42
X139.98Y-85.96
X139.98Y-88.5
X139.98Y-91.04
X139.98Y-93.58
X142.55Y-73.95
X145.05Y-73.95
X147.6Y-78.34
X147.6Y-80.88
X147.6Y-83.42
X147.6Y-85.96
X147.6Y-88.5
X147.6Y-91.04
X147.6Y-93.58
T3
X126.47Y-115.55
X126.47Y-118.05
X126.47Y-120.55
X135.12Y-115.5
X135.12Y-118.0
X135.12Y-120.5
T4
X58.65Y-96.84
X62.35Y-57.87
X62.36Y-39.56
X62.44Y-48.715
X64.89Y-57.87
X64.9Y-39.56
X64.98Y-48.715
X65.33Y-112.93
X65.33Y-128.17
X67.43Y-57.87
X67.44Y-39.56
X67.52Y-48.715
X67.87Y-112.93
X67.87Y-128.17
X69.97Y-57.87
X69.98Y-39.56
X70.06Y-48.715
X70.41Y-112.93
X70.41Y-128.17
X72.95Y-112.93
X72.95Y-128.17
X75.49Y-112.93
X75.49Y-128.17
X78.03Y-112.93
X78.03Y-128.17
X80.57Y-112.93
X80.57Y-128.17
X83.11Y-112.93
X83.11Y-128.17
X83.5Y-49.0
X83.5Y-51.54
X83.5Y-54.08
X83.5Y-56.62
X83.5Y-59.16
X83.5Y-61.7
X83.5Y-64.24
X83.5Y-66.78
X83.5Y-69.32
X83.5Y-71.86
X83.5Y-74.4
X83.5Y-76.94
X83.5Y-79.48
X83.5Y-82.02
X83.5Y-84.56
X83.5Y-87.1
X85.65Y-112.93
X85.65Y-128.17
X86.04Y-49.0
X86.04Y-51.54
X86.04Y-54.08
X86.04Y-56.62
X86.04Y-59.16
X86.04Y-61.7
X86.04Y-64.24
X86.04Y-66.78
X86.04Y-69.32
X86.04Y-71.86
X86.04Y-74.4
X86.04Y-76.94
X86.04Y-79.48
X86.04Y-82.02
X86.04Y-84.56
X86.04Y-87.1
X88.19Y-112.93
X88.19Y-128.17
X90.73Y-112.93
X90.73Y-128.17
X93.27Y-112.93
X93.27Y-128.17
X95.81Y-112.93
X95.81Y-128.17
X98.0Y-49.0
X98.0Y-51.54
X98.0Y-54.08
X98.0Y-56.62
X98.0Y-59.16
X98.0Y-61.7
X98.0Y-64.24
X98.0Y-66.78
X98.0Y-69.32
X98.0Y-71.86
X98.0Y-74.4
X98.0Y-76.94
X98.0Y-79.48
X98.0Y-82.02
X98.0Y-84.56
X98.0Y-87.1
X98.35Y-112.93
X98.35Y-128.17
X100.89Y-112.93
X100.89Y-128.17
X111.66Y-129.9
X113.24Y-49.0
X113.24Y-51.54
X113.24Y-54.08
X113.24Y-56.62
X113.24Y-59.16
X113.24Y-61.7
X113.24Y-64.24
X113.24Y-66.78
X113.24Y-69.32
X113.24Y-71.86
X113.24Y-74.4
X113.24Y-76.94
X113.24Y-79.48
X113.24Y-82.02
X113.24Y-84.56
X113.24Y-87.1
X114.2Y-129.9
X117.22Y-104.78
X117.22Y-107.32
X120.21Y-129.87
X122.3Y-54.08
X122.3Y-59.16
X124.85Y-49.0
X124.85Y-51.54
X124.85Y-54.08
X124.85Y-56.62
X124.85Y-59.16
X124.85Y-61.7
X124.85Y-64.24
X124.85Y-66.78
X124.85Y-69.32
X124.85Y-71.86
X124.85Y-74.4
X124.85Y-76.94
X124.85Y-79.48
X124.85Y-82.02
X124.85Y-84.56
X124.85Y-87.1
X127.39Y-49.0
X127.39Y-51.54
X127.39Y-54.08
X127.39Y-56.62
X127.39Y-59.16
X127.39Y-61.7
X127.39Y-64.24
X127.39Y-66.78
X127.39Y-69.32
X127.39Y-71.86
X127.39Y-74.4
X127.39Y-76.94
X127.39Y-79.48
X127.39Y-82.02
X127.39Y-84.56
X127.39Y-87.1
X127.62Y-129.87
X134.14Y-129.87
X140.19Y-48.725
X140.2Y-39.61
X140.2Y-57.84
X141.33Y-129.9
X142.73Y-48.725
X142.74Y-39.61
X142.74Y-57.84
X144.26Y-104.8
X144.26Y-107.34
X145.27Y-48.725
X145.28Y-39.61
X145.28Y-57.84
X147.29Y-129.91
X147.81Y-48.725
X147.82Y-39.61
X147.82Y-57.84
X149.83Y-129.91
T5
X114.24Y-112.88
X114.24Y-123.04
X120.24Y-112.88
X120.24Y-123.04
X141.27Y-112.89
X141.27Y-123.05
X147.28Y-112.83
X147.28Y-122.99
T0
M30
