G04 #@! TF.GenerationSoftware,KiCad,Pcbnew,(5.1.9)-1*
G04 #@! TF.CreationDate,2022-11-18T16:49:04-05:00*
G04 #@! TF.ProjectId,TommyPROM32,546f6d6d-7950-4524-9f4d-33322e6b6963,rev?*
G04 #@! TF.SameCoordinates,Original*
G04 #@! TF.FileFunction,Legend,Top*
G04 #@! TF.FilePolarity,Positive*
%FSLAX46Y46*%
G04 Gerber Fmt 4.6, Leading zero omitted, Abs format (unit mm)*
G04 Created by KiCad (PCBNEW (5.1.9)-1) date 2022-11-18 16:49:04*
%MOMM*%
%LPD*%
G01*
G04 APERTURE LIST*
%ADD10C,0.150000*%
%ADD11C,0.400000*%
%ADD12C,0.300000*%
%ADD13C,0.120000*%
%ADD14C,0.100000*%
%ADD15R,1.700000X1.700000*%
%ADD16O,2.000000X1.440000*%
%ADD17R,2.000000X1.440000*%
%ADD18O,1.600000X1.600000*%
%ADD19R,1.600000X1.600000*%
%ADD20C,1.900000*%
%ADD21R,1.900000X1.900000*%
%ADD22C,1.600000*%
%ADD23O,1.700000X1.700000*%
%ADD24O,2.200000X2.200000*%
%ADD25R,2.200000X2.200000*%
G04 APERTURE END LIST*
D10*
X152547619Y-95166666D02*
X152500000Y-95119047D01*
X152452380Y-95023809D01*
X152452380Y-94785714D01*
X152500000Y-94690476D01*
X152547619Y-94642857D01*
X152642857Y-94595238D01*
X152738095Y-94595238D01*
X152880952Y-94642857D01*
X153452380Y-95214285D01*
X153452380Y-94595238D01*
X152452380Y-93976190D02*
X152452380Y-93880952D01*
X152500000Y-93785714D01*
X152547619Y-93738095D01*
X152642857Y-93690476D01*
X152833333Y-93642857D01*
X153071428Y-93642857D01*
X153261904Y-93690476D01*
X153357142Y-93738095D01*
X153404761Y-93785714D01*
X153452380Y-93880952D01*
X153452380Y-93976190D01*
X153404761Y-94071428D01*
X153357142Y-94119047D01*
X153261904Y-94166666D01*
X153071428Y-94214285D01*
X152833333Y-94214285D01*
X152642857Y-94166666D01*
X152547619Y-94119047D01*
X152500000Y-94071428D01*
X152452380Y-93976190D01*
X152547619Y-93261904D02*
X152500000Y-93214285D01*
X152452380Y-93119047D01*
X152452380Y-92880952D01*
X152500000Y-92785714D01*
X152547619Y-92738095D01*
X152642857Y-92690476D01*
X152738095Y-92690476D01*
X152880952Y-92738095D01*
X153452380Y-93309523D01*
X153452380Y-92690476D01*
X152547619Y-92309523D02*
X152500000Y-92261904D01*
X152452380Y-92166666D01*
X152452380Y-91928571D01*
X152500000Y-91833333D01*
X152547619Y-91785714D01*
X152642857Y-91738095D01*
X152738095Y-91738095D01*
X152880952Y-91785714D01*
X153452380Y-92357142D01*
X153452380Y-91738095D01*
X152785714Y-90642857D02*
X153452380Y-90404761D01*
X152785714Y-90166666D01*
X153452380Y-89261904D02*
X153452380Y-89833333D01*
X153452380Y-89547619D02*
X152452380Y-89547619D01*
X152595238Y-89642857D01*
X152690476Y-89738095D01*
X152738095Y-89833333D01*
X153357142Y-88833333D02*
X153404761Y-88785714D01*
X153452380Y-88833333D01*
X153404761Y-88880952D01*
X153357142Y-88833333D01*
X153452380Y-88833333D01*
X152452380Y-88166666D02*
X152452380Y-88071428D01*
X152500000Y-87976190D01*
X152547619Y-87928571D01*
X152642857Y-87880952D01*
X152833333Y-87833333D01*
X153071428Y-87833333D01*
X153261904Y-87880952D01*
X153357142Y-87928571D01*
X153404761Y-87976190D01*
X153452380Y-88071428D01*
X153452380Y-88166666D01*
X153404761Y-88261904D01*
X153357142Y-88309523D01*
X153261904Y-88357142D01*
X153071428Y-88404761D01*
X152833333Y-88404761D01*
X152642857Y-88357142D01*
X152547619Y-88309523D01*
X152500000Y-88261904D01*
X152452380Y-88166666D01*
X79190476Y-104285714D02*
X79190476Y-105095238D01*
X79142857Y-105190476D01*
X79095238Y-105238095D01*
X79000000Y-105285714D01*
X78857142Y-105285714D01*
X78761904Y-105238095D01*
X79190476Y-104904761D02*
X79095238Y-104952380D01*
X78904761Y-104952380D01*
X78809523Y-104904761D01*
X78761904Y-104857142D01*
X78714285Y-104761904D01*
X78714285Y-104476190D01*
X78761904Y-104380952D01*
X78809523Y-104333333D01*
X78904761Y-104285714D01*
X79095238Y-104285714D01*
X79190476Y-104333333D01*
X79666666Y-104952380D02*
X79666666Y-104285714D01*
X79666666Y-103952380D02*
X79619047Y-104000000D01*
X79666666Y-104047619D01*
X79714285Y-104000000D01*
X79666666Y-103952380D01*
X79666666Y-104047619D01*
X80000000Y-104285714D02*
X80380952Y-104285714D01*
X80142857Y-103952380D02*
X80142857Y-104809523D01*
X80190476Y-104904761D01*
X80285714Y-104952380D01*
X80380952Y-104952380D01*
X80714285Y-104952380D02*
X80714285Y-103952380D01*
X81142857Y-104952380D02*
X81142857Y-104428571D01*
X81095238Y-104333333D01*
X81000000Y-104285714D01*
X80857142Y-104285714D01*
X80761904Y-104333333D01*
X80714285Y-104380952D01*
X82047619Y-104285714D02*
X82047619Y-104952380D01*
X81619047Y-104285714D02*
X81619047Y-104809523D01*
X81666666Y-104904761D01*
X81761904Y-104952380D01*
X81904761Y-104952380D01*
X82000000Y-104904761D01*
X82047619Y-104857142D01*
X82523809Y-104952380D02*
X82523809Y-103952380D01*
X82523809Y-104333333D02*
X82619047Y-104285714D01*
X82809523Y-104285714D01*
X82904761Y-104333333D01*
X82952380Y-104380952D01*
X83000000Y-104476190D01*
X83000000Y-104761904D01*
X82952380Y-104857142D01*
X82904761Y-104904761D01*
X82809523Y-104952380D01*
X82619047Y-104952380D01*
X82523809Y-104904761D01*
X83428571Y-104857142D02*
X83476190Y-104904761D01*
X83428571Y-104952380D01*
X83380952Y-104904761D01*
X83428571Y-104857142D01*
X83428571Y-104952380D01*
X84333333Y-104904761D02*
X84238095Y-104952380D01*
X84047619Y-104952380D01*
X83952380Y-104904761D01*
X83904761Y-104857142D01*
X83857142Y-104761904D01*
X83857142Y-104476190D01*
X83904761Y-104380952D01*
X83952380Y-104333333D01*
X84047619Y-104285714D01*
X84238095Y-104285714D01*
X84333333Y-104333333D01*
X84904761Y-104952380D02*
X84809523Y-104904761D01*
X84761904Y-104857142D01*
X84714285Y-104761904D01*
X84714285Y-104476190D01*
X84761904Y-104380952D01*
X84809523Y-104333333D01*
X84904761Y-104285714D01*
X85047619Y-104285714D01*
X85142857Y-104333333D01*
X85190476Y-104380952D01*
X85238095Y-104476190D01*
X85238095Y-104761904D01*
X85190476Y-104857142D01*
X85142857Y-104904761D01*
X85047619Y-104952380D01*
X84904761Y-104952380D01*
X85666666Y-104952380D02*
X85666666Y-104285714D01*
X85666666Y-104380952D02*
X85714285Y-104333333D01*
X85809523Y-104285714D01*
X85952380Y-104285714D01*
X86047619Y-104333333D01*
X86095238Y-104428571D01*
X86095238Y-104952380D01*
X86095238Y-104428571D02*
X86142857Y-104333333D01*
X86238095Y-104285714D01*
X86380952Y-104285714D01*
X86476190Y-104333333D01*
X86523809Y-104428571D01*
X86523809Y-104952380D01*
X87714285Y-103904761D02*
X86857142Y-105190476D01*
X87904761Y-103952380D02*
X88476190Y-103952380D01*
X88190476Y-104952380D02*
X88190476Y-103952380D01*
X88952380Y-104952380D02*
X88857142Y-104904761D01*
X88809523Y-104857142D01*
X88761904Y-104761904D01*
X88761904Y-104476190D01*
X88809523Y-104380952D01*
X88857142Y-104333333D01*
X88952380Y-104285714D01*
X89095238Y-104285714D01*
X89190476Y-104333333D01*
X89238095Y-104380952D01*
X89285714Y-104476190D01*
X89285714Y-104761904D01*
X89238095Y-104857142D01*
X89190476Y-104904761D01*
X89095238Y-104952380D01*
X88952380Y-104952380D01*
X89714285Y-104952380D02*
X89714285Y-104285714D01*
X89714285Y-104380952D02*
X89761904Y-104333333D01*
X89857142Y-104285714D01*
X90000000Y-104285714D01*
X90095238Y-104333333D01*
X90142857Y-104428571D01*
X90142857Y-104952380D01*
X90142857Y-104428571D02*
X90190476Y-104333333D01*
X90285714Y-104285714D01*
X90428571Y-104285714D01*
X90523809Y-104333333D01*
X90571428Y-104428571D01*
X90571428Y-104952380D01*
X91047619Y-104952380D02*
X91047619Y-103952380D01*
X91619047Y-104952380D01*
X91619047Y-103952380D01*
X92095238Y-104952380D02*
X92095238Y-104285714D01*
X92095238Y-103952380D02*
X92047619Y-104000000D01*
X92095238Y-104047619D01*
X92142857Y-104000000D01*
X92095238Y-103952380D01*
X92095238Y-104047619D01*
X92523809Y-104904761D02*
X92619047Y-104952380D01*
X92809523Y-104952380D01*
X92904761Y-104904761D01*
X92952380Y-104809523D01*
X92952380Y-104761904D01*
X92904761Y-104666666D01*
X92809523Y-104619047D01*
X92666666Y-104619047D01*
X92571428Y-104571428D01*
X92523809Y-104476190D01*
X92523809Y-104428571D01*
X92571428Y-104333333D01*
X92666666Y-104285714D01*
X92809523Y-104285714D01*
X92904761Y-104333333D01*
X93380952Y-104952380D02*
X93380952Y-103952380D01*
X93380952Y-104333333D02*
X93476190Y-104285714D01*
X93666666Y-104285714D01*
X93761904Y-104333333D01*
X93809523Y-104380952D01*
X93857142Y-104476190D01*
X93857142Y-104761904D01*
X93809523Y-104857142D01*
X93761904Y-104904761D01*
X93666666Y-104952380D01*
X93476190Y-104952380D01*
X93380952Y-104904761D01*
X94666666Y-104904761D02*
X94571428Y-104952380D01*
X94380952Y-104952380D01*
X94285714Y-104904761D01*
X94238095Y-104809523D01*
X94238095Y-104428571D01*
X94285714Y-104333333D01*
X94380952Y-104285714D01*
X94571428Y-104285714D01*
X94666666Y-104333333D01*
X94714285Y-104428571D01*
X94714285Y-104523809D01*
X94238095Y-104619047D01*
X95000000Y-104285714D02*
X95380952Y-104285714D01*
X95142857Y-103952380D02*
X95142857Y-104809523D01*
X95190476Y-104904761D01*
X95285714Y-104952380D01*
X95380952Y-104952380D01*
D11*
X78498095Y-100130952D02*
X79926666Y-100130952D01*
X79212380Y-102630952D02*
X79212380Y-100130952D01*
X81117142Y-102630952D02*
X80879047Y-102511904D01*
X80760000Y-102392857D01*
X80640952Y-102154761D01*
X80640952Y-101440476D01*
X80760000Y-101202380D01*
X80879047Y-101083333D01*
X81117142Y-100964285D01*
X81474285Y-100964285D01*
X81712380Y-101083333D01*
X81831428Y-101202380D01*
X81950476Y-101440476D01*
X81950476Y-102154761D01*
X81831428Y-102392857D01*
X81712380Y-102511904D01*
X81474285Y-102630952D01*
X81117142Y-102630952D01*
X83021904Y-102630952D02*
X83021904Y-100964285D01*
X83021904Y-101202380D02*
X83140952Y-101083333D01*
X83379047Y-100964285D01*
X83736190Y-100964285D01*
X83974285Y-101083333D01*
X84093333Y-101321428D01*
X84093333Y-102630952D01*
X84093333Y-101321428D02*
X84212380Y-101083333D01*
X84450476Y-100964285D01*
X84807619Y-100964285D01*
X85045714Y-101083333D01*
X85164761Y-101321428D01*
X85164761Y-102630952D01*
X86355238Y-102630952D02*
X86355238Y-100964285D01*
X86355238Y-101202380D02*
X86474285Y-101083333D01*
X86712380Y-100964285D01*
X87069523Y-100964285D01*
X87307619Y-101083333D01*
X87426666Y-101321428D01*
X87426666Y-102630952D01*
X87426666Y-101321428D02*
X87545714Y-101083333D01*
X87783809Y-100964285D01*
X88140952Y-100964285D01*
X88379047Y-101083333D01*
X88498095Y-101321428D01*
X88498095Y-102630952D01*
X89450476Y-100964285D02*
X90045714Y-102630952D01*
X90640952Y-100964285D02*
X90045714Y-102630952D01*
X89807619Y-103226190D01*
X89688571Y-103345238D01*
X89450476Y-103464285D01*
X91593333Y-102630952D02*
X91593333Y-100130952D01*
X92545714Y-100130952D01*
X92783809Y-100250000D01*
X92902857Y-100369047D01*
X93021904Y-100607142D01*
X93021904Y-100964285D01*
X92902857Y-101202380D01*
X92783809Y-101321428D01*
X92545714Y-101440476D01*
X91593333Y-101440476D01*
X95521904Y-102630952D02*
X94688571Y-101440476D01*
X94093333Y-102630952D02*
X94093333Y-100130952D01*
X95045714Y-100130952D01*
X95283809Y-100250000D01*
X95402857Y-100369047D01*
X95521904Y-100607142D01*
X95521904Y-100964285D01*
X95402857Y-101202380D01*
X95283809Y-101321428D01*
X95045714Y-101440476D01*
X94093333Y-101440476D01*
X97069523Y-100130952D02*
X97545714Y-100130952D01*
X97783809Y-100250000D01*
X98021904Y-100488095D01*
X98140952Y-100964285D01*
X98140952Y-101797619D01*
X98021904Y-102273809D01*
X97783809Y-102511904D01*
X97545714Y-102630952D01*
X97069523Y-102630952D01*
X96831428Y-102511904D01*
X96593333Y-102273809D01*
X96474285Y-101797619D01*
X96474285Y-100964285D01*
X96593333Y-100488095D01*
X96831428Y-100250000D01*
X97069523Y-100130952D01*
X99212380Y-102630952D02*
X99212380Y-100130952D01*
X100045714Y-101916666D01*
X100879047Y-100130952D01*
X100879047Y-102630952D01*
X101831428Y-100130952D02*
X103379047Y-100130952D01*
X102545714Y-101083333D01*
X102902857Y-101083333D01*
X103140952Y-101202380D01*
X103260000Y-101321428D01*
X103379047Y-101559523D01*
X103379047Y-102154761D01*
X103260000Y-102392857D01*
X103140952Y-102511904D01*
X102902857Y-102630952D01*
X102188571Y-102630952D01*
X101950476Y-102511904D01*
X101831428Y-102392857D01*
X104331428Y-100369047D02*
X104450476Y-100250000D01*
X104688571Y-100130952D01*
X105283809Y-100130952D01*
X105521904Y-100250000D01*
X105640952Y-100369047D01*
X105760000Y-100607142D01*
X105760000Y-100845238D01*
X105640952Y-101202380D01*
X104212380Y-102630952D01*
X105760000Y-102630952D01*
D12*
X144000000Y-106903571D02*
X144500000Y-108403571D01*
X145000000Y-106903571D01*
X145500000Y-108403571D02*
X145500000Y-106903571D01*
X146071428Y-106903571D01*
X146214285Y-106975000D01*
X146285714Y-107046428D01*
X146357142Y-107189285D01*
X146357142Y-107403571D01*
X146285714Y-107546428D01*
X146214285Y-107617857D01*
X146071428Y-107689285D01*
X145500000Y-107689285D01*
X147000000Y-108403571D02*
X147000000Y-106903571D01*
X147571428Y-106903571D01*
X147714285Y-106975000D01*
X147785714Y-107046428D01*
X147857142Y-107189285D01*
X147857142Y-107403571D01*
X147785714Y-107546428D01*
X147714285Y-107617857D01*
X147571428Y-107689285D01*
X147000000Y-107689285D01*
X142928571Y-110882142D02*
X143071428Y-110953571D01*
X143357142Y-110953571D01*
X143500000Y-110882142D01*
X143571428Y-110739285D01*
X143571428Y-110667857D01*
X143500000Y-110525000D01*
X143357142Y-110453571D01*
X143142857Y-110453571D01*
X143000000Y-110382142D01*
X142928571Y-110239285D01*
X142928571Y-110167857D01*
X143000000Y-110025000D01*
X143142857Y-109953571D01*
X143357142Y-109953571D01*
X143500000Y-110025000D01*
X144785714Y-110882142D02*
X144642857Y-110953571D01*
X144357142Y-110953571D01*
X144214285Y-110882142D01*
X144142857Y-110739285D01*
X144142857Y-110167857D01*
X144214285Y-110025000D01*
X144357142Y-109953571D01*
X144642857Y-109953571D01*
X144785714Y-110025000D01*
X144857142Y-110167857D01*
X144857142Y-110310714D01*
X144142857Y-110453571D01*
X145714285Y-110953571D02*
X145571428Y-110882142D01*
X145500000Y-110739285D01*
X145500000Y-109453571D01*
X146857142Y-110882142D02*
X146714285Y-110953571D01*
X146428571Y-110953571D01*
X146285714Y-110882142D01*
X146214285Y-110739285D01*
X146214285Y-110167857D01*
X146285714Y-110025000D01*
X146428571Y-109953571D01*
X146714285Y-109953571D01*
X146857142Y-110025000D01*
X146928571Y-110167857D01*
X146928571Y-110310714D01*
X146214285Y-110453571D01*
X148214285Y-110882142D02*
X148071428Y-110953571D01*
X147785714Y-110953571D01*
X147642857Y-110882142D01*
X147571428Y-110810714D01*
X147500000Y-110667857D01*
X147500000Y-110239285D01*
X147571428Y-110096428D01*
X147642857Y-110025000D01*
X147785714Y-109953571D01*
X148071428Y-109953571D01*
X148214285Y-110025000D01*
X148642857Y-109953571D02*
X149214285Y-109953571D01*
X148857142Y-109453571D02*
X148857142Y-110739285D01*
X148928571Y-110882142D01*
X149071428Y-110953571D01*
X149214285Y-110953571D01*
X128392857Y-126678571D02*
X128892857Y-128178571D01*
X129392857Y-126678571D01*
X129892857Y-128178571D02*
X129892857Y-126678571D01*
X130464285Y-126678571D01*
X130607142Y-126750000D01*
X130678571Y-126821428D01*
X130750000Y-126964285D01*
X130750000Y-127178571D01*
X130678571Y-127321428D01*
X130607142Y-127392857D01*
X130464285Y-127464285D01*
X129892857Y-127464285D01*
X131392857Y-128178571D02*
X131392857Y-126678571D01*
X131964285Y-126678571D01*
X132107142Y-126750000D01*
X132178571Y-126821428D01*
X132250000Y-126964285D01*
X132250000Y-127178571D01*
X132178571Y-127321428D01*
X132107142Y-127392857D01*
X131964285Y-127464285D01*
X131392857Y-127464285D01*
X134035714Y-128178571D02*
X134035714Y-127178571D01*
X134035714Y-126678571D02*
X133964285Y-126750000D01*
X134035714Y-126821428D01*
X134107142Y-126750000D01*
X134035714Y-126678571D01*
X134035714Y-126821428D01*
X134750000Y-127178571D02*
X134750000Y-128178571D01*
X134750000Y-127321428D02*
X134821428Y-127250000D01*
X134964285Y-127178571D01*
X135178571Y-127178571D01*
X135321428Y-127250000D01*
X135392857Y-127392857D01*
X135392857Y-128178571D01*
D10*
X78831071Y-49166666D02*
X79307261Y-49166666D01*
X78735833Y-49452380D02*
X79069166Y-48452380D01*
X79402500Y-49452380D01*
X80259642Y-49452380D02*
X79688214Y-49452380D01*
X79973928Y-49452380D02*
X79973928Y-48452380D01*
X79878690Y-48595238D01*
X79783452Y-48690476D01*
X79688214Y-48738095D01*
X80831071Y-48880952D02*
X80735833Y-48833333D01*
X80688214Y-48785714D01*
X80640595Y-48690476D01*
X80640595Y-48642857D01*
X80688214Y-48547619D01*
X80735833Y-48500000D01*
X80831071Y-48452380D01*
X81021547Y-48452380D01*
X81116785Y-48500000D01*
X81164404Y-48547619D01*
X81212023Y-48642857D01*
X81212023Y-48690476D01*
X81164404Y-48785714D01*
X81116785Y-48833333D01*
X81021547Y-48880952D01*
X80831071Y-48880952D01*
X80735833Y-48928571D01*
X80688214Y-48976190D01*
X80640595Y-49071428D01*
X80640595Y-49261904D01*
X80688214Y-49357142D01*
X80735833Y-49404761D01*
X80831071Y-49452380D01*
X81021547Y-49452380D01*
X81116785Y-49404761D01*
X81164404Y-49357142D01*
X81212023Y-49261904D01*
X81212023Y-49071428D01*
X81164404Y-48976190D01*
X81116785Y-48928571D01*
X81021547Y-48880952D01*
X78831071Y-51666666D02*
X79307261Y-51666666D01*
X78735833Y-51952380D02*
X79069166Y-50952380D01*
X79402500Y-51952380D01*
X80259642Y-51952380D02*
X79688214Y-51952380D01*
X79973928Y-51952380D02*
X79973928Y-50952380D01*
X79878690Y-51095238D01*
X79783452Y-51190476D01*
X79688214Y-51238095D01*
X81116785Y-50952380D02*
X80926309Y-50952380D01*
X80831071Y-51000000D01*
X80783452Y-51047619D01*
X80688214Y-51190476D01*
X80640595Y-51380952D01*
X80640595Y-51761904D01*
X80688214Y-51857142D01*
X80735833Y-51904761D01*
X80831071Y-51952380D01*
X81021547Y-51952380D01*
X81116785Y-51904761D01*
X81164404Y-51857142D01*
X81212023Y-51761904D01*
X81212023Y-51523809D01*
X81164404Y-51428571D01*
X81116785Y-51380952D01*
X81021547Y-51333333D01*
X80831071Y-51333333D01*
X80735833Y-51380952D01*
X80688214Y-51428571D01*
X80640595Y-51523809D01*
X78831071Y-54166666D02*
X79307261Y-54166666D01*
X78735833Y-54452380D02*
X79069166Y-53452380D01*
X79402500Y-54452380D01*
X80259642Y-54452380D02*
X79688214Y-54452380D01*
X79973928Y-54452380D02*
X79973928Y-53452380D01*
X79878690Y-53595238D01*
X79783452Y-53690476D01*
X79688214Y-53738095D01*
X81164404Y-53452380D02*
X80688214Y-53452380D01*
X80640595Y-53928571D01*
X80688214Y-53880952D01*
X80783452Y-53833333D01*
X81021547Y-53833333D01*
X81116785Y-53880952D01*
X81164404Y-53928571D01*
X81212023Y-54023809D01*
X81212023Y-54261904D01*
X81164404Y-54357142D01*
X81116785Y-54404761D01*
X81021547Y-54452380D01*
X80783452Y-54452380D01*
X80688214Y-54404761D01*
X80640595Y-54357142D01*
X78831071Y-56666666D02*
X79307261Y-56666666D01*
X78735833Y-56952380D02*
X79069166Y-55952380D01*
X79402500Y-56952380D01*
X80259642Y-56952380D02*
X79688214Y-56952380D01*
X79973928Y-56952380D02*
X79973928Y-55952380D01*
X79878690Y-56095238D01*
X79783452Y-56190476D01*
X79688214Y-56238095D01*
X80640595Y-56047619D02*
X80688214Y-56000000D01*
X80783452Y-55952380D01*
X81021547Y-55952380D01*
X81116785Y-56000000D01*
X81164404Y-56047619D01*
X81212023Y-56142857D01*
X81212023Y-56238095D01*
X81164404Y-56380952D01*
X80592976Y-56952380D01*
X81212023Y-56952380D01*
X79783452Y-59666666D02*
X80259642Y-59666666D01*
X79688214Y-59952380D02*
X80021547Y-58952380D01*
X80354880Y-59952380D01*
X80592976Y-58952380D02*
X81259642Y-58952380D01*
X80831071Y-59952380D01*
X79783452Y-62166666D02*
X80259642Y-62166666D01*
X79688214Y-62452380D02*
X80021547Y-61452380D01*
X80354880Y-62452380D01*
X81116785Y-61452380D02*
X80926309Y-61452380D01*
X80831071Y-61500000D01*
X80783452Y-61547619D01*
X80688214Y-61690476D01*
X80640595Y-61880952D01*
X80640595Y-62261904D01*
X80688214Y-62357142D01*
X80735833Y-62404761D01*
X80831071Y-62452380D01*
X81021547Y-62452380D01*
X81116785Y-62404761D01*
X81164404Y-62357142D01*
X81212023Y-62261904D01*
X81212023Y-62023809D01*
X81164404Y-61928571D01*
X81116785Y-61880952D01*
X81021547Y-61833333D01*
X80831071Y-61833333D01*
X80735833Y-61880952D01*
X80688214Y-61928571D01*
X80640595Y-62023809D01*
X79783452Y-64666666D02*
X80259642Y-64666666D01*
X79688214Y-64952380D02*
X80021547Y-63952380D01*
X80354880Y-64952380D01*
X81164404Y-63952380D02*
X80688214Y-63952380D01*
X80640595Y-64428571D01*
X80688214Y-64380952D01*
X80783452Y-64333333D01*
X81021547Y-64333333D01*
X81116785Y-64380952D01*
X81164404Y-64428571D01*
X81212023Y-64523809D01*
X81212023Y-64761904D01*
X81164404Y-64857142D01*
X81116785Y-64904761D01*
X81021547Y-64952380D01*
X80783452Y-64952380D01*
X80688214Y-64904761D01*
X80640595Y-64857142D01*
X79783452Y-67166666D02*
X80259642Y-67166666D01*
X79688214Y-67452380D02*
X80021547Y-66452380D01*
X80354880Y-67452380D01*
X81116785Y-66785714D02*
X81116785Y-67452380D01*
X80878690Y-66404761D02*
X80640595Y-67119047D01*
X81259642Y-67119047D01*
X79783452Y-69666666D02*
X80259642Y-69666666D01*
X79688214Y-69952380D02*
X80021547Y-68952380D01*
X80354880Y-69952380D01*
X80592976Y-68952380D02*
X81212023Y-68952380D01*
X80878690Y-69333333D01*
X81021547Y-69333333D01*
X81116785Y-69380952D01*
X81164404Y-69428571D01*
X81212023Y-69523809D01*
X81212023Y-69761904D01*
X81164404Y-69857142D01*
X81116785Y-69904761D01*
X81021547Y-69952380D01*
X80735833Y-69952380D01*
X80640595Y-69904761D01*
X80592976Y-69857142D01*
X79783452Y-72166666D02*
X80259642Y-72166666D01*
X79688214Y-72452380D02*
X80021547Y-71452380D01*
X80354880Y-72452380D01*
X80640595Y-71547619D02*
X80688214Y-71500000D01*
X80783452Y-71452380D01*
X81021547Y-71452380D01*
X81116785Y-71500000D01*
X81164404Y-71547619D01*
X81212023Y-71642857D01*
X81212023Y-71738095D01*
X81164404Y-71880952D01*
X80592976Y-72452380D01*
X81212023Y-72452380D01*
X79783452Y-74666666D02*
X80259642Y-74666666D01*
X79688214Y-74952380D02*
X80021547Y-73952380D01*
X80354880Y-74952380D01*
X81212023Y-74952380D02*
X80640595Y-74952380D01*
X80926309Y-74952380D02*
X80926309Y-73952380D01*
X80831071Y-74095238D01*
X80735833Y-74190476D01*
X80640595Y-74238095D01*
X79783452Y-77166666D02*
X80259642Y-77166666D01*
X79688214Y-77452380D02*
X80021547Y-76452380D01*
X80354880Y-77452380D01*
X80878690Y-76452380D02*
X80973928Y-76452380D01*
X81069166Y-76500000D01*
X81116785Y-76547619D01*
X81164404Y-76642857D01*
X81212023Y-76833333D01*
X81212023Y-77071428D01*
X81164404Y-77261904D01*
X81116785Y-77357142D01*
X81069166Y-77404761D01*
X80973928Y-77452380D01*
X80878690Y-77452380D01*
X80783452Y-77404761D01*
X80735833Y-77357142D01*
X80688214Y-77261904D01*
X80640595Y-77071428D01*
X80640595Y-76833333D01*
X80688214Y-76642857D01*
X80735833Y-76547619D01*
X80783452Y-76500000D01*
X80878690Y-76452380D01*
X78640595Y-79952380D02*
X78640595Y-78952380D01*
X78878690Y-78952380D01*
X79021547Y-79000000D01*
X79116785Y-79095238D01*
X79164404Y-79190476D01*
X79212023Y-79380952D01*
X79212023Y-79523809D01*
X79164404Y-79714285D01*
X79116785Y-79809523D01*
X79021547Y-79904761D01*
X78878690Y-79952380D01*
X78640595Y-79952380D01*
X80307261Y-80047619D02*
X80212023Y-80000000D01*
X80116785Y-79904761D01*
X79973928Y-79761904D01*
X79878690Y-79714285D01*
X79783452Y-79714285D01*
X79831071Y-79952380D02*
X79735833Y-79904761D01*
X79640595Y-79809523D01*
X79592976Y-79619047D01*
X79592976Y-79285714D01*
X79640595Y-79095238D01*
X79735833Y-79000000D01*
X79831071Y-78952380D01*
X80021547Y-78952380D01*
X80116785Y-79000000D01*
X80212023Y-79095238D01*
X80259642Y-79285714D01*
X80259642Y-79619047D01*
X80212023Y-79809523D01*
X80116785Y-79904761D01*
X80021547Y-79952380D01*
X79831071Y-79952380D01*
X80878690Y-78952380D02*
X80973928Y-78952380D01*
X81069166Y-79000000D01*
X81116785Y-79047619D01*
X81164404Y-79142857D01*
X81212023Y-79333333D01*
X81212023Y-79571428D01*
X81164404Y-79761904D01*
X81116785Y-79857142D01*
X81069166Y-79904761D01*
X80973928Y-79952380D01*
X80878690Y-79952380D01*
X80783452Y-79904761D01*
X80735833Y-79857142D01*
X80688214Y-79761904D01*
X80640595Y-79571428D01*
X80640595Y-79333333D01*
X80688214Y-79142857D01*
X80735833Y-79047619D01*
X80783452Y-79000000D01*
X80878690Y-78952380D01*
X78640595Y-82452380D02*
X78640595Y-81452380D01*
X78878690Y-81452380D01*
X79021547Y-81500000D01*
X79116785Y-81595238D01*
X79164404Y-81690476D01*
X79212023Y-81880952D01*
X79212023Y-82023809D01*
X79164404Y-82214285D01*
X79116785Y-82309523D01*
X79021547Y-82404761D01*
X78878690Y-82452380D01*
X78640595Y-82452380D01*
X80307261Y-82547619D02*
X80212023Y-82500000D01*
X80116785Y-82404761D01*
X79973928Y-82261904D01*
X79878690Y-82214285D01*
X79783452Y-82214285D01*
X79831071Y-82452380D02*
X79735833Y-82404761D01*
X79640595Y-82309523D01*
X79592976Y-82119047D01*
X79592976Y-81785714D01*
X79640595Y-81595238D01*
X79735833Y-81500000D01*
X79831071Y-81452380D01*
X80021547Y-81452380D01*
X80116785Y-81500000D01*
X80212023Y-81595238D01*
X80259642Y-81785714D01*
X80259642Y-82119047D01*
X80212023Y-82309523D01*
X80116785Y-82404761D01*
X80021547Y-82452380D01*
X79831071Y-82452380D01*
X81212023Y-82452380D02*
X80640595Y-82452380D01*
X80926309Y-82452380D02*
X80926309Y-81452380D01*
X80831071Y-81595238D01*
X80735833Y-81690476D01*
X80640595Y-81738095D01*
X78640595Y-84952380D02*
X78640595Y-83952380D01*
X78878690Y-83952380D01*
X79021547Y-84000000D01*
X79116785Y-84095238D01*
X79164404Y-84190476D01*
X79212023Y-84380952D01*
X79212023Y-84523809D01*
X79164404Y-84714285D01*
X79116785Y-84809523D01*
X79021547Y-84904761D01*
X78878690Y-84952380D01*
X78640595Y-84952380D01*
X80307261Y-85047619D02*
X80212023Y-85000000D01*
X80116785Y-84904761D01*
X79973928Y-84761904D01*
X79878690Y-84714285D01*
X79783452Y-84714285D01*
X79831071Y-84952380D02*
X79735833Y-84904761D01*
X79640595Y-84809523D01*
X79592976Y-84619047D01*
X79592976Y-84285714D01*
X79640595Y-84095238D01*
X79735833Y-84000000D01*
X79831071Y-83952380D01*
X80021547Y-83952380D01*
X80116785Y-84000000D01*
X80212023Y-84095238D01*
X80259642Y-84285714D01*
X80259642Y-84619047D01*
X80212023Y-84809523D01*
X80116785Y-84904761D01*
X80021547Y-84952380D01*
X79831071Y-84952380D01*
X80640595Y-84047619D02*
X80688214Y-84000000D01*
X80783452Y-83952380D01*
X81021547Y-83952380D01*
X81116785Y-84000000D01*
X81164404Y-84047619D01*
X81212023Y-84142857D01*
X81212023Y-84238095D01*
X81164404Y-84380952D01*
X80592976Y-84952380D01*
X81212023Y-84952380D01*
X79116785Y-86500000D02*
X79021547Y-86452380D01*
X78878690Y-86452380D01*
X78735833Y-86500000D01*
X78640595Y-86595238D01*
X78592976Y-86690476D01*
X78545357Y-86880952D01*
X78545357Y-87023809D01*
X78592976Y-87214285D01*
X78640595Y-87309523D01*
X78735833Y-87404761D01*
X78878690Y-87452380D01*
X78973928Y-87452380D01*
X79116785Y-87404761D01*
X79164404Y-87357142D01*
X79164404Y-87023809D01*
X78973928Y-87023809D01*
X79592976Y-87452380D02*
X79592976Y-86452380D01*
X80164404Y-87452380D01*
X80164404Y-86452380D01*
X80640595Y-87452380D02*
X80640595Y-86452380D01*
X80878690Y-86452380D01*
X81021547Y-86500000D01*
X81116785Y-86595238D01*
X81164404Y-86690476D01*
X81212023Y-86880952D01*
X81212023Y-87023809D01*
X81164404Y-87214285D01*
X81116785Y-87309523D01*
X81021547Y-87404761D01*
X80878690Y-87452380D01*
X80640595Y-87452380D01*
X129835595Y-79952380D02*
X129835595Y-78952380D01*
X130073690Y-78952380D01*
X130216547Y-79000000D01*
X130311785Y-79095238D01*
X130359404Y-79190476D01*
X130407023Y-79380952D01*
X130407023Y-79523809D01*
X130359404Y-79714285D01*
X130311785Y-79809523D01*
X130216547Y-79904761D01*
X130073690Y-79952380D01*
X129835595Y-79952380D01*
X131502261Y-80047619D02*
X131407023Y-80000000D01*
X131311785Y-79904761D01*
X131168928Y-79761904D01*
X131073690Y-79714285D01*
X130978452Y-79714285D01*
X131026071Y-79952380D02*
X130930833Y-79904761D01*
X130835595Y-79809523D01*
X130787976Y-79619047D01*
X130787976Y-79285714D01*
X130835595Y-79095238D01*
X130930833Y-79000000D01*
X131026071Y-78952380D01*
X131216547Y-78952380D01*
X131311785Y-79000000D01*
X131407023Y-79095238D01*
X131454642Y-79285714D01*
X131454642Y-79619047D01*
X131407023Y-79809523D01*
X131311785Y-79904761D01*
X131216547Y-79952380D01*
X131026071Y-79952380D01*
X132311785Y-78952380D02*
X132121309Y-78952380D01*
X132026071Y-79000000D01*
X131978452Y-79047619D01*
X131883214Y-79190476D01*
X131835595Y-79380952D01*
X131835595Y-79761904D01*
X131883214Y-79857142D01*
X131930833Y-79904761D01*
X132026071Y-79952380D01*
X132216547Y-79952380D01*
X132311785Y-79904761D01*
X132359404Y-79857142D01*
X132407023Y-79761904D01*
X132407023Y-79523809D01*
X132359404Y-79428571D01*
X132311785Y-79380952D01*
X132216547Y-79333333D01*
X132026071Y-79333333D01*
X131930833Y-79380952D01*
X131883214Y-79428571D01*
X131835595Y-79523809D01*
X129835595Y-82452380D02*
X129835595Y-81452380D01*
X130073690Y-81452380D01*
X130216547Y-81500000D01*
X130311785Y-81595238D01*
X130359404Y-81690476D01*
X130407023Y-81880952D01*
X130407023Y-82023809D01*
X130359404Y-82214285D01*
X130311785Y-82309523D01*
X130216547Y-82404761D01*
X130073690Y-82452380D01*
X129835595Y-82452380D01*
X131502261Y-82547619D02*
X131407023Y-82500000D01*
X131311785Y-82404761D01*
X131168928Y-82261904D01*
X131073690Y-82214285D01*
X130978452Y-82214285D01*
X131026071Y-82452380D02*
X130930833Y-82404761D01*
X130835595Y-82309523D01*
X130787976Y-82119047D01*
X130787976Y-81785714D01*
X130835595Y-81595238D01*
X130930833Y-81500000D01*
X131026071Y-81452380D01*
X131216547Y-81452380D01*
X131311785Y-81500000D01*
X131407023Y-81595238D01*
X131454642Y-81785714D01*
X131454642Y-82119047D01*
X131407023Y-82309523D01*
X131311785Y-82404761D01*
X131216547Y-82452380D01*
X131026071Y-82452380D01*
X132359404Y-81452380D02*
X131883214Y-81452380D01*
X131835595Y-81928571D01*
X131883214Y-81880952D01*
X131978452Y-81833333D01*
X132216547Y-81833333D01*
X132311785Y-81880952D01*
X132359404Y-81928571D01*
X132407023Y-82023809D01*
X132407023Y-82261904D01*
X132359404Y-82357142D01*
X132311785Y-82404761D01*
X132216547Y-82452380D01*
X131978452Y-82452380D01*
X131883214Y-82404761D01*
X131835595Y-82357142D01*
X129835595Y-84952380D02*
X129835595Y-83952380D01*
X130073690Y-83952380D01*
X130216547Y-84000000D01*
X130311785Y-84095238D01*
X130359404Y-84190476D01*
X130407023Y-84380952D01*
X130407023Y-84523809D01*
X130359404Y-84714285D01*
X130311785Y-84809523D01*
X130216547Y-84904761D01*
X130073690Y-84952380D01*
X129835595Y-84952380D01*
X131502261Y-85047619D02*
X131407023Y-85000000D01*
X131311785Y-84904761D01*
X131168928Y-84761904D01*
X131073690Y-84714285D01*
X130978452Y-84714285D01*
X131026071Y-84952380D02*
X130930833Y-84904761D01*
X130835595Y-84809523D01*
X130787976Y-84619047D01*
X130787976Y-84285714D01*
X130835595Y-84095238D01*
X130930833Y-84000000D01*
X131026071Y-83952380D01*
X131216547Y-83952380D01*
X131311785Y-84000000D01*
X131407023Y-84095238D01*
X131454642Y-84285714D01*
X131454642Y-84619047D01*
X131407023Y-84809523D01*
X131311785Y-84904761D01*
X131216547Y-84952380D01*
X131026071Y-84952380D01*
X132311785Y-84285714D02*
X132311785Y-84952380D01*
X132073690Y-83904761D02*
X131835595Y-84619047D01*
X132454642Y-84619047D01*
X129835595Y-87452380D02*
X129835595Y-86452380D01*
X130073690Y-86452380D01*
X130216547Y-86500000D01*
X130311785Y-86595238D01*
X130359404Y-86690476D01*
X130407023Y-86880952D01*
X130407023Y-87023809D01*
X130359404Y-87214285D01*
X130311785Y-87309523D01*
X130216547Y-87404761D01*
X130073690Y-87452380D01*
X129835595Y-87452380D01*
X131502261Y-87547619D02*
X131407023Y-87500000D01*
X131311785Y-87404761D01*
X131168928Y-87261904D01*
X131073690Y-87214285D01*
X130978452Y-87214285D01*
X131026071Y-87452380D02*
X130930833Y-87404761D01*
X130835595Y-87309523D01*
X130787976Y-87119047D01*
X130787976Y-86785714D01*
X130835595Y-86595238D01*
X130930833Y-86500000D01*
X131026071Y-86452380D01*
X131216547Y-86452380D01*
X131311785Y-86500000D01*
X131407023Y-86595238D01*
X131454642Y-86785714D01*
X131454642Y-87119047D01*
X131407023Y-87309523D01*
X131311785Y-87404761D01*
X131216547Y-87452380D01*
X131026071Y-87452380D01*
X131787976Y-86452380D02*
X132407023Y-86452380D01*
X132073690Y-86833333D01*
X132216547Y-86833333D01*
X132311785Y-86880952D01*
X132359404Y-86928571D01*
X132407023Y-87023809D01*
X132407023Y-87261904D01*
X132359404Y-87357142D01*
X132311785Y-87404761D01*
X132216547Y-87452380D01*
X131930833Y-87452380D01*
X131835595Y-87404761D01*
X131787976Y-87357142D01*
X125192738Y-58452380D02*
X125526071Y-59452380D01*
X125859404Y-58452380D01*
X126764166Y-59357142D02*
X126716547Y-59404761D01*
X126573690Y-59452380D01*
X126478452Y-59452380D01*
X126335595Y-59404761D01*
X126240357Y-59309523D01*
X126192738Y-59214285D01*
X126145119Y-59023809D01*
X126145119Y-58880952D01*
X126192738Y-58690476D01*
X126240357Y-58595238D01*
X126335595Y-58500000D01*
X126478452Y-58452380D01*
X126573690Y-58452380D01*
X126716547Y-58500000D01*
X126764166Y-58547619D01*
X127764166Y-59357142D02*
X127716547Y-59404761D01*
X127573690Y-59452380D01*
X127478452Y-59452380D01*
X127335595Y-59404761D01*
X127240357Y-59309523D01*
X127192738Y-59214285D01*
X127145119Y-59023809D01*
X127145119Y-58880952D01*
X127192738Y-58690476D01*
X127240357Y-58595238D01*
X127335595Y-58500000D01*
X127478452Y-58452380D01*
X127573690Y-58452380D01*
X127716547Y-58500000D01*
X127764166Y-58547619D01*
X125192738Y-53452380D02*
X125526071Y-54452380D01*
X125859404Y-53452380D01*
X126764166Y-54357142D02*
X126716547Y-54404761D01*
X126573690Y-54452380D01*
X126478452Y-54452380D01*
X126335595Y-54404761D01*
X126240357Y-54309523D01*
X126192738Y-54214285D01*
X126145119Y-54023809D01*
X126145119Y-53880952D01*
X126192738Y-53690476D01*
X126240357Y-53595238D01*
X126335595Y-53500000D01*
X126478452Y-53452380D01*
X126573690Y-53452380D01*
X126716547Y-53500000D01*
X126764166Y-53547619D01*
X127764166Y-54357142D02*
X127716547Y-54404761D01*
X127573690Y-54452380D01*
X127478452Y-54452380D01*
X127335595Y-54404761D01*
X127240357Y-54309523D01*
X127192738Y-54214285D01*
X127145119Y-54023809D01*
X127145119Y-53880952D01*
X127192738Y-53690476D01*
X127240357Y-53595238D01*
X127335595Y-53500000D01*
X127478452Y-53452380D01*
X127573690Y-53452380D01*
X127716547Y-53500000D01*
X127764166Y-53547619D01*
X129835595Y-77452380D02*
X129835595Y-76452380D01*
X130073690Y-76452380D01*
X130216547Y-76500000D01*
X130311785Y-76595238D01*
X130359404Y-76690476D01*
X130407023Y-76880952D01*
X130407023Y-77023809D01*
X130359404Y-77214285D01*
X130311785Y-77309523D01*
X130216547Y-77404761D01*
X130073690Y-77452380D01*
X129835595Y-77452380D01*
X131502261Y-77547619D02*
X131407023Y-77500000D01*
X131311785Y-77404761D01*
X131168928Y-77261904D01*
X131073690Y-77214285D01*
X130978452Y-77214285D01*
X131026071Y-77452380D02*
X130930833Y-77404761D01*
X130835595Y-77309523D01*
X130787976Y-77119047D01*
X130787976Y-76785714D01*
X130835595Y-76595238D01*
X130930833Y-76500000D01*
X131026071Y-76452380D01*
X131216547Y-76452380D01*
X131311785Y-76500000D01*
X131407023Y-76595238D01*
X131454642Y-76785714D01*
X131454642Y-77119047D01*
X131407023Y-77309523D01*
X131311785Y-77404761D01*
X131216547Y-77452380D01*
X131026071Y-77452380D01*
X131787976Y-76452380D02*
X132454642Y-76452380D01*
X132026071Y-77452380D01*
X129597500Y-73585000D02*
X130597500Y-73585000D01*
X130407023Y-74857142D02*
X130359404Y-74904761D01*
X130216547Y-74952380D01*
X130121309Y-74952380D01*
X129978452Y-74904761D01*
X129883214Y-74809523D01*
X129835595Y-74714285D01*
X129787976Y-74523809D01*
X129787976Y-74380952D01*
X129835595Y-74190476D01*
X129883214Y-74095238D01*
X129978452Y-74000000D01*
X130121309Y-73952380D01*
X130216547Y-73952380D01*
X130359404Y-74000000D01*
X130407023Y-74047619D01*
X130597500Y-73585000D02*
X131502261Y-73585000D01*
X130835595Y-74428571D02*
X131168928Y-74428571D01*
X131311785Y-74952380D02*
X130835595Y-74952380D01*
X130835595Y-73952380D01*
X131311785Y-73952380D01*
X129787976Y-72166666D02*
X130264166Y-72166666D01*
X129692738Y-72452380D02*
X130026071Y-71452380D01*
X130359404Y-72452380D01*
X131216547Y-72452380D02*
X130645119Y-72452380D01*
X130930833Y-72452380D02*
X130930833Y-71452380D01*
X130835595Y-71595238D01*
X130740357Y-71690476D01*
X130645119Y-71738095D01*
X131835595Y-71452380D02*
X131930833Y-71452380D01*
X132026071Y-71500000D01*
X132073690Y-71547619D01*
X132121309Y-71642857D01*
X132168928Y-71833333D01*
X132168928Y-72071428D01*
X132121309Y-72261904D01*
X132073690Y-72357142D01*
X132026071Y-72404761D01*
X131930833Y-72452380D01*
X131835595Y-72452380D01*
X131740357Y-72404761D01*
X131692738Y-72357142D01*
X131645119Y-72261904D01*
X131597500Y-72071428D01*
X131597500Y-71833333D01*
X131645119Y-71642857D01*
X131692738Y-71547619D01*
X131740357Y-71500000D01*
X131835595Y-71452380D01*
X129597500Y-68085000D02*
X130645119Y-68085000D01*
X130026071Y-68452380D02*
X130216547Y-68452380D01*
X130311785Y-68500000D01*
X130407023Y-68595238D01*
X130454642Y-68785714D01*
X130454642Y-69119047D01*
X130407023Y-69309523D01*
X130311785Y-69404761D01*
X130216547Y-69452380D01*
X130026071Y-69452380D01*
X129930833Y-69404761D01*
X129835595Y-69309523D01*
X129787976Y-69119047D01*
X129787976Y-68785714D01*
X129835595Y-68595238D01*
X129930833Y-68500000D01*
X130026071Y-68452380D01*
X130645119Y-68085000D02*
X131549880Y-68085000D01*
X130883214Y-68928571D02*
X131216547Y-68928571D01*
X131359404Y-69452380D02*
X130883214Y-69452380D01*
X130883214Y-68452380D01*
X131359404Y-68452380D01*
X129787976Y-66666666D02*
X130264166Y-66666666D01*
X129692738Y-66952380D02*
X130026071Y-65952380D01*
X130359404Y-66952380D01*
X131216547Y-66952380D02*
X130645119Y-66952380D01*
X130930833Y-66952380D02*
X130930833Y-65952380D01*
X130835595Y-66095238D01*
X130740357Y-66190476D01*
X130645119Y-66238095D01*
X132168928Y-66952380D02*
X131597500Y-66952380D01*
X131883214Y-66952380D02*
X131883214Y-65952380D01*
X131787976Y-66095238D01*
X131692738Y-66190476D01*
X131597500Y-66238095D01*
X129787976Y-64166666D02*
X130264166Y-64166666D01*
X129692738Y-64452380D02*
X130026071Y-63452380D01*
X130359404Y-64452380D01*
X130740357Y-64452380D02*
X130930833Y-64452380D01*
X131026071Y-64404761D01*
X131073690Y-64357142D01*
X131168928Y-64214285D01*
X131216547Y-64023809D01*
X131216547Y-63642857D01*
X131168928Y-63547619D01*
X131121309Y-63500000D01*
X131026071Y-63452380D01*
X130835595Y-63452380D01*
X130740357Y-63500000D01*
X130692738Y-63547619D01*
X130645119Y-63642857D01*
X130645119Y-63880952D01*
X130692738Y-63976190D01*
X130740357Y-64023809D01*
X130835595Y-64071428D01*
X131026071Y-64071428D01*
X131121309Y-64023809D01*
X131168928Y-63976190D01*
X131216547Y-63880952D01*
X129787976Y-61666666D02*
X130264166Y-61666666D01*
X129692738Y-61952380D02*
X130026071Y-60952380D01*
X130359404Y-61952380D01*
X130835595Y-61380952D02*
X130740357Y-61333333D01*
X130692738Y-61285714D01*
X130645119Y-61190476D01*
X130645119Y-61142857D01*
X130692738Y-61047619D01*
X130740357Y-61000000D01*
X130835595Y-60952380D01*
X131026071Y-60952380D01*
X131121309Y-61000000D01*
X131168928Y-61047619D01*
X131216547Y-61142857D01*
X131216547Y-61190476D01*
X131168928Y-61285714D01*
X131121309Y-61333333D01*
X131026071Y-61380952D01*
X130835595Y-61380952D01*
X130740357Y-61428571D01*
X130692738Y-61476190D01*
X130645119Y-61571428D01*
X130645119Y-61761904D01*
X130692738Y-61857142D01*
X130740357Y-61904761D01*
X130835595Y-61952380D01*
X131026071Y-61952380D01*
X131121309Y-61904761D01*
X131168928Y-61857142D01*
X131216547Y-61761904D01*
X131216547Y-61571428D01*
X131168928Y-61476190D01*
X131121309Y-61428571D01*
X131026071Y-61380952D01*
X129787976Y-59166666D02*
X130264166Y-59166666D01*
X129692738Y-59452380D02*
X130026071Y-58452380D01*
X130359404Y-59452380D01*
X131216547Y-59452380D02*
X130645119Y-59452380D01*
X130930833Y-59452380D02*
X130930833Y-58452380D01*
X130835595Y-58595238D01*
X130740357Y-58690476D01*
X130645119Y-58738095D01*
X131549880Y-58452380D02*
X132168928Y-58452380D01*
X131835595Y-58833333D01*
X131978452Y-58833333D01*
X132073690Y-58880952D01*
X132121309Y-58928571D01*
X132168928Y-59023809D01*
X132168928Y-59261904D01*
X132121309Y-59357142D01*
X132073690Y-59404761D01*
X131978452Y-59452380D01*
X131692738Y-59452380D01*
X131597500Y-59404761D01*
X131549880Y-59357142D01*
X129787976Y-56666666D02*
X130264166Y-56666666D01*
X129692738Y-56952380D02*
X130026071Y-55952380D01*
X130359404Y-56952380D01*
X131216547Y-56952380D02*
X130645119Y-56952380D01*
X130930833Y-56952380D02*
X130930833Y-55952380D01*
X130835595Y-56095238D01*
X130740357Y-56190476D01*
X130645119Y-56238095D01*
X132073690Y-56285714D02*
X132073690Y-56952380D01*
X131835595Y-55904761D02*
X131597500Y-56619047D01*
X132216547Y-56619047D01*
X129692738Y-48452380D02*
X130026071Y-49452380D01*
X130359404Y-48452380D01*
X131264166Y-49357142D02*
X131216547Y-49404761D01*
X131073690Y-49452380D01*
X130978452Y-49452380D01*
X130835595Y-49404761D01*
X130740357Y-49309523D01*
X130692738Y-49214285D01*
X130645119Y-49023809D01*
X130645119Y-48880952D01*
X130692738Y-48690476D01*
X130740357Y-48595238D01*
X130835595Y-48500000D01*
X130978452Y-48452380D01*
X131073690Y-48452380D01*
X131216547Y-48500000D01*
X131264166Y-48547619D01*
X132264166Y-49357142D02*
X132216547Y-49404761D01*
X132073690Y-49452380D01*
X131978452Y-49452380D01*
X131835595Y-49404761D01*
X131740357Y-49309523D01*
X131692738Y-49214285D01*
X131645119Y-49023809D01*
X131645119Y-48880952D01*
X131692738Y-48690476D01*
X131740357Y-48595238D01*
X131835595Y-48500000D01*
X131978452Y-48452380D01*
X132073690Y-48452380D01*
X132216547Y-48500000D01*
X132264166Y-48547619D01*
X129787976Y-54166666D02*
X130264166Y-54166666D01*
X129692738Y-54452380D02*
X130026071Y-53452380D01*
X130359404Y-54452380D01*
X131216547Y-54452380D02*
X130645119Y-54452380D01*
X130930833Y-54452380D02*
X130930833Y-53452380D01*
X130835595Y-53595238D01*
X130740357Y-53690476D01*
X130645119Y-53738095D01*
X131549880Y-53452380D02*
X132216547Y-53452380D01*
X131787976Y-54452380D01*
X129597500Y-50585000D02*
X130740357Y-50585000D01*
X129740357Y-50952380D02*
X129978452Y-51952380D01*
X130168928Y-51238095D01*
X130359404Y-51952380D01*
X130597500Y-50952380D01*
X130740357Y-50585000D02*
X131645119Y-50585000D01*
X130978452Y-51428571D02*
X131311785Y-51428571D01*
X131454642Y-51952380D02*
X130978452Y-51952380D01*
X130978452Y-50952380D01*
X131454642Y-50952380D01*
D13*
X147670000Y-129670000D02*
X149000000Y-129670000D01*
X147670000Y-131000000D02*
X147670000Y-129670000D01*
X147670000Y-132270000D02*
X150330000Y-132270000D01*
X150330000Y-132270000D02*
X150330000Y-132330000D01*
X147670000Y-132270000D02*
X147670000Y-132330000D01*
X147670000Y-132330000D02*
X150330000Y-132330000D01*
X93050000Y-50270000D02*
X93050000Y-47730000D01*
X96350000Y-38340000D02*
X96350000Y-40600000D01*
X94070000Y-38340000D02*
X94070000Y-40200000D01*
X117170000Y-38340000D02*
X94070000Y-38340000D01*
X117170000Y-94040000D02*
X117170000Y-38340000D01*
X94070000Y-94040000D02*
X117170000Y-94040000D01*
X94070000Y-45100000D02*
X94070000Y-94040000D01*
X95700000Y-42650000D02*
G75*
G03*
X95700000Y-42650000I-900000J0D01*
G01*
X97350000Y-42650000D02*
G75*
G03*
X97350000Y-42650000I-2550000J0D01*
G01*
X146460000Y-83170000D02*
X144810000Y-83170000D01*
X146460000Y-101070000D02*
X146460000Y-83170000D01*
X141160000Y-101070000D02*
X146460000Y-101070000D01*
X141160000Y-83170000D02*
X141160000Y-101070000D01*
X142810000Y-83170000D02*
X141160000Y-83170000D01*
X144810000Y-83170000D02*
G75*
G02*
X142810000Y-83170000I-1000000J0D01*
G01*
X68960000Y-83170000D02*
X67310000Y-83170000D01*
X68960000Y-101070000D02*
X68960000Y-83170000D01*
X63660000Y-101070000D02*
X68960000Y-101070000D01*
X63660000Y-83170000D02*
X63660000Y-101070000D01*
X65310000Y-83170000D02*
X63660000Y-83170000D01*
X67310000Y-83170000D02*
G75*
G02*
X65310000Y-83170000I-1000000J0D01*
G01*
D14*
X148100000Y-124300000D02*
X148100000Y-123800000D01*
X148100000Y-124300000D02*
X147600000Y-124300000D01*
X148100000Y-112400000D02*
X147600000Y-112400000D01*
X148100000Y-112400000D02*
X148100000Y-112900000D01*
X143900000Y-112400000D02*
X144400000Y-112400000D01*
X143900000Y-112400000D02*
X143900000Y-112900000D01*
X143900000Y-124300000D02*
X144400000Y-124300000D01*
X143900000Y-124300000D02*
X143900000Y-123800000D01*
D13*
X65500000Y-126620000D02*
X65500000Y-125850000D01*
X65500000Y-118540000D02*
X65500000Y-119310000D01*
X66870000Y-125850000D02*
X66870000Y-119310000D01*
X64130000Y-125850000D02*
X66870000Y-125850000D01*
X64130000Y-119310000D02*
X64130000Y-125850000D01*
X66870000Y-119310000D02*
X64130000Y-119310000D01*
X62500000Y-126620000D02*
X62500000Y-125850000D01*
X62500000Y-118540000D02*
X62500000Y-119310000D01*
X63870000Y-125850000D02*
X63870000Y-119310000D01*
X61130000Y-125850000D02*
X63870000Y-125850000D01*
X61130000Y-119310000D02*
X61130000Y-125850000D01*
X63870000Y-119310000D02*
X61130000Y-119310000D01*
X59500000Y-126620000D02*
X59500000Y-125850000D01*
X59500000Y-118540000D02*
X59500000Y-119310000D01*
X60870000Y-125850000D02*
X60870000Y-119310000D01*
X58130000Y-125850000D02*
X60870000Y-125850000D01*
X58130000Y-119310000D02*
X58130000Y-125850000D01*
X60870000Y-119310000D02*
X58130000Y-119310000D01*
X141819999Y-129670000D02*
X143149999Y-129670000D01*
X141819999Y-131000000D02*
X141819999Y-129670000D01*
X141819999Y-132270000D02*
X144479999Y-132270000D01*
X144479999Y-132270000D02*
X144479999Y-132330000D01*
X141819999Y-132270000D02*
X141819999Y-132330000D01*
X141819999Y-132330000D02*
X144479999Y-132330000D01*
X64670000Y-110670000D02*
X66000000Y-110670000D01*
X64670000Y-112000000D02*
X64670000Y-110670000D01*
X64670000Y-113270000D02*
X67330000Y-113270000D01*
X67330000Y-113270000D02*
X67330000Y-113330000D01*
X64670000Y-113270000D02*
X64670000Y-113330000D01*
X64670000Y-113330000D02*
X67330000Y-113330000D01*
X130670000Y-106670000D02*
X132000000Y-106670000D01*
X130670000Y-108000000D02*
X130670000Y-106670000D01*
X130670000Y-109270000D02*
X133330000Y-109270000D01*
X133330000Y-109270000D02*
X133330000Y-109330000D01*
X130670000Y-109270000D02*
X130670000Y-109330000D01*
X130670000Y-109330000D02*
X133330000Y-109330000D01*
X148670000Y-62670000D02*
X150000000Y-62670000D01*
X148670000Y-64000000D02*
X148670000Y-62670000D01*
X148670000Y-65270000D02*
X151330000Y-65270000D01*
X151330000Y-65270000D02*
X151330000Y-72950000D01*
X148670000Y-65270000D02*
X148670000Y-72950000D01*
X148670000Y-72950000D02*
X151330000Y-72950000D01*
X58670000Y-62670000D02*
X60000000Y-62670000D01*
X58670000Y-64000000D02*
X58670000Y-62670000D01*
X58670000Y-65270000D02*
X61330000Y-65270000D01*
X61330000Y-65270000D02*
X61330000Y-72950000D01*
X58670000Y-65270000D02*
X58670000Y-72950000D01*
X58670000Y-72950000D02*
X61330000Y-72950000D01*
X148670000Y-43670000D02*
X150000000Y-43670000D01*
X148670000Y-45000000D02*
X148670000Y-43670000D01*
X148670000Y-46270000D02*
X151330000Y-46270000D01*
X151330000Y-46270000D02*
X151330000Y-53950000D01*
X148670000Y-46270000D02*
X148670000Y-53950000D01*
X148670000Y-53950000D02*
X151330000Y-53950000D01*
X58670000Y-43670000D02*
X60000000Y-43670000D01*
X58670000Y-45000000D02*
X58670000Y-43670000D01*
X58670000Y-46270000D02*
X61330000Y-46270000D01*
X61330000Y-46270000D02*
X61330000Y-53950000D01*
X58670000Y-46270000D02*
X58670000Y-53950000D01*
X58670000Y-53950000D02*
X61330000Y-53950000D01*
X127670000Y-129670000D02*
X129000000Y-129670000D01*
X127670000Y-131000000D02*
X127670000Y-129670000D01*
X127670000Y-132270000D02*
X130330000Y-132270000D01*
X130330000Y-132270000D02*
X130330000Y-132330000D01*
X127670000Y-132270000D02*
X127670000Y-132330000D01*
X127670000Y-132330000D02*
X130330000Y-132330000D01*
X133520000Y-129670000D02*
X134850000Y-129670000D01*
X133520000Y-131000000D02*
X133520000Y-129670000D01*
X133520000Y-132270000D02*
X136180000Y-132270000D01*
X136180000Y-132270000D02*
X136180000Y-132330000D01*
X133520000Y-132270000D02*
X133520000Y-132330000D01*
X133520000Y-132330000D02*
X136180000Y-132330000D01*
X120970000Y-57830000D02*
X122300000Y-57830000D01*
X120970000Y-59160000D02*
X120970000Y-57830000D01*
X120970000Y-60430000D02*
X123630000Y-60430000D01*
X123630000Y-60430000D02*
X123630000Y-60490000D01*
X120970000Y-60430000D02*
X120970000Y-60490000D01*
X120970000Y-60490000D02*
X123630000Y-60490000D01*
X120970000Y-52750000D02*
X122300000Y-52750000D01*
X120970000Y-54080000D02*
X120970000Y-52750000D01*
X120970000Y-55350000D02*
X123630000Y-55350000D01*
X123630000Y-55350000D02*
X123630000Y-55410000D01*
X120970000Y-55350000D02*
X120970000Y-55410000D01*
X120970000Y-55410000D02*
X123630000Y-55410000D01*
X123520000Y-47670000D02*
X124850000Y-47670000D01*
X123520000Y-49000000D02*
X123520000Y-47670000D01*
X126120000Y-47670000D02*
X128720000Y-47670000D01*
X126120000Y-50270000D02*
X126120000Y-47670000D01*
X123520000Y-50270000D02*
X126120000Y-50270000D01*
X128720000Y-47670000D02*
X128720000Y-88430000D01*
X123520000Y-50270000D02*
X123520000Y-88430000D01*
X123520000Y-88430000D02*
X128720000Y-88430000D01*
X82170000Y-47670000D02*
X83500000Y-47670000D01*
X82170000Y-49000000D02*
X82170000Y-47670000D01*
X84770000Y-47670000D02*
X87370000Y-47670000D01*
X84770000Y-50270000D02*
X84770000Y-47670000D01*
X82170000Y-50270000D02*
X84770000Y-50270000D01*
X87370000Y-47670000D02*
X87370000Y-88430000D01*
X82170000Y-50270000D02*
X82170000Y-88430000D01*
X82170000Y-88430000D02*
X87370000Y-88430000D01*
X136470000Y-117140000D02*
X133530000Y-117140000D01*
X136470000Y-117380000D02*
X133530000Y-117380000D01*
X136470000Y-117260000D02*
X133530000Y-117260000D01*
X135000000Y-122820000D02*
X135000000Y-121800000D01*
X135000000Y-115340000D02*
X135000000Y-116360000D01*
X136470000Y-121800000D02*
X136470000Y-116360000D01*
X133530000Y-121800000D02*
X136470000Y-121800000D01*
X133530000Y-116360000D02*
X133530000Y-121800000D01*
X136470000Y-116360000D02*
X133530000Y-116360000D01*
X130470000Y-117140000D02*
X127530000Y-117140000D01*
X130470000Y-117380000D02*
X127530000Y-117380000D01*
X130470000Y-117260000D02*
X127530000Y-117260000D01*
X129000000Y-122820000D02*
X129000000Y-121800000D01*
X129000000Y-115340000D02*
X129000000Y-116360000D01*
X130470000Y-121800000D02*
X130470000Y-116360000D01*
X127530000Y-121800000D02*
X130470000Y-121800000D01*
X127530000Y-116360000D02*
X127530000Y-121800000D01*
X130470000Y-116360000D02*
X127530000Y-116360000D01*
X66879000Y-79080000D02*
X65621000Y-79080000D01*
X66879000Y-80920000D02*
X65621000Y-80920000D01*
X122379000Y-43580000D02*
X121121000Y-43580000D01*
X122379000Y-45420000D02*
X121121000Y-45420000D01*
X144379000Y-79080000D02*
X143121000Y-79080000D01*
X144379000Y-80920000D02*
X143121000Y-80920000D01*
X117940000Y-129640000D02*
X117940000Y-111600000D01*
X74500000Y-129640000D02*
X117940000Y-129640000D01*
X74500000Y-111600000D02*
X74500000Y-129640000D01*
X77170000Y-114270000D02*
X77170000Y-111600000D01*
X112730000Y-114270000D02*
X77170000Y-114270000D01*
X112730000Y-114270000D02*
X112730000Y-111600000D01*
X77170000Y-126970000D02*
X77170000Y-129640000D01*
X115270000Y-126970000D02*
X77170000Y-126970000D01*
X115270000Y-126970000D02*
X115270000Y-129640000D01*
X117940000Y-111600000D02*
X115270000Y-111600000D01*
X112730000Y-111600000D02*
X74500000Y-111600000D01*
X115270000Y-114270000D02*
X115270000Y-111600000D01*
X112730000Y-114270000D02*
X115270000Y-114270000D01*
D10*
X148238095Y-132830000D02*
X148142857Y-132782380D01*
X148000000Y-132782380D01*
X147857142Y-132830000D01*
X147761904Y-132925238D01*
X147714285Y-133020476D01*
X147666666Y-133210952D01*
X147666666Y-133353809D01*
X147714285Y-133544285D01*
X147761904Y-133639523D01*
X147857142Y-133734761D01*
X148000000Y-133782380D01*
X148095238Y-133782380D01*
X148238095Y-133734761D01*
X148285714Y-133687142D01*
X148285714Y-133353809D01*
X148095238Y-133353809D01*
X148714285Y-133782380D02*
X148714285Y-132782380D01*
X149285714Y-133782380D01*
X149285714Y-132782380D01*
X149761904Y-133782380D02*
X149761904Y-132782380D01*
X150000000Y-132782380D01*
X150142857Y-132830000D01*
X150238095Y-132925238D01*
X150285714Y-133020476D01*
X150333333Y-133210952D01*
X150333333Y-133353809D01*
X150285714Y-133544285D01*
X150238095Y-133639523D01*
X150142857Y-133734761D01*
X150000000Y-133782380D01*
X149761904Y-133782380D01*
X104858095Y-36892380D02*
X104858095Y-37701904D01*
X104905714Y-37797142D01*
X104953333Y-37844761D01*
X105048571Y-37892380D01*
X105239047Y-37892380D01*
X105334285Y-37844761D01*
X105381904Y-37797142D01*
X105429523Y-37701904D01*
X105429523Y-36892380D01*
X105810476Y-36892380D02*
X106429523Y-36892380D01*
X106096190Y-37273333D01*
X106239047Y-37273333D01*
X106334285Y-37320952D01*
X106381904Y-37368571D01*
X106429523Y-37463809D01*
X106429523Y-37701904D01*
X106381904Y-37797142D01*
X106334285Y-37844761D01*
X106239047Y-37892380D01*
X105953333Y-37892380D01*
X105858095Y-37844761D01*
X105810476Y-37797142D01*
X101191428Y-96404761D02*
X101334285Y-96452380D01*
X101572380Y-96452380D01*
X101667619Y-96404761D01*
X101715238Y-96357142D01*
X101762857Y-96261904D01*
X101762857Y-96166666D01*
X101715238Y-96071428D01*
X101667619Y-96023809D01*
X101572380Y-95976190D01*
X101381904Y-95928571D01*
X101286666Y-95880952D01*
X101239047Y-95833333D01*
X101191428Y-95738095D01*
X101191428Y-95642857D01*
X101239047Y-95547619D01*
X101286666Y-95500000D01*
X101381904Y-95452380D01*
X101620000Y-95452380D01*
X101762857Y-95500000D01*
X102143809Y-96404761D02*
X102286666Y-96452380D01*
X102524761Y-96452380D01*
X102620000Y-96404761D01*
X102667619Y-96357142D01*
X102715238Y-96261904D01*
X102715238Y-96166666D01*
X102667619Y-96071428D01*
X102620000Y-96023809D01*
X102524761Y-95976190D01*
X102334285Y-95928571D01*
X102239047Y-95880952D01*
X102191428Y-95833333D01*
X102143809Y-95738095D01*
X102143809Y-95642857D01*
X102191428Y-95547619D01*
X102239047Y-95500000D01*
X102334285Y-95452380D01*
X102572380Y-95452380D01*
X102715238Y-95500000D01*
X103000952Y-95452380D02*
X103572380Y-95452380D01*
X103286666Y-96452380D02*
X103286666Y-95452380D01*
X103810476Y-95452380D02*
X104429523Y-95452380D01*
X104096190Y-95833333D01*
X104239047Y-95833333D01*
X104334285Y-95880952D01*
X104381904Y-95928571D01*
X104429523Y-96023809D01*
X104429523Y-96261904D01*
X104381904Y-96357142D01*
X104334285Y-96404761D01*
X104239047Y-96452380D01*
X103953333Y-96452380D01*
X103858095Y-96404761D01*
X103810476Y-96357142D01*
X104905714Y-96452380D02*
X105096190Y-96452380D01*
X105191428Y-96404761D01*
X105239047Y-96357142D01*
X105334285Y-96214285D01*
X105381904Y-96023809D01*
X105381904Y-95642857D01*
X105334285Y-95547619D01*
X105286666Y-95500000D01*
X105191428Y-95452380D01*
X105000952Y-95452380D01*
X104905714Y-95500000D01*
X104858095Y-95547619D01*
X104810476Y-95642857D01*
X104810476Y-95880952D01*
X104858095Y-95976190D01*
X104905714Y-96023809D01*
X105000952Y-96071428D01*
X105191428Y-96071428D01*
X105286666Y-96023809D01*
X105334285Y-95976190D01*
X105381904Y-95880952D01*
X105762857Y-96404761D02*
X105905714Y-96452380D01*
X106143809Y-96452380D01*
X106239047Y-96404761D01*
X106286666Y-96357142D01*
X106334285Y-96261904D01*
X106334285Y-96166666D01*
X106286666Y-96071428D01*
X106239047Y-96023809D01*
X106143809Y-95976190D01*
X105953333Y-95928571D01*
X105858095Y-95880952D01*
X105810476Y-95833333D01*
X105762857Y-95738095D01*
X105762857Y-95642857D01*
X105810476Y-95547619D01*
X105858095Y-95500000D01*
X105953333Y-95452380D01*
X106191428Y-95452380D01*
X106334285Y-95500000D01*
X107096190Y-95928571D02*
X106762857Y-95928571D01*
X106762857Y-96452380D02*
X106762857Y-95452380D01*
X107239047Y-95452380D01*
X107810476Y-95452380D02*
X107905714Y-95452380D01*
X108000952Y-95500000D01*
X108048571Y-95547619D01*
X108096190Y-95642857D01*
X108143809Y-95833333D01*
X108143809Y-96071428D01*
X108096190Y-96261904D01*
X108048571Y-96357142D01*
X108000952Y-96404761D01*
X107905714Y-96452380D01*
X107810476Y-96452380D01*
X107715238Y-96404761D01*
X107667619Y-96357142D01*
X107620000Y-96261904D01*
X107572380Y-96071428D01*
X107572380Y-95833333D01*
X107620000Y-95642857D01*
X107667619Y-95547619D01*
X107715238Y-95500000D01*
X107810476Y-95452380D01*
X109000952Y-95785714D02*
X109000952Y-96452380D01*
X108762857Y-95404761D02*
X108524761Y-96119047D01*
X109143809Y-96119047D01*
X109715238Y-95452380D02*
X109810476Y-95452380D01*
X109905714Y-95500000D01*
X109953333Y-95547619D01*
X110000952Y-95642857D01*
X110048571Y-95833333D01*
X110048571Y-96071428D01*
X110000952Y-96261904D01*
X109953333Y-96357142D01*
X109905714Y-96404761D01*
X109810476Y-96452380D01*
X109715238Y-96452380D01*
X109620000Y-96404761D01*
X109572380Y-96357142D01*
X109524761Y-96261904D01*
X109477142Y-96071428D01*
X109477142Y-95833333D01*
X109524761Y-95642857D01*
X109572380Y-95547619D01*
X109620000Y-95500000D01*
X109715238Y-95452380D01*
X143048095Y-81622380D02*
X143048095Y-82431904D01*
X143095714Y-82527142D01*
X143143333Y-82574761D01*
X143238571Y-82622380D01*
X143429047Y-82622380D01*
X143524285Y-82574761D01*
X143571904Y-82527142D01*
X143619523Y-82431904D01*
X143619523Y-81622380D01*
X144048095Y-81717619D02*
X144095714Y-81670000D01*
X144190952Y-81622380D01*
X144429047Y-81622380D01*
X144524285Y-81670000D01*
X144571904Y-81717619D01*
X144619523Y-81812857D01*
X144619523Y-81908095D01*
X144571904Y-82050952D01*
X144000476Y-82622380D01*
X144619523Y-82622380D01*
X140167142Y-101522380D02*
X140833809Y-101522380D01*
X140405238Y-102522380D01*
X141643333Y-101855714D02*
X141643333Y-102522380D01*
X141405238Y-101474761D02*
X141167142Y-102189047D01*
X141786190Y-102189047D01*
X142167142Y-102522380D02*
X142167142Y-101522380D01*
X142167142Y-101998571D02*
X142738571Y-101998571D01*
X142738571Y-102522380D02*
X142738571Y-101522380D01*
X143786190Y-102427142D02*
X143738571Y-102474761D01*
X143595714Y-102522380D01*
X143500476Y-102522380D01*
X143357619Y-102474761D01*
X143262380Y-102379523D01*
X143214761Y-102284285D01*
X143167142Y-102093809D01*
X143167142Y-101950952D01*
X143214761Y-101760476D01*
X143262380Y-101665238D01*
X143357619Y-101570000D01*
X143500476Y-101522380D01*
X143595714Y-101522380D01*
X143738571Y-101570000D01*
X143786190Y-101617619D01*
X144071904Y-101522380D02*
X144643333Y-101522380D01*
X144357619Y-102522380D02*
X144357619Y-101522380D01*
X145500476Y-102522380D02*
X144929047Y-102522380D01*
X145214761Y-102522380D02*
X145214761Y-101522380D01*
X145119523Y-101665238D01*
X145024285Y-101760476D01*
X144929047Y-101808095D01*
X146357619Y-101522380D02*
X146167142Y-101522380D01*
X146071904Y-101570000D01*
X146024285Y-101617619D01*
X145929047Y-101760476D01*
X145881428Y-101950952D01*
X145881428Y-102331904D01*
X145929047Y-102427142D01*
X145976666Y-102474761D01*
X146071904Y-102522380D01*
X146262380Y-102522380D01*
X146357619Y-102474761D01*
X146405238Y-102427142D01*
X146452857Y-102331904D01*
X146452857Y-102093809D01*
X146405238Y-101998571D01*
X146357619Y-101950952D01*
X146262380Y-101903333D01*
X146071904Y-101903333D01*
X145976666Y-101950952D01*
X145929047Y-101998571D01*
X145881428Y-102093809D01*
X147310000Y-101855714D02*
X147310000Y-102522380D01*
X147071904Y-101474761D02*
X146833809Y-102189047D01*
X147452857Y-102189047D01*
X65548095Y-81622380D02*
X65548095Y-82431904D01*
X65595714Y-82527142D01*
X65643333Y-82574761D01*
X65738571Y-82622380D01*
X65929047Y-82622380D01*
X66024285Y-82574761D01*
X66071904Y-82527142D01*
X66119523Y-82431904D01*
X66119523Y-81622380D01*
X67119523Y-82622380D02*
X66548095Y-82622380D01*
X66833809Y-82622380D02*
X66833809Y-81622380D01*
X66738571Y-81765238D01*
X66643333Y-81860476D01*
X66548095Y-81908095D01*
X62667142Y-101522380D02*
X63333809Y-101522380D01*
X62905238Y-102522380D01*
X64143333Y-101855714D02*
X64143333Y-102522380D01*
X63905238Y-101474761D02*
X63667142Y-102189047D01*
X64286190Y-102189047D01*
X64667142Y-102522380D02*
X64667142Y-101522380D01*
X64667142Y-101998571D02*
X65238571Y-101998571D01*
X65238571Y-102522380D02*
X65238571Y-101522380D01*
X66286190Y-102427142D02*
X66238571Y-102474761D01*
X66095714Y-102522380D01*
X66000476Y-102522380D01*
X65857619Y-102474761D01*
X65762380Y-102379523D01*
X65714761Y-102284285D01*
X65667142Y-102093809D01*
X65667142Y-101950952D01*
X65714761Y-101760476D01*
X65762380Y-101665238D01*
X65857619Y-101570000D01*
X66000476Y-101522380D01*
X66095714Y-101522380D01*
X66238571Y-101570000D01*
X66286190Y-101617619D01*
X66571904Y-101522380D02*
X67143333Y-101522380D01*
X66857619Y-102522380D02*
X66857619Y-101522380D01*
X68000476Y-102522380D02*
X67429047Y-102522380D01*
X67714761Y-102522380D02*
X67714761Y-101522380D01*
X67619523Y-101665238D01*
X67524285Y-101760476D01*
X67429047Y-101808095D01*
X68857619Y-101522380D02*
X68667142Y-101522380D01*
X68571904Y-101570000D01*
X68524285Y-101617619D01*
X68429047Y-101760476D01*
X68381428Y-101950952D01*
X68381428Y-102331904D01*
X68429047Y-102427142D01*
X68476666Y-102474761D01*
X68571904Y-102522380D01*
X68762380Y-102522380D01*
X68857619Y-102474761D01*
X68905238Y-102427142D01*
X68952857Y-102331904D01*
X68952857Y-102093809D01*
X68905238Y-101998571D01*
X68857619Y-101950952D01*
X68762380Y-101903333D01*
X68571904Y-101903333D01*
X68476666Y-101950952D01*
X68429047Y-101998571D01*
X68381428Y-102093809D01*
X69810000Y-101855714D02*
X69810000Y-102522380D01*
X69571904Y-101474761D02*
X69333809Y-102189047D01*
X69952857Y-102189047D01*
X149142857Y-121452380D02*
X149047619Y-121404761D01*
X149000000Y-121309523D01*
X149000000Y-120452380D01*
X149666666Y-121452380D02*
X149571428Y-121404761D01*
X149523809Y-121357142D01*
X149476190Y-121261904D01*
X149476190Y-120976190D01*
X149523809Y-120880952D01*
X149571428Y-120833333D01*
X149666666Y-120785714D01*
X149809523Y-120785714D01*
X149904761Y-120833333D01*
X149952380Y-120880952D01*
X150000000Y-120976190D01*
X150000000Y-121261904D01*
X149952380Y-121357142D01*
X149904761Y-121404761D01*
X149809523Y-121452380D01*
X149666666Y-121452380D01*
X150333333Y-120785714D02*
X150523809Y-121452380D01*
X150714285Y-120976190D01*
X150904761Y-121452380D01*
X151095238Y-120785714D01*
X149142857Y-116452380D02*
X149142857Y-115452380D01*
X149571428Y-116452380D02*
X149571428Y-115928571D01*
X149523809Y-115833333D01*
X149428571Y-115785714D01*
X149285714Y-115785714D01*
X149190476Y-115833333D01*
X149142857Y-115880952D01*
X150047619Y-116452380D02*
X150047619Y-115785714D01*
X150047619Y-115452380D02*
X150000000Y-115500000D01*
X150047619Y-115547619D01*
X150095238Y-115500000D01*
X150047619Y-115452380D01*
X150047619Y-115547619D01*
X150952380Y-115785714D02*
X150952380Y-116595238D01*
X150904761Y-116690476D01*
X150857142Y-116738095D01*
X150761904Y-116785714D01*
X150619047Y-116785714D01*
X150523809Y-116738095D01*
X150952380Y-116404761D02*
X150857142Y-116452380D01*
X150666666Y-116452380D01*
X150571428Y-116404761D01*
X150523809Y-116357142D01*
X150476190Y-116261904D01*
X150476190Y-115976190D01*
X150523809Y-115880952D01*
X150571428Y-115833333D01*
X150666666Y-115785714D01*
X150857142Y-115785714D01*
X150952380Y-115833333D01*
X151428571Y-116452380D02*
X151428571Y-115452380D01*
X151857142Y-116452380D02*
X151857142Y-115928571D01*
X151809523Y-115833333D01*
X151714285Y-115785714D01*
X151571428Y-115785714D01*
X151476190Y-115833333D01*
X151428571Y-115880952D01*
X65952380Y-122746666D02*
X65476190Y-123080000D01*
X65952380Y-123318095D02*
X64952380Y-123318095D01*
X64952380Y-122937142D01*
X65000000Y-122841904D01*
X65047619Y-122794285D01*
X65142857Y-122746666D01*
X65285714Y-122746666D01*
X65380952Y-122794285D01*
X65428571Y-122841904D01*
X65476190Y-122937142D01*
X65476190Y-123318095D01*
X64952380Y-122413333D02*
X64952380Y-121794285D01*
X65333333Y-122127619D01*
X65333333Y-121984761D01*
X65380952Y-121889523D01*
X65428571Y-121841904D01*
X65523809Y-121794285D01*
X65761904Y-121794285D01*
X65857142Y-121841904D01*
X65904761Y-121889523D01*
X65952380Y-121984761D01*
X65952380Y-122270476D01*
X65904761Y-122365714D01*
X65857142Y-122413333D01*
X62952380Y-122746666D02*
X62476190Y-123080000D01*
X62952380Y-123318095D02*
X61952380Y-123318095D01*
X61952380Y-122937142D01*
X62000000Y-122841904D01*
X62047619Y-122794285D01*
X62142857Y-122746666D01*
X62285714Y-122746666D01*
X62380952Y-122794285D01*
X62428571Y-122841904D01*
X62476190Y-122937142D01*
X62476190Y-123318095D01*
X62047619Y-122365714D02*
X62000000Y-122318095D01*
X61952380Y-122222857D01*
X61952380Y-121984761D01*
X62000000Y-121889523D01*
X62047619Y-121841904D01*
X62142857Y-121794285D01*
X62238095Y-121794285D01*
X62380952Y-121841904D01*
X62952380Y-122413333D01*
X62952380Y-121794285D01*
X59952380Y-122746666D02*
X59476190Y-123080000D01*
X59952380Y-123318095D02*
X58952380Y-123318095D01*
X58952380Y-122937142D01*
X59000000Y-122841904D01*
X59047619Y-122794285D01*
X59142857Y-122746666D01*
X59285714Y-122746666D01*
X59380952Y-122794285D01*
X59428571Y-122841904D01*
X59476190Y-122937142D01*
X59476190Y-123318095D01*
X59952380Y-121794285D02*
X59952380Y-122365714D01*
X59952380Y-122080000D02*
X58952380Y-122080000D01*
X59095238Y-122175238D01*
X59190476Y-122270476D01*
X59238095Y-122365714D01*
X57582380Y-123270476D02*
X57582380Y-123841904D01*
X57582380Y-123556190D02*
X56582380Y-123556190D01*
X56725238Y-123651428D01*
X56820476Y-123746666D01*
X56868095Y-123841904D01*
X56582380Y-122651428D02*
X56582380Y-122556190D01*
X56630000Y-122460952D01*
X56677619Y-122413333D01*
X56772857Y-122365714D01*
X56963333Y-122318095D01*
X57201428Y-122318095D01*
X57391904Y-122365714D01*
X57487142Y-122413333D01*
X57534761Y-122460952D01*
X57582380Y-122556190D01*
X57582380Y-122651428D01*
X57534761Y-122746666D01*
X57487142Y-122794285D01*
X57391904Y-122841904D01*
X57201428Y-122889523D01*
X56963333Y-122889523D01*
X56772857Y-122841904D01*
X56677619Y-122794285D01*
X56630000Y-122746666D01*
X56582380Y-122651428D01*
X57582380Y-121889523D02*
X56582380Y-121889523D01*
X57582380Y-121318095D02*
X57010952Y-121746666D01*
X56582380Y-121318095D02*
X57153809Y-121889523D01*
X141816665Y-132782380D02*
X142149999Y-133782380D01*
X142483332Y-132782380D01*
X143388094Y-133687142D02*
X143340475Y-133734761D01*
X143197618Y-133782380D01*
X143102379Y-133782380D01*
X142959522Y-133734761D01*
X142864284Y-133639523D01*
X142816665Y-133544285D01*
X142769046Y-133353809D01*
X142769046Y-133210952D01*
X142816665Y-133020476D01*
X142864284Y-132925238D01*
X142959522Y-132830000D01*
X143102379Y-132782380D01*
X143197618Y-132782380D01*
X143340475Y-132830000D01*
X143388094Y-132877619D01*
X144388094Y-133687142D02*
X144340475Y-133734761D01*
X144197618Y-133782380D01*
X144102379Y-133782380D01*
X143959522Y-133734761D01*
X143864284Y-133639523D01*
X143816665Y-133544285D01*
X143769046Y-133353809D01*
X143769046Y-133210952D01*
X143816665Y-133020476D01*
X143864284Y-132925238D01*
X143959522Y-132830000D01*
X144102379Y-132782380D01*
X144197618Y-132782380D01*
X144340475Y-132830000D01*
X144388094Y-132877619D01*
D12*
X64178571Y-109678571D02*
X64178571Y-108178571D01*
X64535714Y-108178571D01*
X64750000Y-108250000D01*
X64892857Y-108392857D01*
X64964285Y-108535714D01*
X65035714Y-108821428D01*
X65035714Y-109035714D01*
X64964285Y-109321428D01*
X64892857Y-109464285D01*
X64750000Y-109607142D01*
X64535714Y-109678571D01*
X64178571Y-109678571D01*
X66464285Y-109678571D02*
X65607142Y-109678571D01*
X66035714Y-109678571D02*
X66035714Y-108178571D01*
X65892857Y-108392857D01*
X65750000Y-108535714D01*
X65607142Y-108607142D01*
X66964285Y-108178571D02*
X67892857Y-108178571D01*
X67392857Y-108750000D01*
X67607142Y-108750000D01*
X67750000Y-108821428D01*
X67821428Y-108892857D01*
X67892857Y-109035714D01*
X67892857Y-109392857D01*
X67821428Y-109535714D01*
X67750000Y-109607142D01*
X67607142Y-109678571D01*
X67178571Y-109678571D01*
X67035714Y-109607142D01*
X66964285Y-109535714D01*
D10*
X131190476Y-109952380D02*
X131190476Y-110666666D01*
X131142857Y-110809523D01*
X131047619Y-110904761D01*
X130904761Y-110952380D01*
X130809523Y-110952380D01*
X132190476Y-110952380D02*
X131619047Y-110952380D01*
X131904761Y-110952380D02*
X131904761Y-109952380D01*
X131809523Y-110095238D01*
X131714285Y-110190476D01*
X131619047Y-110238095D01*
X133142857Y-110952380D02*
X132571428Y-110952380D01*
X132857142Y-110952380D02*
X132857142Y-109952380D01*
X132761904Y-110095238D01*
X132666666Y-110190476D01*
X132571428Y-110238095D01*
D12*
X127642857Y-104178571D02*
X128142857Y-105678571D01*
X128642857Y-104178571D01*
X129142857Y-105678571D02*
X129142857Y-104178571D01*
X129714285Y-104178571D01*
X129857142Y-104250000D01*
X129928571Y-104321428D01*
X130000000Y-104464285D01*
X130000000Y-104678571D01*
X129928571Y-104821428D01*
X129857142Y-104892857D01*
X129714285Y-104964285D01*
X129142857Y-104964285D01*
X130642857Y-105678571D02*
X130642857Y-104178571D01*
X131214285Y-104178571D01*
X131357142Y-104250000D01*
X131428571Y-104321428D01*
X131500000Y-104464285D01*
X131500000Y-104678571D01*
X131428571Y-104821428D01*
X131357142Y-104892857D01*
X131214285Y-104964285D01*
X130642857Y-104964285D01*
X133500000Y-105678571D02*
X133357142Y-105607142D01*
X133285714Y-105535714D01*
X133214285Y-105392857D01*
X133214285Y-104964285D01*
X133285714Y-104821428D01*
X133357142Y-104750000D01*
X133500000Y-104678571D01*
X133714285Y-104678571D01*
X133857142Y-104750000D01*
X133928571Y-104821428D01*
X134000000Y-104964285D01*
X134000000Y-105392857D01*
X133928571Y-105535714D01*
X133857142Y-105607142D01*
X133714285Y-105678571D01*
X133500000Y-105678571D01*
X135285714Y-104678571D02*
X135285714Y-105678571D01*
X134642857Y-104678571D02*
X134642857Y-105464285D01*
X134714285Y-105607142D01*
X134857142Y-105678571D01*
X135071428Y-105678571D01*
X135214285Y-105607142D01*
X135285714Y-105535714D01*
X135785714Y-104678571D02*
X136357142Y-104678571D01*
X136000000Y-104178571D02*
X136000000Y-105464285D01*
X136071428Y-105607142D01*
X136214285Y-105678571D01*
X136357142Y-105678571D01*
X148857142Y-59750000D02*
X148714285Y-59678571D01*
X148500000Y-59678571D01*
X148285714Y-59750000D01*
X148142857Y-59892857D01*
X148071428Y-60035714D01*
X148000000Y-60321428D01*
X148000000Y-60535714D01*
X148071428Y-60821428D01*
X148142857Y-60964285D01*
X148285714Y-61107142D01*
X148500000Y-61178571D01*
X148642857Y-61178571D01*
X148857142Y-61107142D01*
X148928571Y-61035714D01*
X148928571Y-60535714D01*
X148642857Y-60535714D01*
X149571428Y-61178571D02*
X149571428Y-59678571D01*
X150428571Y-61178571D01*
X150428571Y-59678571D01*
X151142857Y-61178571D02*
X151142857Y-59678571D01*
X151500000Y-59678571D01*
X151714285Y-59750000D01*
X151857142Y-59892857D01*
X151928571Y-60035714D01*
X152000000Y-60321428D01*
X152000000Y-60535714D01*
X151928571Y-60821428D01*
X151857142Y-60964285D01*
X151714285Y-61107142D01*
X151500000Y-61178571D01*
X151142857Y-61178571D01*
D10*
X59666666Y-73952380D02*
X59666666Y-74666666D01*
X59619047Y-74809523D01*
X59523809Y-74904761D01*
X59380952Y-74952380D01*
X59285714Y-74952380D01*
X60190476Y-74952380D02*
X60380952Y-74952380D01*
X60476190Y-74904761D01*
X60523809Y-74857142D01*
X60619047Y-74714285D01*
X60666666Y-74523809D01*
X60666666Y-74142857D01*
X60619047Y-74047619D01*
X60571428Y-74000000D01*
X60476190Y-73952380D01*
X60285714Y-73952380D01*
X60190476Y-74000000D01*
X60142857Y-74047619D01*
X60095238Y-74142857D01*
X60095238Y-74380952D01*
X60142857Y-74476190D01*
X60190476Y-74523809D01*
X60285714Y-74571428D01*
X60476190Y-74571428D01*
X60571428Y-74523809D01*
X60619047Y-74476190D01*
X60666666Y-74380952D01*
D12*
X58857142Y-60250000D02*
X58714285Y-60178571D01*
X58500000Y-60178571D01*
X58285714Y-60250000D01*
X58142857Y-60392857D01*
X58071428Y-60535714D01*
X58000000Y-60821428D01*
X58000000Y-61035714D01*
X58071428Y-61321428D01*
X58142857Y-61464285D01*
X58285714Y-61607142D01*
X58500000Y-61678571D01*
X58642857Y-61678571D01*
X58857142Y-61607142D01*
X58928571Y-61535714D01*
X58928571Y-61035714D01*
X58642857Y-61035714D01*
X59571428Y-61678571D02*
X59571428Y-60178571D01*
X60428571Y-61678571D01*
X60428571Y-60178571D01*
X61142857Y-61678571D02*
X61142857Y-60178571D01*
X61500000Y-60178571D01*
X61714285Y-60250000D01*
X61857142Y-60392857D01*
X61928571Y-60535714D01*
X62000000Y-60821428D01*
X62000000Y-61035714D01*
X61928571Y-61321428D01*
X61857142Y-61464285D01*
X61714285Y-61607142D01*
X61500000Y-61678571D01*
X61142857Y-61678571D01*
X148000000Y-40678571D02*
X148500000Y-42178571D01*
X149000000Y-40678571D01*
X150357142Y-42035714D02*
X150285714Y-42107142D01*
X150071428Y-42178571D01*
X149928571Y-42178571D01*
X149714285Y-42107142D01*
X149571428Y-41964285D01*
X149500000Y-41821428D01*
X149428571Y-41535714D01*
X149428571Y-41321428D01*
X149500000Y-41035714D01*
X149571428Y-40892857D01*
X149714285Y-40750000D01*
X149928571Y-40678571D01*
X150071428Y-40678571D01*
X150285714Y-40750000D01*
X150357142Y-40821428D01*
X151857142Y-42035714D02*
X151785714Y-42107142D01*
X151571428Y-42178571D01*
X151428571Y-42178571D01*
X151214285Y-42107142D01*
X151071428Y-41964285D01*
X151000000Y-41821428D01*
X150928571Y-41535714D01*
X150928571Y-41321428D01*
X151000000Y-41035714D01*
X151071428Y-40892857D01*
X151214285Y-40750000D01*
X151428571Y-40678571D01*
X151571428Y-40678571D01*
X151785714Y-40750000D01*
X151857142Y-40821428D01*
D10*
X59666666Y-54952380D02*
X59666666Y-55666666D01*
X59619047Y-55809523D01*
X59523809Y-55904761D01*
X59380952Y-55952380D01*
X59285714Y-55952380D01*
X60047619Y-54952380D02*
X60714285Y-54952380D01*
X60285714Y-55952380D01*
D12*
X58000000Y-41178571D02*
X58500000Y-42678571D01*
X59000000Y-41178571D01*
X60357142Y-42535714D02*
X60285714Y-42607142D01*
X60071428Y-42678571D01*
X59928571Y-42678571D01*
X59714285Y-42607142D01*
X59571428Y-42464285D01*
X59500000Y-42321428D01*
X59428571Y-42035714D01*
X59428571Y-41821428D01*
X59500000Y-41535714D01*
X59571428Y-41392857D01*
X59714285Y-41250000D01*
X59928571Y-41178571D01*
X60071428Y-41178571D01*
X60285714Y-41250000D01*
X60357142Y-41321428D01*
X61857142Y-42535714D02*
X61785714Y-42607142D01*
X61571428Y-42678571D01*
X61428571Y-42678571D01*
X61214285Y-42607142D01*
X61071428Y-42464285D01*
X61000000Y-42321428D01*
X60928571Y-42035714D01*
X60928571Y-41821428D01*
X61000000Y-41535714D01*
X61071428Y-41392857D01*
X61214285Y-41250000D01*
X61428571Y-41178571D01*
X61571428Y-41178571D01*
X61785714Y-41250000D01*
X61857142Y-41321428D01*
D10*
X128142857Y-133782380D02*
X128047619Y-133734761D01*
X128000000Y-133639523D01*
X128000000Y-132782380D01*
X128666666Y-133782380D02*
X128571428Y-133734761D01*
X128523809Y-133687142D01*
X128476190Y-133591904D01*
X128476190Y-133306190D01*
X128523809Y-133210952D01*
X128571428Y-133163333D01*
X128666666Y-133115714D01*
X128809523Y-133115714D01*
X128904761Y-133163333D01*
X128952380Y-133210952D01*
X129000000Y-133306190D01*
X129000000Y-133591904D01*
X128952380Y-133687142D01*
X128904761Y-133734761D01*
X128809523Y-133782380D01*
X128666666Y-133782380D01*
X129333333Y-133115714D02*
X129523809Y-133782380D01*
X129714285Y-133306190D01*
X129904761Y-133782380D01*
X130095238Y-133115714D01*
X133492857Y-133782380D02*
X133492857Y-132782380D01*
X133921428Y-133782380D02*
X133921428Y-133258571D01*
X133873809Y-133163333D01*
X133778571Y-133115714D01*
X133635714Y-133115714D01*
X133540476Y-133163333D01*
X133492857Y-133210952D01*
X134397619Y-133782380D02*
X134397619Y-133115714D01*
X134397619Y-132782380D02*
X134350000Y-132830000D01*
X134397619Y-132877619D01*
X134445238Y-132830000D01*
X134397619Y-132782380D01*
X134397619Y-132877619D01*
X135302380Y-133115714D02*
X135302380Y-133925238D01*
X135254761Y-134020476D01*
X135207142Y-134068095D01*
X135111904Y-134115714D01*
X134969047Y-134115714D01*
X134873809Y-134068095D01*
X135302380Y-133734761D02*
X135207142Y-133782380D01*
X135016666Y-133782380D01*
X134921428Y-133734761D01*
X134873809Y-133687142D01*
X134826190Y-133591904D01*
X134826190Y-133306190D01*
X134873809Y-133210952D01*
X134921428Y-133163333D01*
X135016666Y-133115714D01*
X135207142Y-133115714D01*
X135302380Y-133163333D01*
X135778571Y-133782380D02*
X135778571Y-132782380D01*
X136207142Y-133782380D02*
X136207142Y-133258571D01*
X136159523Y-133163333D01*
X136064285Y-133115714D01*
X135921428Y-133115714D01*
X135826190Y-133163333D01*
X135778571Y-133210952D01*
X121966666Y-56282380D02*
X121966666Y-56996666D01*
X121919047Y-57139523D01*
X121823809Y-57234761D01*
X121680952Y-57282380D01*
X121585714Y-57282380D01*
X122871428Y-56615714D02*
X122871428Y-57282380D01*
X122633333Y-56234761D02*
X122395238Y-56949047D01*
X123014285Y-56949047D01*
X121966666Y-51202380D02*
X121966666Y-51916666D01*
X121919047Y-52059523D01*
X121823809Y-52154761D01*
X121680952Y-52202380D01*
X121585714Y-52202380D01*
X122347619Y-51202380D02*
X122966666Y-51202380D01*
X122633333Y-51583333D01*
X122776190Y-51583333D01*
X122871428Y-51630952D01*
X122919047Y-51678571D01*
X122966666Y-51773809D01*
X122966666Y-52011904D01*
X122919047Y-52107142D01*
X122871428Y-52154761D01*
X122776190Y-52202380D01*
X122490476Y-52202380D01*
X122395238Y-52154761D01*
X122347619Y-52107142D01*
X125786666Y-46122380D02*
X125786666Y-46836666D01*
X125739047Y-46979523D01*
X125643809Y-47074761D01*
X125500952Y-47122380D01*
X125405714Y-47122380D01*
X126215238Y-46217619D02*
X126262857Y-46170000D01*
X126358095Y-46122380D01*
X126596190Y-46122380D01*
X126691428Y-46170000D01*
X126739047Y-46217619D01*
X126786666Y-46312857D01*
X126786666Y-46408095D01*
X126739047Y-46550952D01*
X126167619Y-47122380D01*
X126786666Y-47122380D01*
X84436666Y-46122380D02*
X84436666Y-46836666D01*
X84389047Y-46979523D01*
X84293809Y-47074761D01*
X84150952Y-47122380D01*
X84055714Y-47122380D01*
X85436666Y-47122380D02*
X84865238Y-47122380D01*
X85150952Y-47122380D02*
X85150952Y-46122380D01*
X85055714Y-46265238D01*
X84960476Y-46360476D01*
X84865238Y-46408095D01*
X137922380Y-119818095D02*
X136922380Y-119818095D01*
X136922380Y-119580000D01*
X136970000Y-119437142D01*
X137065238Y-119341904D01*
X137160476Y-119294285D01*
X137350952Y-119246666D01*
X137493809Y-119246666D01*
X137684285Y-119294285D01*
X137779523Y-119341904D01*
X137874761Y-119437142D01*
X137922380Y-119580000D01*
X137922380Y-119818095D01*
X136922380Y-118913333D02*
X136922380Y-118294285D01*
X137303333Y-118627619D01*
X137303333Y-118484761D01*
X137350952Y-118389523D01*
X137398571Y-118341904D01*
X137493809Y-118294285D01*
X137731904Y-118294285D01*
X137827142Y-118341904D01*
X137874761Y-118389523D01*
X137922380Y-118484761D01*
X137922380Y-118770476D01*
X137874761Y-118865714D01*
X137827142Y-118913333D01*
X137552380Y-114261904D02*
X136552380Y-114261904D01*
X137552380Y-113690476D02*
X136980952Y-114119047D01*
X136552380Y-113690476D02*
X137123809Y-114261904D01*
X131922380Y-119818095D02*
X130922380Y-119818095D01*
X130922380Y-119580000D01*
X130970000Y-119437142D01*
X131065238Y-119341904D01*
X131160476Y-119294285D01*
X131350952Y-119246666D01*
X131493809Y-119246666D01*
X131684285Y-119294285D01*
X131779523Y-119341904D01*
X131874761Y-119437142D01*
X131922380Y-119580000D01*
X131922380Y-119818095D01*
X131017619Y-118865714D02*
X130970000Y-118818095D01*
X130922380Y-118722857D01*
X130922380Y-118484761D01*
X130970000Y-118389523D01*
X131017619Y-118341904D01*
X131112857Y-118294285D01*
X131208095Y-118294285D01*
X131350952Y-118341904D01*
X131922380Y-118913333D01*
X131922380Y-118294285D01*
X126982380Y-121222857D02*
X126982380Y-121794285D01*
X126982380Y-121508571D02*
X125982380Y-121508571D01*
X126125238Y-121603809D01*
X126220476Y-121699047D01*
X126268095Y-121794285D01*
X126982380Y-120794285D02*
X125982380Y-120794285D01*
X126982380Y-120222857D01*
X125982380Y-120222857D01*
X125982380Y-119270476D02*
X125982380Y-119746666D01*
X126458571Y-119794285D01*
X126410952Y-119746666D01*
X126363333Y-119651428D01*
X126363333Y-119413333D01*
X126410952Y-119318095D01*
X126458571Y-119270476D01*
X126553809Y-119222857D01*
X126791904Y-119222857D01*
X126887142Y-119270476D01*
X126934761Y-119318095D01*
X126982380Y-119413333D01*
X126982380Y-119651428D01*
X126934761Y-119746666D01*
X126887142Y-119794285D01*
X126410952Y-118651428D02*
X126363333Y-118746666D01*
X126315714Y-118794285D01*
X126220476Y-118841904D01*
X126172857Y-118841904D01*
X126077619Y-118794285D01*
X126030000Y-118746666D01*
X125982380Y-118651428D01*
X125982380Y-118460952D01*
X126030000Y-118365714D01*
X126077619Y-118318095D01*
X126172857Y-118270476D01*
X126220476Y-118270476D01*
X126315714Y-118318095D01*
X126363333Y-118365714D01*
X126410952Y-118460952D01*
X126410952Y-118651428D01*
X126458571Y-118746666D01*
X126506190Y-118794285D01*
X126601428Y-118841904D01*
X126791904Y-118841904D01*
X126887142Y-118794285D01*
X126934761Y-118746666D01*
X126982380Y-118651428D01*
X126982380Y-118460952D01*
X126934761Y-118365714D01*
X126887142Y-118318095D01*
X126791904Y-118270476D01*
X126601428Y-118270476D01*
X126506190Y-118318095D01*
X126458571Y-118365714D01*
X126410952Y-118460952D01*
X126982380Y-117318095D02*
X126982380Y-117889523D01*
X126982380Y-117603809D02*
X125982380Y-117603809D01*
X126125238Y-117699047D01*
X126220476Y-117794285D01*
X126268095Y-117889523D01*
X126410952Y-116746666D02*
X126363333Y-116841904D01*
X126315714Y-116889523D01*
X126220476Y-116937142D01*
X126172857Y-116937142D01*
X126077619Y-116889523D01*
X126030000Y-116841904D01*
X125982380Y-116746666D01*
X125982380Y-116556190D01*
X126030000Y-116460952D01*
X126077619Y-116413333D01*
X126172857Y-116365714D01*
X126220476Y-116365714D01*
X126315714Y-116413333D01*
X126363333Y-116460952D01*
X126410952Y-116556190D01*
X126410952Y-116746666D01*
X126458571Y-116841904D01*
X126506190Y-116889523D01*
X126601428Y-116937142D01*
X126791904Y-116937142D01*
X126887142Y-116889523D01*
X126934761Y-116841904D01*
X126982380Y-116746666D01*
X126982380Y-116556190D01*
X126934761Y-116460952D01*
X126887142Y-116413333D01*
X126791904Y-116365714D01*
X126601428Y-116365714D01*
X126506190Y-116413333D01*
X126458571Y-116460952D01*
X126410952Y-116556190D01*
X131552380Y-114261904D02*
X130552380Y-114261904D01*
X131552380Y-113690476D02*
X130980952Y-114119047D01*
X130552380Y-113690476D02*
X131123809Y-114261904D01*
X66083333Y-82407142D02*
X66035714Y-82454761D01*
X65892857Y-82502380D01*
X65797619Y-82502380D01*
X65654761Y-82454761D01*
X65559523Y-82359523D01*
X65511904Y-82264285D01*
X65464285Y-82073809D01*
X65464285Y-81930952D01*
X65511904Y-81740476D01*
X65559523Y-81645238D01*
X65654761Y-81550000D01*
X65797619Y-81502380D01*
X65892857Y-81502380D01*
X66035714Y-81550000D01*
X66083333Y-81597619D01*
X67035714Y-82502380D02*
X66464285Y-82502380D01*
X66750000Y-82502380D02*
X66750000Y-81502380D01*
X66654761Y-81645238D01*
X66559523Y-81740476D01*
X66464285Y-81788095D01*
X121583333Y-46907142D02*
X121535714Y-46954761D01*
X121392857Y-47002380D01*
X121297619Y-47002380D01*
X121154761Y-46954761D01*
X121059523Y-46859523D01*
X121011904Y-46764285D01*
X120964285Y-46573809D01*
X120964285Y-46430952D01*
X121011904Y-46240476D01*
X121059523Y-46145238D01*
X121154761Y-46050000D01*
X121297619Y-46002380D01*
X121392857Y-46002380D01*
X121535714Y-46050000D01*
X121583333Y-46097619D01*
X121916666Y-46002380D02*
X122535714Y-46002380D01*
X122202380Y-46383333D01*
X122345238Y-46383333D01*
X122440476Y-46430952D01*
X122488095Y-46478571D01*
X122535714Y-46573809D01*
X122535714Y-46811904D01*
X122488095Y-46907142D01*
X122440476Y-46954761D01*
X122345238Y-47002380D01*
X122059523Y-47002380D01*
X121964285Y-46954761D01*
X121916666Y-46907142D01*
X143583333Y-82407142D02*
X143535714Y-82454761D01*
X143392857Y-82502380D01*
X143297619Y-82502380D01*
X143154761Y-82454761D01*
X143059523Y-82359523D01*
X143011904Y-82264285D01*
X142964285Y-82073809D01*
X142964285Y-81930952D01*
X143011904Y-81740476D01*
X143059523Y-81645238D01*
X143154761Y-81550000D01*
X143297619Y-81502380D01*
X143392857Y-81502380D01*
X143535714Y-81550000D01*
X143583333Y-81597619D01*
X143964285Y-81597619D02*
X144011904Y-81550000D01*
X144107142Y-81502380D01*
X144345238Y-81502380D01*
X144440476Y-81550000D01*
X144488095Y-81597619D01*
X144535714Y-81692857D01*
X144535714Y-81788095D01*
X144488095Y-81930952D01*
X143916666Y-82502380D01*
X144535714Y-82502380D01*
X119246666Y-121334285D02*
X119246666Y-120858095D01*
X119532380Y-121429523D02*
X118532380Y-121096190D01*
X119532380Y-120762857D01*
X119532380Y-119905714D02*
X119532380Y-120477142D01*
X119532380Y-120191428D02*
X118532380Y-120191428D01*
X118675238Y-120286666D01*
X118770476Y-120381904D01*
X118818095Y-120477142D01*
X88211904Y-122056666D02*
X88688095Y-122056666D01*
X88116666Y-122342380D02*
X88450000Y-121342380D01*
X88783333Y-122342380D01*
X89116666Y-122342380D02*
X89116666Y-121675714D01*
X89116666Y-121866190D02*
X89164285Y-121770952D01*
X89211904Y-121723333D01*
X89307142Y-121675714D01*
X89402380Y-121675714D01*
X90164285Y-122342380D02*
X90164285Y-121342380D01*
X90164285Y-122294761D02*
X90069047Y-122342380D01*
X89878571Y-122342380D01*
X89783333Y-122294761D01*
X89735714Y-122247142D01*
X89688095Y-122151904D01*
X89688095Y-121866190D01*
X89735714Y-121770952D01*
X89783333Y-121723333D01*
X89878571Y-121675714D01*
X90069047Y-121675714D01*
X90164285Y-121723333D01*
X91069047Y-121675714D02*
X91069047Y-122342380D01*
X90640476Y-121675714D02*
X90640476Y-122199523D01*
X90688095Y-122294761D01*
X90783333Y-122342380D01*
X90926190Y-122342380D01*
X91021428Y-122294761D01*
X91069047Y-122247142D01*
X91545238Y-122342380D02*
X91545238Y-121675714D01*
X91545238Y-121342380D02*
X91497619Y-121390000D01*
X91545238Y-121437619D01*
X91592857Y-121390000D01*
X91545238Y-121342380D01*
X91545238Y-121437619D01*
X92021428Y-121675714D02*
X92021428Y-122342380D01*
X92021428Y-121770952D02*
X92069047Y-121723333D01*
X92164285Y-121675714D01*
X92307142Y-121675714D01*
X92402380Y-121723333D01*
X92450000Y-121818571D01*
X92450000Y-122342380D01*
X93069047Y-122342380D02*
X92973809Y-122294761D01*
X92926190Y-122247142D01*
X92878571Y-122151904D01*
X92878571Y-121866190D01*
X92926190Y-121770952D01*
X92973809Y-121723333D01*
X93069047Y-121675714D01*
X93211904Y-121675714D01*
X93307142Y-121723333D01*
X93354761Y-121770952D01*
X93402380Y-121866190D01*
X93402380Y-122151904D01*
X93354761Y-122247142D01*
X93307142Y-122294761D01*
X93211904Y-122342380D01*
X93069047Y-122342380D01*
X93592857Y-122437619D02*
X94354761Y-122437619D01*
X94592857Y-122342380D02*
X94592857Y-121342380D01*
X95164285Y-122342380D01*
X95164285Y-121342380D01*
X96069047Y-122342380D02*
X96069047Y-121818571D01*
X96021428Y-121723333D01*
X95926190Y-121675714D01*
X95735714Y-121675714D01*
X95640476Y-121723333D01*
X96069047Y-122294761D02*
X95973809Y-122342380D01*
X95735714Y-122342380D01*
X95640476Y-122294761D01*
X95592857Y-122199523D01*
X95592857Y-122104285D01*
X95640476Y-122009047D01*
X95735714Y-121961428D01*
X95973809Y-121961428D01*
X96069047Y-121913809D01*
X96545238Y-121675714D02*
X96545238Y-122342380D01*
X96545238Y-121770952D02*
X96592857Y-121723333D01*
X96688095Y-121675714D01*
X96830952Y-121675714D01*
X96926190Y-121723333D01*
X96973809Y-121818571D01*
X96973809Y-122342380D01*
X97592857Y-122342380D02*
X97497619Y-122294761D01*
X97450000Y-122247142D01*
X97402380Y-122151904D01*
X97402380Y-121866190D01*
X97450000Y-121770952D01*
X97497619Y-121723333D01*
X97592857Y-121675714D01*
X97735714Y-121675714D01*
X97830952Y-121723333D01*
X97878571Y-121770952D01*
X97926190Y-121866190D01*
X97926190Y-122151904D01*
X97878571Y-122247142D01*
X97830952Y-122294761D01*
X97735714Y-122342380D01*
X97592857Y-122342380D01*
X98116666Y-122437619D02*
X98878571Y-122437619D01*
X99021428Y-121675714D02*
X99259523Y-122342380D01*
X99497619Y-121675714D01*
X99783333Y-121342380D02*
X100402380Y-121342380D01*
X100069047Y-121723333D01*
X100211904Y-121723333D01*
X100307142Y-121770952D01*
X100354761Y-121818571D01*
X100402380Y-121913809D01*
X100402380Y-122151904D01*
X100354761Y-122247142D01*
X100307142Y-122294761D01*
X100211904Y-122342380D01*
X99926190Y-122342380D01*
X99830952Y-122294761D01*
X99783333Y-122247142D01*
X100830952Y-122247142D02*
X100878571Y-122294761D01*
X100830952Y-122342380D01*
X100783333Y-122294761D01*
X100830952Y-122247142D01*
X100830952Y-122342380D01*
X101211904Y-122342380D02*
X101735714Y-121675714D01*
X101211904Y-121675714D02*
X101735714Y-122342380D01*
%LPC*%
D15*
X149000000Y-131000000D03*
D16*
X113240000Y-87100000D03*
X98000000Y-87100000D03*
X113240000Y-84560000D03*
X98000000Y-84560000D03*
X113240000Y-82020000D03*
X98000000Y-82020000D03*
X113240000Y-79480000D03*
X98000000Y-79480000D03*
X113240000Y-76940000D03*
X98000000Y-76940000D03*
X113240000Y-74400000D03*
X98000000Y-74400000D03*
X113240000Y-71860000D03*
X98000000Y-71860000D03*
X113240000Y-69320000D03*
X98000000Y-69320000D03*
X113240000Y-66780000D03*
X98000000Y-66780000D03*
X113240000Y-64240000D03*
X98000000Y-64240000D03*
X113240000Y-61700000D03*
X98000000Y-61700000D03*
X113240000Y-59160000D03*
X98000000Y-59160000D03*
X113240000Y-56620000D03*
X98000000Y-56620000D03*
X113240000Y-54080000D03*
X98000000Y-54080000D03*
X113240000Y-51540000D03*
X98000000Y-51540000D03*
X113240000Y-49000000D03*
D17*
X98000000Y-49000000D03*
D18*
X147620000Y-84500000D03*
X140000000Y-99740000D03*
X147620000Y-87040000D03*
X140000000Y-97200000D03*
X147620000Y-89580000D03*
X140000000Y-94660000D03*
X147620000Y-92120000D03*
X140000000Y-92120000D03*
X147620000Y-94660000D03*
X140000000Y-89580000D03*
X147620000Y-97200000D03*
X140000000Y-87040000D03*
X147620000Y-99740000D03*
D19*
X140000000Y-84500000D03*
D18*
X70120000Y-84500000D03*
X62500000Y-99740000D03*
X70120000Y-87040000D03*
X62500000Y-97200000D03*
X70120000Y-89580000D03*
X62500000Y-94660000D03*
X70120000Y-92120000D03*
X62500000Y-92120000D03*
X70120000Y-94660000D03*
X62500000Y-89580000D03*
X70120000Y-97200000D03*
X62500000Y-87040000D03*
X70120000Y-99740000D03*
D19*
X62500000Y-84500000D03*
D20*
X146000000Y-121000000D03*
X146000000Y-118500000D03*
D21*
X146000000Y-116000000D03*
D18*
X65500000Y-127660000D03*
D22*
X65500000Y-117500000D03*
D18*
X62500000Y-127660000D03*
D22*
X62500000Y-117500000D03*
D18*
X59500000Y-127660000D03*
D22*
X59500000Y-117500000D03*
D15*
X143149999Y-131000000D03*
X66000000Y-112000000D03*
X132000000Y-108000000D03*
D23*
X150000000Y-71620000D03*
X150000000Y-69080000D03*
X150000000Y-66540000D03*
D15*
X150000000Y-64000000D03*
D23*
X60000000Y-71620000D03*
X60000000Y-69080000D03*
X60000000Y-66540000D03*
D15*
X60000000Y-64000000D03*
D23*
X150000000Y-52620000D03*
X150000000Y-50080000D03*
X150000000Y-47540000D03*
D15*
X150000000Y-45000000D03*
D23*
X60000000Y-52620000D03*
X60000000Y-50080000D03*
X60000000Y-47540000D03*
D15*
X60000000Y-45000000D03*
X129000000Y-131000000D03*
X134850000Y-131000000D03*
X122300000Y-59160000D03*
X122300000Y-54080000D03*
D23*
X127390000Y-87100000D03*
X124850000Y-87100000D03*
X127390000Y-84560000D03*
X124850000Y-84560000D03*
X127390000Y-82020000D03*
X124850000Y-82020000D03*
X127390000Y-79480000D03*
X124850000Y-79480000D03*
X127390000Y-76940000D03*
X124850000Y-76940000D03*
X127390000Y-74400000D03*
X124850000Y-74400000D03*
X127390000Y-71860000D03*
X124850000Y-71860000D03*
X127390000Y-69320000D03*
X124850000Y-69320000D03*
X127390000Y-66780000D03*
X124850000Y-66780000D03*
X127390000Y-64240000D03*
X124850000Y-64240000D03*
X127390000Y-61700000D03*
X124850000Y-61700000D03*
X127390000Y-59160000D03*
X124850000Y-59160000D03*
X127390000Y-56620000D03*
X124850000Y-56620000D03*
X127390000Y-54080000D03*
X124850000Y-54080000D03*
X127390000Y-51540000D03*
X124850000Y-51540000D03*
X127390000Y-49000000D03*
D15*
X124850000Y-49000000D03*
D23*
X86040000Y-87100000D03*
X83500000Y-87100000D03*
X86040000Y-84560000D03*
X83500000Y-84560000D03*
X86040000Y-82020000D03*
X83500000Y-82020000D03*
X86040000Y-79480000D03*
X83500000Y-79480000D03*
X86040000Y-76940000D03*
X83500000Y-76940000D03*
X86040000Y-74400000D03*
X83500000Y-74400000D03*
X86040000Y-71860000D03*
X83500000Y-71860000D03*
X86040000Y-69320000D03*
X83500000Y-69320000D03*
X86040000Y-66780000D03*
X83500000Y-66780000D03*
X86040000Y-64240000D03*
X83500000Y-64240000D03*
X86040000Y-61700000D03*
X83500000Y-61700000D03*
X86040000Y-59160000D03*
X83500000Y-59160000D03*
X86040000Y-56620000D03*
X83500000Y-56620000D03*
X86040000Y-54080000D03*
X83500000Y-54080000D03*
X86040000Y-51540000D03*
X83500000Y-51540000D03*
X86040000Y-49000000D03*
D15*
X83500000Y-49000000D03*
D24*
X135000000Y-124160000D03*
D25*
X135000000Y-114000000D03*
D24*
X129000000Y-124160000D03*
D25*
X129000000Y-114000000D03*
D22*
X65000000Y-80000000D03*
X67500000Y-80000000D03*
X120500000Y-44500000D03*
X123000000Y-44500000D03*
X142500000Y-80000000D03*
X145000000Y-80000000D03*
D18*
X78440000Y-128240000D03*
X78440000Y-113000000D03*
X114000000Y-128240000D03*
X80980000Y-113000000D03*
X111460000Y-128240000D03*
X83520000Y-113000000D03*
X108920000Y-128240000D03*
X86060000Y-113000000D03*
X106380000Y-128240000D03*
X88600000Y-113000000D03*
X103840000Y-128240000D03*
X91140000Y-113000000D03*
X101300000Y-128240000D03*
X93680000Y-113000000D03*
X98760000Y-128240000D03*
X96220000Y-113000000D03*
X96220000Y-128240000D03*
X98760000Y-113000000D03*
X93680000Y-128240000D03*
X101300000Y-113000000D03*
X91140000Y-128240000D03*
X103840000Y-113000000D03*
X88600000Y-128240000D03*
X106380000Y-113000000D03*
X86060000Y-128240000D03*
X108920000Y-113000000D03*
X83520000Y-128240000D03*
X111460000Y-113000000D03*
X80980000Y-128240000D03*
D19*
X114000000Y-113000000D03*
M02*
