G04 #@! TF.GenerationSoftware,KiCad,Pcbnew,(5.1.9)-1*
G04 #@! TF.CreationDate,2021-11-21T23:00:05-05:00*
G04 #@! TF.ProjectId,sst39-32,73737433-392d-4333-922e-6b696361645f,rev?*
G04 #@! TF.SameCoordinates,Original*
G04 #@! TF.FileFunction,Copper,L2,Bot*
G04 #@! TF.FilePolarity,Positive*
%FSLAX46Y46*%
G04 Gerber Fmt 4.6, Leading zero omitted, Abs format (unit mm)*
G04 Created by KiCad (PCBNEW (5.1.9)-1) date 2021-11-21 23:00:06*
%MOMM*%
%LPD*%
G01*
G04 APERTURE LIST*
G04 #@! TA.AperFunction,ComponentPad*
%ADD10O,1.600000X1.600000*%
G04 #@! TD*
G04 #@! TA.AperFunction,ComponentPad*
%ADD11R,1.600000X1.600000*%
G04 #@! TD*
G04 #@! TA.AperFunction,ComponentPad*
%ADD12O,1.700000X1.700000*%
G04 #@! TD*
G04 #@! TA.AperFunction,ComponentPad*
%ADD13R,1.700000X1.700000*%
G04 #@! TD*
G04 #@! TA.AperFunction,Conductor*
%ADD14C,0.250000*%
G04 #@! TD*
G04 APERTURE END LIST*
D10*
X93290000Y-62900000D03*
X78050000Y-101000000D03*
X93290000Y-65440000D03*
X78050000Y-98460000D03*
X93290000Y-67980000D03*
X78050000Y-95920000D03*
X93290000Y-70520000D03*
X78050000Y-93380000D03*
X93290000Y-73060000D03*
X78050000Y-90840000D03*
X93290000Y-75600000D03*
X78050000Y-88300000D03*
X93290000Y-78140000D03*
X78050000Y-85760000D03*
X93290000Y-80680000D03*
X78050000Y-83220000D03*
X93290000Y-83220000D03*
X78050000Y-80680000D03*
X93290000Y-85760000D03*
X78050000Y-78140000D03*
X93290000Y-88300000D03*
X78050000Y-75600000D03*
X93290000Y-90840000D03*
X78050000Y-73060000D03*
X93290000Y-93380000D03*
X78050000Y-70520000D03*
X93290000Y-95920000D03*
X78050000Y-67980000D03*
X93290000Y-98460000D03*
X78050000Y-65440000D03*
X93290000Y-101000000D03*
D11*
X78050000Y-62900000D03*
D12*
X89460000Y-101020000D03*
X89460000Y-98480000D03*
X89460000Y-95940000D03*
X89460000Y-93400000D03*
X89460000Y-90860000D03*
X89460000Y-88320000D03*
X89460000Y-85780000D03*
X89460000Y-83240000D03*
X89460000Y-80700000D03*
X89460000Y-78160000D03*
X89460000Y-75620000D03*
X89460000Y-73080000D03*
X89460000Y-70540000D03*
D13*
X89460000Y-68000000D03*
D12*
X81850000Y-101020000D03*
X81850000Y-98480000D03*
X81850000Y-95940000D03*
X81850000Y-93400000D03*
X81850000Y-90860000D03*
X81850000Y-88320000D03*
X81850000Y-85780000D03*
X81850000Y-83240000D03*
X81850000Y-80700000D03*
X81850000Y-78160000D03*
X81850000Y-75620000D03*
X81850000Y-73080000D03*
X81850000Y-70540000D03*
D13*
X81850000Y-68000000D03*
D14*
X78070000Y-101020000D02*
X78050000Y-101000000D01*
X81850000Y-101020000D02*
X78070000Y-101020000D01*
X81830000Y-98460000D02*
X81850000Y-98480000D01*
X78050000Y-98460000D02*
X81830000Y-98460000D01*
X81830000Y-95920000D02*
X81850000Y-95940000D01*
X78050000Y-95920000D02*
X81830000Y-95920000D01*
X81830000Y-93380000D02*
X81850000Y-93400000D01*
X78050000Y-93380000D02*
X81830000Y-93380000D01*
X81830000Y-90840000D02*
X81850000Y-90860000D01*
X78050000Y-90840000D02*
X81830000Y-90840000D01*
X81830000Y-88300000D02*
X81850000Y-88320000D01*
X78050000Y-88300000D02*
X81830000Y-88300000D01*
X81830000Y-85760000D02*
X81850000Y-85780000D01*
X78050000Y-85760000D02*
X81830000Y-85760000D01*
X81830000Y-83220000D02*
X81850000Y-83240000D01*
X78050000Y-83220000D02*
X81830000Y-83220000D01*
X81830000Y-80680000D02*
X81850000Y-80700000D01*
X78050000Y-80680000D02*
X81830000Y-80680000D01*
X81830000Y-78140000D02*
X81850000Y-78160000D01*
X78050000Y-78140000D02*
X81830000Y-78140000D01*
X81830000Y-75600000D02*
X81850000Y-75620000D01*
X78050000Y-75600000D02*
X81830000Y-75600000D01*
X81830000Y-73060000D02*
X81850000Y-73080000D01*
X78050000Y-73060000D02*
X81830000Y-73060000D01*
X78070000Y-70540000D02*
X78050000Y-70520000D01*
X81850000Y-70540000D02*
X78070000Y-70540000D01*
X88875001Y-71715001D02*
X92094999Y-71715001D01*
X92094999Y-71715001D02*
X93290000Y-70520000D01*
X85160000Y-68000000D02*
X88875001Y-71715001D01*
X81850000Y-68000000D02*
X85160000Y-68000000D01*
X93270000Y-101020000D02*
X93290000Y-101000000D01*
X89460000Y-101020000D02*
X93270000Y-101020000D01*
X93270000Y-98480000D02*
X93290000Y-98460000D01*
X89460000Y-98480000D02*
X93270000Y-98480000D01*
X93270000Y-95940000D02*
X93290000Y-95920000D01*
X89460000Y-95940000D02*
X93270000Y-95940000D01*
X93270000Y-93400000D02*
X93290000Y-93380000D01*
X89460000Y-93400000D02*
X93270000Y-93400000D01*
X93270000Y-90860000D02*
X93290000Y-90840000D01*
X89460000Y-90860000D02*
X93270000Y-90860000D01*
X93270000Y-88320000D02*
X93290000Y-88300000D01*
X89460000Y-88320000D02*
X93270000Y-88320000D01*
X93270000Y-85780000D02*
X93290000Y-85760000D01*
X89460000Y-85780000D02*
X93270000Y-85780000D01*
X93270000Y-83240000D02*
X93290000Y-83220000D01*
X89460000Y-83240000D02*
X93270000Y-83240000D01*
X93270000Y-80700000D02*
X93290000Y-80680000D01*
X89460000Y-80700000D02*
X93270000Y-80700000D01*
X93270000Y-78160000D02*
X93290000Y-78140000D01*
X89460000Y-78160000D02*
X93270000Y-78160000D01*
X93270000Y-75620000D02*
X93290000Y-75600000D01*
X89460000Y-75620000D02*
X93270000Y-75620000D01*
X89480000Y-73060000D02*
X89460000Y-73080000D01*
X93290000Y-73060000D02*
X89480000Y-73060000D01*
X92164999Y-67835001D02*
X89460000Y-70540000D01*
X92164999Y-66565001D02*
X92164999Y-67835001D01*
X93290000Y-65440000D02*
X92164999Y-66565001D01*
X89460000Y-66730000D02*
X89460000Y-68000000D01*
X93290000Y-62900000D02*
X89460000Y-66730000D01*
M02*
