%FSLAX45Y45*%
G04 Gerber Fmt 4.5, Leading zero omitted, Abs format (unit mm)*
G04 Created by KiCad (PCBNEW (5.1.9)-1) date 2021-11-21 23:00:22*
%MOMM*%
%LPD*%
G01*
G04 APERTURE LIST*
%TA.AperFunction,Profile*%
%ADD10C,0.050000*%
%TD*%
%ADD11C,0.200000*%
%ADD12C,0.300000*%
G04 APERTURE END LIST*
D10*
X7500000Y-10400000D02*
X7500000Y-6000000D01*
X9600000Y-10400000D02*
X7500000Y-10400000D01*
X9600000Y-6000000D02*
X9600000Y-10400000D01*
X7500000Y-6000000D02*
X9600000Y-6000000D01*
D11*
X7765000Y-6250000D02*
X7845000Y-6330000D01*
X7845000Y-6250000D02*
X7765000Y-6330000D01*
X7765000Y-6504000D02*
X7845000Y-6584000D01*
X7845000Y-6504000D02*
X7765000Y-6584000D01*
X7765000Y-6758000D02*
X7845000Y-6838000D01*
X7845000Y-6758000D02*
X7765000Y-6838000D01*
X7765000Y-7012000D02*
X7845000Y-7092000D01*
X7845000Y-7012000D02*
X7765000Y-7092000D01*
X7765000Y-7266000D02*
X7845000Y-7346000D01*
X7845000Y-7266000D02*
X7765000Y-7346000D01*
X7765000Y-7520000D02*
X7845000Y-7600000D01*
X7845000Y-7520000D02*
X7765000Y-7600000D01*
X7765000Y-7774000D02*
X7845000Y-7854000D01*
X7845000Y-7774000D02*
X7765000Y-7854000D01*
X7765000Y-8028000D02*
X7845000Y-8108000D01*
X7845000Y-8028000D02*
X7765000Y-8108000D01*
X7765000Y-8282000D02*
X7845000Y-8362000D01*
X7845000Y-8282000D02*
X7765000Y-8362000D01*
X7765000Y-8536000D02*
X7845000Y-8616000D01*
X7845000Y-8536000D02*
X7765000Y-8616000D01*
X7765000Y-8790000D02*
X7845000Y-8870000D01*
X7845000Y-8790000D02*
X7765000Y-8870000D01*
X7765000Y-9044000D02*
X7845000Y-9124000D01*
X7845000Y-9044000D02*
X7765000Y-9124000D01*
X7765000Y-9298000D02*
X7845000Y-9378000D01*
X7845000Y-9298000D02*
X7765000Y-9378000D01*
X7765000Y-9552000D02*
X7845000Y-9632000D01*
X7845000Y-9552000D02*
X7765000Y-9632000D01*
X7765000Y-9806000D02*
X7845000Y-9886000D01*
X7845000Y-9806000D02*
X7765000Y-9886000D01*
X7765000Y-10060000D02*
X7845000Y-10140000D01*
X7845000Y-10060000D02*
X7765000Y-10140000D01*
X9289000Y-6250000D02*
X9369000Y-6330000D01*
X9369000Y-6250000D02*
X9289000Y-6330000D01*
X9289000Y-6504000D02*
X9369000Y-6584000D01*
X9369000Y-6504000D02*
X9289000Y-6584000D01*
X9289000Y-6758000D02*
X9369000Y-6838000D01*
X9369000Y-6758000D02*
X9289000Y-6838000D01*
X9289000Y-7012000D02*
X9369000Y-7092000D01*
X9369000Y-7012000D02*
X9289000Y-7092000D01*
X9289000Y-7266000D02*
X9369000Y-7346000D01*
X9369000Y-7266000D02*
X9289000Y-7346000D01*
X9289000Y-7520000D02*
X9369000Y-7600000D01*
X9369000Y-7520000D02*
X9289000Y-7600000D01*
X9289000Y-7774000D02*
X9369000Y-7854000D01*
X9369000Y-7774000D02*
X9289000Y-7854000D01*
X9289000Y-8028000D02*
X9369000Y-8108000D01*
X9369000Y-8028000D02*
X9289000Y-8108000D01*
X9289000Y-8282000D02*
X9369000Y-8362000D01*
X9369000Y-8282000D02*
X9289000Y-8362000D01*
X9289000Y-8536000D02*
X9369000Y-8616000D01*
X9369000Y-8536000D02*
X9289000Y-8616000D01*
X9289000Y-8790000D02*
X9369000Y-8870000D01*
X9369000Y-8790000D02*
X9289000Y-8870000D01*
X9289000Y-9044000D02*
X9369000Y-9124000D01*
X9369000Y-9044000D02*
X9289000Y-9124000D01*
X9289000Y-9298000D02*
X9369000Y-9378000D01*
X9369000Y-9298000D02*
X9289000Y-9378000D01*
X9289000Y-9552000D02*
X9369000Y-9632000D01*
X9369000Y-9552000D02*
X9289000Y-9632000D01*
X9289000Y-9806000D02*
X9369000Y-9886000D01*
X9369000Y-9806000D02*
X9289000Y-9886000D01*
X9289000Y-10060000D02*
X9369000Y-10140000D01*
X9369000Y-10060000D02*
X9289000Y-10140000D01*
X8235000Y-6800000D02*
G75*
G03*
X8235000Y-6800000I-50000J0D01*
G01*
X8235000Y-7054000D02*
G75*
G03*
X8235000Y-7054000I-50000J0D01*
G01*
X8235000Y-7308000D02*
G75*
G03*
X8235000Y-7308000I-50000J0D01*
G01*
X8235000Y-7562000D02*
G75*
G03*
X8235000Y-7562000I-50000J0D01*
G01*
X8235000Y-7816000D02*
G75*
G03*
X8235000Y-7816000I-50000J0D01*
G01*
X8235000Y-8070000D02*
G75*
G03*
X8235000Y-8070000I-50000J0D01*
G01*
X8235000Y-8324000D02*
G75*
G03*
X8235000Y-8324000I-50000J0D01*
G01*
X8235000Y-8578000D02*
G75*
G03*
X8235000Y-8578000I-50000J0D01*
G01*
X8235000Y-8832000D02*
G75*
G03*
X8235000Y-8832000I-50000J0D01*
G01*
X8235000Y-9086000D02*
G75*
G03*
X8235000Y-9086000I-50000J0D01*
G01*
X8235000Y-9340000D02*
G75*
G03*
X8235000Y-9340000I-50000J0D01*
G01*
X8235000Y-9594000D02*
G75*
G03*
X8235000Y-9594000I-50000J0D01*
G01*
X8235000Y-9848000D02*
G75*
G03*
X8235000Y-9848000I-50000J0D01*
G01*
X8235000Y-10102000D02*
G75*
G03*
X8235000Y-10102000I-50000J0D01*
G01*
X8996000Y-6800000D02*
G75*
G03*
X8996000Y-6800000I-50000J0D01*
G01*
X8996000Y-7054000D02*
G75*
G03*
X8996000Y-7054000I-50000J0D01*
G01*
X8996000Y-7308000D02*
G75*
G03*
X8996000Y-7308000I-50000J0D01*
G01*
X8996000Y-7562000D02*
G75*
G03*
X8996000Y-7562000I-50000J0D01*
G01*
X8996000Y-7816000D02*
G75*
G03*
X8996000Y-7816000I-50000J0D01*
G01*
X8996000Y-8070000D02*
G75*
G03*
X8996000Y-8070000I-50000J0D01*
G01*
X8996000Y-8324000D02*
G75*
G03*
X8996000Y-8324000I-50000J0D01*
G01*
X8996000Y-8578000D02*
G75*
G03*
X8996000Y-8578000I-50000J0D01*
G01*
X8996000Y-8832000D02*
G75*
G03*
X8996000Y-8832000I-50000J0D01*
G01*
X8996000Y-9086000D02*
G75*
G03*
X8996000Y-9086000I-50000J0D01*
G01*
X8996000Y-9340000D02*
G75*
G03*
X8996000Y-9340000I-50000J0D01*
G01*
X8996000Y-9594000D02*
G75*
G03*
X8996000Y-9594000I-50000J0D01*
G01*
X8996000Y-9848000D02*
G75*
G03*
X8996000Y-9848000I-50000J0D01*
G01*
X8996000Y-10102000D02*
G75*
G03*
X8996000Y-10102000I-50000J0D01*
G01*
D12*
X7783928Y-10868214D02*
X7783928Y-10568214D01*
X7855357Y-10568214D01*
X7898214Y-10582500D01*
X7926786Y-10611072D01*
X7941071Y-10639643D01*
X7955357Y-10696786D01*
X7955357Y-10739643D01*
X7941071Y-10796786D01*
X7926786Y-10825357D01*
X7898214Y-10853929D01*
X7855357Y-10868214D01*
X7783928Y-10868214D01*
X8083928Y-10868214D02*
X8083928Y-10668214D01*
X8083928Y-10725357D02*
X8098214Y-10696786D01*
X8112500Y-10682500D01*
X8141071Y-10668214D01*
X8169643Y-10668214D01*
X8269643Y-10868214D02*
X8269643Y-10668214D01*
X8269643Y-10568214D02*
X8255357Y-10582500D01*
X8269643Y-10596786D01*
X8283928Y-10582500D01*
X8269643Y-10568214D01*
X8269643Y-10596786D01*
X8455357Y-10868214D02*
X8426786Y-10853929D01*
X8412500Y-10825357D01*
X8412500Y-10568214D01*
X8612500Y-10868214D02*
X8583928Y-10853929D01*
X8569643Y-10825357D01*
X8569643Y-10568214D01*
X8955357Y-10868214D02*
X8955357Y-10568214D01*
X9055357Y-10782500D01*
X9155357Y-10568214D01*
X9155357Y-10868214D01*
X9426786Y-10868214D02*
X9426786Y-10711072D01*
X9412500Y-10682500D01*
X9383928Y-10668214D01*
X9326786Y-10668214D01*
X9298214Y-10682500D01*
X9426786Y-10853929D02*
X9398214Y-10868214D01*
X9326786Y-10868214D01*
X9298214Y-10853929D01*
X9283928Y-10825357D01*
X9283928Y-10796786D01*
X9298214Y-10768214D01*
X9326786Y-10753929D01*
X9398214Y-10753929D01*
X9426786Y-10739643D01*
X9569643Y-10668214D02*
X9569643Y-10968214D01*
X9569643Y-10682500D02*
X9598214Y-10668214D01*
X9655357Y-10668214D01*
X9683928Y-10682500D01*
X9698214Y-10696786D01*
X9712500Y-10725357D01*
X9712500Y-10811072D01*
X9698214Y-10839643D01*
X9683928Y-10853929D01*
X9655357Y-10868214D01*
X9598214Y-10868214D01*
X9569643Y-10853929D01*
X9841071Y-10839643D02*
X9855357Y-10853929D01*
X9841071Y-10868214D01*
X9826786Y-10853929D01*
X9841071Y-10839643D01*
X9841071Y-10868214D01*
X9841071Y-10682500D02*
X9855357Y-10696786D01*
X9841071Y-10711072D01*
X9826786Y-10696786D01*
X9841071Y-10682500D01*
X9841071Y-10711072D01*
X7417500Y-11322500D02*
X7497500Y-11402500D01*
X7497500Y-11322500D02*
X7417500Y-11402500D01*
X7841071Y-11198214D02*
X7869643Y-11198214D01*
X7898214Y-11212500D01*
X7912500Y-11226786D01*
X7926786Y-11255357D01*
X7941071Y-11312500D01*
X7941071Y-11383929D01*
X7926786Y-11441071D01*
X7912500Y-11469643D01*
X7898214Y-11483929D01*
X7869643Y-11498214D01*
X7841071Y-11498214D01*
X7812500Y-11483929D01*
X7798214Y-11469643D01*
X7783928Y-11441071D01*
X7769643Y-11383929D01*
X7769643Y-11312500D01*
X7783928Y-11255357D01*
X7798214Y-11226786D01*
X7812500Y-11212500D01*
X7841071Y-11198214D01*
X8069643Y-11469643D02*
X8083928Y-11483929D01*
X8069643Y-11498214D01*
X8055357Y-11483929D01*
X8069643Y-11469643D01*
X8069643Y-11498214D01*
X8255357Y-11326786D02*
X8226786Y-11312500D01*
X8212500Y-11298214D01*
X8198214Y-11269643D01*
X8198214Y-11255357D01*
X8212500Y-11226786D01*
X8226786Y-11212500D01*
X8255357Y-11198214D01*
X8312500Y-11198214D01*
X8341071Y-11212500D01*
X8355357Y-11226786D01*
X8369643Y-11255357D01*
X8369643Y-11269643D01*
X8355357Y-11298214D01*
X8341071Y-11312500D01*
X8312500Y-11326786D01*
X8255357Y-11326786D01*
X8226786Y-11341071D01*
X8212500Y-11355357D01*
X8198214Y-11383929D01*
X8198214Y-11441071D01*
X8212500Y-11469643D01*
X8226786Y-11483929D01*
X8255357Y-11498214D01*
X8312500Y-11498214D01*
X8341071Y-11483929D01*
X8355357Y-11469643D01*
X8369643Y-11441071D01*
X8369643Y-11383929D01*
X8355357Y-11355357D01*
X8341071Y-11341071D01*
X8312500Y-11326786D01*
X8555357Y-11198214D02*
X8583928Y-11198214D01*
X8612500Y-11212500D01*
X8626786Y-11226786D01*
X8641071Y-11255357D01*
X8655357Y-11312500D01*
X8655357Y-11383929D01*
X8641071Y-11441071D01*
X8626786Y-11469643D01*
X8612500Y-11483929D01*
X8583928Y-11498214D01*
X8555357Y-11498214D01*
X8526786Y-11483929D01*
X8512500Y-11469643D01*
X8498214Y-11441071D01*
X8483928Y-11383929D01*
X8483928Y-11312500D01*
X8498214Y-11255357D01*
X8512500Y-11226786D01*
X8526786Y-11212500D01*
X8555357Y-11198214D01*
X8783928Y-11498214D02*
X8783928Y-11298214D01*
X8783928Y-11326786D02*
X8798214Y-11312500D01*
X8826786Y-11298214D01*
X8869643Y-11298214D01*
X8898214Y-11312500D01*
X8912500Y-11341071D01*
X8912500Y-11498214D01*
X8912500Y-11341071D02*
X8926786Y-11312500D01*
X8955357Y-11298214D01*
X8998214Y-11298214D01*
X9026786Y-11312500D01*
X9041071Y-11341071D01*
X9041071Y-11498214D01*
X9183928Y-11498214D02*
X9183928Y-11298214D01*
X9183928Y-11326786D02*
X9198214Y-11312500D01*
X9226786Y-11298214D01*
X9269643Y-11298214D01*
X9298214Y-11312500D01*
X9312500Y-11341071D01*
X9312500Y-11498214D01*
X9312500Y-11341071D02*
X9326786Y-11312500D01*
X9355357Y-11298214D01*
X9398214Y-11298214D01*
X9426786Y-11312500D01*
X9441071Y-11341071D01*
X9441071Y-11498214D01*
X10026786Y-11183929D02*
X9769643Y-11569643D01*
X10412500Y-11198214D02*
X10441071Y-11198214D01*
X10469643Y-11212500D01*
X10483928Y-11226786D01*
X10498214Y-11255357D01*
X10512500Y-11312500D01*
X10512500Y-11383929D01*
X10498214Y-11441071D01*
X10483928Y-11469643D01*
X10469643Y-11483929D01*
X10441071Y-11498214D01*
X10412500Y-11498214D01*
X10383928Y-11483929D01*
X10369643Y-11469643D01*
X10355357Y-11441071D01*
X10341071Y-11383929D01*
X10341071Y-11312500D01*
X10355357Y-11255357D01*
X10369643Y-11226786D01*
X10383928Y-11212500D01*
X10412500Y-11198214D01*
X10641071Y-11469643D02*
X10655357Y-11483929D01*
X10641071Y-11498214D01*
X10626786Y-11483929D01*
X10641071Y-11469643D01*
X10641071Y-11498214D01*
X10841071Y-11198214D02*
X10869643Y-11198214D01*
X10898214Y-11212500D01*
X10912500Y-11226786D01*
X10926786Y-11255357D01*
X10941071Y-11312500D01*
X10941071Y-11383929D01*
X10926786Y-11441071D01*
X10912500Y-11469643D01*
X10898214Y-11483929D01*
X10869643Y-11498214D01*
X10841071Y-11498214D01*
X10812500Y-11483929D01*
X10798214Y-11469643D01*
X10783928Y-11441071D01*
X10769643Y-11383929D01*
X10769643Y-11312500D01*
X10783928Y-11255357D01*
X10798214Y-11226786D01*
X10812500Y-11212500D01*
X10841071Y-11198214D01*
X11041071Y-11198214D02*
X11226786Y-11198214D01*
X11126786Y-11312500D01*
X11169643Y-11312500D01*
X11198214Y-11326786D01*
X11212500Y-11341071D01*
X11226786Y-11369643D01*
X11226786Y-11441071D01*
X11212500Y-11469643D01*
X11198214Y-11483929D01*
X11169643Y-11498214D01*
X11083928Y-11498214D01*
X11055357Y-11483929D01*
X11041071Y-11469643D01*
X11512500Y-11498214D02*
X11341071Y-11498214D01*
X11426786Y-11498214D02*
X11426786Y-11198214D01*
X11398214Y-11241071D01*
X11369643Y-11269643D01*
X11341071Y-11283929D01*
X11626786Y-11198214D02*
X11626786Y-11255357D01*
X11741071Y-11198214D02*
X11741071Y-11255357D01*
X12183928Y-11612500D02*
X12169643Y-11598214D01*
X12141071Y-11555357D01*
X12126786Y-11526786D01*
X12112500Y-11483929D01*
X12098214Y-11412500D01*
X12098214Y-11355357D01*
X12112500Y-11283929D01*
X12126786Y-11241071D01*
X12141071Y-11212500D01*
X12169643Y-11169643D01*
X12183928Y-11155357D01*
X12269643Y-11198214D02*
X12455357Y-11198214D01*
X12355357Y-11312500D01*
X12398214Y-11312500D01*
X12426786Y-11326786D01*
X12441071Y-11341071D01*
X12455357Y-11369643D01*
X12455357Y-11441071D01*
X12441071Y-11469643D01*
X12426786Y-11483929D01*
X12398214Y-11498214D01*
X12312500Y-11498214D01*
X12283928Y-11483929D01*
X12269643Y-11469643D01*
X12569643Y-11226786D02*
X12583928Y-11212500D01*
X12612500Y-11198214D01*
X12683928Y-11198214D01*
X12712500Y-11212500D01*
X12726786Y-11226786D01*
X12741071Y-11255357D01*
X12741071Y-11283929D01*
X12726786Y-11326786D01*
X12555357Y-11498214D01*
X12741071Y-11498214D01*
X13098214Y-11498214D02*
X13098214Y-11198214D01*
X13226786Y-11498214D02*
X13226786Y-11341071D01*
X13212500Y-11312500D01*
X13183928Y-11298214D01*
X13141071Y-11298214D01*
X13112500Y-11312500D01*
X13098214Y-11326786D01*
X13412500Y-11498214D02*
X13383928Y-11483929D01*
X13369643Y-11469643D01*
X13355357Y-11441071D01*
X13355357Y-11355357D01*
X13369643Y-11326786D01*
X13383928Y-11312500D01*
X13412500Y-11298214D01*
X13455357Y-11298214D01*
X13483928Y-11312500D01*
X13498214Y-11326786D01*
X13512500Y-11355357D01*
X13512500Y-11441071D01*
X13498214Y-11469643D01*
X13483928Y-11483929D01*
X13455357Y-11498214D01*
X13412500Y-11498214D01*
X13683928Y-11498214D02*
X13655357Y-11483929D01*
X13641071Y-11455357D01*
X13641071Y-11198214D01*
X13912500Y-11483929D02*
X13883928Y-11498214D01*
X13826786Y-11498214D01*
X13798214Y-11483929D01*
X13783928Y-11455357D01*
X13783928Y-11341071D01*
X13798214Y-11312500D01*
X13826786Y-11298214D01*
X13883928Y-11298214D01*
X13912500Y-11312500D01*
X13926786Y-11341071D01*
X13926786Y-11369643D01*
X13783928Y-11398214D01*
X14041071Y-11483929D02*
X14069643Y-11498214D01*
X14126786Y-11498214D01*
X14155357Y-11483929D01*
X14169643Y-11455357D01*
X14169643Y-11441071D01*
X14155357Y-11412500D01*
X14126786Y-11398214D01*
X14083928Y-11398214D01*
X14055357Y-11383929D01*
X14041071Y-11355357D01*
X14041071Y-11341071D01*
X14055357Y-11312500D01*
X14083928Y-11298214D01*
X14126786Y-11298214D01*
X14155357Y-11312500D01*
X14269643Y-11612500D02*
X14283928Y-11598214D01*
X14312500Y-11555357D01*
X14326786Y-11526786D01*
X14341071Y-11483929D01*
X14355357Y-11412500D01*
X14355357Y-11355357D01*
X14341071Y-11283929D01*
X14326786Y-11241071D01*
X14312500Y-11212500D01*
X14283928Y-11169643D01*
X14269643Y-11155357D01*
X7497500Y-11758500D02*
G75*
G03*
X7497500Y-11758500I-50000J0D01*
G01*
X7941071Y-11894214D02*
X7769643Y-11894214D01*
X7855357Y-11894214D02*
X7855357Y-11594214D01*
X7826786Y-11637071D01*
X7798214Y-11665643D01*
X7769643Y-11679929D01*
X8069643Y-11865643D02*
X8083928Y-11879929D01*
X8069643Y-11894214D01*
X8055357Y-11879929D01*
X8069643Y-11865643D01*
X8069643Y-11894214D01*
X8269643Y-11594214D02*
X8298214Y-11594214D01*
X8326786Y-11608500D01*
X8341071Y-11622786D01*
X8355357Y-11651357D01*
X8369643Y-11708500D01*
X8369643Y-11779929D01*
X8355357Y-11837071D01*
X8341071Y-11865643D01*
X8326786Y-11879929D01*
X8298214Y-11894214D01*
X8269643Y-11894214D01*
X8241071Y-11879929D01*
X8226786Y-11865643D01*
X8212500Y-11837071D01*
X8198214Y-11779929D01*
X8198214Y-11708500D01*
X8212500Y-11651357D01*
X8226786Y-11622786D01*
X8241071Y-11608500D01*
X8269643Y-11594214D01*
X8555357Y-11594214D02*
X8583928Y-11594214D01*
X8612500Y-11608500D01*
X8626786Y-11622786D01*
X8641071Y-11651357D01*
X8655357Y-11708500D01*
X8655357Y-11779929D01*
X8641071Y-11837071D01*
X8626786Y-11865643D01*
X8612500Y-11879929D01*
X8583928Y-11894214D01*
X8555357Y-11894214D01*
X8526786Y-11879929D01*
X8512500Y-11865643D01*
X8498214Y-11837071D01*
X8483928Y-11779929D01*
X8483928Y-11708500D01*
X8498214Y-11651357D01*
X8512500Y-11622786D01*
X8526786Y-11608500D01*
X8555357Y-11594214D01*
X8783928Y-11894214D02*
X8783928Y-11694214D01*
X8783928Y-11722786D02*
X8798214Y-11708500D01*
X8826786Y-11694214D01*
X8869643Y-11694214D01*
X8898214Y-11708500D01*
X8912500Y-11737071D01*
X8912500Y-11894214D01*
X8912500Y-11737071D02*
X8926786Y-11708500D01*
X8955357Y-11694214D01*
X8998214Y-11694214D01*
X9026786Y-11708500D01*
X9041071Y-11737071D01*
X9041071Y-11894214D01*
X9183928Y-11894214D02*
X9183928Y-11694214D01*
X9183928Y-11722786D02*
X9198214Y-11708500D01*
X9226786Y-11694214D01*
X9269643Y-11694214D01*
X9298214Y-11708500D01*
X9312500Y-11737071D01*
X9312500Y-11894214D01*
X9312500Y-11737071D02*
X9326786Y-11708500D01*
X9355357Y-11694214D01*
X9398214Y-11694214D01*
X9426786Y-11708500D01*
X9441071Y-11737071D01*
X9441071Y-11894214D01*
X10026786Y-11579929D02*
X9769643Y-11965643D01*
X10412500Y-11594214D02*
X10441071Y-11594214D01*
X10469643Y-11608500D01*
X10483928Y-11622786D01*
X10498214Y-11651357D01*
X10512500Y-11708500D01*
X10512500Y-11779929D01*
X10498214Y-11837071D01*
X10483928Y-11865643D01*
X10469643Y-11879929D01*
X10441071Y-11894214D01*
X10412500Y-11894214D01*
X10383928Y-11879929D01*
X10369643Y-11865643D01*
X10355357Y-11837071D01*
X10341071Y-11779929D01*
X10341071Y-11708500D01*
X10355357Y-11651357D01*
X10369643Y-11622786D01*
X10383928Y-11608500D01*
X10412500Y-11594214D01*
X10641071Y-11865643D02*
X10655357Y-11879929D01*
X10641071Y-11894214D01*
X10626786Y-11879929D01*
X10641071Y-11865643D01*
X10641071Y-11894214D01*
X10841071Y-11594214D02*
X10869643Y-11594214D01*
X10898214Y-11608500D01*
X10912500Y-11622786D01*
X10926786Y-11651357D01*
X10941071Y-11708500D01*
X10941071Y-11779929D01*
X10926786Y-11837071D01*
X10912500Y-11865643D01*
X10898214Y-11879929D01*
X10869643Y-11894214D01*
X10841071Y-11894214D01*
X10812500Y-11879929D01*
X10798214Y-11865643D01*
X10783928Y-11837071D01*
X10769643Y-11779929D01*
X10769643Y-11708500D01*
X10783928Y-11651357D01*
X10798214Y-11622786D01*
X10812500Y-11608500D01*
X10841071Y-11594214D01*
X11041071Y-11594214D02*
X11226786Y-11594214D01*
X11126786Y-11708500D01*
X11169643Y-11708500D01*
X11198214Y-11722786D01*
X11212500Y-11737071D01*
X11226786Y-11765643D01*
X11226786Y-11837071D01*
X11212500Y-11865643D01*
X11198214Y-11879929D01*
X11169643Y-11894214D01*
X11083928Y-11894214D01*
X11055357Y-11879929D01*
X11041071Y-11865643D01*
X11369643Y-11894214D02*
X11426786Y-11894214D01*
X11455357Y-11879929D01*
X11469643Y-11865643D01*
X11498214Y-11822786D01*
X11512500Y-11765643D01*
X11512500Y-11651357D01*
X11498214Y-11622786D01*
X11483928Y-11608500D01*
X11455357Y-11594214D01*
X11398214Y-11594214D01*
X11369643Y-11608500D01*
X11355357Y-11622786D01*
X11341071Y-11651357D01*
X11341071Y-11722786D01*
X11355357Y-11751357D01*
X11369643Y-11765643D01*
X11398214Y-11779929D01*
X11455357Y-11779929D01*
X11483928Y-11765643D01*
X11498214Y-11751357D01*
X11512500Y-11722786D01*
X11626786Y-11594214D02*
X11626786Y-11651357D01*
X11741071Y-11594214D02*
X11741071Y-11651357D01*
X12183928Y-12008500D02*
X12169643Y-11994214D01*
X12141071Y-11951357D01*
X12126786Y-11922786D01*
X12112500Y-11879929D01*
X12098214Y-11808500D01*
X12098214Y-11751357D01*
X12112500Y-11679929D01*
X12126786Y-11637071D01*
X12141071Y-11608500D01*
X12169643Y-11565643D01*
X12183928Y-11551357D01*
X12283928Y-11622786D02*
X12298214Y-11608500D01*
X12326786Y-11594214D01*
X12398214Y-11594214D01*
X12426786Y-11608500D01*
X12441071Y-11622786D01*
X12455357Y-11651357D01*
X12455357Y-11679929D01*
X12441071Y-11722786D01*
X12269643Y-11894214D01*
X12455357Y-11894214D01*
X12626786Y-11722786D02*
X12598214Y-11708500D01*
X12583928Y-11694214D01*
X12569643Y-11665643D01*
X12569643Y-11651357D01*
X12583928Y-11622786D01*
X12598214Y-11608500D01*
X12626786Y-11594214D01*
X12683928Y-11594214D01*
X12712500Y-11608500D01*
X12726786Y-11622786D01*
X12741071Y-11651357D01*
X12741071Y-11665643D01*
X12726786Y-11694214D01*
X12712500Y-11708500D01*
X12683928Y-11722786D01*
X12626786Y-11722786D01*
X12598214Y-11737071D01*
X12583928Y-11751357D01*
X12569643Y-11779929D01*
X12569643Y-11837071D01*
X12583928Y-11865643D01*
X12598214Y-11879929D01*
X12626786Y-11894214D01*
X12683928Y-11894214D01*
X12712500Y-11879929D01*
X12726786Y-11865643D01*
X12741071Y-11837071D01*
X12741071Y-11779929D01*
X12726786Y-11751357D01*
X12712500Y-11737071D01*
X12683928Y-11722786D01*
X13098214Y-11894214D02*
X13098214Y-11594214D01*
X13226786Y-11894214D02*
X13226786Y-11737071D01*
X13212500Y-11708500D01*
X13183928Y-11694214D01*
X13141071Y-11694214D01*
X13112500Y-11708500D01*
X13098214Y-11722786D01*
X13412500Y-11894214D02*
X13383928Y-11879929D01*
X13369643Y-11865643D01*
X13355357Y-11837071D01*
X13355357Y-11751357D01*
X13369643Y-11722786D01*
X13383928Y-11708500D01*
X13412500Y-11694214D01*
X13455357Y-11694214D01*
X13483928Y-11708500D01*
X13498214Y-11722786D01*
X13512500Y-11751357D01*
X13512500Y-11837071D01*
X13498214Y-11865643D01*
X13483928Y-11879929D01*
X13455357Y-11894214D01*
X13412500Y-11894214D01*
X13683928Y-11894214D02*
X13655357Y-11879929D01*
X13641071Y-11851357D01*
X13641071Y-11594214D01*
X13912500Y-11879929D02*
X13883928Y-11894214D01*
X13826786Y-11894214D01*
X13798214Y-11879929D01*
X13783928Y-11851357D01*
X13783928Y-11737071D01*
X13798214Y-11708500D01*
X13826786Y-11694214D01*
X13883928Y-11694214D01*
X13912500Y-11708500D01*
X13926786Y-11737071D01*
X13926786Y-11765643D01*
X13783928Y-11794214D01*
X14041071Y-11879929D02*
X14069643Y-11894214D01*
X14126786Y-11894214D01*
X14155357Y-11879929D01*
X14169643Y-11851357D01*
X14169643Y-11837071D01*
X14155357Y-11808500D01*
X14126786Y-11794214D01*
X14083928Y-11794214D01*
X14055357Y-11779929D01*
X14041071Y-11751357D01*
X14041071Y-11737071D01*
X14055357Y-11708500D01*
X14083928Y-11694214D01*
X14126786Y-11694214D01*
X14155357Y-11708500D01*
X14269643Y-12008500D02*
X14283928Y-11994214D01*
X14312500Y-11951357D01*
X14326786Y-11922786D01*
X14341071Y-11879929D01*
X14355357Y-11808500D01*
X14355357Y-11751357D01*
X14341071Y-11679929D01*
X14326786Y-11637071D01*
X14312500Y-11608500D01*
X14283928Y-11565643D01*
X14269643Y-11551357D01*
M02*
