G04 #@! TF.GenerationSoftware,KiCad,Pcbnew,(5.1.9)-1*
G04 #@! TF.CreationDate,2021-11-21T23:00:06-05:00*
G04 #@! TF.ProjectId,sst39-32,73737433-392d-4333-922e-6b696361645f,rev?*
G04 #@! TF.SameCoordinates,Original*
G04 #@! TF.FileFunction,Soldermask,Top*
G04 #@! TF.FilePolarity,Negative*
%FSLAX46Y46*%
G04 Gerber Fmt 4.6, Leading zero omitted, Abs format (unit mm)*
G04 Created by KiCad (PCBNEW (5.1.9)-1) date 2021-11-21 23:00:06*
%MOMM*%
%LPD*%
G01*
G04 APERTURE LIST*
%ADD10O,1.600000X1.600000*%
%ADD11R,1.600000X1.600000*%
%ADD12O,1.700000X1.700000*%
%ADD13R,1.700000X1.700000*%
G04 APERTURE END LIST*
D10*
X93290000Y-62900000D03*
X78050000Y-101000000D03*
X93290000Y-65440000D03*
X78050000Y-98460000D03*
X93290000Y-67980000D03*
X78050000Y-95920000D03*
X93290000Y-70520000D03*
X78050000Y-93380000D03*
X93290000Y-73060000D03*
X78050000Y-90840000D03*
X93290000Y-75600000D03*
X78050000Y-88300000D03*
X93290000Y-78140000D03*
X78050000Y-85760000D03*
X93290000Y-80680000D03*
X78050000Y-83220000D03*
X93290000Y-83220000D03*
X78050000Y-80680000D03*
X93290000Y-85760000D03*
X78050000Y-78140000D03*
X93290000Y-88300000D03*
X78050000Y-75600000D03*
X93290000Y-90840000D03*
X78050000Y-73060000D03*
X93290000Y-93380000D03*
X78050000Y-70520000D03*
X93290000Y-95920000D03*
X78050000Y-67980000D03*
X93290000Y-98460000D03*
X78050000Y-65440000D03*
X93290000Y-101000000D03*
D11*
X78050000Y-62900000D03*
D12*
X89460000Y-101020000D03*
X89460000Y-98480000D03*
X89460000Y-95940000D03*
X89460000Y-93400000D03*
X89460000Y-90860000D03*
X89460000Y-88320000D03*
X89460000Y-85780000D03*
X89460000Y-83240000D03*
X89460000Y-80700000D03*
X89460000Y-78160000D03*
X89460000Y-75620000D03*
X89460000Y-73080000D03*
X89460000Y-70540000D03*
D13*
X89460000Y-68000000D03*
D12*
X81850000Y-101020000D03*
X81850000Y-98480000D03*
X81850000Y-95940000D03*
X81850000Y-93400000D03*
X81850000Y-90860000D03*
X81850000Y-88320000D03*
X81850000Y-85780000D03*
X81850000Y-83240000D03*
X81850000Y-80700000D03*
X81850000Y-78160000D03*
X81850000Y-75620000D03*
X81850000Y-73080000D03*
X81850000Y-70540000D03*
D13*
X81850000Y-68000000D03*
M02*
