M48
; DRILL file {KiCad (5.1.9)-1} date 11/21/21 23:00:21
; FORMAT={-:-/ absolute / metric / decimal}
; #@! TF.CreationDate,2021-11-21T23:00:21-05:00
; #@! TF.GenerationSoftware,Kicad,Pcbnew,(5.1.9)-1
; #@! TF.FileFunction,Plated,1,2,PTH
FMAT,2
METRIC
T1C0.800
T2C1.000
%
G90
G05
T1
X78.05Y-62.9
X78.05Y-65.44
X78.05Y-67.98
X78.05Y-70.52
X78.05Y-73.06
X78.05Y-75.6
X78.05Y-78.14
X78.05Y-80.68
X78.05Y-83.22
X78.05Y-85.76
X78.05Y-88.3
X78.05Y-90.84
X78.05Y-93.38
X78.05Y-95.92
X78.05Y-98.46
X78.05Y-101.0
X93.29Y-62.9
X93.29Y-65.44
X93.29Y-67.98
X93.29Y-70.52
X93.29Y-73.06
X93.29Y-75.6
X93.29Y-78.14
X93.29Y-80.68
X93.29Y-83.22
X93.29Y-85.76
X93.29Y-88.3
X93.29Y-90.84
X93.29Y-93.38
X93.29Y-95.92
X93.29Y-98.46
X93.29Y-101.0
T2
X81.85Y-68.0
X81.85Y-70.54
X81.85Y-73.08
X81.85Y-75.62
X81.85Y-78.16
X81.85Y-80.7
X81.85Y-83.24
X81.85Y-85.78
X81.85Y-88.32
X81.85Y-90.86
X81.85Y-93.4
X81.85Y-95.94
X81.85Y-98.48
X81.85Y-101.02
X89.46Y-68.0
X89.46Y-70.54
X89.46Y-73.08
X89.46Y-75.62
X89.46Y-78.16
X89.46Y-80.7
X89.46Y-83.24
X89.46Y-85.78
X89.46Y-88.32
X89.46Y-90.86
X89.46Y-93.4
X89.46Y-95.94
X89.46Y-98.48
X89.46Y-101.02
T0
M30
