%FSLAX45Y45*%
G04 Gerber Fmt 4.5, Leading zero omitted, Abs format (unit mm)*
G04 Created by KiCad (PCBNEW (5.1.9)-1) date 2021-11-21 23:01:41*
%MOMM*%
%LPD*%
G01*
G04 APERTURE LIST*
%TA.AperFunction,Profile*%
%ADD10C,0.050000*%
%TD*%
%ADD11C,0.200000*%
%ADD12C,0.300000*%
G04 APERTURE END LIST*
D10*
X13900000Y-9900000D02*
X13900000Y-5900000D01*
X15800000Y-9900000D02*
X13900000Y-9900000D01*
X15800000Y-5900000D02*
X15800000Y-9900000D01*
X13900000Y-5900000D02*
X15800000Y-5900000D01*
D11*
D12*
X14183928Y-10368214D02*
X14183928Y-10068214D01*
X14255357Y-10068214D01*
X14298214Y-10082500D01*
X14326786Y-10111072D01*
X14341071Y-10139643D01*
X14355357Y-10196786D01*
X14355357Y-10239643D01*
X14341071Y-10296786D01*
X14326786Y-10325357D01*
X14298214Y-10353929D01*
X14255357Y-10368214D01*
X14183928Y-10368214D01*
X14483928Y-10368214D02*
X14483928Y-10168214D01*
X14483928Y-10225357D02*
X14498214Y-10196786D01*
X14512500Y-10182500D01*
X14541071Y-10168214D01*
X14569643Y-10168214D01*
X14669643Y-10368214D02*
X14669643Y-10168214D01*
X14669643Y-10068214D02*
X14655357Y-10082500D01*
X14669643Y-10096786D01*
X14683928Y-10082500D01*
X14669643Y-10068214D01*
X14669643Y-10096786D01*
X14855357Y-10368214D02*
X14826786Y-10353929D01*
X14812500Y-10325357D01*
X14812500Y-10068214D01*
X15012500Y-10368214D02*
X14983928Y-10353929D01*
X14969643Y-10325357D01*
X14969643Y-10068214D01*
X15355357Y-10368214D02*
X15355357Y-10068214D01*
X15455357Y-10282500D01*
X15555357Y-10068214D01*
X15555357Y-10368214D01*
X15826786Y-10368214D02*
X15826786Y-10211072D01*
X15812500Y-10182500D01*
X15783928Y-10168214D01*
X15726786Y-10168214D01*
X15698214Y-10182500D01*
X15826786Y-10353929D02*
X15798214Y-10368214D01*
X15726786Y-10368214D01*
X15698214Y-10353929D01*
X15683928Y-10325357D01*
X15683928Y-10296786D01*
X15698214Y-10268214D01*
X15726786Y-10253929D01*
X15798214Y-10253929D01*
X15826786Y-10239643D01*
X15969643Y-10168214D02*
X15969643Y-10468214D01*
X15969643Y-10182500D02*
X15998214Y-10168214D01*
X16055357Y-10168214D01*
X16083928Y-10182500D01*
X16098214Y-10196786D01*
X16112500Y-10225357D01*
X16112500Y-10311072D01*
X16098214Y-10339643D01*
X16083928Y-10353929D01*
X16055357Y-10368214D01*
X15998214Y-10368214D01*
X15969643Y-10353929D01*
X16241071Y-10339643D02*
X16255357Y-10353929D01*
X16241071Y-10368214D01*
X16226786Y-10353929D01*
X16241071Y-10339643D01*
X16241071Y-10368214D01*
X16241071Y-10182500D02*
X16255357Y-10196786D01*
X16241071Y-10211072D01*
X16226786Y-10196786D01*
X16241071Y-10182500D01*
X16241071Y-10211072D01*
M02*
