M48
; DRILL file {KiCad (5.1.9)-1} date 11/21/21 23:01:40
; FORMAT={-:-/ absolute / metric / decimal}
; #@! TF.CreationDate,2021-11-21T23:01:40-05:00
; #@! TF.GenerationSoftware,Kicad,Pcbnew,(5.1.9)-1
; #@! TF.FileFunction,Plated,1,2,PTH
FMAT,2
METRIC
T1C0.800
T2C1.000
%
G90
G05
T1
X140.9Y-62.8
X140.9Y-65.34
X140.9Y-67.88
X140.9Y-70.42
X140.9Y-72.96
X140.9Y-75.5
X140.9Y-78.04
X140.9Y-80.58
X140.9Y-83.12
X140.9Y-85.66
X140.9Y-88.2
X140.9Y-90.74
X140.9Y-93.28
X140.9Y-95.82
X156.14Y-62.8
X156.14Y-65.34
X156.14Y-67.88
X156.14Y-70.42
X156.14Y-72.96
X156.14Y-75.5
X156.14Y-78.04
X156.14Y-80.58
X156.14Y-83.12
X156.14Y-85.66
X156.14Y-88.2
X156.14Y-90.74
X156.14Y-93.28
X156.14Y-95.82
T2
X144.76Y-62.8
X144.76Y-65.34
X144.76Y-67.88
X144.76Y-70.42
X144.76Y-72.96
X144.76Y-75.5
X144.76Y-78.04
X144.76Y-80.58
X144.76Y-83.12
X144.76Y-85.66
X144.76Y-88.2
X144.76Y-90.74
X144.76Y-93.28
X144.76Y-95.82
X152.38Y-62.8
X152.38Y-65.34
X152.38Y-67.88
X152.38Y-70.42
X152.38Y-72.96
X152.38Y-75.5
X152.38Y-78.04
X152.38Y-80.58
X152.38Y-83.12
X152.38Y-85.66
X152.38Y-88.2
X152.38Y-90.74
X152.38Y-93.28
X152.38Y-95.82
T0
M30
