%FSLAX45Y45*%
G04 Gerber Fmt 4.5, Leading zero omitted, Abs format (unit mm)*
G04 Created by KiCad (PCBNEW (5.1.9)-1) date 2021-11-21 23:01:41*
%MOMM*%
%LPD*%
G01*
G04 APERTURE LIST*
%TA.AperFunction,Profile*%
%ADD10C,0.050000*%
%TD*%
%ADD11C,0.200000*%
%ADD12C,0.300000*%
G04 APERTURE END LIST*
D10*
X13900000Y-9900000D02*
X13900000Y-5900000D01*
X15800000Y-9900000D02*
X13900000Y-9900000D01*
X15800000Y-5900000D02*
X15800000Y-9900000D01*
X13900000Y-5900000D02*
X15800000Y-5900000D01*
D11*
X14050000Y-6240000D02*
X14130000Y-6320000D01*
X14130000Y-6240000D02*
X14050000Y-6320000D01*
X14050000Y-6494000D02*
X14130000Y-6574000D01*
X14130000Y-6494000D02*
X14050000Y-6574000D01*
X14050000Y-6748000D02*
X14130000Y-6828000D01*
X14130000Y-6748000D02*
X14050000Y-6828000D01*
X14050000Y-7002000D02*
X14130000Y-7082000D01*
X14130000Y-7002000D02*
X14050000Y-7082000D01*
X14050000Y-7256000D02*
X14130000Y-7336000D01*
X14130000Y-7256000D02*
X14050000Y-7336000D01*
X14050000Y-7510000D02*
X14130000Y-7590000D01*
X14130000Y-7510000D02*
X14050000Y-7590000D01*
X14050000Y-7764000D02*
X14130000Y-7844000D01*
X14130000Y-7764000D02*
X14050000Y-7844000D01*
X14050000Y-8018000D02*
X14130000Y-8098000D01*
X14130000Y-8018000D02*
X14050000Y-8098000D01*
X14050000Y-8272000D02*
X14130000Y-8352000D01*
X14130000Y-8272000D02*
X14050000Y-8352000D01*
X14050000Y-8526000D02*
X14130000Y-8606000D01*
X14130000Y-8526000D02*
X14050000Y-8606000D01*
X14050000Y-8780000D02*
X14130000Y-8860000D01*
X14130000Y-8780000D02*
X14050000Y-8860000D01*
X14050000Y-9034000D02*
X14130000Y-9114000D01*
X14130000Y-9034000D02*
X14050000Y-9114000D01*
X14050000Y-9288000D02*
X14130000Y-9368000D01*
X14130000Y-9288000D02*
X14050000Y-9368000D01*
X14050000Y-9542000D02*
X14130000Y-9622000D01*
X14130000Y-9542000D02*
X14050000Y-9622000D01*
X15574000Y-6240000D02*
X15654000Y-6320000D01*
X15654000Y-6240000D02*
X15574000Y-6320000D01*
X15574000Y-6494000D02*
X15654000Y-6574000D01*
X15654000Y-6494000D02*
X15574000Y-6574000D01*
X15574000Y-6748000D02*
X15654000Y-6828000D01*
X15654000Y-6748000D02*
X15574000Y-6828000D01*
X15574000Y-7002000D02*
X15654000Y-7082000D01*
X15654000Y-7002000D02*
X15574000Y-7082000D01*
X15574000Y-7256000D02*
X15654000Y-7336000D01*
X15654000Y-7256000D02*
X15574000Y-7336000D01*
X15574000Y-7510000D02*
X15654000Y-7590000D01*
X15654000Y-7510000D02*
X15574000Y-7590000D01*
X15574000Y-7764000D02*
X15654000Y-7844000D01*
X15654000Y-7764000D02*
X15574000Y-7844000D01*
X15574000Y-8018000D02*
X15654000Y-8098000D01*
X15654000Y-8018000D02*
X15574000Y-8098000D01*
X15574000Y-8272000D02*
X15654000Y-8352000D01*
X15654000Y-8272000D02*
X15574000Y-8352000D01*
X15574000Y-8526000D02*
X15654000Y-8606000D01*
X15654000Y-8526000D02*
X15574000Y-8606000D01*
X15574000Y-8780000D02*
X15654000Y-8860000D01*
X15654000Y-8780000D02*
X15574000Y-8860000D01*
X15574000Y-9034000D02*
X15654000Y-9114000D01*
X15654000Y-9034000D02*
X15574000Y-9114000D01*
X15574000Y-9288000D02*
X15654000Y-9368000D01*
X15654000Y-9288000D02*
X15574000Y-9368000D01*
X15574000Y-9542000D02*
X15654000Y-9622000D01*
X15654000Y-9542000D02*
X15574000Y-9622000D01*
X14526000Y-6280000D02*
G75*
G03*
X14526000Y-6280000I-50000J0D01*
G01*
X14526000Y-6534000D02*
G75*
G03*
X14526000Y-6534000I-50000J0D01*
G01*
X14526000Y-6788000D02*
G75*
G03*
X14526000Y-6788000I-50000J0D01*
G01*
X14526000Y-7042000D02*
G75*
G03*
X14526000Y-7042000I-50000J0D01*
G01*
X14526000Y-7296000D02*
G75*
G03*
X14526000Y-7296000I-50000J0D01*
G01*
X14526000Y-7550000D02*
G75*
G03*
X14526000Y-7550000I-50000J0D01*
G01*
X14526000Y-7804000D02*
G75*
G03*
X14526000Y-7804000I-50000J0D01*
G01*
X14526000Y-8058000D02*
G75*
G03*
X14526000Y-8058000I-50000J0D01*
G01*
X14526000Y-8312000D02*
G75*
G03*
X14526000Y-8312000I-50000J0D01*
G01*
X14526000Y-8566000D02*
G75*
G03*
X14526000Y-8566000I-50000J0D01*
G01*
X14526000Y-8820000D02*
G75*
G03*
X14526000Y-8820000I-50000J0D01*
G01*
X14526000Y-9074000D02*
G75*
G03*
X14526000Y-9074000I-50000J0D01*
G01*
X14526000Y-9328000D02*
G75*
G03*
X14526000Y-9328000I-50000J0D01*
G01*
X14526000Y-9582000D02*
G75*
G03*
X14526000Y-9582000I-50000J0D01*
G01*
X15288000Y-6280000D02*
G75*
G03*
X15288000Y-6280000I-50000J0D01*
G01*
X15288000Y-6534000D02*
G75*
G03*
X15288000Y-6534000I-50000J0D01*
G01*
X15288000Y-6788000D02*
G75*
G03*
X15288000Y-6788000I-50000J0D01*
G01*
X15288000Y-7042000D02*
G75*
G03*
X15288000Y-7042000I-50000J0D01*
G01*
X15288000Y-7296000D02*
G75*
G03*
X15288000Y-7296000I-50000J0D01*
G01*
X15288000Y-7550000D02*
G75*
G03*
X15288000Y-7550000I-50000J0D01*
G01*
X15288000Y-7804000D02*
G75*
G03*
X15288000Y-7804000I-50000J0D01*
G01*
X15288000Y-8058000D02*
G75*
G03*
X15288000Y-8058000I-50000J0D01*
G01*
X15288000Y-8312000D02*
G75*
G03*
X15288000Y-8312000I-50000J0D01*
G01*
X15288000Y-8566000D02*
G75*
G03*
X15288000Y-8566000I-50000J0D01*
G01*
X15288000Y-8820000D02*
G75*
G03*
X15288000Y-8820000I-50000J0D01*
G01*
X15288000Y-9074000D02*
G75*
G03*
X15288000Y-9074000I-50000J0D01*
G01*
X15288000Y-9328000D02*
G75*
G03*
X15288000Y-9328000I-50000J0D01*
G01*
X15288000Y-9582000D02*
G75*
G03*
X15288000Y-9582000I-50000J0D01*
G01*
D12*
X14183928Y-10368214D02*
X14183928Y-10068214D01*
X14255357Y-10068214D01*
X14298214Y-10082500D01*
X14326786Y-10111072D01*
X14341071Y-10139643D01*
X14355357Y-10196786D01*
X14355357Y-10239643D01*
X14341071Y-10296786D01*
X14326786Y-10325357D01*
X14298214Y-10353929D01*
X14255357Y-10368214D01*
X14183928Y-10368214D01*
X14483928Y-10368214D02*
X14483928Y-10168214D01*
X14483928Y-10225357D02*
X14498214Y-10196786D01*
X14512500Y-10182500D01*
X14541071Y-10168214D01*
X14569643Y-10168214D01*
X14669643Y-10368214D02*
X14669643Y-10168214D01*
X14669643Y-10068214D02*
X14655357Y-10082500D01*
X14669643Y-10096786D01*
X14683928Y-10082500D01*
X14669643Y-10068214D01*
X14669643Y-10096786D01*
X14855357Y-10368214D02*
X14826786Y-10353929D01*
X14812500Y-10325357D01*
X14812500Y-10068214D01*
X15012500Y-10368214D02*
X14983928Y-10353929D01*
X14969643Y-10325357D01*
X14969643Y-10068214D01*
X15355357Y-10368214D02*
X15355357Y-10068214D01*
X15455357Y-10282500D01*
X15555357Y-10068214D01*
X15555357Y-10368214D01*
X15826786Y-10368214D02*
X15826786Y-10211072D01*
X15812500Y-10182500D01*
X15783928Y-10168214D01*
X15726786Y-10168214D01*
X15698214Y-10182500D01*
X15826786Y-10353929D02*
X15798214Y-10368214D01*
X15726786Y-10368214D01*
X15698214Y-10353929D01*
X15683928Y-10325357D01*
X15683928Y-10296786D01*
X15698214Y-10268214D01*
X15726786Y-10253929D01*
X15798214Y-10253929D01*
X15826786Y-10239643D01*
X15969643Y-10168214D02*
X15969643Y-10468214D01*
X15969643Y-10182500D02*
X15998214Y-10168214D01*
X16055357Y-10168214D01*
X16083928Y-10182500D01*
X16098214Y-10196786D01*
X16112500Y-10225357D01*
X16112500Y-10311072D01*
X16098214Y-10339643D01*
X16083928Y-10353929D01*
X16055357Y-10368214D01*
X15998214Y-10368214D01*
X15969643Y-10353929D01*
X16241071Y-10339643D02*
X16255357Y-10353929D01*
X16241071Y-10368214D01*
X16226786Y-10353929D01*
X16241071Y-10339643D01*
X16241071Y-10368214D01*
X16241071Y-10182500D02*
X16255357Y-10196786D01*
X16241071Y-10211072D01*
X16226786Y-10196786D01*
X16241071Y-10182500D01*
X16241071Y-10211072D01*
X13817500Y-10822500D02*
X13897500Y-10902500D01*
X13897500Y-10822500D02*
X13817500Y-10902500D01*
X14241071Y-10698214D02*
X14269643Y-10698214D01*
X14298214Y-10712500D01*
X14312500Y-10726786D01*
X14326786Y-10755357D01*
X14341071Y-10812500D01*
X14341071Y-10883929D01*
X14326786Y-10941072D01*
X14312500Y-10969643D01*
X14298214Y-10983929D01*
X14269643Y-10998214D01*
X14241071Y-10998214D01*
X14212500Y-10983929D01*
X14198214Y-10969643D01*
X14183928Y-10941072D01*
X14169643Y-10883929D01*
X14169643Y-10812500D01*
X14183928Y-10755357D01*
X14198214Y-10726786D01*
X14212500Y-10712500D01*
X14241071Y-10698214D01*
X14469643Y-10969643D02*
X14483928Y-10983929D01*
X14469643Y-10998214D01*
X14455357Y-10983929D01*
X14469643Y-10969643D01*
X14469643Y-10998214D01*
X14655357Y-10826786D02*
X14626786Y-10812500D01*
X14612500Y-10798214D01*
X14598214Y-10769643D01*
X14598214Y-10755357D01*
X14612500Y-10726786D01*
X14626786Y-10712500D01*
X14655357Y-10698214D01*
X14712500Y-10698214D01*
X14741071Y-10712500D01*
X14755357Y-10726786D01*
X14769643Y-10755357D01*
X14769643Y-10769643D01*
X14755357Y-10798214D01*
X14741071Y-10812500D01*
X14712500Y-10826786D01*
X14655357Y-10826786D01*
X14626786Y-10841072D01*
X14612500Y-10855357D01*
X14598214Y-10883929D01*
X14598214Y-10941072D01*
X14612500Y-10969643D01*
X14626786Y-10983929D01*
X14655357Y-10998214D01*
X14712500Y-10998214D01*
X14741071Y-10983929D01*
X14755357Y-10969643D01*
X14769643Y-10941072D01*
X14769643Y-10883929D01*
X14755357Y-10855357D01*
X14741071Y-10841072D01*
X14712500Y-10826786D01*
X14955357Y-10698214D02*
X14983928Y-10698214D01*
X15012500Y-10712500D01*
X15026786Y-10726786D01*
X15041071Y-10755357D01*
X15055357Y-10812500D01*
X15055357Y-10883929D01*
X15041071Y-10941072D01*
X15026786Y-10969643D01*
X15012500Y-10983929D01*
X14983928Y-10998214D01*
X14955357Y-10998214D01*
X14926786Y-10983929D01*
X14912500Y-10969643D01*
X14898214Y-10941072D01*
X14883928Y-10883929D01*
X14883928Y-10812500D01*
X14898214Y-10755357D01*
X14912500Y-10726786D01*
X14926786Y-10712500D01*
X14955357Y-10698214D01*
X15183928Y-10998214D02*
X15183928Y-10798214D01*
X15183928Y-10826786D02*
X15198214Y-10812500D01*
X15226786Y-10798214D01*
X15269643Y-10798214D01*
X15298214Y-10812500D01*
X15312500Y-10841072D01*
X15312500Y-10998214D01*
X15312500Y-10841072D02*
X15326786Y-10812500D01*
X15355357Y-10798214D01*
X15398214Y-10798214D01*
X15426786Y-10812500D01*
X15441071Y-10841072D01*
X15441071Y-10998214D01*
X15583928Y-10998214D02*
X15583928Y-10798214D01*
X15583928Y-10826786D02*
X15598214Y-10812500D01*
X15626786Y-10798214D01*
X15669643Y-10798214D01*
X15698214Y-10812500D01*
X15712500Y-10841072D01*
X15712500Y-10998214D01*
X15712500Y-10841072D02*
X15726786Y-10812500D01*
X15755357Y-10798214D01*
X15798214Y-10798214D01*
X15826786Y-10812500D01*
X15841071Y-10841072D01*
X15841071Y-10998214D01*
X16426786Y-10683929D02*
X16169643Y-11069643D01*
X16812500Y-10698214D02*
X16841071Y-10698214D01*
X16869643Y-10712500D01*
X16883928Y-10726786D01*
X16898214Y-10755357D01*
X16912500Y-10812500D01*
X16912500Y-10883929D01*
X16898214Y-10941072D01*
X16883928Y-10969643D01*
X16869643Y-10983929D01*
X16841071Y-10998214D01*
X16812500Y-10998214D01*
X16783928Y-10983929D01*
X16769643Y-10969643D01*
X16755357Y-10941072D01*
X16741071Y-10883929D01*
X16741071Y-10812500D01*
X16755357Y-10755357D01*
X16769643Y-10726786D01*
X16783928Y-10712500D01*
X16812500Y-10698214D01*
X17041071Y-10969643D02*
X17055357Y-10983929D01*
X17041071Y-10998214D01*
X17026786Y-10983929D01*
X17041071Y-10969643D01*
X17041071Y-10998214D01*
X17241071Y-10698214D02*
X17269643Y-10698214D01*
X17298214Y-10712500D01*
X17312500Y-10726786D01*
X17326786Y-10755357D01*
X17341071Y-10812500D01*
X17341071Y-10883929D01*
X17326786Y-10941072D01*
X17312500Y-10969643D01*
X17298214Y-10983929D01*
X17269643Y-10998214D01*
X17241071Y-10998214D01*
X17212500Y-10983929D01*
X17198214Y-10969643D01*
X17183928Y-10941072D01*
X17169643Y-10883929D01*
X17169643Y-10812500D01*
X17183928Y-10755357D01*
X17198214Y-10726786D01*
X17212500Y-10712500D01*
X17241071Y-10698214D01*
X17441071Y-10698214D02*
X17626786Y-10698214D01*
X17526786Y-10812500D01*
X17569643Y-10812500D01*
X17598214Y-10826786D01*
X17612500Y-10841072D01*
X17626786Y-10869643D01*
X17626786Y-10941072D01*
X17612500Y-10969643D01*
X17598214Y-10983929D01*
X17569643Y-10998214D01*
X17483928Y-10998214D01*
X17455357Y-10983929D01*
X17441071Y-10969643D01*
X17912500Y-10998214D02*
X17741071Y-10998214D01*
X17826786Y-10998214D02*
X17826786Y-10698214D01*
X17798214Y-10741072D01*
X17769643Y-10769643D01*
X17741071Y-10783929D01*
X18026786Y-10698214D02*
X18026786Y-10755357D01*
X18141071Y-10698214D02*
X18141071Y-10755357D01*
X18583928Y-11112500D02*
X18569643Y-11098214D01*
X18541071Y-11055357D01*
X18526786Y-11026786D01*
X18512500Y-10983929D01*
X18498214Y-10912500D01*
X18498214Y-10855357D01*
X18512500Y-10783929D01*
X18526786Y-10741072D01*
X18541071Y-10712500D01*
X18569643Y-10669643D01*
X18583928Y-10655357D01*
X18683928Y-10726786D02*
X18698214Y-10712500D01*
X18726786Y-10698214D01*
X18798214Y-10698214D01*
X18826786Y-10712500D01*
X18841071Y-10726786D01*
X18855357Y-10755357D01*
X18855357Y-10783929D01*
X18841071Y-10826786D01*
X18669643Y-10998214D01*
X18855357Y-10998214D01*
X19026786Y-10826786D02*
X18998214Y-10812500D01*
X18983928Y-10798214D01*
X18969643Y-10769643D01*
X18969643Y-10755357D01*
X18983928Y-10726786D01*
X18998214Y-10712500D01*
X19026786Y-10698214D01*
X19083928Y-10698214D01*
X19112500Y-10712500D01*
X19126786Y-10726786D01*
X19141071Y-10755357D01*
X19141071Y-10769643D01*
X19126786Y-10798214D01*
X19112500Y-10812500D01*
X19083928Y-10826786D01*
X19026786Y-10826786D01*
X18998214Y-10841072D01*
X18983928Y-10855357D01*
X18969643Y-10883929D01*
X18969643Y-10941072D01*
X18983928Y-10969643D01*
X18998214Y-10983929D01*
X19026786Y-10998214D01*
X19083928Y-10998214D01*
X19112500Y-10983929D01*
X19126786Y-10969643D01*
X19141071Y-10941072D01*
X19141071Y-10883929D01*
X19126786Y-10855357D01*
X19112500Y-10841072D01*
X19083928Y-10826786D01*
X19498214Y-10998214D02*
X19498214Y-10698214D01*
X19626786Y-10998214D02*
X19626786Y-10841072D01*
X19612500Y-10812500D01*
X19583928Y-10798214D01*
X19541071Y-10798214D01*
X19512500Y-10812500D01*
X19498214Y-10826786D01*
X19812500Y-10998214D02*
X19783928Y-10983929D01*
X19769643Y-10969643D01*
X19755357Y-10941072D01*
X19755357Y-10855357D01*
X19769643Y-10826786D01*
X19783928Y-10812500D01*
X19812500Y-10798214D01*
X19855357Y-10798214D01*
X19883928Y-10812500D01*
X19898214Y-10826786D01*
X19912500Y-10855357D01*
X19912500Y-10941072D01*
X19898214Y-10969643D01*
X19883928Y-10983929D01*
X19855357Y-10998214D01*
X19812500Y-10998214D01*
X20083928Y-10998214D02*
X20055357Y-10983929D01*
X20041071Y-10955357D01*
X20041071Y-10698214D01*
X20312500Y-10983929D02*
X20283928Y-10998214D01*
X20226786Y-10998214D01*
X20198214Y-10983929D01*
X20183928Y-10955357D01*
X20183928Y-10841072D01*
X20198214Y-10812500D01*
X20226786Y-10798214D01*
X20283928Y-10798214D01*
X20312500Y-10812500D01*
X20326786Y-10841072D01*
X20326786Y-10869643D01*
X20183928Y-10898214D01*
X20441071Y-10983929D02*
X20469643Y-10998214D01*
X20526786Y-10998214D01*
X20555357Y-10983929D01*
X20569643Y-10955357D01*
X20569643Y-10941072D01*
X20555357Y-10912500D01*
X20526786Y-10898214D01*
X20483928Y-10898214D01*
X20455357Y-10883929D01*
X20441071Y-10855357D01*
X20441071Y-10841072D01*
X20455357Y-10812500D01*
X20483928Y-10798214D01*
X20526786Y-10798214D01*
X20555357Y-10812500D01*
X20669643Y-11112500D02*
X20683928Y-11098214D01*
X20712500Y-11055357D01*
X20726786Y-11026786D01*
X20741071Y-10983929D01*
X20755357Y-10912500D01*
X20755357Y-10855357D01*
X20741071Y-10783929D01*
X20726786Y-10741072D01*
X20712500Y-10712500D01*
X20683928Y-10669643D01*
X20669643Y-10655357D01*
X13897500Y-11258500D02*
G75*
G03*
X13897500Y-11258500I-50000J0D01*
G01*
X14341071Y-11394214D02*
X14169643Y-11394214D01*
X14255357Y-11394214D02*
X14255357Y-11094214D01*
X14226786Y-11137072D01*
X14198214Y-11165643D01*
X14169643Y-11179929D01*
X14469643Y-11365643D02*
X14483928Y-11379929D01*
X14469643Y-11394214D01*
X14455357Y-11379929D01*
X14469643Y-11365643D01*
X14469643Y-11394214D01*
X14669643Y-11094214D02*
X14698214Y-11094214D01*
X14726786Y-11108500D01*
X14741071Y-11122786D01*
X14755357Y-11151357D01*
X14769643Y-11208500D01*
X14769643Y-11279929D01*
X14755357Y-11337071D01*
X14741071Y-11365643D01*
X14726786Y-11379929D01*
X14698214Y-11394214D01*
X14669643Y-11394214D01*
X14641071Y-11379929D01*
X14626786Y-11365643D01*
X14612500Y-11337071D01*
X14598214Y-11279929D01*
X14598214Y-11208500D01*
X14612500Y-11151357D01*
X14626786Y-11122786D01*
X14641071Y-11108500D01*
X14669643Y-11094214D01*
X14955357Y-11094214D02*
X14983928Y-11094214D01*
X15012500Y-11108500D01*
X15026786Y-11122786D01*
X15041071Y-11151357D01*
X15055357Y-11208500D01*
X15055357Y-11279929D01*
X15041071Y-11337071D01*
X15026786Y-11365643D01*
X15012500Y-11379929D01*
X14983928Y-11394214D01*
X14955357Y-11394214D01*
X14926786Y-11379929D01*
X14912500Y-11365643D01*
X14898214Y-11337071D01*
X14883928Y-11279929D01*
X14883928Y-11208500D01*
X14898214Y-11151357D01*
X14912500Y-11122786D01*
X14926786Y-11108500D01*
X14955357Y-11094214D01*
X15183928Y-11394214D02*
X15183928Y-11194214D01*
X15183928Y-11222786D02*
X15198214Y-11208500D01*
X15226786Y-11194214D01*
X15269643Y-11194214D01*
X15298214Y-11208500D01*
X15312500Y-11237071D01*
X15312500Y-11394214D01*
X15312500Y-11237071D02*
X15326786Y-11208500D01*
X15355357Y-11194214D01*
X15398214Y-11194214D01*
X15426786Y-11208500D01*
X15441071Y-11237071D01*
X15441071Y-11394214D01*
X15583928Y-11394214D02*
X15583928Y-11194214D01*
X15583928Y-11222786D02*
X15598214Y-11208500D01*
X15626786Y-11194214D01*
X15669643Y-11194214D01*
X15698214Y-11208500D01*
X15712500Y-11237071D01*
X15712500Y-11394214D01*
X15712500Y-11237071D02*
X15726786Y-11208500D01*
X15755357Y-11194214D01*
X15798214Y-11194214D01*
X15826786Y-11208500D01*
X15841071Y-11237071D01*
X15841071Y-11394214D01*
X16426786Y-11079929D02*
X16169643Y-11465643D01*
X16812500Y-11094214D02*
X16841071Y-11094214D01*
X16869643Y-11108500D01*
X16883928Y-11122786D01*
X16898214Y-11151357D01*
X16912500Y-11208500D01*
X16912500Y-11279929D01*
X16898214Y-11337071D01*
X16883928Y-11365643D01*
X16869643Y-11379929D01*
X16841071Y-11394214D01*
X16812500Y-11394214D01*
X16783928Y-11379929D01*
X16769643Y-11365643D01*
X16755357Y-11337071D01*
X16741071Y-11279929D01*
X16741071Y-11208500D01*
X16755357Y-11151357D01*
X16769643Y-11122786D01*
X16783928Y-11108500D01*
X16812500Y-11094214D01*
X17041071Y-11365643D02*
X17055357Y-11379929D01*
X17041071Y-11394214D01*
X17026786Y-11379929D01*
X17041071Y-11365643D01*
X17041071Y-11394214D01*
X17241071Y-11094214D02*
X17269643Y-11094214D01*
X17298214Y-11108500D01*
X17312500Y-11122786D01*
X17326786Y-11151357D01*
X17341071Y-11208500D01*
X17341071Y-11279929D01*
X17326786Y-11337071D01*
X17312500Y-11365643D01*
X17298214Y-11379929D01*
X17269643Y-11394214D01*
X17241071Y-11394214D01*
X17212500Y-11379929D01*
X17198214Y-11365643D01*
X17183928Y-11337071D01*
X17169643Y-11279929D01*
X17169643Y-11208500D01*
X17183928Y-11151357D01*
X17198214Y-11122786D01*
X17212500Y-11108500D01*
X17241071Y-11094214D01*
X17441071Y-11094214D02*
X17626786Y-11094214D01*
X17526786Y-11208500D01*
X17569643Y-11208500D01*
X17598214Y-11222786D01*
X17612500Y-11237071D01*
X17626786Y-11265643D01*
X17626786Y-11337071D01*
X17612500Y-11365643D01*
X17598214Y-11379929D01*
X17569643Y-11394214D01*
X17483928Y-11394214D01*
X17455357Y-11379929D01*
X17441071Y-11365643D01*
X17769643Y-11394214D02*
X17826786Y-11394214D01*
X17855357Y-11379929D01*
X17869643Y-11365643D01*
X17898214Y-11322786D01*
X17912500Y-11265643D01*
X17912500Y-11151357D01*
X17898214Y-11122786D01*
X17883928Y-11108500D01*
X17855357Y-11094214D01*
X17798214Y-11094214D01*
X17769643Y-11108500D01*
X17755357Y-11122786D01*
X17741071Y-11151357D01*
X17741071Y-11222786D01*
X17755357Y-11251357D01*
X17769643Y-11265643D01*
X17798214Y-11279929D01*
X17855357Y-11279929D01*
X17883928Y-11265643D01*
X17898214Y-11251357D01*
X17912500Y-11222786D01*
X18026786Y-11094214D02*
X18026786Y-11151357D01*
X18141071Y-11094214D02*
X18141071Y-11151357D01*
X18583928Y-11508500D02*
X18569643Y-11494214D01*
X18541071Y-11451357D01*
X18526786Y-11422786D01*
X18512500Y-11379929D01*
X18498214Y-11308500D01*
X18498214Y-11251357D01*
X18512500Y-11179929D01*
X18526786Y-11137072D01*
X18541071Y-11108500D01*
X18569643Y-11065643D01*
X18583928Y-11051357D01*
X18683928Y-11122786D02*
X18698214Y-11108500D01*
X18726786Y-11094214D01*
X18798214Y-11094214D01*
X18826786Y-11108500D01*
X18841071Y-11122786D01*
X18855357Y-11151357D01*
X18855357Y-11179929D01*
X18841071Y-11222786D01*
X18669643Y-11394214D01*
X18855357Y-11394214D01*
X19026786Y-11222786D02*
X18998214Y-11208500D01*
X18983928Y-11194214D01*
X18969643Y-11165643D01*
X18969643Y-11151357D01*
X18983928Y-11122786D01*
X18998214Y-11108500D01*
X19026786Y-11094214D01*
X19083928Y-11094214D01*
X19112500Y-11108500D01*
X19126786Y-11122786D01*
X19141071Y-11151357D01*
X19141071Y-11165643D01*
X19126786Y-11194214D01*
X19112500Y-11208500D01*
X19083928Y-11222786D01*
X19026786Y-11222786D01*
X18998214Y-11237071D01*
X18983928Y-11251357D01*
X18969643Y-11279929D01*
X18969643Y-11337071D01*
X18983928Y-11365643D01*
X18998214Y-11379929D01*
X19026786Y-11394214D01*
X19083928Y-11394214D01*
X19112500Y-11379929D01*
X19126786Y-11365643D01*
X19141071Y-11337071D01*
X19141071Y-11279929D01*
X19126786Y-11251357D01*
X19112500Y-11237071D01*
X19083928Y-11222786D01*
X19498214Y-11394214D02*
X19498214Y-11094214D01*
X19626786Y-11394214D02*
X19626786Y-11237071D01*
X19612500Y-11208500D01*
X19583928Y-11194214D01*
X19541071Y-11194214D01*
X19512500Y-11208500D01*
X19498214Y-11222786D01*
X19812500Y-11394214D02*
X19783928Y-11379929D01*
X19769643Y-11365643D01*
X19755357Y-11337071D01*
X19755357Y-11251357D01*
X19769643Y-11222786D01*
X19783928Y-11208500D01*
X19812500Y-11194214D01*
X19855357Y-11194214D01*
X19883928Y-11208500D01*
X19898214Y-11222786D01*
X19912500Y-11251357D01*
X19912500Y-11337071D01*
X19898214Y-11365643D01*
X19883928Y-11379929D01*
X19855357Y-11394214D01*
X19812500Y-11394214D01*
X20083928Y-11394214D02*
X20055357Y-11379929D01*
X20041071Y-11351357D01*
X20041071Y-11094214D01*
X20312500Y-11379929D02*
X20283928Y-11394214D01*
X20226786Y-11394214D01*
X20198214Y-11379929D01*
X20183928Y-11351357D01*
X20183928Y-11237071D01*
X20198214Y-11208500D01*
X20226786Y-11194214D01*
X20283928Y-11194214D01*
X20312500Y-11208500D01*
X20326786Y-11237071D01*
X20326786Y-11265643D01*
X20183928Y-11294214D01*
X20441071Y-11379929D02*
X20469643Y-11394214D01*
X20526786Y-11394214D01*
X20555357Y-11379929D01*
X20569643Y-11351357D01*
X20569643Y-11337071D01*
X20555357Y-11308500D01*
X20526786Y-11294214D01*
X20483928Y-11294214D01*
X20455357Y-11279929D01*
X20441071Y-11251357D01*
X20441071Y-11237071D01*
X20455357Y-11208500D01*
X20483928Y-11194214D01*
X20526786Y-11194214D01*
X20555357Y-11208500D01*
X20669643Y-11508500D02*
X20683928Y-11494214D01*
X20712500Y-11451357D01*
X20726786Y-11422786D01*
X20741071Y-11379929D01*
X20755357Y-11308500D01*
X20755357Y-11251357D01*
X20741071Y-11179929D01*
X20726786Y-11137072D01*
X20712500Y-11108500D01*
X20683928Y-11065643D01*
X20669643Y-11051357D01*
M02*
