G04 #@! TF.GenerationSoftware,KiCad,Pcbnew,(5.1.9)-1*
G04 #@! TF.CreationDate,2021-11-21T23:01:30-05:00*
G04 #@! TF.ProjectId,sst39-28,73737433-392d-4323-982e-6b696361645f,rev?*
G04 #@! TF.SameCoordinates,Original*
G04 #@! TF.FileFunction,Soldermask,Top*
G04 #@! TF.FilePolarity,Negative*
%FSLAX46Y46*%
G04 Gerber Fmt 4.6, Leading zero omitted, Abs format (unit mm)*
G04 Created by KiCad (PCBNEW (5.1.9)-1) date 2021-11-21 23:01:30*
%MOMM*%
%LPD*%
G01*
G04 APERTURE LIST*
%ADD10O,1.700000X1.700000*%
%ADD11R,1.700000X1.700000*%
%ADD12O,1.600000X1.600000*%
%ADD13R,1.600000X1.600000*%
G04 APERTURE END LIST*
D10*
X152380000Y-95820000D03*
X152380000Y-93280000D03*
X152380000Y-90740000D03*
X152380000Y-88200000D03*
X152380000Y-85660000D03*
X152380000Y-83120000D03*
X152380000Y-80580000D03*
X152380000Y-78040000D03*
X152380000Y-75500000D03*
X152380000Y-72960000D03*
X152380000Y-70420000D03*
X152380000Y-67880000D03*
X152380000Y-65340000D03*
D11*
X152380000Y-62800000D03*
D10*
X144760000Y-95820000D03*
X144760000Y-93280000D03*
X144760000Y-90740000D03*
X144760000Y-88200000D03*
X144760000Y-85660000D03*
X144760000Y-83120000D03*
X144760000Y-80580000D03*
X144760000Y-78040000D03*
X144760000Y-75500000D03*
X144760000Y-72960000D03*
X144760000Y-70420000D03*
X144760000Y-67880000D03*
X144760000Y-65340000D03*
D11*
X144760000Y-62800000D03*
D12*
X156140000Y-62800000D03*
X140900000Y-95820000D03*
X156140000Y-65340000D03*
X140900000Y-93280000D03*
X156140000Y-67880000D03*
X140900000Y-90740000D03*
X156140000Y-70420000D03*
X140900000Y-88200000D03*
X156140000Y-72960000D03*
X140900000Y-85660000D03*
X156140000Y-75500000D03*
X140900000Y-83120000D03*
X156140000Y-78040000D03*
X140900000Y-80580000D03*
X156140000Y-80580000D03*
X140900000Y-78040000D03*
X156140000Y-83120000D03*
X140900000Y-75500000D03*
X156140000Y-85660000D03*
X140900000Y-72960000D03*
X156140000Y-88200000D03*
X140900000Y-70420000D03*
X156140000Y-90740000D03*
X140900000Y-67880000D03*
X156140000Y-93280000D03*
X140900000Y-65340000D03*
X156140000Y-95820000D03*
D13*
X140900000Y-62800000D03*
M02*
