%FSLAX45Y45*%
G04 Gerber Fmt 4.5, Leading zero omitted, Abs format (unit mm)*
G04 Created by KiCad (PCBNEW (5.1.9)-1) date 2021-05-07 14:06:38*
%MOMM*%
%LPD*%
G01*
G04 APERTURE LIST*
%TA.AperFunction,Profile*%
%ADD10C,0.050000*%
%TD*%
%ADD11C,0.200000*%
%ADD12C,0.300000*%
G04 APERTURE END LIST*
D10*
X11600000Y-12800000D02*
X11700000Y-12800000D01*
X11600000Y-6800000D02*
X11700000Y-6800000D01*
X19600000Y-6800000D02*
X19600000Y-12800000D01*
X19500000Y-6800000D02*
X19600000Y-6800000D01*
X11700000Y-6800000D02*
X19500000Y-6800000D01*
X11600000Y-12800000D02*
X11600000Y-6800000D01*
X19600000Y-12800000D02*
X11700000Y-12800000D01*
D11*
D12*
X11883928Y-13268214D02*
X11883928Y-12968214D01*
X11955357Y-12968214D01*
X11998214Y-12982500D01*
X12026786Y-13011071D01*
X12041071Y-13039643D01*
X12055357Y-13096786D01*
X12055357Y-13139643D01*
X12041071Y-13196786D01*
X12026786Y-13225357D01*
X11998214Y-13253929D01*
X11955357Y-13268214D01*
X11883928Y-13268214D01*
X12183928Y-13268214D02*
X12183928Y-13068214D01*
X12183928Y-13125357D02*
X12198214Y-13096786D01*
X12212500Y-13082500D01*
X12241071Y-13068214D01*
X12269643Y-13068214D01*
X12369643Y-13268214D02*
X12369643Y-13068214D01*
X12369643Y-12968214D02*
X12355357Y-12982500D01*
X12369643Y-12996786D01*
X12383928Y-12982500D01*
X12369643Y-12968214D01*
X12369643Y-12996786D01*
X12555357Y-13268214D02*
X12526786Y-13253929D01*
X12512500Y-13225357D01*
X12512500Y-12968214D01*
X12712500Y-13268214D02*
X12683928Y-13253929D01*
X12669643Y-13225357D01*
X12669643Y-12968214D01*
X13055357Y-13268214D02*
X13055357Y-12968214D01*
X13155357Y-13182500D01*
X13255357Y-12968214D01*
X13255357Y-13268214D01*
X13526786Y-13268214D02*
X13526786Y-13111071D01*
X13512500Y-13082500D01*
X13483928Y-13068214D01*
X13426786Y-13068214D01*
X13398214Y-13082500D01*
X13526786Y-13253929D02*
X13498214Y-13268214D01*
X13426786Y-13268214D01*
X13398214Y-13253929D01*
X13383928Y-13225357D01*
X13383928Y-13196786D01*
X13398214Y-13168214D01*
X13426786Y-13153929D01*
X13498214Y-13153929D01*
X13526786Y-13139643D01*
X13669643Y-13068214D02*
X13669643Y-13368214D01*
X13669643Y-13082500D02*
X13698214Y-13068214D01*
X13755357Y-13068214D01*
X13783928Y-13082500D01*
X13798214Y-13096786D01*
X13812500Y-13125357D01*
X13812500Y-13211071D01*
X13798214Y-13239643D01*
X13783928Y-13253929D01*
X13755357Y-13268214D01*
X13698214Y-13268214D01*
X13669643Y-13253929D01*
X13941071Y-13239643D02*
X13955357Y-13253929D01*
X13941071Y-13268214D01*
X13926786Y-13253929D01*
X13941071Y-13239643D01*
X13941071Y-13268214D01*
X13941071Y-13082500D02*
X13955357Y-13096786D01*
X13941071Y-13111071D01*
X13926786Y-13096786D01*
X13941071Y-13082500D01*
X13941071Y-13111071D01*
M02*
