G04 #@! TF.GenerationSoftware,KiCad,Pcbnew,(5.1.9)-1*
G04 #@! TF.CreationDate,2021-05-07T14:06:33-04:00*
G04 #@! TF.ProjectId,TommyPROM-schematics,546f6d6d-7950-4524-9f4d-2d736368656d,rev?*
G04 #@! TF.SameCoordinates,Original*
G04 #@! TF.FileFunction,Copper,L1,Top*
G04 #@! TF.FilePolarity,Positive*
%FSLAX46Y46*%
G04 Gerber Fmt 4.6, Leading zero omitted, Abs format (unit mm)*
G04 Created by KiCad (PCBNEW (5.1.9)-1) date 2021-05-07 14:06:33*
%MOMM*%
%LPD*%
G01*
G04 APERTURE LIST*
G04 #@! TA.AperFunction,ComponentPad*
%ADD10C,1.600000*%
G04 #@! TD*
G04 #@! TA.AperFunction,ComponentPad*
%ADD11O,1.600000X1.600000*%
G04 #@! TD*
G04 #@! TA.AperFunction,ComponentPad*
%ADD12O,1.440000X2.000000*%
G04 #@! TD*
G04 #@! TA.AperFunction,ComponentPad*
%ADD13R,1.440000X2.000000*%
G04 #@! TD*
G04 #@! TA.AperFunction,ComponentPad*
%ADD14R,1.600000X1.600000*%
G04 #@! TD*
G04 #@! TA.AperFunction,ComponentPad*
%ADD15C,1.800000*%
G04 #@! TD*
G04 #@! TA.AperFunction,ComponentPad*
%ADD16R,1.800000X1.800000*%
G04 #@! TD*
G04 #@! TA.AperFunction,ViaPad*
%ADD17C,0.800000*%
G04 #@! TD*
G04 #@! TA.AperFunction,Conductor*
%ADD18C,0.250000*%
G04 #@! TD*
G04 #@! TA.AperFunction,Conductor*
%ADD19C,0.600000*%
G04 #@! TD*
G04 #@! TA.AperFunction,Conductor*
%ADD20C,0.400000*%
G04 #@! TD*
G04 #@! TA.AperFunction,Conductor*
%ADD21C,0.500000*%
G04 #@! TD*
G04 APERTURE END LIST*
D10*
X150368000Y-121452000D03*
X150368000Y-123952000D03*
D11*
X167386000Y-123444000D03*
D10*
X177546000Y-123444000D03*
D11*
X136906000Y-72390000D03*
D10*
X126746000Y-72390000D03*
D11*
X136906000Y-77470000D03*
D10*
X126746000Y-77470000D03*
D11*
X136906000Y-82550000D03*
D10*
X126746000Y-82550000D03*
X123230000Y-102870000D03*
X125730000Y-102870000D03*
X137200000Y-102870000D03*
X139700000Y-102870000D03*
X133056000Y-87122000D03*
X130556000Y-87122000D03*
D12*
X184150000Y-76200000D03*
X184150000Y-91440000D03*
X181610000Y-76200000D03*
X181610000Y-91440000D03*
X179070000Y-76200000D03*
X179070000Y-91440000D03*
X176530000Y-76200000D03*
X176530000Y-91440000D03*
X173990000Y-76200000D03*
X173990000Y-91440000D03*
X171450000Y-76200000D03*
X171450000Y-91440000D03*
X168910000Y-76200000D03*
X168910000Y-91440000D03*
X166370000Y-76200000D03*
X166370000Y-91440000D03*
X163830000Y-76200000D03*
X163830000Y-91440000D03*
X161290000Y-76200000D03*
X161290000Y-91440000D03*
X158750000Y-76200000D03*
X158750000Y-91440000D03*
X156210000Y-76200000D03*
X156210000Y-91440000D03*
X153670000Y-76200000D03*
X153670000Y-91440000D03*
X151130000Y-76200000D03*
D13*
X151130000Y-91440000D03*
D11*
X142240000Y-106680000D03*
X134620000Y-121920000D03*
X142240000Y-109220000D03*
X134620000Y-119380000D03*
X142240000Y-111760000D03*
X134620000Y-116840000D03*
X142240000Y-114300000D03*
X134620000Y-114300000D03*
X142240000Y-116840000D03*
X134620000Y-111760000D03*
X142240000Y-119380000D03*
X134620000Y-109220000D03*
X142240000Y-121920000D03*
D14*
X134620000Y-106680000D03*
D11*
X128270000Y-106680000D03*
X120650000Y-121920000D03*
X128270000Y-109220000D03*
X120650000Y-119380000D03*
X128270000Y-111760000D03*
X120650000Y-116840000D03*
X128270000Y-114300000D03*
X120650000Y-114300000D03*
X128270000Y-116840000D03*
X120650000Y-111760000D03*
X128270000Y-119380000D03*
X120650000Y-109220000D03*
X128270000Y-121920000D03*
D14*
X120650000Y-106680000D03*
D15*
X185166000Y-123444000D03*
D16*
X182626000Y-123444000D03*
D11*
X186690000Y-100330000D03*
X186690000Y-115570000D03*
X151130000Y-100330000D03*
X184150000Y-115570000D03*
X153670000Y-100330000D03*
X181610000Y-115570000D03*
X156210000Y-100330000D03*
X179070000Y-115570000D03*
X158750000Y-100330000D03*
X176530000Y-115570000D03*
X161290000Y-100330000D03*
X173990000Y-115570000D03*
X163830000Y-100330000D03*
X171450000Y-115570000D03*
X166370000Y-100330000D03*
X168910000Y-115570000D03*
X168910000Y-100330000D03*
X166370000Y-115570000D03*
X171450000Y-100330000D03*
X163830000Y-115570000D03*
X173990000Y-100330000D03*
X161290000Y-115570000D03*
X176530000Y-100330000D03*
X158750000Y-115570000D03*
X179070000Y-100330000D03*
X156210000Y-115570000D03*
X181610000Y-100330000D03*
X153670000Y-115570000D03*
X184150000Y-100330000D03*
D14*
X151130000Y-115570000D03*
D17*
X191770002Y-101092000D03*
X138938000Y-93218000D03*
X143256000Y-97536000D03*
X173736000Y-87630000D03*
X179070000Y-97536004D03*
X130048000Y-106680000D03*
X154686000Y-87630000D03*
X146558000Y-87630000D03*
X136905994Y-97282000D03*
X141859007Y-92328993D03*
X150622000Y-107696000D03*
X140462000Y-107950000D03*
X145283347Y-115565347D03*
X163576000Y-103886000D03*
X144526000Y-110744000D03*
X132334000Y-111760000D03*
X132334000Y-116586000D03*
X150077000Y-109220000D03*
X149605998Y-93980002D03*
X156210000Y-84074000D03*
D18*
X191770002Y-116839998D02*
X191770002Y-101092000D01*
X185166000Y-123444000D02*
X191770002Y-116839998D01*
D19*
X138938000Y-93218000D02*
X143256000Y-97536000D01*
D18*
X185420000Y-109220000D02*
X179070000Y-115570000D01*
X185420000Y-97664410D02*
X185420000Y-109220000D01*
X187325000Y-95759410D02*
X185420000Y-97664410D01*
X187325000Y-89027000D02*
X187325000Y-95759410D01*
X173990000Y-77216000D02*
X183388000Y-86614000D01*
X184912000Y-86614000D02*
X187325000Y-89027000D01*
X183388000Y-86614000D02*
X184912000Y-86614000D01*
X173990000Y-76200000D02*
X173990000Y-77216000D01*
D20*
X126746000Y-72390000D02*
X126746000Y-77470000D01*
X126746000Y-77470000D02*
X126746000Y-80010000D01*
X126746000Y-80010000D02*
X126746000Y-82550000D01*
X142240000Y-105410000D02*
X139700000Y-102870000D01*
X142240000Y-106680000D02*
X142240000Y-105410000D01*
X123190000Y-106680000D02*
X120650000Y-109220000D01*
X128270000Y-106680000D02*
X123190000Y-106680000D01*
X126930001Y-101669999D02*
X125730000Y-102870000D01*
X138499999Y-101669999D02*
X126930001Y-101669999D01*
X139700000Y-102870000D02*
X138499999Y-101669999D01*
X128270000Y-119380000D02*
X129540000Y-120650000D01*
X140970000Y-120650000D02*
X142240000Y-119380000D01*
X129540000Y-120650000D02*
X140970000Y-120650000D01*
X135890000Y-109220000D02*
X134620000Y-109220000D01*
X138430000Y-106680000D02*
X135890000Y-109220000D01*
X142240000Y-106680000D02*
X138430000Y-106680000D01*
X126746000Y-82550000D02*
X126746000Y-83058000D01*
X127000000Y-118110000D02*
X128270000Y-119380000D01*
X127000000Y-107950000D02*
X127000000Y-118110000D01*
X128270000Y-106680000D02*
X127000000Y-107950000D01*
X129286000Y-80010000D02*
X126746000Y-82550000D01*
X147320000Y-80010000D02*
X129286000Y-80010000D01*
X151130000Y-76200000D02*
X147320000Y-80010000D01*
D21*
X130556000Y-86360000D02*
X130556000Y-87122000D01*
D20*
X126746000Y-82550000D02*
X130556000Y-86360000D01*
X130556000Y-87122000D02*
X139700000Y-96266000D01*
X139700000Y-102870000D02*
X139700000Y-96266000D01*
D18*
X179648501Y-116840000D02*
X177800000Y-116840000D01*
X180340000Y-116148501D02*
X179648501Y-116840000D01*
X177800000Y-116840000D02*
X176530000Y-115570000D01*
X180340000Y-114991499D02*
X180340000Y-116148501D01*
X187960000Y-107371499D02*
X180340000Y-114991499D01*
X187960000Y-88646000D02*
X187960000Y-107371499D01*
X176530000Y-77216000D02*
X187960000Y-88646000D01*
X176530000Y-76200000D02*
X176530000Y-77216000D01*
X175768000Y-117348000D02*
X173990000Y-115570000D01*
X188722000Y-116078000D02*
X187452000Y-117348000D01*
X188722000Y-88233250D02*
X188722000Y-116078000D01*
X179070000Y-78581250D02*
X188722000Y-88233250D01*
X187452000Y-117348000D02*
X175768000Y-117348000D01*
X179070000Y-76200000D02*
X179070000Y-78581250D01*
X187960000Y-117856000D02*
X173736000Y-117856000D01*
X173736000Y-117856000D02*
X171450000Y-115570000D01*
X189484000Y-116332000D02*
X187960000Y-117856000D01*
X189484000Y-87630000D02*
X189484000Y-116332000D01*
X181610000Y-79756000D02*
X189484000Y-87630000D01*
X181610000Y-76200000D02*
X181610000Y-79756000D01*
X121775001Y-105554999D02*
X133494999Y-105554999D01*
X133494999Y-105554999D02*
X134620000Y-106680000D01*
X120650000Y-106680000D02*
X121775001Y-105554999D01*
X171958000Y-118618000D02*
X168910000Y-115570000D01*
X188214000Y-118618000D02*
X171958000Y-118618000D01*
X190119000Y-116713000D02*
X188214000Y-118618000D01*
X190119000Y-81199000D02*
X190119000Y-116713000D01*
X185120000Y-76200000D02*
X190119000Y-81199000D01*
X184150000Y-76200000D02*
X185120000Y-76200000D01*
X175514000Y-97536000D02*
X181610000Y-91440000D01*
X173990000Y-97536000D02*
X175514000Y-97536000D01*
X172720000Y-98806000D02*
X173990000Y-97536000D01*
X172720000Y-106172000D02*
X172720000Y-98806000D01*
X166370000Y-112522000D02*
X172720000Y-106172000D01*
X166370000Y-115570000D02*
X166370000Y-112522000D01*
X163830000Y-112776000D02*
X163830000Y-115570000D01*
X170180000Y-106426000D02*
X163830000Y-112776000D01*
X170180000Y-98806000D02*
X170180000Y-106426000D01*
X174186009Y-96323991D02*
X179070000Y-91440000D01*
X172662009Y-96323991D02*
X174186009Y-96323991D01*
X170180000Y-98806000D02*
X172662009Y-96323991D01*
X184658000Y-93980000D02*
X180848000Y-93980000D01*
X185801000Y-92837000D02*
X184658000Y-93980000D01*
X184912000Y-88900000D02*
X185801000Y-89789000D01*
X174498000Y-100330000D02*
X173990000Y-100330000D01*
X180848000Y-93980000D02*
X174498000Y-100330000D01*
X185801000Y-89789000D02*
X185801000Y-92837000D01*
X166370000Y-77470000D02*
X177800000Y-88900000D01*
X177800000Y-88900000D02*
X184912000Y-88900000D01*
X166370000Y-76200000D02*
X166370000Y-77470000D01*
X136906000Y-77470000D02*
X137414000Y-77470000D01*
X166370000Y-74950000D02*
X166370000Y-76200000D01*
X164572000Y-73152000D02*
X166370000Y-74950000D01*
X144272000Y-73152000D02*
X164572000Y-73152000D01*
X139954000Y-77470000D02*
X144272000Y-73152000D01*
X136906000Y-77470000D02*
X139954000Y-77470000D01*
X176530000Y-91440000D02*
X176304249Y-91440000D01*
X167640000Y-106426000D02*
X167640000Y-98806000D01*
X171450000Y-94996000D02*
X172974000Y-94996000D01*
X167640000Y-98806000D02*
X171450000Y-94996000D01*
X161290000Y-112776000D02*
X167640000Y-106426000D01*
X172974000Y-94996000D02*
X176530000Y-91440000D01*
X161290000Y-115570000D02*
X161290000Y-112776000D01*
X176784000Y-100330000D02*
X176530000Y-100330000D01*
X182372000Y-101854000D02*
X178308000Y-101854000D01*
X178308000Y-101854000D02*
X176784000Y-100330000D01*
X182880000Y-101346000D02*
X182372000Y-101854000D01*
X186563000Y-95377000D02*
X182880000Y-99060000D01*
X186563000Y-89406590D02*
X186563000Y-95377000D01*
X182626000Y-87630000D02*
X184786410Y-87630000D01*
X171450000Y-76454000D02*
X182626000Y-87630000D01*
X182880000Y-99060000D02*
X182880000Y-101346000D01*
X184786410Y-87630000D02*
X186563000Y-89406590D01*
X171450000Y-76200000D02*
X171450000Y-76454000D01*
X167640000Y-72390000D02*
X171450000Y-76200000D01*
X136906000Y-72390000D02*
X167640000Y-72390000D01*
X155956000Y-73914000D02*
X153670000Y-76200000D01*
X163565934Y-73914000D02*
X155956000Y-73914000D01*
X165100000Y-75448066D02*
X163565934Y-73914000D01*
X165100000Y-78994000D02*
X165100000Y-75448066D01*
X173736000Y-87630000D02*
X165100000Y-78994000D01*
X179070000Y-97536004D02*
X179070000Y-100330000D01*
X147320000Y-82550000D02*
X136906000Y-82550000D01*
X153670000Y-76200000D02*
X147320000Y-82550000D01*
X130048000Y-107442000D02*
X130048000Y-106680000D01*
X128270000Y-109220000D02*
X130048000Y-107442000D01*
X163810000Y-87630000D02*
X154686000Y-87630000D01*
X166370000Y-90190000D02*
X163810000Y-87630000D01*
X166370000Y-91440000D02*
X166370000Y-90190000D01*
X126492000Y-97282000D02*
X136905994Y-97282000D01*
X119126000Y-104648000D02*
X126492000Y-97282000D01*
X119126000Y-117856000D02*
X119126000Y-104648000D01*
X120650000Y-119380000D02*
X119126000Y-117856000D01*
X146558000Y-87630000D02*
X141859007Y-92328993D01*
X158750000Y-92202000D02*
X158750000Y-91440000D01*
X154940000Y-96012000D02*
X158750000Y-92202000D01*
X154940000Y-103378000D02*
X154940000Y-96012000D01*
X150622000Y-107696000D02*
X154940000Y-103378000D01*
X137922000Y-110490000D02*
X140462000Y-107950000D01*
X129540000Y-110490000D02*
X137922000Y-110490000D01*
X128270000Y-111760000D02*
X129540000Y-110490000D01*
X162560000Y-101092000D02*
X162560000Y-97790000D01*
X162560000Y-97790000D02*
X168910000Y-91440000D01*
X141732000Y-120650000D02*
X143002000Y-120650000D01*
X138684000Y-123698000D02*
X141732000Y-120650000D01*
X127508000Y-123698000D02*
X138684000Y-123698000D01*
X143002000Y-120650000D02*
X162560000Y-101092000D01*
X120650000Y-116840000D02*
X127508000Y-123698000D01*
X157480000Y-95250000D02*
X161290000Y-91440000D01*
X157480000Y-103368694D02*
X157480000Y-95250000D01*
X145283347Y-115565347D02*
X157480000Y-103368694D01*
X165100000Y-102362000D02*
X163576000Y-103886000D01*
X165100000Y-97790000D02*
X165100000Y-102362000D01*
X171450000Y-91440000D02*
X165100000Y-97790000D01*
X129540000Y-118110000D02*
X128270000Y-116840000D01*
X143764000Y-118110000D02*
X129540000Y-118110000D01*
X160020000Y-101854000D02*
X143764000Y-118110000D01*
X160020000Y-95250000D02*
X160020000Y-101854000D01*
X163830000Y-91440000D02*
X160020000Y-95250000D01*
X132334000Y-111760000D02*
X132334000Y-116586000D01*
X145288000Y-92202000D02*
X145288000Y-109982000D01*
X160020000Y-77470000D02*
X145288000Y-92202000D01*
X160020000Y-75438000D02*
X160020000Y-77470000D01*
X145288000Y-109982000D02*
X144526000Y-110744000D01*
X163830000Y-76200000D02*
X163322000Y-76200000D01*
X160782000Y-74676000D02*
X160020000Y-75438000D01*
X161798000Y-74676000D02*
X160782000Y-74676000D01*
X163322000Y-76200000D02*
X161798000Y-74676000D01*
X152654000Y-89916000D02*
X151130000Y-91440000D01*
X156718000Y-89916000D02*
X152654000Y-89916000D01*
X157480000Y-92073590D02*
X157480000Y-90678000D01*
X149896999Y-99656591D02*
X157480000Y-92073590D01*
X149896999Y-109039999D02*
X149896999Y-99656591D01*
X157480000Y-90678000D02*
X156718000Y-89916000D01*
X150077000Y-109220000D02*
X149896999Y-109039999D01*
X147828000Y-95758000D02*
X149605998Y-93980002D01*
X147828000Y-110744000D02*
X147828000Y-95758000D01*
X143002000Y-115570000D02*
X147828000Y-110744000D01*
X135890000Y-115570000D02*
X143002000Y-115570000D01*
X134620000Y-116840000D02*
X135890000Y-115570000D01*
X146812000Y-93472000D02*
X156210000Y-84074000D01*
X146812000Y-110744000D02*
X146812000Y-93472000D01*
X143256000Y-114300000D02*
X146812000Y-110744000D01*
X142240000Y-114300000D02*
X143256000Y-114300000D01*
X146050000Y-110490000D02*
X143510000Y-113030000D01*
X143510000Y-113030000D02*
X135890000Y-113030000D01*
X146050000Y-92710000D02*
X146050000Y-110490000D01*
X135890000Y-113030000D02*
X134620000Y-114300000D01*
X160020000Y-78740000D02*
X146050000Y-92710000D01*
X161290000Y-76200000D02*
X160020000Y-78740000D01*
X148844000Y-110744000D02*
X142748000Y-116840000D01*
X148844000Y-96266000D02*
X148844000Y-110744000D01*
X142748000Y-116840000D02*
X142240000Y-116840000D01*
X153670000Y-91440000D02*
X148844000Y-96266000D01*
X135128000Y-112268000D02*
X134620000Y-111760000D01*
X140177499Y-110490000D02*
X138399499Y-112268000D01*
X158750000Y-77470000D02*
X144526000Y-91694000D01*
X143510000Y-110490000D02*
X140177499Y-110490000D01*
X144526000Y-109474000D02*
X143510000Y-110490000D01*
X138399499Y-112268000D02*
X135128000Y-112268000D01*
X144526000Y-91694000D02*
X144526000Y-109474000D01*
X158750000Y-76200000D02*
X158750000Y-77470000D01*
X177546000Y-123444000D02*
X182626000Y-123444000D01*
M02*
