G04 #@! TF.GenerationSoftware,KiCad,Pcbnew,(5.1.9)-1*
G04 #@! TF.CreationDate,2021-05-07T14:06:33-04:00*
G04 #@! TF.ProjectId,TommyPROM-schematics,546f6d6d-7950-4524-9f4d-2d736368656d,rev?*
G04 #@! TF.SameCoordinates,Original*
G04 #@! TF.FileFunction,Copper,L2,Bot*
G04 #@! TF.FilePolarity,Positive*
%FSLAX46Y46*%
G04 Gerber Fmt 4.6, Leading zero omitted, Abs format (unit mm)*
G04 Created by KiCad (PCBNEW (5.1.9)-1) date 2021-05-07 14:06:33*
%MOMM*%
%LPD*%
G01*
G04 APERTURE LIST*
G04 #@! TA.AperFunction,ComponentPad*
%ADD10C,1.600000*%
G04 #@! TD*
G04 #@! TA.AperFunction,ComponentPad*
%ADD11O,1.600000X1.600000*%
G04 #@! TD*
G04 #@! TA.AperFunction,ComponentPad*
%ADD12O,1.440000X2.000000*%
G04 #@! TD*
G04 #@! TA.AperFunction,ComponentPad*
%ADD13R,1.440000X2.000000*%
G04 #@! TD*
G04 #@! TA.AperFunction,ComponentPad*
%ADD14R,1.600000X1.600000*%
G04 #@! TD*
G04 #@! TA.AperFunction,ComponentPad*
%ADD15C,1.800000*%
G04 #@! TD*
G04 #@! TA.AperFunction,ComponentPad*
%ADD16R,1.800000X1.800000*%
G04 #@! TD*
G04 #@! TA.AperFunction,ViaPad*
%ADD17C,0.800000*%
G04 #@! TD*
G04 #@! TA.AperFunction,Conductor*
%ADD18C,0.250000*%
G04 #@! TD*
G04 #@! TA.AperFunction,Conductor*
%ADD19C,0.400000*%
G04 #@! TD*
G04 #@! TA.AperFunction,Conductor*
%ADD20C,0.254000*%
G04 #@! TD*
G04 #@! TA.AperFunction,Conductor*
%ADD21C,0.150000*%
G04 #@! TD*
G04 APERTURE END LIST*
D10*
X150368000Y-121452000D03*
X150368000Y-123952000D03*
D11*
X167386000Y-123444000D03*
D10*
X177546000Y-123444000D03*
D11*
X136906000Y-72390000D03*
D10*
X126746000Y-72390000D03*
D11*
X136906000Y-77470000D03*
D10*
X126746000Y-77470000D03*
D11*
X136906000Y-82550000D03*
D10*
X126746000Y-82550000D03*
X123230000Y-102870000D03*
X125730000Y-102870000D03*
X137200000Y-102870000D03*
X139700000Y-102870000D03*
X133056000Y-87122000D03*
X130556000Y-87122000D03*
D12*
X184150000Y-76200000D03*
X184150000Y-91440000D03*
X181610000Y-76200000D03*
X181610000Y-91440000D03*
X179070000Y-76200000D03*
X179070000Y-91440000D03*
X176530000Y-76200000D03*
X176530000Y-91440000D03*
X173990000Y-76200000D03*
X173990000Y-91440000D03*
X171450000Y-76200000D03*
X171450000Y-91440000D03*
X168910000Y-76200000D03*
X168910000Y-91440000D03*
X166370000Y-76200000D03*
X166370000Y-91440000D03*
X163830000Y-76200000D03*
X163830000Y-91440000D03*
X161290000Y-76200000D03*
X161290000Y-91440000D03*
X158750000Y-76200000D03*
X158750000Y-91440000D03*
X156210000Y-76200000D03*
X156210000Y-91440000D03*
X153670000Y-76200000D03*
X153670000Y-91440000D03*
X151130000Y-76200000D03*
D13*
X151130000Y-91440000D03*
D11*
X142240000Y-106680000D03*
X134620000Y-121920000D03*
X142240000Y-109220000D03*
X134620000Y-119380000D03*
X142240000Y-111760000D03*
X134620000Y-116840000D03*
X142240000Y-114300000D03*
X134620000Y-114300000D03*
X142240000Y-116840000D03*
X134620000Y-111760000D03*
X142240000Y-119380000D03*
X134620000Y-109220000D03*
X142240000Y-121920000D03*
D14*
X134620000Y-106680000D03*
D11*
X128270000Y-106680000D03*
X120650000Y-121920000D03*
X128270000Y-109220000D03*
X120650000Y-119380000D03*
X128270000Y-111760000D03*
X120650000Y-116840000D03*
X128270000Y-114300000D03*
X120650000Y-114300000D03*
X128270000Y-116840000D03*
X120650000Y-111760000D03*
X128270000Y-119380000D03*
X120650000Y-109220000D03*
X128270000Y-121920000D03*
D14*
X120650000Y-106680000D03*
D15*
X185166000Y-123444000D03*
D16*
X182626000Y-123444000D03*
D11*
X186690000Y-100330000D03*
X186690000Y-115570000D03*
X151130000Y-100330000D03*
X184150000Y-115570000D03*
X153670000Y-100330000D03*
X181610000Y-115570000D03*
X156210000Y-100330000D03*
X179070000Y-115570000D03*
X158750000Y-100330000D03*
X176530000Y-115570000D03*
X161290000Y-100330000D03*
X173990000Y-115570000D03*
X163830000Y-100330000D03*
X171450000Y-115570000D03*
X166370000Y-100330000D03*
X168910000Y-115570000D03*
X168910000Y-100330000D03*
X166370000Y-115570000D03*
X171450000Y-100330000D03*
X163830000Y-115570000D03*
X173990000Y-100330000D03*
X161290000Y-115570000D03*
X176530000Y-100330000D03*
X158750000Y-115570000D03*
X179070000Y-100330000D03*
X156210000Y-115570000D03*
X181610000Y-100330000D03*
X153670000Y-115570000D03*
X184150000Y-100330000D03*
D14*
X151130000Y-115570000D03*
D17*
X191770002Y-101092000D03*
X138938000Y-93218000D03*
X143256000Y-97536000D03*
X173736000Y-87630000D03*
X179070000Y-97536004D03*
X130048000Y-106680000D03*
X154686000Y-87630000D03*
X146558000Y-87630000D03*
X136905994Y-97282000D03*
X141859007Y-92328993D03*
X150622000Y-107696000D03*
X140462000Y-107950000D03*
X145283347Y-115565347D03*
X163576000Y-103886000D03*
X144526000Y-110744000D03*
X132334000Y-111760000D03*
X132334000Y-116586000D03*
X150077000Y-109220000D03*
X149605998Y-93980002D03*
X156210000Y-84074000D03*
D18*
X191008002Y-100330000D02*
X191770002Y-101092000D01*
X186690000Y-100330000D02*
X191008002Y-100330000D01*
D19*
X125730000Y-104140000D02*
X128270000Y-106680000D01*
X125730000Y-102870000D02*
X125730000Y-104140000D01*
X144526000Y-104394000D02*
X142240000Y-106680000D01*
X154686000Y-104394000D02*
X144526000Y-104394000D01*
X158750000Y-100330000D02*
X154686000Y-104394000D01*
X142240000Y-123952000D02*
X150368000Y-123952000D01*
X140716000Y-122428000D02*
X142240000Y-123952000D01*
X140716000Y-120904000D02*
X140716000Y-122428000D01*
X142240000Y-119380000D02*
X140716000Y-120904000D01*
D18*
X142494000Y-102362000D02*
X140462000Y-104394000D01*
X135128000Y-106680000D02*
X134620000Y-106680000D01*
X154940000Y-101092000D02*
X153670000Y-102362000D01*
X153670000Y-102362000D02*
X142494000Y-102362000D01*
X154940000Y-99568000D02*
X154940000Y-101092000D01*
X140462000Y-104394000D02*
X137414000Y-104394000D01*
X164592000Y-98552000D02*
X155956000Y-98552000D01*
X137414000Y-104394000D02*
X135128000Y-106680000D01*
X155956000Y-98552000D02*
X154940000Y-99568000D01*
X166370000Y-100330000D02*
X164592000Y-98552000D01*
X167347500Y-101892500D02*
X168910000Y-100330000D01*
X164338000Y-104902000D02*
X167347500Y-101892500D01*
X157734000Y-104902000D02*
X164338000Y-104902000D01*
X144526000Y-118110000D02*
X157734000Y-104902000D01*
X136906000Y-120650000D02*
X139446000Y-118110000D01*
X129540000Y-120650000D02*
X136906000Y-120650000D01*
X139446000Y-118110000D02*
X144526000Y-118110000D01*
X128270000Y-121920000D02*
X129540000Y-120650000D01*
X158414000Y-106000000D02*
X165780000Y-106000000D01*
X142494000Y-121920000D02*
X158414000Y-106000000D01*
X165780000Y-106000000D02*
X171450000Y-100330000D01*
X142240000Y-121920000D02*
X142494000Y-121920000D01*
X173736000Y-87630000D02*
X175260000Y-89154000D01*
X175260000Y-89154000D02*
X175260000Y-93726004D01*
X175260000Y-93726004D02*
X179070000Y-97536004D01*
X154686000Y-92964000D02*
X156210000Y-91440000D01*
X143764000Y-92964000D02*
X154686000Y-92964000D01*
X130048000Y-106680000D02*
X143764000Y-92964000D01*
X146558000Y-87630000D02*
X154686000Y-87630000D01*
X136905994Y-97282000D02*
X141859001Y-92328993D01*
X141859001Y-92328993D02*
X141859007Y-92328993D01*
X143072501Y-107950000D02*
X140462000Y-107950000D01*
X143326501Y-107696000D02*
X143072501Y-107950000D01*
X150622000Y-107696000D02*
X143326501Y-107696000D01*
X128270000Y-114300000D02*
X129540000Y-115570000D01*
X129540000Y-115570000D02*
X144780000Y-115570000D01*
X145278694Y-115570000D02*
X145283347Y-115565347D01*
X144780000Y-115570000D02*
X145278694Y-115570000D01*
X157923795Y-103886000D02*
X163576000Y-103886000D01*
X121920000Y-113030000D02*
X148779795Y-113030000D01*
X148779795Y-113030000D02*
X157923795Y-103886000D01*
X120650000Y-114300000D02*
X121920000Y-113030000D01*
X142240000Y-96012000D02*
X169418000Y-96012000D01*
X129032000Y-110490000D02*
X129540000Y-109982000D01*
X121920000Y-110490000D02*
X129032000Y-110490000D01*
X169418000Y-96012000D02*
X173990000Y-91440000D01*
X129540000Y-108712000D02*
X142240000Y-96012000D01*
X129540000Y-109982000D02*
X129540000Y-108712000D01*
X120650000Y-111760000D02*
X121920000Y-110490000D01*
X134620000Y-118872000D02*
X134620000Y-119380000D01*
X132334000Y-116586000D02*
X134620000Y-118872000D01*
X133604000Y-110490000D02*
X132334000Y-111760000D01*
X144272000Y-110490000D02*
X133604000Y-110490000D01*
X144526000Y-110744000D02*
X144272000Y-110490000D01*
X147537000Y-111760000D02*
X142240000Y-111760000D01*
X150077000Y-109220000D02*
X147537000Y-111760000D01*
X158129000Y-93980002D02*
X149605998Y-93980002D01*
X160020000Y-92089002D02*
X158129000Y-93980002D01*
X160020000Y-85090000D02*
X160020000Y-92089002D01*
X168910000Y-76200000D02*
X160020000Y-85090000D01*
X156210000Y-84074000D02*
X156210000Y-76200000D01*
D20*
X195340001Y-127340000D02*
X116660000Y-127340000D01*
X116660000Y-122269039D01*
X119258096Y-122269039D01*
X119298754Y-122403087D01*
X119418963Y-122657420D01*
X119586481Y-122883414D01*
X119794869Y-123072385D01*
X120036119Y-123217070D01*
X120300960Y-123311909D01*
X120523000Y-123190624D01*
X120523000Y-122047000D01*
X120777000Y-122047000D01*
X120777000Y-123190624D01*
X120999040Y-123311909D01*
X121263881Y-123217070D01*
X121505131Y-123072385D01*
X121713519Y-122883414D01*
X121881037Y-122657420D01*
X122001246Y-122403087D01*
X122041904Y-122269039D01*
X121919915Y-122047000D01*
X120777000Y-122047000D01*
X120523000Y-122047000D01*
X119380085Y-122047000D01*
X119258096Y-122269039D01*
X116660000Y-122269039D01*
X116660000Y-105880000D01*
X119211928Y-105880000D01*
X119211928Y-107480000D01*
X119224188Y-107604482D01*
X119260498Y-107724180D01*
X119319463Y-107834494D01*
X119398815Y-107931185D01*
X119495506Y-108010537D01*
X119605820Y-108069502D01*
X119725518Y-108105812D01*
X119733961Y-108106643D01*
X119535363Y-108305241D01*
X119378320Y-108540273D01*
X119270147Y-108801426D01*
X119215000Y-109078665D01*
X119215000Y-109361335D01*
X119270147Y-109638574D01*
X119378320Y-109899727D01*
X119535363Y-110134759D01*
X119735241Y-110334637D01*
X119967759Y-110490000D01*
X119735241Y-110645363D01*
X119535363Y-110845241D01*
X119378320Y-111080273D01*
X119270147Y-111341426D01*
X119215000Y-111618665D01*
X119215000Y-111901335D01*
X119270147Y-112178574D01*
X119378320Y-112439727D01*
X119535363Y-112674759D01*
X119735241Y-112874637D01*
X119967759Y-113030000D01*
X119735241Y-113185363D01*
X119535363Y-113385241D01*
X119378320Y-113620273D01*
X119270147Y-113881426D01*
X119215000Y-114158665D01*
X119215000Y-114441335D01*
X119270147Y-114718574D01*
X119378320Y-114979727D01*
X119535363Y-115214759D01*
X119735241Y-115414637D01*
X119967759Y-115570000D01*
X119735241Y-115725363D01*
X119535363Y-115925241D01*
X119378320Y-116160273D01*
X119270147Y-116421426D01*
X119215000Y-116698665D01*
X119215000Y-116981335D01*
X119270147Y-117258574D01*
X119378320Y-117519727D01*
X119535363Y-117754759D01*
X119735241Y-117954637D01*
X119967759Y-118110000D01*
X119735241Y-118265363D01*
X119535363Y-118465241D01*
X119378320Y-118700273D01*
X119270147Y-118961426D01*
X119215000Y-119238665D01*
X119215000Y-119521335D01*
X119270147Y-119798574D01*
X119378320Y-120059727D01*
X119535363Y-120294759D01*
X119735241Y-120494637D01*
X119970273Y-120651680D01*
X119980865Y-120656067D01*
X119794869Y-120767615D01*
X119586481Y-120956586D01*
X119418963Y-121182580D01*
X119298754Y-121436913D01*
X119258096Y-121570961D01*
X119380085Y-121793000D01*
X120523000Y-121793000D01*
X120523000Y-121773000D01*
X120777000Y-121773000D01*
X120777000Y-121793000D01*
X121919915Y-121793000D01*
X122041904Y-121570961D01*
X122001246Y-121436913D01*
X121881037Y-121182580D01*
X121713519Y-120956586D01*
X121505131Y-120767615D01*
X121319135Y-120656067D01*
X121329727Y-120651680D01*
X121564759Y-120494637D01*
X121764637Y-120294759D01*
X121921680Y-120059727D01*
X122029853Y-119798574D01*
X122085000Y-119521335D01*
X122085000Y-119238665D01*
X122029853Y-118961426D01*
X121921680Y-118700273D01*
X121764637Y-118465241D01*
X121564759Y-118265363D01*
X121332241Y-118110000D01*
X121564759Y-117954637D01*
X121764637Y-117754759D01*
X121921680Y-117519727D01*
X122029853Y-117258574D01*
X122085000Y-116981335D01*
X122085000Y-116698665D01*
X122029853Y-116421426D01*
X121921680Y-116160273D01*
X121764637Y-115925241D01*
X121564759Y-115725363D01*
X121332241Y-115570000D01*
X121564759Y-115414637D01*
X121764637Y-115214759D01*
X121921680Y-114979727D01*
X122029853Y-114718574D01*
X122085000Y-114441335D01*
X122085000Y-114158665D01*
X122048688Y-113976114D01*
X122234802Y-113790000D01*
X126928017Y-113790000D01*
X126890147Y-113881426D01*
X126835000Y-114158665D01*
X126835000Y-114441335D01*
X126890147Y-114718574D01*
X126998320Y-114979727D01*
X127155363Y-115214759D01*
X127355241Y-115414637D01*
X127587759Y-115570000D01*
X127355241Y-115725363D01*
X127155363Y-115925241D01*
X126998320Y-116160273D01*
X126890147Y-116421426D01*
X126835000Y-116698665D01*
X126835000Y-116981335D01*
X126890147Y-117258574D01*
X126998320Y-117519727D01*
X127155363Y-117754759D01*
X127355241Y-117954637D01*
X127587759Y-118110000D01*
X127355241Y-118265363D01*
X127155363Y-118465241D01*
X126998320Y-118700273D01*
X126890147Y-118961426D01*
X126835000Y-119238665D01*
X126835000Y-119521335D01*
X126890147Y-119798574D01*
X126998320Y-120059727D01*
X127155363Y-120294759D01*
X127355241Y-120494637D01*
X127587759Y-120650000D01*
X127355241Y-120805363D01*
X127155363Y-121005241D01*
X126998320Y-121240273D01*
X126890147Y-121501426D01*
X126835000Y-121778665D01*
X126835000Y-122061335D01*
X126890147Y-122338574D01*
X126998320Y-122599727D01*
X127155363Y-122834759D01*
X127355241Y-123034637D01*
X127590273Y-123191680D01*
X127851426Y-123299853D01*
X128128665Y-123355000D01*
X128411335Y-123355000D01*
X128688574Y-123299853D01*
X128949727Y-123191680D01*
X129184759Y-123034637D01*
X129384637Y-122834759D01*
X129541680Y-122599727D01*
X129649853Y-122338574D01*
X129663684Y-122269039D01*
X133228096Y-122269039D01*
X133268754Y-122403087D01*
X133388963Y-122657420D01*
X133556481Y-122883414D01*
X133764869Y-123072385D01*
X134006119Y-123217070D01*
X134270960Y-123311909D01*
X134493000Y-123190624D01*
X134493000Y-122047000D01*
X134747000Y-122047000D01*
X134747000Y-123190624D01*
X134969040Y-123311909D01*
X135233881Y-123217070D01*
X135475131Y-123072385D01*
X135683519Y-122883414D01*
X135851037Y-122657420D01*
X135971246Y-122403087D01*
X136011904Y-122269039D01*
X135889915Y-122047000D01*
X134747000Y-122047000D01*
X134493000Y-122047000D01*
X133350085Y-122047000D01*
X133228096Y-122269039D01*
X129663684Y-122269039D01*
X129705000Y-122061335D01*
X129705000Y-121778665D01*
X129668688Y-121596114D01*
X129854802Y-121410000D01*
X133281474Y-121410000D01*
X133268754Y-121436913D01*
X133228096Y-121570961D01*
X133350085Y-121793000D01*
X134493000Y-121793000D01*
X134493000Y-121773000D01*
X134747000Y-121773000D01*
X134747000Y-121793000D01*
X135889915Y-121793000D01*
X136011904Y-121570961D01*
X135971246Y-121436913D01*
X135958526Y-121410000D01*
X136868678Y-121410000D01*
X136906000Y-121413676D01*
X136943322Y-121410000D01*
X136943333Y-121410000D01*
X137054986Y-121399003D01*
X137198247Y-121355546D01*
X137330276Y-121284974D01*
X137446001Y-121190001D01*
X137469804Y-121160997D01*
X139760803Y-118870000D01*
X140898017Y-118870000D01*
X140860147Y-118961426D01*
X140805000Y-119238665D01*
X140805000Y-119521335D01*
X140823715Y-119615418D01*
X140154579Y-120284554D01*
X140122709Y-120310709D01*
X140018365Y-120437854D01*
X140018364Y-120437855D01*
X139940828Y-120582914D01*
X139893082Y-120740312D01*
X139876960Y-120904000D01*
X139881000Y-120945019D01*
X139881001Y-122386972D01*
X139876960Y-122428000D01*
X139893082Y-122591688D01*
X139940828Y-122749086D01*
X140018364Y-122894145D01*
X140018365Y-122894146D01*
X140122710Y-123021291D01*
X140154574Y-123047441D01*
X141620559Y-124513426D01*
X141646709Y-124545291D01*
X141773854Y-124649636D01*
X141918913Y-124727172D01*
X142076311Y-124774918D01*
X142198981Y-124787000D01*
X142198991Y-124787000D01*
X142239999Y-124791039D01*
X142281007Y-124787000D01*
X149200070Y-124787000D01*
X149253363Y-124866759D01*
X149453241Y-125066637D01*
X149688273Y-125223680D01*
X149949426Y-125331853D01*
X150226665Y-125387000D01*
X150509335Y-125387000D01*
X150786574Y-125331853D01*
X151047727Y-125223680D01*
X151282759Y-125066637D01*
X151482637Y-124866759D01*
X151639680Y-124631727D01*
X151747853Y-124370574D01*
X151803000Y-124093335D01*
X151803000Y-123810665D01*
X151799494Y-123793039D01*
X165994096Y-123793039D01*
X166034754Y-123927087D01*
X166154963Y-124181420D01*
X166322481Y-124407414D01*
X166530869Y-124596385D01*
X166772119Y-124741070D01*
X167036960Y-124835909D01*
X167259000Y-124714624D01*
X167259000Y-123571000D01*
X167513000Y-123571000D01*
X167513000Y-124714624D01*
X167735040Y-124835909D01*
X167999881Y-124741070D01*
X168241131Y-124596385D01*
X168449519Y-124407414D01*
X168617037Y-124181420D01*
X168737246Y-123927087D01*
X168777904Y-123793039D01*
X168655915Y-123571000D01*
X167513000Y-123571000D01*
X167259000Y-123571000D01*
X166116085Y-123571000D01*
X165994096Y-123793039D01*
X151799494Y-123793039D01*
X151747853Y-123533426D01*
X151639680Y-123272273D01*
X151521205Y-123094961D01*
X165994096Y-123094961D01*
X166116085Y-123317000D01*
X167259000Y-123317000D01*
X167259000Y-122173376D01*
X167513000Y-122173376D01*
X167513000Y-123317000D01*
X168655915Y-123317000D01*
X168663790Y-123302665D01*
X176111000Y-123302665D01*
X176111000Y-123585335D01*
X176166147Y-123862574D01*
X176274320Y-124123727D01*
X176431363Y-124358759D01*
X176631241Y-124558637D01*
X176866273Y-124715680D01*
X177127426Y-124823853D01*
X177404665Y-124879000D01*
X177687335Y-124879000D01*
X177964574Y-124823853D01*
X178225727Y-124715680D01*
X178460759Y-124558637D01*
X178660637Y-124358759D01*
X178817680Y-124123727D01*
X178925853Y-123862574D01*
X178981000Y-123585335D01*
X178981000Y-123302665D01*
X178925853Y-123025426D01*
X178817680Y-122764273D01*
X178670499Y-122544000D01*
X181087928Y-122544000D01*
X181087928Y-124344000D01*
X181100188Y-124468482D01*
X181136498Y-124588180D01*
X181195463Y-124698494D01*
X181274815Y-124795185D01*
X181371506Y-124874537D01*
X181481820Y-124933502D01*
X181601518Y-124969812D01*
X181726000Y-124982072D01*
X183526000Y-124982072D01*
X183650482Y-124969812D01*
X183770180Y-124933502D01*
X183880494Y-124874537D01*
X183977185Y-124795185D01*
X184056537Y-124698494D01*
X184115502Y-124588180D01*
X184121056Y-124569873D01*
X184187495Y-124636312D01*
X184438905Y-124804299D01*
X184718257Y-124920011D01*
X185014816Y-124979000D01*
X185317184Y-124979000D01*
X185613743Y-124920011D01*
X185893095Y-124804299D01*
X186144505Y-124636312D01*
X186358312Y-124422505D01*
X186526299Y-124171095D01*
X186642011Y-123891743D01*
X186701000Y-123595184D01*
X186701000Y-123292816D01*
X186642011Y-122996257D01*
X186526299Y-122716905D01*
X186358312Y-122465495D01*
X186144505Y-122251688D01*
X185893095Y-122083701D01*
X185613743Y-121967989D01*
X185317184Y-121909000D01*
X185014816Y-121909000D01*
X184718257Y-121967989D01*
X184438905Y-122083701D01*
X184187495Y-122251688D01*
X184121056Y-122318127D01*
X184115502Y-122299820D01*
X184056537Y-122189506D01*
X183977185Y-122092815D01*
X183880494Y-122013463D01*
X183770180Y-121954498D01*
X183650482Y-121918188D01*
X183526000Y-121905928D01*
X181726000Y-121905928D01*
X181601518Y-121918188D01*
X181481820Y-121954498D01*
X181371506Y-122013463D01*
X181274815Y-122092815D01*
X181195463Y-122189506D01*
X181136498Y-122299820D01*
X181100188Y-122419518D01*
X181087928Y-122544000D01*
X178670499Y-122544000D01*
X178660637Y-122529241D01*
X178460759Y-122329363D01*
X178225727Y-122172320D01*
X177964574Y-122064147D01*
X177687335Y-122009000D01*
X177404665Y-122009000D01*
X177127426Y-122064147D01*
X176866273Y-122172320D01*
X176631241Y-122329363D01*
X176431363Y-122529241D01*
X176274320Y-122764273D01*
X176166147Y-123025426D01*
X176111000Y-123302665D01*
X168663790Y-123302665D01*
X168777904Y-123094961D01*
X168737246Y-122960913D01*
X168617037Y-122706580D01*
X168449519Y-122480586D01*
X168241131Y-122291615D01*
X167999881Y-122146930D01*
X167735040Y-122052091D01*
X167513000Y-122173376D01*
X167259000Y-122173376D01*
X167036960Y-122052091D01*
X166772119Y-122146930D01*
X166530869Y-122291615D01*
X166322481Y-122480586D01*
X166154963Y-122706580D01*
X166034754Y-122960913D01*
X165994096Y-123094961D01*
X151521205Y-123094961D01*
X151482637Y-123037241D01*
X151282759Y-122837363D01*
X151082131Y-122703308D01*
X151109514Y-122688671D01*
X151181097Y-122444702D01*
X150368000Y-121631605D01*
X149554903Y-122444702D01*
X149626486Y-122688671D01*
X149655341Y-122702324D01*
X149453241Y-122837363D01*
X149253363Y-123037241D01*
X149200070Y-123117000D01*
X143031494Y-123117000D01*
X143154759Y-123034637D01*
X143354637Y-122834759D01*
X143511680Y-122599727D01*
X143619853Y-122338574D01*
X143675000Y-122061335D01*
X143675000Y-121813801D01*
X143966289Y-121522512D01*
X148927783Y-121522512D01*
X148969213Y-121802130D01*
X149064397Y-122068292D01*
X149131329Y-122193514D01*
X149375298Y-122265097D01*
X150188395Y-121452000D01*
X150547605Y-121452000D01*
X151360702Y-122265097D01*
X151604671Y-122193514D01*
X151725571Y-121938004D01*
X151794300Y-121663816D01*
X151808217Y-121381488D01*
X151766787Y-121101870D01*
X151671603Y-120835708D01*
X151604671Y-120710486D01*
X151360702Y-120638903D01*
X150547605Y-121452000D01*
X150188395Y-121452000D01*
X149375298Y-120638903D01*
X149131329Y-120710486D01*
X149010429Y-120965996D01*
X148941700Y-121240184D01*
X148927783Y-121522512D01*
X143966289Y-121522512D01*
X145029503Y-120459298D01*
X149554903Y-120459298D01*
X150368000Y-121272395D01*
X151181097Y-120459298D01*
X151109514Y-120215329D01*
X150854004Y-120094429D01*
X150579816Y-120025700D01*
X150297488Y-120011783D01*
X150017870Y-120053213D01*
X149751708Y-120148397D01*
X149626486Y-120215329D01*
X149554903Y-120459298D01*
X145029503Y-120459298D01*
X149691928Y-115796873D01*
X149691928Y-116370000D01*
X149704188Y-116494482D01*
X149740498Y-116614180D01*
X149799463Y-116724494D01*
X149878815Y-116821185D01*
X149975506Y-116900537D01*
X150085820Y-116959502D01*
X150205518Y-116995812D01*
X150330000Y-117008072D01*
X151930000Y-117008072D01*
X152054482Y-116995812D01*
X152174180Y-116959502D01*
X152284494Y-116900537D01*
X152381185Y-116821185D01*
X152460537Y-116724494D01*
X152519502Y-116614180D01*
X152555812Y-116494482D01*
X152556643Y-116486039D01*
X152755241Y-116684637D01*
X152990273Y-116841680D01*
X153251426Y-116949853D01*
X153528665Y-117005000D01*
X153811335Y-117005000D01*
X154088574Y-116949853D01*
X154349727Y-116841680D01*
X154584759Y-116684637D01*
X154784637Y-116484759D01*
X154940000Y-116252241D01*
X155095363Y-116484759D01*
X155295241Y-116684637D01*
X155530273Y-116841680D01*
X155791426Y-116949853D01*
X156068665Y-117005000D01*
X156351335Y-117005000D01*
X156628574Y-116949853D01*
X156889727Y-116841680D01*
X157124759Y-116684637D01*
X157324637Y-116484759D01*
X157481680Y-116249727D01*
X157486067Y-116239135D01*
X157597615Y-116425131D01*
X157786586Y-116633519D01*
X158012580Y-116801037D01*
X158266913Y-116921246D01*
X158400961Y-116961904D01*
X158623000Y-116839915D01*
X158623000Y-115697000D01*
X158603000Y-115697000D01*
X158603000Y-115443000D01*
X158623000Y-115443000D01*
X158623000Y-114300085D01*
X158877000Y-114300085D01*
X158877000Y-115443000D01*
X158897000Y-115443000D01*
X158897000Y-115697000D01*
X158877000Y-115697000D01*
X158877000Y-116839915D01*
X159099039Y-116961904D01*
X159233087Y-116921246D01*
X159487420Y-116801037D01*
X159713414Y-116633519D01*
X159902385Y-116425131D01*
X160013933Y-116239135D01*
X160018320Y-116249727D01*
X160175363Y-116484759D01*
X160375241Y-116684637D01*
X160610273Y-116841680D01*
X160871426Y-116949853D01*
X161148665Y-117005000D01*
X161431335Y-117005000D01*
X161708574Y-116949853D01*
X161969727Y-116841680D01*
X162204759Y-116684637D01*
X162404637Y-116484759D01*
X162560000Y-116252241D01*
X162715363Y-116484759D01*
X162915241Y-116684637D01*
X163150273Y-116841680D01*
X163411426Y-116949853D01*
X163688665Y-117005000D01*
X163971335Y-117005000D01*
X164248574Y-116949853D01*
X164509727Y-116841680D01*
X164744759Y-116684637D01*
X164944637Y-116484759D01*
X165100000Y-116252241D01*
X165255363Y-116484759D01*
X165455241Y-116684637D01*
X165690273Y-116841680D01*
X165951426Y-116949853D01*
X166228665Y-117005000D01*
X166511335Y-117005000D01*
X166788574Y-116949853D01*
X167049727Y-116841680D01*
X167284759Y-116684637D01*
X167484637Y-116484759D01*
X167640000Y-116252241D01*
X167795363Y-116484759D01*
X167995241Y-116684637D01*
X168230273Y-116841680D01*
X168491426Y-116949853D01*
X168768665Y-117005000D01*
X169051335Y-117005000D01*
X169328574Y-116949853D01*
X169589727Y-116841680D01*
X169824759Y-116684637D01*
X170024637Y-116484759D01*
X170180000Y-116252241D01*
X170335363Y-116484759D01*
X170535241Y-116684637D01*
X170770273Y-116841680D01*
X171031426Y-116949853D01*
X171308665Y-117005000D01*
X171591335Y-117005000D01*
X171868574Y-116949853D01*
X172129727Y-116841680D01*
X172364759Y-116684637D01*
X172564637Y-116484759D01*
X172720000Y-116252241D01*
X172875363Y-116484759D01*
X173075241Y-116684637D01*
X173310273Y-116841680D01*
X173571426Y-116949853D01*
X173848665Y-117005000D01*
X174131335Y-117005000D01*
X174408574Y-116949853D01*
X174669727Y-116841680D01*
X174904759Y-116684637D01*
X175104637Y-116484759D01*
X175260000Y-116252241D01*
X175415363Y-116484759D01*
X175615241Y-116684637D01*
X175850273Y-116841680D01*
X176111426Y-116949853D01*
X176388665Y-117005000D01*
X176671335Y-117005000D01*
X176948574Y-116949853D01*
X177209727Y-116841680D01*
X177444759Y-116684637D01*
X177644637Y-116484759D01*
X177800000Y-116252241D01*
X177955363Y-116484759D01*
X178155241Y-116684637D01*
X178390273Y-116841680D01*
X178651426Y-116949853D01*
X178928665Y-117005000D01*
X179211335Y-117005000D01*
X179488574Y-116949853D01*
X179749727Y-116841680D01*
X179984759Y-116684637D01*
X180184637Y-116484759D01*
X180340000Y-116252241D01*
X180495363Y-116484759D01*
X180695241Y-116684637D01*
X180930273Y-116841680D01*
X181191426Y-116949853D01*
X181468665Y-117005000D01*
X181751335Y-117005000D01*
X182028574Y-116949853D01*
X182289727Y-116841680D01*
X182524759Y-116684637D01*
X182724637Y-116484759D01*
X182880000Y-116252241D01*
X183035363Y-116484759D01*
X183235241Y-116684637D01*
X183470273Y-116841680D01*
X183731426Y-116949853D01*
X184008665Y-117005000D01*
X184291335Y-117005000D01*
X184568574Y-116949853D01*
X184829727Y-116841680D01*
X185064759Y-116684637D01*
X185264637Y-116484759D01*
X185420000Y-116252241D01*
X185575363Y-116484759D01*
X185775241Y-116684637D01*
X186010273Y-116841680D01*
X186271426Y-116949853D01*
X186548665Y-117005000D01*
X186831335Y-117005000D01*
X187108574Y-116949853D01*
X187369727Y-116841680D01*
X187604759Y-116684637D01*
X187804637Y-116484759D01*
X187961680Y-116249727D01*
X188069853Y-115988574D01*
X188125000Y-115711335D01*
X188125000Y-115428665D01*
X188069853Y-115151426D01*
X187961680Y-114890273D01*
X187804637Y-114655241D01*
X187604759Y-114455363D01*
X187369727Y-114298320D01*
X187108574Y-114190147D01*
X186831335Y-114135000D01*
X186548665Y-114135000D01*
X186271426Y-114190147D01*
X186010273Y-114298320D01*
X185775241Y-114455363D01*
X185575363Y-114655241D01*
X185420000Y-114887759D01*
X185264637Y-114655241D01*
X185064759Y-114455363D01*
X184829727Y-114298320D01*
X184568574Y-114190147D01*
X184291335Y-114135000D01*
X184008665Y-114135000D01*
X183731426Y-114190147D01*
X183470273Y-114298320D01*
X183235241Y-114455363D01*
X183035363Y-114655241D01*
X182880000Y-114887759D01*
X182724637Y-114655241D01*
X182524759Y-114455363D01*
X182289727Y-114298320D01*
X182028574Y-114190147D01*
X181751335Y-114135000D01*
X181468665Y-114135000D01*
X181191426Y-114190147D01*
X180930273Y-114298320D01*
X180695241Y-114455363D01*
X180495363Y-114655241D01*
X180340000Y-114887759D01*
X180184637Y-114655241D01*
X179984759Y-114455363D01*
X179749727Y-114298320D01*
X179488574Y-114190147D01*
X179211335Y-114135000D01*
X178928665Y-114135000D01*
X178651426Y-114190147D01*
X178390273Y-114298320D01*
X178155241Y-114455363D01*
X177955363Y-114655241D01*
X177800000Y-114887759D01*
X177644637Y-114655241D01*
X177444759Y-114455363D01*
X177209727Y-114298320D01*
X176948574Y-114190147D01*
X176671335Y-114135000D01*
X176388665Y-114135000D01*
X176111426Y-114190147D01*
X175850273Y-114298320D01*
X175615241Y-114455363D01*
X175415363Y-114655241D01*
X175260000Y-114887759D01*
X175104637Y-114655241D01*
X174904759Y-114455363D01*
X174669727Y-114298320D01*
X174408574Y-114190147D01*
X174131335Y-114135000D01*
X173848665Y-114135000D01*
X173571426Y-114190147D01*
X173310273Y-114298320D01*
X173075241Y-114455363D01*
X172875363Y-114655241D01*
X172720000Y-114887759D01*
X172564637Y-114655241D01*
X172364759Y-114455363D01*
X172129727Y-114298320D01*
X171868574Y-114190147D01*
X171591335Y-114135000D01*
X171308665Y-114135000D01*
X171031426Y-114190147D01*
X170770273Y-114298320D01*
X170535241Y-114455363D01*
X170335363Y-114655241D01*
X170180000Y-114887759D01*
X170024637Y-114655241D01*
X169824759Y-114455363D01*
X169589727Y-114298320D01*
X169328574Y-114190147D01*
X169051335Y-114135000D01*
X168768665Y-114135000D01*
X168491426Y-114190147D01*
X168230273Y-114298320D01*
X167995241Y-114455363D01*
X167795363Y-114655241D01*
X167640000Y-114887759D01*
X167484637Y-114655241D01*
X167284759Y-114455363D01*
X167049727Y-114298320D01*
X166788574Y-114190147D01*
X166511335Y-114135000D01*
X166228665Y-114135000D01*
X165951426Y-114190147D01*
X165690273Y-114298320D01*
X165455241Y-114455363D01*
X165255363Y-114655241D01*
X165100000Y-114887759D01*
X164944637Y-114655241D01*
X164744759Y-114455363D01*
X164509727Y-114298320D01*
X164248574Y-114190147D01*
X163971335Y-114135000D01*
X163688665Y-114135000D01*
X163411426Y-114190147D01*
X163150273Y-114298320D01*
X162915241Y-114455363D01*
X162715363Y-114655241D01*
X162560000Y-114887759D01*
X162404637Y-114655241D01*
X162204759Y-114455363D01*
X161969727Y-114298320D01*
X161708574Y-114190147D01*
X161431335Y-114135000D01*
X161148665Y-114135000D01*
X160871426Y-114190147D01*
X160610273Y-114298320D01*
X160375241Y-114455363D01*
X160175363Y-114655241D01*
X160018320Y-114890273D01*
X160013933Y-114900865D01*
X159902385Y-114714869D01*
X159713414Y-114506481D01*
X159487420Y-114338963D01*
X159233087Y-114218754D01*
X159099039Y-114178096D01*
X158877000Y-114300085D01*
X158623000Y-114300085D01*
X158400961Y-114178096D01*
X158266913Y-114218754D01*
X158012580Y-114338963D01*
X157786586Y-114506481D01*
X157597615Y-114714869D01*
X157486067Y-114900865D01*
X157481680Y-114890273D01*
X157324637Y-114655241D01*
X157124759Y-114455363D01*
X156889727Y-114298320D01*
X156628574Y-114190147D01*
X156351335Y-114135000D01*
X156068665Y-114135000D01*
X155791426Y-114190147D01*
X155530273Y-114298320D01*
X155295241Y-114455363D01*
X155095363Y-114655241D01*
X154940000Y-114887759D01*
X154784637Y-114655241D01*
X154584759Y-114455363D01*
X154349727Y-114298320D01*
X154088574Y-114190147D01*
X153811335Y-114135000D01*
X153528665Y-114135000D01*
X153251426Y-114190147D01*
X152990273Y-114298320D01*
X152755241Y-114455363D01*
X152556643Y-114653961D01*
X152555812Y-114645518D01*
X152519502Y-114525820D01*
X152460537Y-114415506D01*
X152381185Y-114318815D01*
X152284494Y-114239463D01*
X152174180Y-114180498D01*
X152054482Y-114144188D01*
X151930000Y-114131928D01*
X151356874Y-114131928D01*
X158728802Y-106760000D01*
X165742678Y-106760000D01*
X165780000Y-106763676D01*
X165817322Y-106760000D01*
X165817333Y-106760000D01*
X165928986Y-106749003D01*
X166072247Y-106705546D01*
X166204276Y-106634974D01*
X166320001Y-106540001D01*
X166343804Y-106510997D01*
X171126114Y-101728688D01*
X171308665Y-101765000D01*
X171591335Y-101765000D01*
X171868574Y-101709853D01*
X172129727Y-101601680D01*
X172364759Y-101444637D01*
X172564637Y-101244759D01*
X172720000Y-101012241D01*
X172875363Y-101244759D01*
X173075241Y-101444637D01*
X173310273Y-101601680D01*
X173571426Y-101709853D01*
X173848665Y-101765000D01*
X174131335Y-101765000D01*
X174408574Y-101709853D01*
X174669727Y-101601680D01*
X174904759Y-101444637D01*
X175104637Y-101244759D01*
X175260000Y-101012241D01*
X175415363Y-101244759D01*
X175615241Y-101444637D01*
X175850273Y-101601680D01*
X176111426Y-101709853D01*
X176388665Y-101765000D01*
X176671335Y-101765000D01*
X176948574Y-101709853D01*
X177209727Y-101601680D01*
X177444759Y-101444637D01*
X177644637Y-101244759D01*
X177800000Y-101012241D01*
X177955363Y-101244759D01*
X178155241Y-101444637D01*
X178390273Y-101601680D01*
X178651426Y-101709853D01*
X178928665Y-101765000D01*
X179211335Y-101765000D01*
X179488574Y-101709853D01*
X179749727Y-101601680D01*
X179984759Y-101444637D01*
X180184637Y-101244759D01*
X180340000Y-101012241D01*
X180495363Y-101244759D01*
X180695241Y-101444637D01*
X180930273Y-101601680D01*
X181191426Y-101709853D01*
X181468665Y-101765000D01*
X181751335Y-101765000D01*
X182028574Y-101709853D01*
X182289727Y-101601680D01*
X182524759Y-101444637D01*
X182724637Y-101244759D01*
X182880000Y-101012241D01*
X183035363Y-101244759D01*
X183235241Y-101444637D01*
X183470273Y-101601680D01*
X183731426Y-101709853D01*
X184008665Y-101765000D01*
X184291335Y-101765000D01*
X184568574Y-101709853D01*
X184829727Y-101601680D01*
X185064759Y-101444637D01*
X185264637Y-101244759D01*
X185420000Y-101012241D01*
X185575363Y-101244759D01*
X185775241Y-101444637D01*
X186010273Y-101601680D01*
X186271426Y-101709853D01*
X186548665Y-101765000D01*
X186831335Y-101765000D01*
X187108574Y-101709853D01*
X187369727Y-101601680D01*
X187604759Y-101444637D01*
X187804637Y-101244759D01*
X187908043Y-101090000D01*
X190693201Y-101090000D01*
X190735002Y-101131801D01*
X190735002Y-101193939D01*
X190774776Y-101393898D01*
X190852797Y-101582256D01*
X190966065Y-101751774D01*
X191110228Y-101895937D01*
X191279746Y-102009205D01*
X191468104Y-102087226D01*
X191668063Y-102127000D01*
X191871941Y-102127000D01*
X192071900Y-102087226D01*
X192260258Y-102009205D01*
X192429776Y-101895937D01*
X192573939Y-101751774D01*
X192687207Y-101582256D01*
X192765228Y-101393898D01*
X192805002Y-101193939D01*
X192805002Y-100990061D01*
X192765228Y-100790102D01*
X192687207Y-100601744D01*
X192573939Y-100432226D01*
X192429776Y-100288063D01*
X192260258Y-100174795D01*
X192071900Y-100096774D01*
X191871941Y-100057000D01*
X191809803Y-100057000D01*
X191571805Y-99819002D01*
X191548003Y-99789999D01*
X191432278Y-99695026D01*
X191300249Y-99624454D01*
X191156988Y-99580997D01*
X191045335Y-99570000D01*
X191045324Y-99570000D01*
X191008002Y-99566324D01*
X190970680Y-99570000D01*
X187908043Y-99570000D01*
X187804637Y-99415241D01*
X187604759Y-99215363D01*
X187369727Y-99058320D01*
X187108574Y-98950147D01*
X186831335Y-98895000D01*
X186548665Y-98895000D01*
X186271426Y-98950147D01*
X186010273Y-99058320D01*
X185775241Y-99215363D01*
X185575363Y-99415241D01*
X185420000Y-99647759D01*
X185264637Y-99415241D01*
X185064759Y-99215363D01*
X184829727Y-99058320D01*
X184568574Y-98950147D01*
X184291335Y-98895000D01*
X184008665Y-98895000D01*
X183731426Y-98950147D01*
X183470273Y-99058320D01*
X183235241Y-99215363D01*
X183035363Y-99415241D01*
X182880000Y-99647759D01*
X182724637Y-99415241D01*
X182524759Y-99215363D01*
X182289727Y-99058320D01*
X182028574Y-98950147D01*
X181751335Y-98895000D01*
X181468665Y-98895000D01*
X181191426Y-98950147D01*
X180930273Y-99058320D01*
X180695241Y-99215363D01*
X180495363Y-99415241D01*
X180340000Y-99647759D01*
X180184637Y-99415241D01*
X179984759Y-99215363D01*
X179749727Y-99058320D01*
X179488574Y-98950147D01*
X179211335Y-98895000D01*
X178928665Y-98895000D01*
X178651426Y-98950147D01*
X178390273Y-99058320D01*
X178155241Y-99215363D01*
X177955363Y-99415241D01*
X177800000Y-99647759D01*
X177644637Y-99415241D01*
X177444759Y-99215363D01*
X177209727Y-99058320D01*
X176948574Y-98950147D01*
X176671335Y-98895000D01*
X176388665Y-98895000D01*
X176111426Y-98950147D01*
X175850273Y-99058320D01*
X175615241Y-99215363D01*
X175415363Y-99415241D01*
X175260000Y-99647759D01*
X175104637Y-99415241D01*
X174904759Y-99215363D01*
X174669727Y-99058320D01*
X174408574Y-98950147D01*
X174131335Y-98895000D01*
X173848665Y-98895000D01*
X173571426Y-98950147D01*
X173310273Y-99058320D01*
X173075241Y-99215363D01*
X172875363Y-99415241D01*
X172720000Y-99647759D01*
X172564637Y-99415241D01*
X172364759Y-99215363D01*
X172129727Y-99058320D01*
X171868574Y-98950147D01*
X171591335Y-98895000D01*
X171308665Y-98895000D01*
X171031426Y-98950147D01*
X170770273Y-99058320D01*
X170535241Y-99215363D01*
X170335363Y-99415241D01*
X170180000Y-99647759D01*
X170024637Y-99415241D01*
X169824759Y-99215363D01*
X169589727Y-99058320D01*
X169328574Y-98950147D01*
X169051335Y-98895000D01*
X168768665Y-98895000D01*
X168491426Y-98950147D01*
X168230273Y-99058320D01*
X167995241Y-99215363D01*
X167795363Y-99415241D01*
X167640000Y-99647759D01*
X167484637Y-99415241D01*
X167284759Y-99215363D01*
X167049727Y-99058320D01*
X166788574Y-98950147D01*
X166511335Y-98895000D01*
X166228665Y-98895000D01*
X166046114Y-98931312D01*
X165155804Y-98041003D01*
X165132001Y-98011999D01*
X165016276Y-97917026D01*
X164884247Y-97846454D01*
X164740986Y-97802997D01*
X164629333Y-97792000D01*
X164629322Y-97792000D01*
X164592000Y-97788324D01*
X164554678Y-97792000D01*
X155993322Y-97792000D01*
X155956000Y-97788324D01*
X155918677Y-97792000D01*
X155918667Y-97792000D01*
X155807014Y-97802997D01*
X155691946Y-97837902D01*
X155663753Y-97846454D01*
X155531723Y-97917026D01*
X155448083Y-97985668D01*
X155415999Y-98011999D01*
X155392201Y-98040997D01*
X154429002Y-99004196D01*
X154399999Y-99027999D01*
X154360111Y-99076603D01*
X154153087Y-98978754D01*
X154019039Y-98938096D01*
X153797000Y-99060085D01*
X153797000Y-100203000D01*
X153817000Y-100203000D01*
X153817000Y-100457000D01*
X153797000Y-100457000D01*
X153797000Y-100477000D01*
X153543000Y-100477000D01*
X153543000Y-100457000D01*
X153523000Y-100457000D01*
X153523000Y-100203000D01*
X153543000Y-100203000D01*
X153543000Y-99060085D01*
X153320961Y-98938096D01*
X153186913Y-98978754D01*
X152932580Y-99098963D01*
X152706586Y-99266481D01*
X152517615Y-99474869D01*
X152406067Y-99660865D01*
X152401680Y-99650273D01*
X152244637Y-99415241D01*
X152044759Y-99215363D01*
X151809727Y-99058320D01*
X151548574Y-98950147D01*
X151271335Y-98895000D01*
X150988665Y-98895000D01*
X150711426Y-98950147D01*
X150450273Y-99058320D01*
X150215241Y-99215363D01*
X150015363Y-99415241D01*
X149858320Y-99650273D01*
X149750147Y-99911426D01*
X149695000Y-100188665D01*
X149695000Y-100471335D01*
X149750147Y-100748574D01*
X149858320Y-101009727D01*
X150015363Y-101244759D01*
X150215241Y-101444637D01*
X150450273Y-101601680D01*
X150451046Y-101602000D01*
X142531323Y-101602000D01*
X142494000Y-101598324D01*
X142456677Y-101602000D01*
X142456667Y-101602000D01*
X142345014Y-101612997D01*
X142203912Y-101655799D01*
X142201753Y-101656454D01*
X142069723Y-101727026D01*
X141986083Y-101795668D01*
X141953999Y-101821999D01*
X141930201Y-101850997D01*
X141121318Y-102659881D01*
X141079853Y-102451426D01*
X140971680Y-102190273D01*
X140814637Y-101955241D01*
X140614759Y-101755363D01*
X140379727Y-101598320D01*
X140118574Y-101490147D01*
X139841335Y-101435000D01*
X139558665Y-101435000D01*
X139281426Y-101490147D01*
X139020273Y-101598320D01*
X138785241Y-101755363D01*
X138585363Y-101955241D01*
X138451308Y-102155869D01*
X138436671Y-102128486D01*
X138192702Y-102056903D01*
X137379605Y-102870000D01*
X137393748Y-102884143D01*
X137214143Y-103063748D01*
X137200000Y-103049605D01*
X136386903Y-103862702D01*
X136458486Y-104106671D01*
X136572554Y-104160645D01*
X135484881Y-105248318D01*
X135420000Y-105241928D01*
X134084873Y-105241928D01*
X135881675Y-103445126D01*
X135896397Y-103486292D01*
X135963329Y-103611514D01*
X136207298Y-103683097D01*
X137020395Y-102870000D01*
X137006253Y-102855858D01*
X137185858Y-102676253D01*
X137200000Y-102690395D01*
X138013097Y-101877298D01*
X137941514Y-101633329D01*
X137773142Y-101553660D01*
X142554802Y-96772000D01*
X169380678Y-96772000D01*
X169418000Y-96775676D01*
X169455322Y-96772000D01*
X169455333Y-96772000D01*
X169566986Y-96761003D01*
X169710247Y-96717546D01*
X169842276Y-96646974D01*
X169958001Y-96552001D01*
X169981804Y-96522997D01*
X173513405Y-92991397D01*
X173724375Y-93055394D01*
X173990000Y-93081556D01*
X174255626Y-93055394D01*
X174500001Y-92981264D01*
X174500001Y-93688672D01*
X174496324Y-93726004D01*
X174510998Y-93874989D01*
X174554454Y-94018250D01*
X174625026Y-94150280D01*
X174696201Y-94237006D01*
X174720000Y-94266005D01*
X174748998Y-94289803D01*
X178035000Y-97575806D01*
X178035000Y-97637943D01*
X178074774Y-97837902D01*
X178152795Y-98026260D01*
X178266063Y-98195778D01*
X178410226Y-98339941D01*
X178579744Y-98453209D01*
X178768102Y-98531230D01*
X178968061Y-98571004D01*
X179171939Y-98571004D01*
X179371898Y-98531230D01*
X179560256Y-98453209D01*
X179729774Y-98339941D01*
X179873937Y-98195778D01*
X179987205Y-98026260D01*
X180065226Y-97837902D01*
X180105000Y-97637943D01*
X180105000Y-97434065D01*
X180065226Y-97234106D01*
X179987205Y-97045748D01*
X179873937Y-96876230D01*
X179729774Y-96732067D01*
X179560256Y-96618799D01*
X179371898Y-96540778D01*
X179171939Y-96501004D01*
X179109802Y-96501004D01*
X176020000Y-93411203D01*
X176020000Y-92981264D01*
X176264375Y-93055394D01*
X176530000Y-93081556D01*
X176795626Y-93055394D01*
X177051045Y-92977914D01*
X177286440Y-92852092D01*
X177492765Y-92682765D01*
X177662092Y-92476440D01*
X177787914Y-92241045D01*
X177800000Y-92201202D01*
X177812086Y-92241045D01*
X177937908Y-92476440D01*
X178107236Y-92682765D01*
X178313561Y-92852092D01*
X178548956Y-92977914D01*
X178804375Y-93055394D01*
X179070000Y-93081556D01*
X179335626Y-93055394D01*
X179591045Y-92977914D01*
X179826440Y-92852092D01*
X180032765Y-92682765D01*
X180202092Y-92476440D01*
X180327914Y-92241045D01*
X180340000Y-92201202D01*
X180352086Y-92241045D01*
X180477908Y-92476440D01*
X180647236Y-92682765D01*
X180853561Y-92852092D01*
X181088956Y-92977914D01*
X181344375Y-93055394D01*
X181610000Y-93081556D01*
X181875626Y-93055394D01*
X182131045Y-92977914D01*
X182366440Y-92852092D01*
X182572765Y-92682765D01*
X182742092Y-92476440D01*
X182867914Y-92241045D01*
X182881505Y-92196241D01*
X182946744Y-92355869D01*
X183093916Y-92578395D01*
X183281673Y-92767933D01*
X183502799Y-92917199D01*
X183748797Y-93020458D01*
X183813528Y-93032559D01*
X184023000Y-92909489D01*
X184023000Y-91567000D01*
X184277000Y-91567000D01*
X184277000Y-92909489D01*
X184486472Y-93032559D01*
X184551203Y-93020458D01*
X184797201Y-92917199D01*
X185018327Y-92767933D01*
X185206084Y-92578395D01*
X185353256Y-92355869D01*
X185454188Y-92108907D01*
X185505000Y-91847000D01*
X185505000Y-91567000D01*
X184277000Y-91567000D01*
X184023000Y-91567000D01*
X184003000Y-91567000D01*
X184003000Y-91313000D01*
X184023000Y-91313000D01*
X184023000Y-89970511D01*
X184277000Y-89970511D01*
X184277000Y-91313000D01*
X185505000Y-91313000D01*
X185505000Y-91033000D01*
X185454188Y-90771093D01*
X185353256Y-90524131D01*
X185206084Y-90301605D01*
X185018327Y-90112067D01*
X184797201Y-89962801D01*
X184551203Y-89859542D01*
X184486472Y-89847441D01*
X184277000Y-89970511D01*
X184023000Y-89970511D01*
X183813528Y-89847441D01*
X183748797Y-89859542D01*
X183502799Y-89962801D01*
X183281673Y-90112067D01*
X183093916Y-90301605D01*
X182946744Y-90524131D01*
X182881505Y-90683759D01*
X182867914Y-90638955D01*
X182742092Y-90403560D01*
X182572764Y-90197235D01*
X182366439Y-90027908D01*
X182131044Y-89902086D01*
X181875625Y-89824606D01*
X181610000Y-89798444D01*
X181344374Y-89824606D01*
X181088955Y-89902086D01*
X180853560Y-90027908D01*
X180647235Y-90197236D01*
X180477908Y-90403561D01*
X180352086Y-90638956D01*
X180340000Y-90678798D01*
X180327914Y-90638955D01*
X180202092Y-90403560D01*
X180032764Y-90197235D01*
X179826439Y-90027908D01*
X179591044Y-89902086D01*
X179335625Y-89824606D01*
X179070000Y-89798444D01*
X178804374Y-89824606D01*
X178548955Y-89902086D01*
X178313560Y-90027908D01*
X178107235Y-90197236D01*
X177937908Y-90403561D01*
X177812086Y-90638956D01*
X177800000Y-90678798D01*
X177787914Y-90638955D01*
X177662092Y-90403560D01*
X177492764Y-90197235D01*
X177286439Y-90027908D01*
X177051044Y-89902086D01*
X176795625Y-89824606D01*
X176530000Y-89798444D01*
X176264374Y-89824606D01*
X176020000Y-89898736D01*
X176020000Y-89191322D01*
X176023676Y-89153999D01*
X176020000Y-89116676D01*
X176020000Y-89116667D01*
X176009003Y-89005014D01*
X175965546Y-88861753D01*
X175894974Y-88729724D01*
X175881811Y-88713685D01*
X175823799Y-88642996D01*
X175823795Y-88642992D01*
X175800001Y-88613999D01*
X175771009Y-88590206D01*
X174771000Y-87590198D01*
X174771000Y-87528061D01*
X174731226Y-87328102D01*
X174653205Y-87139744D01*
X174539937Y-86970226D01*
X174395774Y-86826063D01*
X174226256Y-86712795D01*
X174037898Y-86634774D01*
X173837939Y-86595000D01*
X173634061Y-86595000D01*
X173434102Y-86634774D01*
X173245744Y-86712795D01*
X173076226Y-86826063D01*
X172932063Y-86970226D01*
X172818795Y-87139744D01*
X172740774Y-87328102D01*
X172701000Y-87528061D01*
X172701000Y-87731939D01*
X172740774Y-87931898D01*
X172818795Y-88120256D01*
X172932063Y-88289774D01*
X173076226Y-88433937D01*
X173245744Y-88547205D01*
X173434102Y-88625226D01*
X173634061Y-88665000D01*
X173696198Y-88665000D01*
X174500000Y-89468803D01*
X174500000Y-89898736D01*
X174255625Y-89824606D01*
X173990000Y-89798444D01*
X173724374Y-89824606D01*
X173468955Y-89902086D01*
X173233560Y-90027908D01*
X173027235Y-90197236D01*
X172857908Y-90403561D01*
X172732086Y-90638956D01*
X172720000Y-90678798D01*
X172707914Y-90638955D01*
X172582092Y-90403560D01*
X172412764Y-90197235D01*
X172206439Y-90027908D01*
X171971044Y-89902086D01*
X171715625Y-89824606D01*
X171450000Y-89798444D01*
X171184374Y-89824606D01*
X170928955Y-89902086D01*
X170693560Y-90027908D01*
X170487235Y-90197236D01*
X170317908Y-90403561D01*
X170192086Y-90638956D01*
X170180000Y-90678798D01*
X170167914Y-90638955D01*
X170042092Y-90403560D01*
X169872764Y-90197235D01*
X169666439Y-90027908D01*
X169431044Y-89902086D01*
X169175625Y-89824606D01*
X168910000Y-89798444D01*
X168644374Y-89824606D01*
X168388955Y-89902086D01*
X168153560Y-90027908D01*
X167947235Y-90197236D01*
X167777908Y-90403561D01*
X167652086Y-90638956D01*
X167640000Y-90678798D01*
X167627914Y-90638955D01*
X167502092Y-90403560D01*
X167332764Y-90197235D01*
X167126439Y-90027908D01*
X166891044Y-89902086D01*
X166635625Y-89824606D01*
X166370000Y-89798444D01*
X166104374Y-89824606D01*
X165848955Y-89902086D01*
X165613560Y-90027908D01*
X165407235Y-90197236D01*
X165237908Y-90403561D01*
X165112086Y-90638956D01*
X165100000Y-90678798D01*
X165087914Y-90638955D01*
X164962092Y-90403560D01*
X164792764Y-90197235D01*
X164586439Y-90027908D01*
X164351044Y-89902086D01*
X164095625Y-89824606D01*
X163830000Y-89798444D01*
X163564374Y-89824606D01*
X163308955Y-89902086D01*
X163073560Y-90027908D01*
X162867235Y-90197236D01*
X162697908Y-90403561D01*
X162572086Y-90638956D01*
X162560000Y-90678798D01*
X162547914Y-90638955D01*
X162422092Y-90403560D01*
X162252764Y-90197235D01*
X162046439Y-90027908D01*
X161811044Y-89902086D01*
X161555625Y-89824606D01*
X161290000Y-89798444D01*
X161024374Y-89824606D01*
X160780000Y-89898736D01*
X160780000Y-85404801D01*
X168433405Y-77751397D01*
X168644375Y-77815394D01*
X168910000Y-77841556D01*
X169175626Y-77815394D01*
X169431045Y-77737914D01*
X169666440Y-77612092D01*
X169872765Y-77442765D01*
X170042092Y-77236440D01*
X170167914Y-77001045D01*
X170180000Y-76961202D01*
X170192086Y-77001045D01*
X170317908Y-77236440D01*
X170487236Y-77442765D01*
X170693561Y-77612092D01*
X170928956Y-77737914D01*
X171184375Y-77815394D01*
X171450000Y-77841556D01*
X171715626Y-77815394D01*
X171971045Y-77737914D01*
X172206440Y-77612092D01*
X172412765Y-77442765D01*
X172582092Y-77236440D01*
X172707914Y-77001045D01*
X172720000Y-76961202D01*
X172732086Y-77001045D01*
X172857908Y-77236440D01*
X173027236Y-77442765D01*
X173233561Y-77612092D01*
X173468956Y-77737914D01*
X173724375Y-77815394D01*
X173990000Y-77841556D01*
X174255626Y-77815394D01*
X174511045Y-77737914D01*
X174746440Y-77612092D01*
X174952765Y-77442765D01*
X175122092Y-77236440D01*
X175247914Y-77001045D01*
X175260000Y-76961202D01*
X175272086Y-77001045D01*
X175397908Y-77236440D01*
X175567236Y-77442765D01*
X175773561Y-77612092D01*
X176008956Y-77737914D01*
X176264375Y-77815394D01*
X176530000Y-77841556D01*
X176795626Y-77815394D01*
X177051045Y-77737914D01*
X177286440Y-77612092D01*
X177492765Y-77442765D01*
X177662092Y-77236440D01*
X177787914Y-77001045D01*
X177800000Y-76961202D01*
X177812086Y-77001045D01*
X177937908Y-77236440D01*
X178107236Y-77442765D01*
X178313561Y-77612092D01*
X178548956Y-77737914D01*
X178804375Y-77815394D01*
X179070000Y-77841556D01*
X179335626Y-77815394D01*
X179591045Y-77737914D01*
X179826440Y-77612092D01*
X180032765Y-77442765D01*
X180202092Y-77236440D01*
X180327914Y-77001045D01*
X180340000Y-76961202D01*
X180352086Y-77001045D01*
X180477908Y-77236440D01*
X180647236Y-77442765D01*
X180853561Y-77612092D01*
X181088956Y-77737914D01*
X181344375Y-77815394D01*
X181610000Y-77841556D01*
X181875626Y-77815394D01*
X182131045Y-77737914D01*
X182366440Y-77612092D01*
X182572765Y-77442765D01*
X182742092Y-77236440D01*
X182867914Y-77001045D01*
X182880000Y-76961202D01*
X182892086Y-77001045D01*
X183017908Y-77236440D01*
X183187236Y-77442765D01*
X183393561Y-77612092D01*
X183628956Y-77737914D01*
X183884375Y-77815394D01*
X184150000Y-77841556D01*
X184415626Y-77815394D01*
X184671045Y-77737914D01*
X184906440Y-77612092D01*
X185112765Y-77442765D01*
X185282092Y-77236440D01*
X185407914Y-77001045D01*
X185485394Y-76745625D01*
X185505000Y-76546563D01*
X185505000Y-75853436D01*
X185485394Y-75654374D01*
X185407914Y-75398955D01*
X185282092Y-75163560D01*
X185112764Y-74957235D01*
X184906439Y-74787908D01*
X184671044Y-74662086D01*
X184415625Y-74584606D01*
X184150000Y-74558444D01*
X183884374Y-74584606D01*
X183628955Y-74662086D01*
X183393560Y-74787908D01*
X183187235Y-74957236D01*
X183017908Y-75163561D01*
X182892086Y-75398956D01*
X182880000Y-75438798D01*
X182867914Y-75398955D01*
X182742092Y-75163560D01*
X182572764Y-74957235D01*
X182366439Y-74787908D01*
X182131044Y-74662086D01*
X181875625Y-74584606D01*
X181610000Y-74558444D01*
X181344374Y-74584606D01*
X181088955Y-74662086D01*
X180853560Y-74787908D01*
X180647235Y-74957236D01*
X180477908Y-75163561D01*
X180352086Y-75398956D01*
X180340000Y-75438798D01*
X180327914Y-75398955D01*
X180202092Y-75163560D01*
X180032764Y-74957235D01*
X179826439Y-74787908D01*
X179591044Y-74662086D01*
X179335625Y-74584606D01*
X179070000Y-74558444D01*
X178804374Y-74584606D01*
X178548955Y-74662086D01*
X178313560Y-74787908D01*
X178107235Y-74957236D01*
X177937908Y-75163561D01*
X177812086Y-75398956D01*
X177800000Y-75438798D01*
X177787914Y-75398955D01*
X177662092Y-75163560D01*
X177492764Y-74957235D01*
X177286439Y-74787908D01*
X177051044Y-74662086D01*
X176795625Y-74584606D01*
X176530000Y-74558444D01*
X176264374Y-74584606D01*
X176008955Y-74662086D01*
X175773560Y-74787908D01*
X175567235Y-74957236D01*
X175397908Y-75163561D01*
X175272086Y-75398956D01*
X175260000Y-75438798D01*
X175247914Y-75398955D01*
X175122092Y-75163560D01*
X174952764Y-74957235D01*
X174746439Y-74787908D01*
X174511044Y-74662086D01*
X174255625Y-74584606D01*
X173990000Y-74558444D01*
X173724374Y-74584606D01*
X173468955Y-74662086D01*
X173233560Y-74787908D01*
X173027235Y-74957236D01*
X172857908Y-75163561D01*
X172732086Y-75398956D01*
X172720000Y-75438798D01*
X172707914Y-75398955D01*
X172582092Y-75163560D01*
X172412764Y-74957235D01*
X172206439Y-74787908D01*
X171971044Y-74662086D01*
X171715625Y-74584606D01*
X171450000Y-74558444D01*
X171184374Y-74584606D01*
X170928955Y-74662086D01*
X170693560Y-74787908D01*
X170487235Y-74957236D01*
X170317908Y-75163561D01*
X170192086Y-75398956D01*
X170180000Y-75438798D01*
X170167914Y-75398955D01*
X170042092Y-75163560D01*
X169872764Y-74957235D01*
X169666439Y-74787908D01*
X169431044Y-74662086D01*
X169175625Y-74584606D01*
X168910000Y-74558444D01*
X168644374Y-74584606D01*
X168388955Y-74662086D01*
X168153560Y-74787908D01*
X167947235Y-74957236D01*
X167777908Y-75163561D01*
X167652086Y-75398956D01*
X167640000Y-75438798D01*
X167627914Y-75398955D01*
X167502092Y-75163560D01*
X167332764Y-74957235D01*
X167126439Y-74787908D01*
X166891044Y-74662086D01*
X166635625Y-74584606D01*
X166370000Y-74558444D01*
X166104374Y-74584606D01*
X165848955Y-74662086D01*
X165613560Y-74787908D01*
X165407235Y-74957236D01*
X165237908Y-75163561D01*
X165112086Y-75398956D01*
X165100000Y-75438798D01*
X165087914Y-75398955D01*
X164962092Y-75163560D01*
X164792764Y-74957235D01*
X164586439Y-74787908D01*
X164351044Y-74662086D01*
X164095625Y-74584606D01*
X163830000Y-74558444D01*
X163564374Y-74584606D01*
X163308955Y-74662086D01*
X163073560Y-74787908D01*
X162867235Y-74957236D01*
X162697908Y-75163561D01*
X162572086Y-75398956D01*
X162560000Y-75438798D01*
X162547914Y-75398955D01*
X162422092Y-75163560D01*
X162252764Y-74957235D01*
X162046439Y-74787908D01*
X161811044Y-74662086D01*
X161555625Y-74584606D01*
X161290000Y-74558444D01*
X161024374Y-74584606D01*
X160768955Y-74662086D01*
X160533560Y-74787908D01*
X160327235Y-74957236D01*
X160157908Y-75163561D01*
X160032086Y-75398956D01*
X160020000Y-75438798D01*
X160007914Y-75398955D01*
X159882092Y-75163560D01*
X159712764Y-74957235D01*
X159506439Y-74787908D01*
X159271044Y-74662086D01*
X159015625Y-74584606D01*
X158750000Y-74558444D01*
X158484374Y-74584606D01*
X158228955Y-74662086D01*
X157993560Y-74787908D01*
X157787235Y-74957236D01*
X157617908Y-75163561D01*
X157492086Y-75398956D01*
X157480000Y-75438798D01*
X157467914Y-75398955D01*
X157342092Y-75163560D01*
X157172764Y-74957235D01*
X156966439Y-74787908D01*
X156731044Y-74662086D01*
X156475625Y-74584606D01*
X156210000Y-74558444D01*
X155944374Y-74584606D01*
X155688955Y-74662086D01*
X155453560Y-74787908D01*
X155247235Y-74957236D01*
X155077908Y-75163561D01*
X154952086Y-75398956D01*
X154940000Y-75438798D01*
X154927914Y-75398955D01*
X154802092Y-75163560D01*
X154632764Y-74957235D01*
X154426439Y-74787908D01*
X154191044Y-74662086D01*
X153935625Y-74584606D01*
X153670000Y-74558444D01*
X153404374Y-74584606D01*
X153148955Y-74662086D01*
X152913560Y-74787908D01*
X152707235Y-74957236D01*
X152537908Y-75163561D01*
X152412086Y-75398956D01*
X152400000Y-75438798D01*
X152387914Y-75398955D01*
X152262092Y-75163560D01*
X152092764Y-74957235D01*
X151886439Y-74787908D01*
X151651044Y-74662086D01*
X151395625Y-74584606D01*
X151130000Y-74558444D01*
X150864374Y-74584606D01*
X150608955Y-74662086D01*
X150373560Y-74787908D01*
X150167235Y-74957236D01*
X149997908Y-75163561D01*
X149872086Y-75398956D01*
X149794606Y-75654375D01*
X149775000Y-75853437D01*
X149775000Y-76546564D01*
X149794606Y-76745626D01*
X149872086Y-77001045D01*
X149997908Y-77236440D01*
X150167236Y-77442765D01*
X150373561Y-77612092D01*
X150608956Y-77737914D01*
X150864375Y-77815394D01*
X151130000Y-77841556D01*
X151395626Y-77815394D01*
X151651045Y-77737914D01*
X151886440Y-77612092D01*
X152092765Y-77442765D01*
X152262092Y-77236440D01*
X152387914Y-77001045D01*
X152400000Y-76961202D01*
X152412086Y-77001045D01*
X152537908Y-77236440D01*
X152707236Y-77442765D01*
X152913561Y-77612092D01*
X153148956Y-77737914D01*
X153404375Y-77815394D01*
X153670000Y-77841556D01*
X153935626Y-77815394D01*
X154191045Y-77737914D01*
X154426440Y-77612092D01*
X154632765Y-77442765D01*
X154802092Y-77236440D01*
X154927914Y-77001045D01*
X154940000Y-76961202D01*
X154952086Y-77001045D01*
X155077908Y-77236440D01*
X155247236Y-77442765D01*
X155450001Y-77609170D01*
X155450000Y-83370289D01*
X155406063Y-83414226D01*
X155292795Y-83583744D01*
X155214774Y-83772102D01*
X155175000Y-83972061D01*
X155175000Y-84175939D01*
X155214774Y-84375898D01*
X155292795Y-84564256D01*
X155406063Y-84733774D01*
X155550226Y-84877937D01*
X155719744Y-84991205D01*
X155908102Y-85069226D01*
X156108061Y-85109000D01*
X156311939Y-85109000D01*
X156511898Y-85069226D01*
X156700256Y-84991205D01*
X156869774Y-84877937D01*
X157013937Y-84733774D01*
X157127205Y-84564256D01*
X157205226Y-84375898D01*
X157245000Y-84175939D01*
X157245000Y-83972061D01*
X157205226Y-83772102D01*
X157127205Y-83583744D01*
X157013937Y-83414226D01*
X156970000Y-83370289D01*
X156970000Y-77609170D01*
X157172765Y-77442765D01*
X157342092Y-77236440D01*
X157467914Y-77001045D01*
X157480000Y-76961202D01*
X157492086Y-77001045D01*
X157617908Y-77236440D01*
X157787236Y-77442765D01*
X157993561Y-77612092D01*
X158228956Y-77737914D01*
X158484375Y-77815394D01*
X158750000Y-77841556D01*
X159015626Y-77815394D01*
X159271045Y-77737914D01*
X159506440Y-77612092D01*
X159712765Y-77442765D01*
X159882092Y-77236440D01*
X160007914Y-77001045D01*
X160020000Y-76961202D01*
X160032086Y-77001045D01*
X160157908Y-77236440D01*
X160327236Y-77442765D01*
X160533561Y-77612092D01*
X160768956Y-77737914D01*
X161024375Y-77815394D01*
X161290000Y-77841556D01*
X161555626Y-77815394D01*
X161811045Y-77737914D01*
X162046440Y-77612092D01*
X162252765Y-77442765D01*
X162422092Y-77236440D01*
X162547914Y-77001045D01*
X162560000Y-76961202D01*
X162572086Y-77001045D01*
X162697908Y-77236440D01*
X162867236Y-77442765D01*
X163073561Y-77612092D01*
X163308956Y-77737914D01*
X163564375Y-77815394D01*
X163830000Y-77841556D01*
X164095626Y-77815394D01*
X164351045Y-77737914D01*
X164586440Y-77612092D01*
X164792765Y-77442765D01*
X164962092Y-77236440D01*
X165087914Y-77001045D01*
X165100000Y-76961202D01*
X165112086Y-77001045D01*
X165237908Y-77236440D01*
X165407236Y-77442765D01*
X165613561Y-77612092D01*
X165848956Y-77737914D01*
X166104375Y-77815394D01*
X166209455Y-77825744D01*
X159509003Y-84526196D01*
X159479999Y-84549999D01*
X159427474Y-84614001D01*
X159385026Y-84665724D01*
X159314455Y-84797753D01*
X159314454Y-84797754D01*
X159270997Y-84941015D01*
X159260000Y-85052668D01*
X159260000Y-85052678D01*
X159256324Y-85090000D01*
X159260000Y-85127323D01*
X159260001Y-89898736D01*
X159015625Y-89824606D01*
X158750000Y-89798444D01*
X158484374Y-89824606D01*
X158228955Y-89902086D01*
X157993560Y-90027908D01*
X157787235Y-90197236D01*
X157617908Y-90403561D01*
X157492086Y-90638956D01*
X157480000Y-90678798D01*
X157467914Y-90638955D01*
X157342092Y-90403560D01*
X157172764Y-90197235D01*
X156966439Y-90027908D01*
X156731044Y-89902086D01*
X156475625Y-89824606D01*
X156210000Y-89798444D01*
X155944374Y-89824606D01*
X155688955Y-89902086D01*
X155453560Y-90027908D01*
X155247235Y-90197236D01*
X155077908Y-90403561D01*
X154952086Y-90638956D01*
X154940000Y-90678798D01*
X154927914Y-90638955D01*
X154802092Y-90403560D01*
X154632764Y-90197235D01*
X154426439Y-90027908D01*
X154191044Y-89902086D01*
X153935625Y-89824606D01*
X153670000Y-89798444D01*
X153404374Y-89824606D01*
X153148955Y-89902086D01*
X152913560Y-90027908D01*
X152707235Y-90197236D01*
X152537908Y-90403561D01*
X152488072Y-90496797D01*
X152488072Y-90440000D01*
X152475812Y-90315518D01*
X152439502Y-90195820D01*
X152380537Y-90085506D01*
X152301185Y-89988815D01*
X152204494Y-89909463D01*
X152094180Y-89850498D01*
X151974482Y-89814188D01*
X151850000Y-89801928D01*
X150410000Y-89801928D01*
X150285518Y-89814188D01*
X150165820Y-89850498D01*
X150055506Y-89909463D01*
X149958815Y-89988815D01*
X149879463Y-90085506D01*
X149820498Y-90195820D01*
X149784188Y-90315518D01*
X149771928Y-90440000D01*
X149771928Y-92204000D01*
X143801322Y-92204000D01*
X143763999Y-92200324D01*
X143726676Y-92204000D01*
X143726667Y-92204000D01*
X143615014Y-92214997D01*
X143471753Y-92258454D01*
X143339724Y-92329026D01*
X143223999Y-92423999D01*
X143200201Y-92452997D01*
X130008199Y-105645000D01*
X129946061Y-105645000D01*
X129746102Y-105684774D01*
X129557744Y-105762795D01*
X129436938Y-105843515D01*
X129384637Y-105765241D01*
X129184759Y-105565363D01*
X128949727Y-105408320D01*
X128688574Y-105300147D01*
X128411335Y-105245000D01*
X128128665Y-105245000D01*
X128034582Y-105263714D01*
X126700132Y-103929264D01*
X126844637Y-103784759D01*
X127001680Y-103549727D01*
X127109853Y-103288574D01*
X127165000Y-103011335D01*
X127165000Y-102728665D01*
X127109853Y-102451426D01*
X127001680Y-102190273D01*
X126844637Y-101955241D01*
X126644759Y-101755363D01*
X126409727Y-101598320D01*
X126148574Y-101490147D01*
X125871335Y-101435000D01*
X125588665Y-101435000D01*
X125311426Y-101490147D01*
X125050273Y-101598320D01*
X124815241Y-101755363D01*
X124615363Y-101955241D01*
X124481308Y-102155869D01*
X124466671Y-102128486D01*
X124222702Y-102056903D01*
X123409605Y-102870000D01*
X124222702Y-103683097D01*
X124466671Y-103611514D01*
X124480324Y-103582659D01*
X124615363Y-103784759D01*
X124815241Y-103984637D01*
X124895001Y-104037931D01*
X124895001Y-104098972D01*
X124890960Y-104140000D01*
X124907082Y-104303688D01*
X124954828Y-104461086D01*
X125006464Y-104557689D01*
X125032365Y-104606146D01*
X125136710Y-104733291D01*
X125168574Y-104759441D01*
X126853714Y-106444582D01*
X126835000Y-106538665D01*
X126835000Y-106821335D01*
X126890147Y-107098574D01*
X126998320Y-107359727D01*
X127155363Y-107594759D01*
X127355241Y-107794637D01*
X127587759Y-107950000D01*
X127355241Y-108105363D01*
X127155363Y-108305241D01*
X126998320Y-108540273D01*
X126890147Y-108801426D01*
X126835000Y-109078665D01*
X126835000Y-109361335D01*
X126890147Y-109638574D01*
X126928017Y-109730000D01*
X121991983Y-109730000D01*
X122029853Y-109638574D01*
X122085000Y-109361335D01*
X122085000Y-109078665D01*
X122029853Y-108801426D01*
X121921680Y-108540273D01*
X121764637Y-108305241D01*
X121566039Y-108106643D01*
X121574482Y-108105812D01*
X121694180Y-108069502D01*
X121804494Y-108010537D01*
X121901185Y-107931185D01*
X121980537Y-107834494D01*
X122039502Y-107724180D01*
X122075812Y-107604482D01*
X122088072Y-107480000D01*
X122088072Y-105880000D01*
X122075812Y-105755518D01*
X122039502Y-105635820D01*
X121980537Y-105525506D01*
X121901185Y-105428815D01*
X121804494Y-105349463D01*
X121694180Y-105290498D01*
X121574482Y-105254188D01*
X121450000Y-105241928D01*
X119850000Y-105241928D01*
X119725518Y-105254188D01*
X119605820Y-105290498D01*
X119495506Y-105349463D01*
X119398815Y-105428815D01*
X119319463Y-105525506D01*
X119260498Y-105635820D01*
X119224188Y-105755518D01*
X119211928Y-105880000D01*
X116660000Y-105880000D01*
X116660000Y-103862702D01*
X122416903Y-103862702D01*
X122488486Y-104106671D01*
X122743996Y-104227571D01*
X123018184Y-104296300D01*
X123300512Y-104310217D01*
X123580130Y-104268787D01*
X123846292Y-104173603D01*
X123971514Y-104106671D01*
X124043097Y-103862702D01*
X123230000Y-103049605D01*
X122416903Y-103862702D01*
X116660000Y-103862702D01*
X116660000Y-102940512D01*
X121789783Y-102940512D01*
X121831213Y-103220130D01*
X121926397Y-103486292D01*
X121993329Y-103611514D01*
X122237298Y-103683097D01*
X123050395Y-102870000D01*
X122237298Y-102056903D01*
X121993329Y-102128486D01*
X121872429Y-102383996D01*
X121803700Y-102658184D01*
X121789783Y-102940512D01*
X116660000Y-102940512D01*
X116660000Y-101877298D01*
X122416903Y-101877298D01*
X123230000Y-102690395D01*
X124043097Y-101877298D01*
X123971514Y-101633329D01*
X123716004Y-101512429D01*
X123441816Y-101443700D01*
X123159488Y-101429783D01*
X122879870Y-101471213D01*
X122613708Y-101566397D01*
X122488486Y-101633329D01*
X122416903Y-101877298D01*
X116660000Y-101877298D01*
X116660000Y-97180061D01*
X135870994Y-97180061D01*
X135870994Y-97383939D01*
X135910768Y-97583898D01*
X135988789Y-97772256D01*
X136102057Y-97941774D01*
X136246220Y-98085937D01*
X136415738Y-98199205D01*
X136604096Y-98277226D01*
X136804055Y-98317000D01*
X137007933Y-98317000D01*
X137207892Y-98277226D01*
X137396250Y-98199205D01*
X137565768Y-98085937D01*
X137709931Y-97941774D01*
X137823199Y-97772256D01*
X137901220Y-97583898D01*
X137940994Y-97383939D01*
X137940994Y-97321801D01*
X141898803Y-93363993D01*
X141960946Y-93363993D01*
X142160905Y-93324219D01*
X142349263Y-93246198D01*
X142518781Y-93132930D01*
X142662944Y-92988767D01*
X142776212Y-92819249D01*
X142854233Y-92630891D01*
X142894007Y-92430932D01*
X142894007Y-92227054D01*
X142854233Y-92027095D01*
X142776212Y-91838737D01*
X142662944Y-91669219D01*
X142518781Y-91525056D01*
X142349263Y-91411788D01*
X142160905Y-91333767D01*
X141960946Y-91293993D01*
X141757068Y-91293993D01*
X141557109Y-91333767D01*
X141368751Y-91411788D01*
X141199233Y-91525056D01*
X141055070Y-91669219D01*
X140941802Y-91838737D01*
X140863781Y-92027095D01*
X140824007Y-92227054D01*
X140824007Y-92289185D01*
X136866193Y-96247000D01*
X136804055Y-96247000D01*
X136604096Y-96286774D01*
X136415738Y-96364795D01*
X136246220Y-96478063D01*
X136102057Y-96622226D01*
X135988789Y-96791744D01*
X135910768Y-96980102D01*
X135870994Y-97180061D01*
X116660000Y-97180061D01*
X116660000Y-86980665D01*
X129121000Y-86980665D01*
X129121000Y-87263335D01*
X129176147Y-87540574D01*
X129284320Y-87801727D01*
X129441363Y-88036759D01*
X129641241Y-88236637D01*
X129876273Y-88393680D01*
X130137426Y-88501853D01*
X130414665Y-88557000D01*
X130697335Y-88557000D01*
X130974574Y-88501853D01*
X131235727Y-88393680D01*
X131470759Y-88236637D01*
X131592694Y-88114702D01*
X132242903Y-88114702D01*
X132314486Y-88358671D01*
X132569996Y-88479571D01*
X132844184Y-88548300D01*
X133126512Y-88562217D01*
X133406130Y-88520787D01*
X133672292Y-88425603D01*
X133797514Y-88358671D01*
X133869097Y-88114702D01*
X133056000Y-87301605D01*
X132242903Y-88114702D01*
X131592694Y-88114702D01*
X131670637Y-88036759D01*
X131804692Y-87836131D01*
X131819329Y-87863514D01*
X132063298Y-87935097D01*
X132876395Y-87122000D01*
X133235605Y-87122000D01*
X134048702Y-87935097D01*
X134292671Y-87863514D01*
X134413571Y-87608004D01*
X134433609Y-87528061D01*
X145523000Y-87528061D01*
X145523000Y-87731939D01*
X145562774Y-87931898D01*
X145640795Y-88120256D01*
X145754063Y-88289774D01*
X145898226Y-88433937D01*
X146067744Y-88547205D01*
X146256102Y-88625226D01*
X146456061Y-88665000D01*
X146659939Y-88665000D01*
X146859898Y-88625226D01*
X147048256Y-88547205D01*
X147217774Y-88433937D01*
X147261711Y-88390000D01*
X153982289Y-88390000D01*
X154026226Y-88433937D01*
X154195744Y-88547205D01*
X154384102Y-88625226D01*
X154584061Y-88665000D01*
X154787939Y-88665000D01*
X154987898Y-88625226D01*
X155176256Y-88547205D01*
X155345774Y-88433937D01*
X155489937Y-88289774D01*
X155603205Y-88120256D01*
X155681226Y-87931898D01*
X155721000Y-87731939D01*
X155721000Y-87528061D01*
X155681226Y-87328102D01*
X155603205Y-87139744D01*
X155489937Y-86970226D01*
X155345774Y-86826063D01*
X155176256Y-86712795D01*
X154987898Y-86634774D01*
X154787939Y-86595000D01*
X154584061Y-86595000D01*
X154384102Y-86634774D01*
X154195744Y-86712795D01*
X154026226Y-86826063D01*
X153982289Y-86870000D01*
X147261711Y-86870000D01*
X147217774Y-86826063D01*
X147048256Y-86712795D01*
X146859898Y-86634774D01*
X146659939Y-86595000D01*
X146456061Y-86595000D01*
X146256102Y-86634774D01*
X146067744Y-86712795D01*
X145898226Y-86826063D01*
X145754063Y-86970226D01*
X145640795Y-87139744D01*
X145562774Y-87328102D01*
X145523000Y-87528061D01*
X134433609Y-87528061D01*
X134482300Y-87333816D01*
X134496217Y-87051488D01*
X134454787Y-86771870D01*
X134359603Y-86505708D01*
X134292671Y-86380486D01*
X134048702Y-86308903D01*
X133235605Y-87122000D01*
X132876395Y-87122000D01*
X132063298Y-86308903D01*
X131819329Y-86380486D01*
X131805676Y-86409341D01*
X131670637Y-86207241D01*
X131592694Y-86129298D01*
X132242903Y-86129298D01*
X133056000Y-86942395D01*
X133869097Y-86129298D01*
X133797514Y-85885329D01*
X133542004Y-85764429D01*
X133267816Y-85695700D01*
X132985488Y-85681783D01*
X132705870Y-85723213D01*
X132439708Y-85818397D01*
X132314486Y-85885329D01*
X132242903Y-86129298D01*
X131592694Y-86129298D01*
X131470759Y-86007363D01*
X131235727Y-85850320D01*
X130974574Y-85742147D01*
X130697335Y-85687000D01*
X130414665Y-85687000D01*
X130137426Y-85742147D01*
X129876273Y-85850320D01*
X129641241Y-86007363D01*
X129441363Y-86207241D01*
X129284320Y-86442273D01*
X129176147Y-86703426D01*
X129121000Y-86980665D01*
X116660000Y-86980665D01*
X116660000Y-82408665D01*
X125311000Y-82408665D01*
X125311000Y-82691335D01*
X125366147Y-82968574D01*
X125474320Y-83229727D01*
X125631363Y-83464759D01*
X125831241Y-83664637D01*
X126066273Y-83821680D01*
X126327426Y-83929853D01*
X126604665Y-83985000D01*
X126887335Y-83985000D01*
X127164574Y-83929853D01*
X127425727Y-83821680D01*
X127660759Y-83664637D01*
X127860637Y-83464759D01*
X128017680Y-83229727D01*
X128125853Y-82968574D01*
X128181000Y-82691335D01*
X128181000Y-82408665D01*
X135471000Y-82408665D01*
X135471000Y-82691335D01*
X135526147Y-82968574D01*
X135634320Y-83229727D01*
X135791363Y-83464759D01*
X135991241Y-83664637D01*
X136226273Y-83821680D01*
X136487426Y-83929853D01*
X136764665Y-83985000D01*
X137047335Y-83985000D01*
X137324574Y-83929853D01*
X137585727Y-83821680D01*
X137820759Y-83664637D01*
X138020637Y-83464759D01*
X138177680Y-83229727D01*
X138285853Y-82968574D01*
X138341000Y-82691335D01*
X138341000Y-82408665D01*
X138285853Y-82131426D01*
X138177680Y-81870273D01*
X138020637Y-81635241D01*
X137820759Y-81435363D01*
X137585727Y-81278320D01*
X137324574Y-81170147D01*
X137047335Y-81115000D01*
X136764665Y-81115000D01*
X136487426Y-81170147D01*
X136226273Y-81278320D01*
X135991241Y-81435363D01*
X135791363Y-81635241D01*
X135634320Y-81870273D01*
X135526147Y-82131426D01*
X135471000Y-82408665D01*
X128181000Y-82408665D01*
X128125853Y-82131426D01*
X128017680Y-81870273D01*
X127860637Y-81635241D01*
X127660759Y-81435363D01*
X127425727Y-81278320D01*
X127164574Y-81170147D01*
X126887335Y-81115000D01*
X126604665Y-81115000D01*
X126327426Y-81170147D01*
X126066273Y-81278320D01*
X125831241Y-81435363D01*
X125631363Y-81635241D01*
X125474320Y-81870273D01*
X125366147Y-82131426D01*
X125311000Y-82408665D01*
X116660000Y-82408665D01*
X116660000Y-77328665D01*
X125311000Y-77328665D01*
X125311000Y-77611335D01*
X125366147Y-77888574D01*
X125474320Y-78149727D01*
X125631363Y-78384759D01*
X125831241Y-78584637D01*
X126066273Y-78741680D01*
X126327426Y-78849853D01*
X126604665Y-78905000D01*
X126887335Y-78905000D01*
X127164574Y-78849853D01*
X127425727Y-78741680D01*
X127660759Y-78584637D01*
X127860637Y-78384759D01*
X128017680Y-78149727D01*
X128125853Y-77888574D01*
X128181000Y-77611335D01*
X128181000Y-77328665D01*
X135471000Y-77328665D01*
X135471000Y-77611335D01*
X135526147Y-77888574D01*
X135634320Y-78149727D01*
X135791363Y-78384759D01*
X135991241Y-78584637D01*
X136226273Y-78741680D01*
X136487426Y-78849853D01*
X136764665Y-78905000D01*
X137047335Y-78905000D01*
X137324574Y-78849853D01*
X137585727Y-78741680D01*
X137820759Y-78584637D01*
X138020637Y-78384759D01*
X138177680Y-78149727D01*
X138285853Y-77888574D01*
X138341000Y-77611335D01*
X138341000Y-77328665D01*
X138285853Y-77051426D01*
X138177680Y-76790273D01*
X138020637Y-76555241D01*
X137820759Y-76355363D01*
X137585727Y-76198320D01*
X137324574Y-76090147D01*
X137047335Y-76035000D01*
X136764665Y-76035000D01*
X136487426Y-76090147D01*
X136226273Y-76198320D01*
X135991241Y-76355363D01*
X135791363Y-76555241D01*
X135634320Y-76790273D01*
X135526147Y-77051426D01*
X135471000Y-77328665D01*
X128181000Y-77328665D01*
X128125853Y-77051426D01*
X128017680Y-76790273D01*
X127860637Y-76555241D01*
X127660759Y-76355363D01*
X127425727Y-76198320D01*
X127164574Y-76090147D01*
X126887335Y-76035000D01*
X126604665Y-76035000D01*
X126327426Y-76090147D01*
X126066273Y-76198320D01*
X125831241Y-76355363D01*
X125631363Y-76555241D01*
X125474320Y-76790273D01*
X125366147Y-77051426D01*
X125311000Y-77328665D01*
X116660000Y-77328665D01*
X116660000Y-72248665D01*
X125311000Y-72248665D01*
X125311000Y-72531335D01*
X125366147Y-72808574D01*
X125474320Y-73069727D01*
X125631363Y-73304759D01*
X125831241Y-73504637D01*
X126066273Y-73661680D01*
X126327426Y-73769853D01*
X126604665Y-73825000D01*
X126887335Y-73825000D01*
X127164574Y-73769853D01*
X127425727Y-73661680D01*
X127660759Y-73504637D01*
X127860637Y-73304759D01*
X128017680Y-73069727D01*
X128125853Y-72808574D01*
X128181000Y-72531335D01*
X128181000Y-72248665D01*
X135471000Y-72248665D01*
X135471000Y-72531335D01*
X135526147Y-72808574D01*
X135634320Y-73069727D01*
X135791363Y-73304759D01*
X135991241Y-73504637D01*
X136226273Y-73661680D01*
X136487426Y-73769853D01*
X136764665Y-73825000D01*
X137047335Y-73825000D01*
X137324574Y-73769853D01*
X137585727Y-73661680D01*
X137820759Y-73504637D01*
X138020637Y-73304759D01*
X138177680Y-73069727D01*
X138285853Y-72808574D01*
X138341000Y-72531335D01*
X138341000Y-72248665D01*
X138285853Y-71971426D01*
X138177680Y-71710273D01*
X138020637Y-71475241D01*
X137820759Y-71275363D01*
X137585727Y-71118320D01*
X137324574Y-71010147D01*
X137047335Y-70955000D01*
X136764665Y-70955000D01*
X136487426Y-71010147D01*
X136226273Y-71118320D01*
X135991241Y-71275363D01*
X135791363Y-71475241D01*
X135634320Y-71710273D01*
X135526147Y-71971426D01*
X135471000Y-72248665D01*
X128181000Y-72248665D01*
X128125853Y-71971426D01*
X128017680Y-71710273D01*
X127860637Y-71475241D01*
X127660759Y-71275363D01*
X127425727Y-71118320D01*
X127164574Y-71010147D01*
X126887335Y-70955000D01*
X126604665Y-70955000D01*
X126327426Y-71010147D01*
X126066273Y-71118320D01*
X125831241Y-71275363D01*
X125631363Y-71475241D01*
X125474320Y-71710273D01*
X125366147Y-71971426D01*
X125311000Y-72248665D01*
X116660000Y-72248665D01*
X116660000Y-68660000D01*
X195340000Y-68660000D01*
X195340001Y-127340000D01*
G04 #@! TA.AperFunction,Conductor*
D21*
G36*
X195340001Y-127340000D02*
G01*
X116660000Y-127340000D01*
X116660000Y-122269039D01*
X119258096Y-122269039D01*
X119298754Y-122403087D01*
X119418963Y-122657420D01*
X119586481Y-122883414D01*
X119794869Y-123072385D01*
X120036119Y-123217070D01*
X120300960Y-123311909D01*
X120523000Y-123190624D01*
X120523000Y-122047000D01*
X120777000Y-122047000D01*
X120777000Y-123190624D01*
X120999040Y-123311909D01*
X121263881Y-123217070D01*
X121505131Y-123072385D01*
X121713519Y-122883414D01*
X121881037Y-122657420D01*
X122001246Y-122403087D01*
X122041904Y-122269039D01*
X121919915Y-122047000D01*
X120777000Y-122047000D01*
X120523000Y-122047000D01*
X119380085Y-122047000D01*
X119258096Y-122269039D01*
X116660000Y-122269039D01*
X116660000Y-105880000D01*
X119211928Y-105880000D01*
X119211928Y-107480000D01*
X119224188Y-107604482D01*
X119260498Y-107724180D01*
X119319463Y-107834494D01*
X119398815Y-107931185D01*
X119495506Y-108010537D01*
X119605820Y-108069502D01*
X119725518Y-108105812D01*
X119733961Y-108106643D01*
X119535363Y-108305241D01*
X119378320Y-108540273D01*
X119270147Y-108801426D01*
X119215000Y-109078665D01*
X119215000Y-109361335D01*
X119270147Y-109638574D01*
X119378320Y-109899727D01*
X119535363Y-110134759D01*
X119735241Y-110334637D01*
X119967759Y-110490000D01*
X119735241Y-110645363D01*
X119535363Y-110845241D01*
X119378320Y-111080273D01*
X119270147Y-111341426D01*
X119215000Y-111618665D01*
X119215000Y-111901335D01*
X119270147Y-112178574D01*
X119378320Y-112439727D01*
X119535363Y-112674759D01*
X119735241Y-112874637D01*
X119967759Y-113030000D01*
X119735241Y-113185363D01*
X119535363Y-113385241D01*
X119378320Y-113620273D01*
X119270147Y-113881426D01*
X119215000Y-114158665D01*
X119215000Y-114441335D01*
X119270147Y-114718574D01*
X119378320Y-114979727D01*
X119535363Y-115214759D01*
X119735241Y-115414637D01*
X119967759Y-115570000D01*
X119735241Y-115725363D01*
X119535363Y-115925241D01*
X119378320Y-116160273D01*
X119270147Y-116421426D01*
X119215000Y-116698665D01*
X119215000Y-116981335D01*
X119270147Y-117258574D01*
X119378320Y-117519727D01*
X119535363Y-117754759D01*
X119735241Y-117954637D01*
X119967759Y-118110000D01*
X119735241Y-118265363D01*
X119535363Y-118465241D01*
X119378320Y-118700273D01*
X119270147Y-118961426D01*
X119215000Y-119238665D01*
X119215000Y-119521335D01*
X119270147Y-119798574D01*
X119378320Y-120059727D01*
X119535363Y-120294759D01*
X119735241Y-120494637D01*
X119970273Y-120651680D01*
X119980865Y-120656067D01*
X119794869Y-120767615D01*
X119586481Y-120956586D01*
X119418963Y-121182580D01*
X119298754Y-121436913D01*
X119258096Y-121570961D01*
X119380085Y-121793000D01*
X120523000Y-121793000D01*
X120523000Y-121773000D01*
X120777000Y-121773000D01*
X120777000Y-121793000D01*
X121919915Y-121793000D01*
X122041904Y-121570961D01*
X122001246Y-121436913D01*
X121881037Y-121182580D01*
X121713519Y-120956586D01*
X121505131Y-120767615D01*
X121319135Y-120656067D01*
X121329727Y-120651680D01*
X121564759Y-120494637D01*
X121764637Y-120294759D01*
X121921680Y-120059727D01*
X122029853Y-119798574D01*
X122085000Y-119521335D01*
X122085000Y-119238665D01*
X122029853Y-118961426D01*
X121921680Y-118700273D01*
X121764637Y-118465241D01*
X121564759Y-118265363D01*
X121332241Y-118110000D01*
X121564759Y-117954637D01*
X121764637Y-117754759D01*
X121921680Y-117519727D01*
X122029853Y-117258574D01*
X122085000Y-116981335D01*
X122085000Y-116698665D01*
X122029853Y-116421426D01*
X121921680Y-116160273D01*
X121764637Y-115925241D01*
X121564759Y-115725363D01*
X121332241Y-115570000D01*
X121564759Y-115414637D01*
X121764637Y-115214759D01*
X121921680Y-114979727D01*
X122029853Y-114718574D01*
X122085000Y-114441335D01*
X122085000Y-114158665D01*
X122048688Y-113976114D01*
X122234802Y-113790000D01*
X126928017Y-113790000D01*
X126890147Y-113881426D01*
X126835000Y-114158665D01*
X126835000Y-114441335D01*
X126890147Y-114718574D01*
X126998320Y-114979727D01*
X127155363Y-115214759D01*
X127355241Y-115414637D01*
X127587759Y-115570000D01*
X127355241Y-115725363D01*
X127155363Y-115925241D01*
X126998320Y-116160273D01*
X126890147Y-116421426D01*
X126835000Y-116698665D01*
X126835000Y-116981335D01*
X126890147Y-117258574D01*
X126998320Y-117519727D01*
X127155363Y-117754759D01*
X127355241Y-117954637D01*
X127587759Y-118110000D01*
X127355241Y-118265363D01*
X127155363Y-118465241D01*
X126998320Y-118700273D01*
X126890147Y-118961426D01*
X126835000Y-119238665D01*
X126835000Y-119521335D01*
X126890147Y-119798574D01*
X126998320Y-120059727D01*
X127155363Y-120294759D01*
X127355241Y-120494637D01*
X127587759Y-120650000D01*
X127355241Y-120805363D01*
X127155363Y-121005241D01*
X126998320Y-121240273D01*
X126890147Y-121501426D01*
X126835000Y-121778665D01*
X126835000Y-122061335D01*
X126890147Y-122338574D01*
X126998320Y-122599727D01*
X127155363Y-122834759D01*
X127355241Y-123034637D01*
X127590273Y-123191680D01*
X127851426Y-123299853D01*
X128128665Y-123355000D01*
X128411335Y-123355000D01*
X128688574Y-123299853D01*
X128949727Y-123191680D01*
X129184759Y-123034637D01*
X129384637Y-122834759D01*
X129541680Y-122599727D01*
X129649853Y-122338574D01*
X129663684Y-122269039D01*
X133228096Y-122269039D01*
X133268754Y-122403087D01*
X133388963Y-122657420D01*
X133556481Y-122883414D01*
X133764869Y-123072385D01*
X134006119Y-123217070D01*
X134270960Y-123311909D01*
X134493000Y-123190624D01*
X134493000Y-122047000D01*
X134747000Y-122047000D01*
X134747000Y-123190624D01*
X134969040Y-123311909D01*
X135233881Y-123217070D01*
X135475131Y-123072385D01*
X135683519Y-122883414D01*
X135851037Y-122657420D01*
X135971246Y-122403087D01*
X136011904Y-122269039D01*
X135889915Y-122047000D01*
X134747000Y-122047000D01*
X134493000Y-122047000D01*
X133350085Y-122047000D01*
X133228096Y-122269039D01*
X129663684Y-122269039D01*
X129705000Y-122061335D01*
X129705000Y-121778665D01*
X129668688Y-121596114D01*
X129854802Y-121410000D01*
X133281474Y-121410000D01*
X133268754Y-121436913D01*
X133228096Y-121570961D01*
X133350085Y-121793000D01*
X134493000Y-121793000D01*
X134493000Y-121773000D01*
X134747000Y-121773000D01*
X134747000Y-121793000D01*
X135889915Y-121793000D01*
X136011904Y-121570961D01*
X135971246Y-121436913D01*
X135958526Y-121410000D01*
X136868678Y-121410000D01*
X136906000Y-121413676D01*
X136943322Y-121410000D01*
X136943333Y-121410000D01*
X137054986Y-121399003D01*
X137198247Y-121355546D01*
X137330276Y-121284974D01*
X137446001Y-121190001D01*
X137469804Y-121160997D01*
X139760803Y-118870000D01*
X140898017Y-118870000D01*
X140860147Y-118961426D01*
X140805000Y-119238665D01*
X140805000Y-119521335D01*
X140823715Y-119615418D01*
X140154579Y-120284554D01*
X140122709Y-120310709D01*
X140018365Y-120437854D01*
X140018364Y-120437855D01*
X139940828Y-120582914D01*
X139893082Y-120740312D01*
X139876960Y-120904000D01*
X139881000Y-120945019D01*
X139881001Y-122386972D01*
X139876960Y-122428000D01*
X139893082Y-122591688D01*
X139940828Y-122749086D01*
X140018364Y-122894145D01*
X140018365Y-122894146D01*
X140122710Y-123021291D01*
X140154574Y-123047441D01*
X141620559Y-124513426D01*
X141646709Y-124545291D01*
X141773854Y-124649636D01*
X141918913Y-124727172D01*
X142076311Y-124774918D01*
X142198981Y-124787000D01*
X142198991Y-124787000D01*
X142239999Y-124791039D01*
X142281007Y-124787000D01*
X149200070Y-124787000D01*
X149253363Y-124866759D01*
X149453241Y-125066637D01*
X149688273Y-125223680D01*
X149949426Y-125331853D01*
X150226665Y-125387000D01*
X150509335Y-125387000D01*
X150786574Y-125331853D01*
X151047727Y-125223680D01*
X151282759Y-125066637D01*
X151482637Y-124866759D01*
X151639680Y-124631727D01*
X151747853Y-124370574D01*
X151803000Y-124093335D01*
X151803000Y-123810665D01*
X151799494Y-123793039D01*
X165994096Y-123793039D01*
X166034754Y-123927087D01*
X166154963Y-124181420D01*
X166322481Y-124407414D01*
X166530869Y-124596385D01*
X166772119Y-124741070D01*
X167036960Y-124835909D01*
X167259000Y-124714624D01*
X167259000Y-123571000D01*
X167513000Y-123571000D01*
X167513000Y-124714624D01*
X167735040Y-124835909D01*
X167999881Y-124741070D01*
X168241131Y-124596385D01*
X168449519Y-124407414D01*
X168617037Y-124181420D01*
X168737246Y-123927087D01*
X168777904Y-123793039D01*
X168655915Y-123571000D01*
X167513000Y-123571000D01*
X167259000Y-123571000D01*
X166116085Y-123571000D01*
X165994096Y-123793039D01*
X151799494Y-123793039D01*
X151747853Y-123533426D01*
X151639680Y-123272273D01*
X151521205Y-123094961D01*
X165994096Y-123094961D01*
X166116085Y-123317000D01*
X167259000Y-123317000D01*
X167259000Y-122173376D01*
X167513000Y-122173376D01*
X167513000Y-123317000D01*
X168655915Y-123317000D01*
X168663790Y-123302665D01*
X176111000Y-123302665D01*
X176111000Y-123585335D01*
X176166147Y-123862574D01*
X176274320Y-124123727D01*
X176431363Y-124358759D01*
X176631241Y-124558637D01*
X176866273Y-124715680D01*
X177127426Y-124823853D01*
X177404665Y-124879000D01*
X177687335Y-124879000D01*
X177964574Y-124823853D01*
X178225727Y-124715680D01*
X178460759Y-124558637D01*
X178660637Y-124358759D01*
X178817680Y-124123727D01*
X178925853Y-123862574D01*
X178981000Y-123585335D01*
X178981000Y-123302665D01*
X178925853Y-123025426D01*
X178817680Y-122764273D01*
X178670499Y-122544000D01*
X181087928Y-122544000D01*
X181087928Y-124344000D01*
X181100188Y-124468482D01*
X181136498Y-124588180D01*
X181195463Y-124698494D01*
X181274815Y-124795185D01*
X181371506Y-124874537D01*
X181481820Y-124933502D01*
X181601518Y-124969812D01*
X181726000Y-124982072D01*
X183526000Y-124982072D01*
X183650482Y-124969812D01*
X183770180Y-124933502D01*
X183880494Y-124874537D01*
X183977185Y-124795185D01*
X184056537Y-124698494D01*
X184115502Y-124588180D01*
X184121056Y-124569873D01*
X184187495Y-124636312D01*
X184438905Y-124804299D01*
X184718257Y-124920011D01*
X185014816Y-124979000D01*
X185317184Y-124979000D01*
X185613743Y-124920011D01*
X185893095Y-124804299D01*
X186144505Y-124636312D01*
X186358312Y-124422505D01*
X186526299Y-124171095D01*
X186642011Y-123891743D01*
X186701000Y-123595184D01*
X186701000Y-123292816D01*
X186642011Y-122996257D01*
X186526299Y-122716905D01*
X186358312Y-122465495D01*
X186144505Y-122251688D01*
X185893095Y-122083701D01*
X185613743Y-121967989D01*
X185317184Y-121909000D01*
X185014816Y-121909000D01*
X184718257Y-121967989D01*
X184438905Y-122083701D01*
X184187495Y-122251688D01*
X184121056Y-122318127D01*
X184115502Y-122299820D01*
X184056537Y-122189506D01*
X183977185Y-122092815D01*
X183880494Y-122013463D01*
X183770180Y-121954498D01*
X183650482Y-121918188D01*
X183526000Y-121905928D01*
X181726000Y-121905928D01*
X181601518Y-121918188D01*
X181481820Y-121954498D01*
X181371506Y-122013463D01*
X181274815Y-122092815D01*
X181195463Y-122189506D01*
X181136498Y-122299820D01*
X181100188Y-122419518D01*
X181087928Y-122544000D01*
X178670499Y-122544000D01*
X178660637Y-122529241D01*
X178460759Y-122329363D01*
X178225727Y-122172320D01*
X177964574Y-122064147D01*
X177687335Y-122009000D01*
X177404665Y-122009000D01*
X177127426Y-122064147D01*
X176866273Y-122172320D01*
X176631241Y-122329363D01*
X176431363Y-122529241D01*
X176274320Y-122764273D01*
X176166147Y-123025426D01*
X176111000Y-123302665D01*
X168663790Y-123302665D01*
X168777904Y-123094961D01*
X168737246Y-122960913D01*
X168617037Y-122706580D01*
X168449519Y-122480586D01*
X168241131Y-122291615D01*
X167999881Y-122146930D01*
X167735040Y-122052091D01*
X167513000Y-122173376D01*
X167259000Y-122173376D01*
X167036960Y-122052091D01*
X166772119Y-122146930D01*
X166530869Y-122291615D01*
X166322481Y-122480586D01*
X166154963Y-122706580D01*
X166034754Y-122960913D01*
X165994096Y-123094961D01*
X151521205Y-123094961D01*
X151482637Y-123037241D01*
X151282759Y-122837363D01*
X151082131Y-122703308D01*
X151109514Y-122688671D01*
X151181097Y-122444702D01*
X150368000Y-121631605D01*
X149554903Y-122444702D01*
X149626486Y-122688671D01*
X149655341Y-122702324D01*
X149453241Y-122837363D01*
X149253363Y-123037241D01*
X149200070Y-123117000D01*
X143031494Y-123117000D01*
X143154759Y-123034637D01*
X143354637Y-122834759D01*
X143511680Y-122599727D01*
X143619853Y-122338574D01*
X143675000Y-122061335D01*
X143675000Y-121813801D01*
X143966289Y-121522512D01*
X148927783Y-121522512D01*
X148969213Y-121802130D01*
X149064397Y-122068292D01*
X149131329Y-122193514D01*
X149375298Y-122265097D01*
X150188395Y-121452000D01*
X150547605Y-121452000D01*
X151360702Y-122265097D01*
X151604671Y-122193514D01*
X151725571Y-121938004D01*
X151794300Y-121663816D01*
X151808217Y-121381488D01*
X151766787Y-121101870D01*
X151671603Y-120835708D01*
X151604671Y-120710486D01*
X151360702Y-120638903D01*
X150547605Y-121452000D01*
X150188395Y-121452000D01*
X149375298Y-120638903D01*
X149131329Y-120710486D01*
X149010429Y-120965996D01*
X148941700Y-121240184D01*
X148927783Y-121522512D01*
X143966289Y-121522512D01*
X145029503Y-120459298D01*
X149554903Y-120459298D01*
X150368000Y-121272395D01*
X151181097Y-120459298D01*
X151109514Y-120215329D01*
X150854004Y-120094429D01*
X150579816Y-120025700D01*
X150297488Y-120011783D01*
X150017870Y-120053213D01*
X149751708Y-120148397D01*
X149626486Y-120215329D01*
X149554903Y-120459298D01*
X145029503Y-120459298D01*
X149691928Y-115796873D01*
X149691928Y-116370000D01*
X149704188Y-116494482D01*
X149740498Y-116614180D01*
X149799463Y-116724494D01*
X149878815Y-116821185D01*
X149975506Y-116900537D01*
X150085820Y-116959502D01*
X150205518Y-116995812D01*
X150330000Y-117008072D01*
X151930000Y-117008072D01*
X152054482Y-116995812D01*
X152174180Y-116959502D01*
X152284494Y-116900537D01*
X152381185Y-116821185D01*
X152460537Y-116724494D01*
X152519502Y-116614180D01*
X152555812Y-116494482D01*
X152556643Y-116486039D01*
X152755241Y-116684637D01*
X152990273Y-116841680D01*
X153251426Y-116949853D01*
X153528665Y-117005000D01*
X153811335Y-117005000D01*
X154088574Y-116949853D01*
X154349727Y-116841680D01*
X154584759Y-116684637D01*
X154784637Y-116484759D01*
X154940000Y-116252241D01*
X155095363Y-116484759D01*
X155295241Y-116684637D01*
X155530273Y-116841680D01*
X155791426Y-116949853D01*
X156068665Y-117005000D01*
X156351335Y-117005000D01*
X156628574Y-116949853D01*
X156889727Y-116841680D01*
X157124759Y-116684637D01*
X157324637Y-116484759D01*
X157481680Y-116249727D01*
X157486067Y-116239135D01*
X157597615Y-116425131D01*
X157786586Y-116633519D01*
X158012580Y-116801037D01*
X158266913Y-116921246D01*
X158400961Y-116961904D01*
X158623000Y-116839915D01*
X158623000Y-115697000D01*
X158603000Y-115697000D01*
X158603000Y-115443000D01*
X158623000Y-115443000D01*
X158623000Y-114300085D01*
X158877000Y-114300085D01*
X158877000Y-115443000D01*
X158897000Y-115443000D01*
X158897000Y-115697000D01*
X158877000Y-115697000D01*
X158877000Y-116839915D01*
X159099039Y-116961904D01*
X159233087Y-116921246D01*
X159487420Y-116801037D01*
X159713414Y-116633519D01*
X159902385Y-116425131D01*
X160013933Y-116239135D01*
X160018320Y-116249727D01*
X160175363Y-116484759D01*
X160375241Y-116684637D01*
X160610273Y-116841680D01*
X160871426Y-116949853D01*
X161148665Y-117005000D01*
X161431335Y-117005000D01*
X161708574Y-116949853D01*
X161969727Y-116841680D01*
X162204759Y-116684637D01*
X162404637Y-116484759D01*
X162560000Y-116252241D01*
X162715363Y-116484759D01*
X162915241Y-116684637D01*
X163150273Y-116841680D01*
X163411426Y-116949853D01*
X163688665Y-117005000D01*
X163971335Y-117005000D01*
X164248574Y-116949853D01*
X164509727Y-116841680D01*
X164744759Y-116684637D01*
X164944637Y-116484759D01*
X165100000Y-116252241D01*
X165255363Y-116484759D01*
X165455241Y-116684637D01*
X165690273Y-116841680D01*
X165951426Y-116949853D01*
X166228665Y-117005000D01*
X166511335Y-117005000D01*
X166788574Y-116949853D01*
X167049727Y-116841680D01*
X167284759Y-116684637D01*
X167484637Y-116484759D01*
X167640000Y-116252241D01*
X167795363Y-116484759D01*
X167995241Y-116684637D01*
X168230273Y-116841680D01*
X168491426Y-116949853D01*
X168768665Y-117005000D01*
X169051335Y-117005000D01*
X169328574Y-116949853D01*
X169589727Y-116841680D01*
X169824759Y-116684637D01*
X170024637Y-116484759D01*
X170180000Y-116252241D01*
X170335363Y-116484759D01*
X170535241Y-116684637D01*
X170770273Y-116841680D01*
X171031426Y-116949853D01*
X171308665Y-117005000D01*
X171591335Y-117005000D01*
X171868574Y-116949853D01*
X172129727Y-116841680D01*
X172364759Y-116684637D01*
X172564637Y-116484759D01*
X172720000Y-116252241D01*
X172875363Y-116484759D01*
X173075241Y-116684637D01*
X173310273Y-116841680D01*
X173571426Y-116949853D01*
X173848665Y-117005000D01*
X174131335Y-117005000D01*
X174408574Y-116949853D01*
X174669727Y-116841680D01*
X174904759Y-116684637D01*
X175104637Y-116484759D01*
X175260000Y-116252241D01*
X175415363Y-116484759D01*
X175615241Y-116684637D01*
X175850273Y-116841680D01*
X176111426Y-116949853D01*
X176388665Y-117005000D01*
X176671335Y-117005000D01*
X176948574Y-116949853D01*
X177209727Y-116841680D01*
X177444759Y-116684637D01*
X177644637Y-116484759D01*
X177800000Y-116252241D01*
X177955363Y-116484759D01*
X178155241Y-116684637D01*
X178390273Y-116841680D01*
X178651426Y-116949853D01*
X178928665Y-117005000D01*
X179211335Y-117005000D01*
X179488574Y-116949853D01*
X179749727Y-116841680D01*
X179984759Y-116684637D01*
X180184637Y-116484759D01*
X180340000Y-116252241D01*
X180495363Y-116484759D01*
X180695241Y-116684637D01*
X180930273Y-116841680D01*
X181191426Y-116949853D01*
X181468665Y-117005000D01*
X181751335Y-117005000D01*
X182028574Y-116949853D01*
X182289727Y-116841680D01*
X182524759Y-116684637D01*
X182724637Y-116484759D01*
X182880000Y-116252241D01*
X183035363Y-116484759D01*
X183235241Y-116684637D01*
X183470273Y-116841680D01*
X183731426Y-116949853D01*
X184008665Y-117005000D01*
X184291335Y-117005000D01*
X184568574Y-116949853D01*
X184829727Y-116841680D01*
X185064759Y-116684637D01*
X185264637Y-116484759D01*
X185420000Y-116252241D01*
X185575363Y-116484759D01*
X185775241Y-116684637D01*
X186010273Y-116841680D01*
X186271426Y-116949853D01*
X186548665Y-117005000D01*
X186831335Y-117005000D01*
X187108574Y-116949853D01*
X187369727Y-116841680D01*
X187604759Y-116684637D01*
X187804637Y-116484759D01*
X187961680Y-116249727D01*
X188069853Y-115988574D01*
X188125000Y-115711335D01*
X188125000Y-115428665D01*
X188069853Y-115151426D01*
X187961680Y-114890273D01*
X187804637Y-114655241D01*
X187604759Y-114455363D01*
X187369727Y-114298320D01*
X187108574Y-114190147D01*
X186831335Y-114135000D01*
X186548665Y-114135000D01*
X186271426Y-114190147D01*
X186010273Y-114298320D01*
X185775241Y-114455363D01*
X185575363Y-114655241D01*
X185420000Y-114887759D01*
X185264637Y-114655241D01*
X185064759Y-114455363D01*
X184829727Y-114298320D01*
X184568574Y-114190147D01*
X184291335Y-114135000D01*
X184008665Y-114135000D01*
X183731426Y-114190147D01*
X183470273Y-114298320D01*
X183235241Y-114455363D01*
X183035363Y-114655241D01*
X182880000Y-114887759D01*
X182724637Y-114655241D01*
X182524759Y-114455363D01*
X182289727Y-114298320D01*
X182028574Y-114190147D01*
X181751335Y-114135000D01*
X181468665Y-114135000D01*
X181191426Y-114190147D01*
X180930273Y-114298320D01*
X180695241Y-114455363D01*
X180495363Y-114655241D01*
X180340000Y-114887759D01*
X180184637Y-114655241D01*
X179984759Y-114455363D01*
X179749727Y-114298320D01*
X179488574Y-114190147D01*
X179211335Y-114135000D01*
X178928665Y-114135000D01*
X178651426Y-114190147D01*
X178390273Y-114298320D01*
X178155241Y-114455363D01*
X177955363Y-114655241D01*
X177800000Y-114887759D01*
X177644637Y-114655241D01*
X177444759Y-114455363D01*
X177209727Y-114298320D01*
X176948574Y-114190147D01*
X176671335Y-114135000D01*
X176388665Y-114135000D01*
X176111426Y-114190147D01*
X175850273Y-114298320D01*
X175615241Y-114455363D01*
X175415363Y-114655241D01*
X175260000Y-114887759D01*
X175104637Y-114655241D01*
X174904759Y-114455363D01*
X174669727Y-114298320D01*
X174408574Y-114190147D01*
X174131335Y-114135000D01*
X173848665Y-114135000D01*
X173571426Y-114190147D01*
X173310273Y-114298320D01*
X173075241Y-114455363D01*
X172875363Y-114655241D01*
X172720000Y-114887759D01*
X172564637Y-114655241D01*
X172364759Y-114455363D01*
X172129727Y-114298320D01*
X171868574Y-114190147D01*
X171591335Y-114135000D01*
X171308665Y-114135000D01*
X171031426Y-114190147D01*
X170770273Y-114298320D01*
X170535241Y-114455363D01*
X170335363Y-114655241D01*
X170180000Y-114887759D01*
X170024637Y-114655241D01*
X169824759Y-114455363D01*
X169589727Y-114298320D01*
X169328574Y-114190147D01*
X169051335Y-114135000D01*
X168768665Y-114135000D01*
X168491426Y-114190147D01*
X168230273Y-114298320D01*
X167995241Y-114455363D01*
X167795363Y-114655241D01*
X167640000Y-114887759D01*
X167484637Y-114655241D01*
X167284759Y-114455363D01*
X167049727Y-114298320D01*
X166788574Y-114190147D01*
X166511335Y-114135000D01*
X166228665Y-114135000D01*
X165951426Y-114190147D01*
X165690273Y-114298320D01*
X165455241Y-114455363D01*
X165255363Y-114655241D01*
X165100000Y-114887759D01*
X164944637Y-114655241D01*
X164744759Y-114455363D01*
X164509727Y-114298320D01*
X164248574Y-114190147D01*
X163971335Y-114135000D01*
X163688665Y-114135000D01*
X163411426Y-114190147D01*
X163150273Y-114298320D01*
X162915241Y-114455363D01*
X162715363Y-114655241D01*
X162560000Y-114887759D01*
X162404637Y-114655241D01*
X162204759Y-114455363D01*
X161969727Y-114298320D01*
X161708574Y-114190147D01*
X161431335Y-114135000D01*
X161148665Y-114135000D01*
X160871426Y-114190147D01*
X160610273Y-114298320D01*
X160375241Y-114455363D01*
X160175363Y-114655241D01*
X160018320Y-114890273D01*
X160013933Y-114900865D01*
X159902385Y-114714869D01*
X159713414Y-114506481D01*
X159487420Y-114338963D01*
X159233087Y-114218754D01*
X159099039Y-114178096D01*
X158877000Y-114300085D01*
X158623000Y-114300085D01*
X158400961Y-114178096D01*
X158266913Y-114218754D01*
X158012580Y-114338963D01*
X157786586Y-114506481D01*
X157597615Y-114714869D01*
X157486067Y-114900865D01*
X157481680Y-114890273D01*
X157324637Y-114655241D01*
X157124759Y-114455363D01*
X156889727Y-114298320D01*
X156628574Y-114190147D01*
X156351335Y-114135000D01*
X156068665Y-114135000D01*
X155791426Y-114190147D01*
X155530273Y-114298320D01*
X155295241Y-114455363D01*
X155095363Y-114655241D01*
X154940000Y-114887759D01*
X154784637Y-114655241D01*
X154584759Y-114455363D01*
X154349727Y-114298320D01*
X154088574Y-114190147D01*
X153811335Y-114135000D01*
X153528665Y-114135000D01*
X153251426Y-114190147D01*
X152990273Y-114298320D01*
X152755241Y-114455363D01*
X152556643Y-114653961D01*
X152555812Y-114645518D01*
X152519502Y-114525820D01*
X152460537Y-114415506D01*
X152381185Y-114318815D01*
X152284494Y-114239463D01*
X152174180Y-114180498D01*
X152054482Y-114144188D01*
X151930000Y-114131928D01*
X151356874Y-114131928D01*
X158728802Y-106760000D01*
X165742678Y-106760000D01*
X165780000Y-106763676D01*
X165817322Y-106760000D01*
X165817333Y-106760000D01*
X165928986Y-106749003D01*
X166072247Y-106705546D01*
X166204276Y-106634974D01*
X166320001Y-106540001D01*
X166343804Y-106510997D01*
X171126114Y-101728688D01*
X171308665Y-101765000D01*
X171591335Y-101765000D01*
X171868574Y-101709853D01*
X172129727Y-101601680D01*
X172364759Y-101444637D01*
X172564637Y-101244759D01*
X172720000Y-101012241D01*
X172875363Y-101244759D01*
X173075241Y-101444637D01*
X173310273Y-101601680D01*
X173571426Y-101709853D01*
X173848665Y-101765000D01*
X174131335Y-101765000D01*
X174408574Y-101709853D01*
X174669727Y-101601680D01*
X174904759Y-101444637D01*
X175104637Y-101244759D01*
X175260000Y-101012241D01*
X175415363Y-101244759D01*
X175615241Y-101444637D01*
X175850273Y-101601680D01*
X176111426Y-101709853D01*
X176388665Y-101765000D01*
X176671335Y-101765000D01*
X176948574Y-101709853D01*
X177209727Y-101601680D01*
X177444759Y-101444637D01*
X177644637Y-101244759D01*
X177800000Y-101012241D01*
X177955363Y-101244759D01*
X178155241Y-101444637D01*
X178390273Y-101601680D01*
X178651426Y-101709853D01*
X178928665Y-101765000D01*
X179211335Y-101765000D01*
X179488574Y-101709853D01*
X179749727Y-101601680D01*
X179984759Y-101444637D01*
X180184637Y-101244759D01*
X180340000Y-101012241D01*
X180495363Y-101244759D01*
X180695241Y-101444637D01*
X180930273Y-101601680D01*
X181191426Y-101709853D01*
X181468665Y-101765000D01*
X181751335Y-101765000D01*
X182028574Y-101709853D01*
X182289727Y-101601680D01*
X182524759Y-101444637D01*
X182724637Y-101244759D01*
X182880000Y-101012241D01*
X183035363Y-101244759D01*
X183235241Y-101444637D01*
X183470273Y-101601680D01*
X183731426Y-101709853D01*
X184008665Y-101765000D01*
X184291335Y-101765000D01*
X184568574Y-101709853D01*
X184829727Y-101601680D01*
X185064759Y-101444637D01*
X185264637Y-101244759D01*
X185420000Y-101012241D01*
X185575363Y-101244759D01*
X185775241Y-101444637D01*
X186010273Y-101601680D01*
X186271426Y-101709853D01*
X186548665Y-101765000D01*
X186831335Y-101765000D01*
X187108574Y-101709853D01*
X187369727Y-101601680D01*
X187604759Y-101444637D01*
X187804637Y-101244759D01*
X187908043Y-101090000D01*
X190693201Y-101090000D01*
X190735002Y-101131801D01*
X190735002Y-101193939D01*
X190774776Y-101393898D01*
X190852797Y-101582256D01*
X190966065Y-101751774D01*
X191110228Y-101895937D01*
X191279746Y-102009205D01*
X191468104Y-102087226D01*
X191668063Y-102127000D01*
X191871941Y-102127000D01*
X192071900Y-102087226D01*
X192260258Y-102009205D01*
X192429776Y-101895937D01*
X192573939Y-101751774D01*
X192687207Y-101582256D01*
X192765228Y-101393898D01*
X192805002Y-101193939D01*
X192805002Y-100990061D01*
X192765228Y-100790102D01*
X192687207Y-100601744D01*
X192573939Y-100432226D01*
X192429776Y-100288063D01*
X192260258Y-100174795D01*
X192071900Y-100096774D01*
X191871941Y-100057000D01*
X191809803Y-100057000D01*
X191571805Y-99819002D01*
X191548003Y-99789999D01*
X191432278Y-99695026D01*
X191300249Y-99624454D01*
X191156988Y-99580997D01*
X191045335Y-99570000D01*
X191045324Y-99570000D01*
X191008002Y-99566324D01*
X190970680Y-99570000D01*
X187908043Y-99570000D01*
X187804637Y-99415241D01*
X187604759Y-99215363D01*
X187369727Y-99058320D01*
X187108574Y-98950147D01*
X186831335Y-98895000D01*
X186548665Y-98895000D01*
X186271426Y-98950147D01*
X186010273Y-99058320D01*
X185775241Y-99215363D01*
X185575363Y-99415241D01*
X185420000Y-99647759D01*
X185264637Y-99415241D01*
X185064759Y-99215363D01*
X184829727Y-99058320D01*
X184568574Y-98950147D01*
X184291335Y-98895000D01*
X184008665Y-98895000D01*
X183731426Y-98950147D01*
X183470273Y-99058320D01*
X183235241Y-99215363D01*
X183035363Y-99415241D01*
X182880000Y-99647759D01*
X182724637Y-99415241D01*
X182524759Y-99215363D01*
X182289727Y-99058320D01*
X182028574Y-98950147D01*
X181751335Y-98895000D01*
X181468665Y-98895000D01*
X181191426Y-98950147D01*
X180930273Y-99058320D01*
X180695241Y-99215363D01*
X180495363Y-99415241D01*
X180340000Y-99647759D01*
X180184637Y-99415241D01*
X179984759Y-99215363D01*
X179749727Y-99058320D01*
X179488574Y-98950147D01*
X179211335Y-98895000D01*
X178928665Y-98895000D01*
X178651426Y-98950147D01*
X178390273Y-99058320D01*
X178155241Y-99215363D01*
X177955363Y-99415241D01*
X177800000Y-99647759D01*
X177644637Y-99415241D01*
X177444759Y-99215363D01*
X177209727Y-99058320D01*
X176948574Y-98950147D01*
X176671335Y-98895000D01*
X176388665Y-98895000D01*
X176111426Y-98950147D01*
X175850273Y-99058320D01*
X175615241Y-99215363D01*
X175415363Y-99415241D01*
X175260000Y-99647759D01*
X175104637Y-99415241D01*
X174904759Y-99215363D01*
X174669727Y-99058320D01*
X174408574Y-98950147D01*
X174131335Y-98895000D01*
X173848665Y-98895000D01*
X173571426Y-98950147D01*
X173310273Y-99058320D01*
X173075241Y-99215363D01*
X172875363Y-99415241D01*
X172720000Y-99647759D01*
X172564637Y-99415241D01*
X172364759Y-99215363D01*
X172129727Y-99058320D01*
X171868574Y-98950147D01*
X171591335Y-98895000D01*
X171308665Y-98895000D01*
X171031426Y-98950147D01*
X170770273Y-99058320D01*
X170535241Y-99215363D01*
X170335363Y-99415241D01*
X170180000Y-99647759D01*
X170024637Y-99415241D01*
X169824759Y-99215363D01*
X169589727Y-99058320D01*
X169328574Y-98950147D01*
X169051335Y-98895000D01*
X168768665Y-98895000D01*
X168491426Y-98950147D01*
X168230273Y-99058320D01*
X167995241Y-99215363D01*
X167795363Y-99415241D01*
X167640000Y-99647759D01*
X167484637Y-99415241D01*
X167284759Y-99215363D01*
X167049727Y-99058320D01*
X166788574Y-98950147D01*
X166511335Y-98895000D01*
X166228665Y-98895000D01*
X166046114Y-98931312D01*
X165155804Y-98041003D01*
X165132001Y-98011999D01*
X165016276Y-97917026D01*
X164884247Y-97846454D01*
X164740986Y-97802997D01*
X164629333Y-97792000D01*
X164629322Y-97792000D01*
X164592000Y-97788324D01*
X164554678Y-97792000D01*
X155993322Y-97792000D01*
X155956000Y-97788324D01*
X155918677Y-97792000D01*
X155918667Y-97792000D01*
X155807014Y-97802997D01*
X155691946Y-97837902D01*
X155663753Y-97846454D01*
X155531723Y-97917026D01*
X155448083Y-97985668D01*
X155415999Y-98011999D01*
X155392201Y-98040997D01*
X154429002Y-99004196D01*
X154399999Y-99027999D01*
X154360111Y-99076603D01*
X154153087Y-98978754D01*
X154019039Y-98938096D01*
X153797000Y-99060085D01*
X153797000Y-100203000D01*
X153817000Y-100203000D01*
X153817000Y-100457000D01*
X153797000Y-100457000D01*
X153797000Y-100477000D01*
X153543000Y-100477000D01*
X153543000Y-100457000D01*
X153523000Y-100457000D01*
X153523000Y-100203000D01*
X153543000Y-100203000D01*
X153543000Y-99060085D01*
X153320961Y-98938096D01*
X153186913Y-98978754D01*
X152932580Y-99098963D01*
X152706586Y-99266481D01*
X152517615Y-99474869D01*
X152406067Y-99660865D01*
X152401680Y-99650273D01*
X152244637Y-99415241D01*
X152044759Y-99215363D01*
X151809727Y-99058320D01*
X151548574Y-98950147D01*
X151271335Y-98895000D01*
X150988665Y-98895000D01*
X150711426Y-98950147D01*
X150450273Y-99058320D01*
X150215241Y-99215363D01*
X150015363Y-99415241D01*
X149858320Y-99650273D01*
X149750147Y-99911426D01*
X149695000Y-100188665D01*
X149695000Y-100471335D01*
X149750147Y-100748574D01*
X149858320Y-101009727D01*
X150015363Y-101244759D01*
X150215241Y-101444637D01*
X150450273Y-101601680D01*
X150451046Y-101602000D01*
X142531323Y-101602000D01*
X142494000Y-101598324D01*
X142456677Y-101602000D01*
X142456667Y-101602000D01*
X142345014Y-101612997D01*
X142203912Y-101655799D01*
X142201753Y-101656454D01*
X142069723Y-101727026D01*
X141986083Y-101795668D01*
X141953999Y-101821999D01*
X141930201Y-101850997D01*
X141121318Y-102659881D01*
X141079853Y-102451426D01*
X140971680Y-102190273D01*
X140814637Y-101955241D01*
X140614759Y-101755363D01*
X140379727Y-101598320D01*
X140118574Y-101490147D01*
X139841335Y-101435000D01*
X139558665Y-101435000D01*
X139281426Y-101490147D01*
X139020273Y-101598320D01*
X138785241Y-101755363D01*
X138585363Y-101955241D01*
X138451308Y-102155869D01*
X138436671Y-102128486D01*
X138192702Y-102056903D01*
X137379605Y-102870000D01*
X137393748Y-102884143D01*
X137214143Y-103063748D01*
X137200000Y-103049605D01*
X136386903Y-103862702D01*
X136458486Y-104106671D01*
X136572554Y-104160645D01*
X135484881Y-105248318D01*
X135420000Y-105241928D01*
X134084873Y-105241928D01*
X135881675Y-103445126D01*
X135896397Y-103486292D01*
X135963329Y-103611514D01*
X136207298Y-103683097D01*
X137020395Y-102870000D01*
X137006253Y-102855858D01*
X137185858Y-102676253D01*
X137200000Y-102690395D01*
X138013097Y-101877298D01*
X137941514Y-101633329D01*
X137773142Y-101553660D01*
X142554802Y-96772000D01*
X169380678Y-96772000D01*
X169418000Y-96775676D01*
X169455322Y-96772000D01*
X169455333Y-96772000D01*
X169566986Y-96761003D01*
X169710247Y-96717546D01*
X169842276Y-96646974D01*
X169958001Y-96552001D01*
X169981804Y-96522997D01*
X173513405Y-92991397D01*
X173724375Y-93055394D01*
X173990000Y-93081556D01*
X174255626Y-93055394D01*
X174500001Y-92981264D01*
X174500001Y-93688672D01*
X174496324Y-93726004D01*
X174510998Y-93874989D01*
X174554454Y-94018250D01*
X174625026Y-94150280D01*
X174696201Y-94237006D01*
X174720000Y-94266005D01*
X174748998Y-94289803D01*
X178035000Y-97575806D01*
X178035000Y-97637943D01*
X178074774Y-97837902D01*
X178152795Y-98026260D01*
X178266063Y-98195778D01*
X178410226Y-98339941D01*
X178579744Y-98453209D01*
X178768102Y-98531230D01*
X178968061Y-98571004D01*
X179171939Y-98571004D01*
X179371898Y-98531230D01*
X179560256Y-98453209D01*
X179729774Y-98339941D01*
X179873937Y-98195778D01*
X179987205Y-98026260D01*
X180065226Y-97837902D01*
X180105000Y-97637943D01*
X180105000Y-97434065D01*
X180065226Y-97234106D01*
X179987205Y-97045748D01*
X179873937Y-96876230D01*
X179729774Y-96732067D01*
X179560256Y-96618799D01*
X179371898Y-96540778D01*
X179171939Y-96501004D01*
X179109802Y-96501004D01*
X176020000Y-93411203D01*
X176020000Y-92981264D01*
X176264375Y-93055394D01*
X176530000Y-93081556D01*
X176795626Y-93055394D01*
X177051045Y-92977914D01*
X177286440Y-92852092D01*
X177492765Y-92682765D01*
X177662092Y-92476440D01*
X177787914Y-92241045D01*
X177800000Y-92201202D01*
X177812086Y-92241045D01*
X177937908Y-92476440D01*
X178107236Y-92682765D01*
X178313561Y-92852092D01*
X178548956Y-92977914D01*
X178804375Y-93055394D01*
X179070000Y-93081556D01*
X179335626Y-93055394D01*
X179591045Y-92977914D01*
X179826440Y-92852092D01*
X180032765Y-92682765D01*
X180202092Y-92476440D01*
X180327914Y-92241045D01*
X180340000Y-92201202D01*
X180352086Y-92241045D01*
X180477908Y-92476440D01*
X180647236Y-92682765D01*
X180853561Y-92852092D01*
X181088956Y-92977914D01*
X181344375Y-93055394D01*
X181610000Y-93081556D01*
X181875626Y-93055394D01*
X182131045Y-92977914D01*
X182366440Y-92852092D01*
X182572765Y-92682765D01*
X182742092Y-92476440D01*
X182867914Y-92241045D01*
X182881505Y-92196241D01*
X182946744Y-92355869D01*
X183093916Y-92578395D01*
X183281673Y-92767933D01*
X183502799Y-92917199D01*
X183748797Y-93020458D01*
X183813528Y-93032559D01*
X184023000Y-92909489D01*
X184023000Y-91567000D01*
X184277000Y-91567000D01*
X184277000Y-92909489D01*
X184486472Y-93032559D01*
X184551203Y-93020458D01*
X184797201Y-92917199D01*
X185018327Y-92767933D01*
X185206084Y-92578395D01*
X185353256Y-92355869D01*
X185454188Y-92108907D01*
X185505000Y-91847000D01*
X185505000Y-91567000D01*
X184277000Y-91567000D01*
X184023000Y-91567000D01*
X184003000Y-91567000D01*
X184003000Y-91313000D01*
X184023000Y-91313000D01*
X184023000Y-89970511D01*
X184277000Y-89970511D01*
X184277000Y-91313000D01*
X185505000Y-91313000D01*
X185505000Y-91033000D01*
X185454188Y-90771093D01*
X185353256Y-90524131D01*
X185206084Y-90301605D01*
X185018327Y-90112067D01*
X184797201Y-89962801D01*
X184551203Y-89859542D01*
X184486472Y-89847441D01*
X184277000Y-89970511D01*
X184023000Y-89970511D01*
X183813528Y-89847441D01*
X183748797Y-89859542D01*
X183502799Y-89962801D01*
X183281673Y-90112067D01*
X183093916Y-90301605D01*
X182946744Y-90524131D01*
X182881505Y-90683759D01*
X182867914Y-90638955D01*
X182742092Y-90403560D01*
X182572764Y-90197235D01*
X182366439Y-90027908D01*
X182131044Y-89902086D01*
X181875625Y-89824606D01*
X181610000Y-89798444D01*
X181344374Y-89824606D01*
X181088955Y-89902086D01*
X180853560Y-90027908D01*
X180647235Y-90197236D01*
X180477908Y-90403561D01*
X180352086Y-90638956D01*
X180340000Y-90678798D01*
X180327914Y-90638955D01*
X180202092Y-90403560D01*
X180032764Y-90197235D01*
X179826439Y-90027908D01*
X179591044Y-89902086D01*
X179335625Y-89824606D01*
X179070000Y-89798444D01*
X178804374Y-89824606D01*
X178548955Y-89902086D01*
X178313560Y-90027908D01*
X178107235Y-90197236D01*
X177937908Y-90403561D01*
X177812086Y-90638956D01*
X177800000Y-90678798D01*
X177787914Y-90638955D01*
X177662092Y-90403560D01*
X177492764Y-90197235D01*
X177286439Y-90027908D01*
X177051044Y-89902086D01*
X176795625Y-89824606D01*
X176530000Y-89798444D01*
X176264374Y-89824606D01*
X176020000Y-89898736D01*
X176020000Y-89191322D01*
X176023676Y-89153999D01*
X176020000Y-89116676D01*
X176020000Y-89116667D01*
X176009003Y-89005014D01*
X175965546Y-88861753D01*
X175894974Y-88729724D01*
X175881811Y-88713685D01*
X175823799Y-88642996D01*
X175823795Y-88642992D01*
X175800001Y-88613999D01*
X175771009Y-88590206D01*
X174771000Y-87590198D01*
X174771000Y-87528061D01*
X174731226Y-87328102D01*
X174653205Y-87139744D01*
X174539937Y-86970226D01*
X174395774Y-86826063D01*
X174226256Y-86712795D01*
X174037898Y-86634774D01*
X173837939Y-86595000D01*
X173634061Y-86595000D01*
X173434102Y-86634774D01*
X173245744Y-86712795D01*
X173076226Y-86826063D01*
X172932063Y-86970226D01*
X172818795Y-87139744D01*
X172740774Y-87328102D01*
X172701000Y-87528061D01*
X172701000Y-87731939D01*
X172740774Y-87931898D01*
X172818795Y-88120256D01*
X172932063Y-88289774D01*
X173076226Y-88433937D01*
X173245744Y-88547205D01*
X173434102Y-88625226D01*
X173634061Y-88665000D01*
X173696198Y-88665000D01*
X174500000Y-89468803D01*
X174500000Y-89898736D01*
X174255625Y-89824606D01*
X173990000Y-89798444D01*
X173724374Y-89824606D01*
X173468955Y-89902086D01*
X173233560Y-90027908D01*
X173027235Y-90197236D01*
X172857908Y-90403561D01*
X172732086Y-90638956D01*
X172720000Y-90678798D01*
X172707914Y-90638955D01*
X172582092Y-90403560D01*
X172412764Y-90197235D01*
X172206439Y-90027908D01*
X171971044Y-89902086D01*
X171715625Y-89824606D01*
X171450000Y-89798444D01*
X171184374Y-89824606D01*
X170928955Y-89902086D01*
X170693560Y-90027908D01*
X170487235Y-90197236D01*
X170317908Y-90403561D01*
X170192086Y-90638956D01*
X170180000Y-90678798D01*
X170167914Y-90638955D01*
X170042092Y-90403560D01*
X169872764Y-90197235D01*
X169666439Y-90027908D01*
X169431044Y-89902086D01*
X169175625Y-89824606D01*
X168910000Y-89798444D01*
X168644374Y-89824606D01*
X168388955Y-89902086D01*
X168153560Y-90027908D01*
X167947235Y-90197236D01*
X167777908Y-90403561D01*
X167652086Y-90638956D01*
X167640000Y-90678798D01*
X167627914Y-90638955D01*
X167502092Y-90403560D01*
X167332764Y-90197235D01*
X167126439Y-90027908D01*
X166891044Y-89902086D01*
X166635625Y-89824606D01*
X166370000Y-89798444D01*
X166104374Y-89824606D01*
X165848955Y-89902086D01*
X165613560Y-90027908D01*
X165407235Y-90197236D01*
X165237908Y-90403561D01*
X165112086Y-90638956D01*
X165100000Y-90678798D01*
X165087914Y-90638955D01*
X164962092Y-90403560D01*
X164792764Y-90197235D01*
X164586439Y-90027908D01*
X164351044Y-89902086D01*
X164095625Y-89824606D01*
X163830000Y-89798444D01*
X163564374Y-89824606D01*
X163308955Y-89902086D01*
X163073560Y-90027908D01*
X162867235Y-90197236D01*
X162697908Y-90403561D01*
X162572086Y-90638956D01*
X162560000Y-90678798D01*
X162547914Y-90638955D01*
X162422092Y-90403560D01*
X162252764Y-90197235D01*
X162046439Y-90027908D01*
X161811044Y-89902086D01*
X161555625Y-89824606D01*
X161290000Y-89798444D01*
X161024374Y-89824606D01*
X160780000Y-89898736D01*
X160780000Y-85404801D01*
X168433405Y-77751397D01*
X168644375Y-77815394D01*
X168910000Y-77841556D01*
X169175626Y-77815394D01*
X169431045Y-77737914D01*
X169666440Y-77612092D01*
X169872765Y-77442765D01*
X170042092Y-77236440D01*
X170167914Y-77001045D01*
X170180000Y-76961202D01*
X170192086Y-77001045D01*
X170317908Y-77236440D01*
X170487236Y-77442765D01*
X170693561Y-77612092D01*
X170928956Y-77737914D01*
X171184375Y-77815394D01*
X171450000Y-77841556D01*
X171715626Y-77815394D01*
X171971045Y-77737914D01*
X172206440Y-77612092D01*
X172412765Y-77442765D01*
X172582092Y-77236440D01*
X172707914Y-77001045D01*
X172720000Y-76961202D01*
X172732086Y-77001045D01*
X172857908Y-77236440D01*
X173027236Y-77442765D01*
X173233561Y-77612092D01*
X173468956Y-77737914D01*
X173724375Y-77815394D01*
X173990000Y-77841556D01*
X174255626Y-77815394D01*
X174511045Y-77737914D01*
X174746440Y-77612092D01*
X174952765Y-77442765D01*
X175122092Y-77236440D01*
X175247914Y-77001045D01*
X175260000Y-76961202D01*
X175272086Y-77001045D01*
X175397908Y-77236440D01*
X175567236Y-77442765D01*
X175773561Y-77612092D01*
X176008956Y-77737914D01*
X176264375Y-77815394D01*
X176530000Y-77841556D01*
X176795626Y-77815394D01*
X177051045Y-77737914D01*
X177286440Y-77612092D01*
X177492765Y-77442765D01*
X177662092Y-77236440D01*
X177787914Y-77001045D01*
X177800000Y-76961202D01*
X177812086Y-77001045D01*
X177937908Y-77236440D01*
X178107236Y-77442765D01*
X178313561Y-77612092D01*
X178548956Y-77737914D01*
X178804375Y-77815394D01*
X179070000Y-77841556D01*
X179335626Y-77815394D01*
X179591045Y-77737914D01*
X179826440Y-77612092D01*
X180032765Y-77442765D01*
X180202092Y-77236440D01*
X180327914Y-77001045D01*
X180340000Y-76961202D01*
X180352086Y-77001045D01*
X180477908Y-77236440D01*
X180647236Y-77442765D01*
X180853561Y-77612092D01*
X181088956Y-77737914D01*
X181344375Y-77815394D01*
X181610000Y-77841556D01*
X181875626Y-77815394D01*
X182131045Y-77737914D01*
X182366440Y-77612092D01*
X182572765Y-77442765D01*
X182742092Y-77236440D01*
X182867914Y-77001045D01*
X182880000Y-76961202D01*
X182892086Y-77001045D01*
X183017908Y-77236440D01*
X183187236Y-77442765D01*
X183393561Y-77612092D01*
X183628956Y-77737914D01*
X183884375Y-77815394D01*
X184150000Y-77841556D01*
X184415626Y-77815394D01*
X184671045Y-77737914D01*
X184906440Y-77612092D01*
X185112765Y-77442765D01*
X185282092Y-77236440D01*
X185407914Y-77001045D01*
X185485394Y-76745625D01*
X185505000Y-76546563D01*
X185505000Y-75853436D01*
X185485394Y-75654374D01*
X185407914Y-75398955D01*
X185282092Y-75163560D01*
X185112764Y-74957235D01*
X184906439Y-74787908D01*
X184671044Y-74662086D01*
X184415625Y-74584606D01*
X184150000Y-74558444D01*
X183884374Y-74584606D01*
X183628955Y-74662086D01*
X183393560Y-74787908D01*
X183187235Y-74957236D01*
X183017908Y-75163561D01*
X182892086Y-75398956D01*
X182880000Y-75438798D01*
X182867914Y-75398955D01*
X182742092Y-75163560D01*
X182572764Y-74957235D01*
X182366439Y-74787908D01*
X182131044Y-74662086D01*
X181875625Y-74584606D01*
X181610000Y-74558444D01*
X181344374Y-74584606D01*
X181088955Y-74662086D01*
X180853560Y-74787908D01*
X180647235Y-74957236D01*
X180477908Y-75163561D01*
X180352086Y-75398956D01*
X180340000Y-75438798D01*
X180327914Y-75398955D01*
X180202092Y-75163560D01*
X180032764Y-74957235D01*
X179826439Y-74787908D01*
X179591044Y-74662086D01*
X179335625Y-74584606D01*
X179070000Y-74558444D01*
X178804374Y-74584606D01*
X178548955Y-74662086D01*
X178313560Y-74787908D01*
X178107235Y-74957236D01*
X177937908Y-75163561D01*
X177812086Y-75398956D01*
X177800000Y-75438798D01*
X177787914Y-75398955D01*
X177662092Y-75163560D01*
X177492764Y-74957235D01*
X177286439Y-74787908D01*
X177051044Y-74662086D01*
X176795625Y-74584606D01*
X176530000Y-74558444D01*
X176264374Y-74584606D01*
X176008955Y-74662086D01*
X175773560Y-74787908D01*
X175567235Y-74957236D01*
X175397908Y-75163561D01*
X175272086Y-75398956D01*
X175260000Y-75438798D01*
X175247914Y-75398955D01*
X175122092Y-75163560D01*
X174952764Y-74957235D01*
X174746439Y-74787908D01*
X174511044Y-74662086D01*
X174255625Y-74584606D01*
X173990000Y-74558444D01*
X173724374Y-74584606D01*
X173468955Y-74662086D01*
X173233560Y-74787908D01*
X173027235Y-74957236D01*
X172857908Y-75163561D01*
X172732086Y-75398956D01*
X172720000Y-75438798D01*
X172707914Y-75398955D01*
X172582092Y-75163560D01*
X172412764Y-74957235D01*
X172206439Y-74787908D01*
X171971044Y-74662086D01*
X171715625Y-74584606D01*
X171450000Y-74558444D01*
X171184374Y-74584606D01*
X170928955Y-74662086D01*
X170693560Y-74787908D01*
X170487235Y-74957236D01*
X170317908Y-75163561D01*
X170192086Y-75398956D01*
X170180000Y-75438798D01*
X170167914Y-75398955D01*
X170042092Y-75163560D01*
X169872764Y-74957235D01*
X169666439Y-74787908D01*
X169431044Y-74662086D01*
X169175625Y-74584606D01*
X168910000Y-74558444D01*
X168644374Y-74584606D01*
X168388955Y-74662086D01*
X168153560Y-74787908D01*
X167947235Y-74957236D01*
X167777908Y-75163561D01*
X167652086Y-75398956D01*
X167640000Y-75438798D01*
X167627914Y-75398955D01*
X167502092Y-75163560D01*
X167332764Y-74957235D01*
X167126439Y-74787908D01*
X166891044Y-74662086D01*
X166635625Y-74584606D01*
X166370000Y-74558444D01*
X166104374Y-74584606D01*
X165848955Y-74662086D01*
X165613560Y-74787908D01*
X165407235Y-74957236D01*
X165237908Y-75163561D01*
X165112086Y-75398956D01*
X165100000Y-75438798D01*
X165087914Y-75398955D01*
X164962092Y-75163560D01*
X164792764Y-74957235D01*
X164586439Y-74787908D01*
X164351044Y-74662086D01*
X164095625Y-74584606D01*
X163830000Y-74558444D01*
X163564374Y-74584606D01*
X163308955Y-74662086D01*
X163073560Y-74787908D01*
X162867235Y-74957236D01*
X162697908Y-75163561D01*
X162572086Y-75398956D01*
X162560000Y-75438798D01*
X162547914Y-75398955D01*
X162422092Y-75163560D01*
X162252764Y-74957235D01*
X162046439Y-74787908D01*
X161811044Y-74662086D01*
X161555625Y-74584606D01*
X161290000Y-74558444D01*
X161024374Y-74584606D01*
X160768955Y-74662086D01*
X160533560Y-74787908D01*
X160327235Y-74957236D01*
X160157908Y-75163561D01*
X160032086Y-75398956D01*
X160020000Y-75438798D01*
X160007914Y-75398955D01*
X159882092Y-75163560D01*
X159712764Y-74957235D01*
X159506439Y-74787908D01*
X159271044Y-74662086D01*
X159015625Y-74584606D01*
X158750000Y-74558444D01*
X158484374Y-74584606D01*
X158228955Y-74662086D01*
X157993560Y-74787908D01*
X157787235Y-74957236D01*
X157617908Y-75163561D01*
X157492086Y-75398956D01*
X157480000Y-75438798D01*
X157467914Y-75398955D01*
X157342092Y-75163560D01*
X157172764Y-74957235D01*
X156966439Y-74787908D01*
X156731044Y-74662086D01*
X156475625Y-74584606D01*
X156210000Y-74558444D01*
X155944374Y-74584606D01*
X155688955Y-74662086D01*
X155453560Y-74787908D01*
X155247235Y-74957236D01*
X155077908Y-75163561D01*
X154952086Y-75398956D01*
X154940000Y-75438798D01*
X154927914Y-75398955D01*
X154802092Y-75163560D01*
X154632764Y-74957235D01*
X154426439Y-74787908D01*
X154191044Y-74662086D01*
X153935625Y-74584606D01*
X153670000Y-74558444D01*
X153404374Y-74584606D01*
X153148955Y-74662086D01*
X152913560Y-74787908D01*
X152707235Y-74957236D01*
X152537908Y-75163561D01*
X152412086Y-75398956D01*
X152400000Y-75438798D01*
X152387914Y-75398955D01*
X152262092Y-75163560D01*
X152092764Y-74957235D01*
X151886439Y-74787908D01*
X151651044Y-74662086D01*
X151395625Y-74584606D01*
X151130000Y-74558444D01*
X150864374Y-74584606D01*
X150608955Y-74662086D01*
X150373560Y-74787908D01*
X150167235Y-74957236D01*
X149997908Y-75163561D01*
X149872086Y-75398956D01*
X149794606Y-75654375D01*
X149775000Y-75853437D01*
X149775000Y-76546564D01*
X149794606Y-76745626D01*
X149872086Y-77001045D01*
X149997908Y-77236440D01*
X150167236Y-77442765D01*
X150373561Y-77612092D01*
X150608956Y-77737914D01*
X150864375Y-77815394D01*
X151130000Y-77841556D01*
X151395626Y-77815394D01*
X151651045Y-77737914D01*
X151886440Y-77612092D01*
X152092765Y-77442765D01*
X152262092Y-77236440D01*
X152387914Y-77001045D01*
X152400000Y-76961202D01*
X152412086Y-77001045D01*
X152537908Y-77236440D01*
X152707236Y-77442765D01*
X152913561Y-77612092D01*
X153148956Y-77737914D01*
X153404375Y-77815394D01*
X153670000Y-77841556D01*
X153935626Y-77815394D01*
X154191045Y-77737914D01*
X154426440Y-77612092D01*
X154632765Y-77442765D01*
X154802092Y-77236440D01*
X154927914Y-77001045D01*
X154940000Y-76961202D01*
X154952086Y-77001045D01*
X155077908Y-77236440D01*
X155247236Y-77442765D01*
X155450001Y-77609170D01*
X155450000Y-83370289D01*
X155406063Y-83414226D01*
X155292795Y-83583744D01*
X155214774Y-83772102D01*
X155175000Y-83972061D01*
X155175000Y-84175939D01*
X155214774Y-84375898D01*
X155292795Y-84564256D01*
X155406063Y-84733774D01*
X155550226Y-84877937D01*
X155719744Y-84991205D01*
X155908102Y-85069226D01*
X156108061Y-85109000D01*
X156311939Y-85109000D01*
X156511898Y-85069226D01*
X156700256Y-84991205D01*
X156869774Y-84877937D01*
X157013937Y-84733774D01*
X157127205Y-84564256D01*
X157205226Y-84375898D01*
X157245000Y-84175939D01*
X157245000Y-83972061D01*
X157205226Y-83772102D01*
X157127205Y-83583744D01*
X157013937Y-83414226D01*
X156970000Y-83370289D01*
X156970000Y-77609170D01*
X157172765Y-77442765D01*
X157342092Y-77236440D01*
X157467914Y-77001045D01*
X157480000Y-76961202D01*
X157492086Y-77001045D01*
X157617908Y-77236440D01*
X157787236Y-77442765D01*
X157993561Y-77612092D01*
X158228956Y-77737914D01*
X158484375Y-77815394D01*
X158750000Y-77841556D01*
X159015626Y-77815394D01*
X159271045Y-77737914D01*
X159506440Y-77612092D01*
X159712765Y-77442765D01*
X159882092Y-77236440D01*
X160007914Y-77001045D01*
X160020000Y-76961202D01*
X160032086Y-77001045D01*
X160157908Y-77236440D01*
X160327236Y-77442765D01*
X160533561Y-77612092D01*
X160768956Y-77737914D01*
X161024375Y-77815394D01*
X161290000Y-77841556D01*
X161555626Y-77815394D01*
X161811045Y-77737914D01*
X162046440Y-77612092D01*
X162252765Y-77442765D01*
X162422092Y-77236440D01*
X162547914Y-77001045D01*
X162560000Y-76961202D01*
X162572086Y-77001045D01*
X162697908Y-77236440D01*
X162867236Y-77442765D01*
X163073561Y-77612092D01*
X163308956Y-77737914D01*
X163564375Y-77815394D01*
X163830000Y-77841556D01*
X164095626Y-77815394D01*
X164351045Y-77737914D01*
X164586440Y-77612092D01*
X164792765Y-77442765D01*
X164962092Y-77236440D01*
X165087914Y-77001045D01*
X165100000Y-76961202D01*
X165112086Y-77001045D01*
X165237908Y-77236440D01*
X165407236Y-77442765D01*
X165613561Y-77612092D01*
X165848956Y-77737914D01*
X166104375Y-77815394D01*
X166209455Y-77825744D01*
X159509003Y-84526196D01*
X159479999Y-84549999D01*
X159427474Y-84614001D01*
X159385026Y-84665724D01*
X159314455Y-84797753D01*
X159314454Y-84797754D01*
X159270997Y-84941015D01*
X159260000Y-85052668D01*
X159260000Y-85052678D01*
X159256324Y-85090000D01*
X159260000Y-85127323D01*
X159260001Y-89898736D01*
X159015625Y-89824606D01*
X158750000Y-89798444D01*
X158484374Y-89824606D01*
X158228955Y-89902086D01*
X157993560Y-90027908D01*
X157787235Y-90197236D01*
X157617908Y-90403561D01*
X157492086Y-90638956D01*
X157480000Y-90678798D01*
X157467914Y-90638955D01*
X157342092Y-90403560D01*
X157172764Y-90197235D01*
X156966439Y-90027908D01*
X156731044Y-89902086D01*
X156475625Y-89824606D01*
X156210000Y-89798444D01*
X155944374Y-89824606D01*
X155688955Y-89902086D01*
X155453560Y-90027908D01*
X155247235Y-90197236D01*
X155077908Y-90403561D01*
X154952086Y-90638956D01*
X154940000Y-90678798D01*
X154927914Y-90638955D01*
X154802092Y-90403560D01*
X154632764Y-90197235D01*
X154426439Y-90027908D01*
X154191044Y-89902086D01*
X153935625Y-89824606D01*
X153670000Y-89798444D01*
X153404374Y-89824606D01*
X153148955Y-89902086D01*
X152913560Y-90027908D01*
X152707235Y-90197236D01*
X152537908Y-90403561D01*
X152488072Y-90496797D01*
X152488072Y-90440000D01*
X152475812Y-90315518D01*
X152439502Y-90195820D01*
X152380537Y-90085506D01*
X152301185Y-89988815D01*
X152204494Y-89909463D01*
X152094180Y-89850498D01*
X151974482Y-89814188D01*
X151850000Y-89801928D01*
X150410000Y-89801928D01*
X150285518Y-89814188D01*
X150165820Y-89850498D01*
X150055506Y-89909463D01*
X149958815Y-89988815D01*
X149879463Y-90085506D01*
X149820498Y-90195820D01*
X149784188Y-90315518D01*
X149771928Y-90440000D01*
X149771928Y-92204000D01*
X143801322Y-92204000D01*
X143763999Y-92200324D01*
X143726676Y-92204000D01*
X143726667Y-92204000D01*
X143615014Y-92214997D01*
X143471753Y-92258454D01*
X143339724Y-92329026D01*
X143223999Y-92423999D01*
X143200201Y-92452997D01*
X130008199Y-105645000D01*
X129946061Y-105645000D01*
X129746102Y-105684774D01*
X129557744Y-105762795D01*
X129436938Y-105843515D01*
X129384637Y-105765241D01*
X129184759Y-105565363D01*
X128949727Y-105408320D01*
X128688574Y-105300147D01*
X128411335Y-105245000D01*
X128128665Y-105245000D01*
X128034582Y-105263714D01*
X126700132Y-103929264D01*
X126844637Y-103784759D01*
X127001680Y-103549727D01*
X127109853Y-103288574D01*
X127165000Y-103011335D01*
X127165000Y-102728665D01*
X127109853Y-102451426D01*
X127001680Y-102190273D01*
X126844637Y-101955241D01*
X126644759Y-101755363D01*
X126409727Y-101598320D01*
X126148574Y-101490147D01*
X125871335Y-101435000D01*
X125588665Y-101435000D01*
X125311426Y-101490147D01*
X125050273Y-101598320D01*
X124815241Y-101755363D01*
X124615363Y-101955241D01*
X124481308Y-102155869D01*
X124466671Y-102128486D01*
X124222702Y-102056903D01*
X123409605Y-102870000D01*
X124222702Y-103683097D01*
X124466671Y-103611514D01*
X124480324Y-103582659D01*
X124615363Y-103784759D01*
X124815241Y-103984637D01*
X124895001Y-104037931D01*
X124895001Y-104098972D01*
X124890960Y-104140000D01*
X124907082Y-104303688D01*
X124954828Y-104461086D01*
X125006464Y-104557689D01*
X125032365Y-104606146D01*
X125136710Y-104733291D01*
X125168574Y-104759441D01*
X126853714Y-106444582D01*
X126835000Y-106538665D01*
X126835000Y-106821335D01*
X126890147Y-107098574D01*
X126998320Y-107359727D01*
X127155363Y-107594759D01*
X127355241Y-107794637D01*
X127587759Y-107950000D01*
X127355241Y-108105363D01*
X127155363Y-108305241D01*
X126998320Y-108540273D01*
X126890147Y-108801426D01*
X126835000Y-109078665D01*
X126835000Y-109361335D01*
X126890147Y-109638574D01*
X126928017Y-109730000D01*
X121991983Y-109730000D01*
X122029853Y-109638574D01*
X122085000Y-109361335D01*
X122085000Y-109078665D01*
X122029853Y-108801426D01*
X121921680Y-108540273D01*
X121764637Y-108305241D01*
X121566039Y-108106643D01*
X121574482Y-108105812D01*
X121694180Y-108069502D01*
X121804494Y-108010537D01*
X121901185Y-107931185D01*
X121980537Y-107834494D01*
X122039502Y-107724180D01*
X122075812Y-107604482D01*
X122088072Y-107480000D01*
X122088072Y-105880000D01*
X122075812Y-105755518D01*
X122039502Y-105635820D01*
X121980537Y-105525506D01*
X121901185Y-105428815D01*
X121804494Y-105349463D01*
X121694180Y-105290498D01*
X121574482Y-105254188D01*
X121450000Y-105241928D01*
X119850000Y-105241928D01*
X119725518Y-105254188D01*
X119605820Y-105290498D01*
X119495506Y-105349463D01*
X119398815Y-105428815D01*
X119319463Y-105525506D01*
X119260498Y-105635820D01*
X119224188Y-105755518D01*
X119211928Y-105880000D01*
X116660000Y-105880000D01*
X116660000Y-103862702D01*
X122416903Y-103862702D01*
X122488486Y-104106671D01*
X122743996Y-104227571D01*
X123018184Y-104296300D01*
X123300512Y-104310217D01*
X123580130Y-104268787D01*
X123846292Y-104173603D01*
X123971514Y-104106671D01*
X124043097Y-103862702D01*
X123230000Y-103049605D01*
X122416903Y-103862702D01*
X116660000Y-103862702D01*
X116660000Y-102940512D01*
X121789783Y-102940512D01*
X121831213Y-103220130D01*
X121926397Y-103486292D01*
X121993329Y-103611514D01*
X122237298Y-103683097D01*
X123050395Y-102870000D01*
X122237298Y-102056903D01*
X121993329Y-102128486D01*
X121872429Y-102383996D01*
X121803700Y-102658184D01*
X121789783Y-102940512D01*
X116660000Y-102940512D01*
X116660000Y-101877298D01*
X122416903Y-101877298D01*
X123230000Y-102690395D01*
X124043097Y-101877298D01*
X123971514Y-101633329D01*
X123716004Y-101512429D01*
X123441816Y-101443700D01*
X123159488Y-101429783D01*
X122879870Y-101471213D01*
X122613708Y-101566397D01*
X122488486Y-101633329D01*
X122416903Y-101877298D01*
X116660000Y-101877298D01*
X116660000Y-97180061D01*
X135870994Y-97180061D01*
X135870994Y-97383939D01*
X135910768Y-97583898D01*
X135988789Y-97772256D01*
X136102057Y-97941774D01*
X136246220Y-98085937D01*
X136415738Y-98199205D01*
X136604096Y-98277226D01*
X136804055Y-98317000D01*
X137007933Y-98317000D01*
X137207892Y-98277226D01*
X137396250Y-98199205D01*
X137565768Y-98085937D01*
X137709931Y-97941774D01*
X137823199Y-97772256D01*
X137901220Y-97583898D01*
X137940994Y-97383939D01*
X137940994Y-97321801D01*
X141898803Y-93363993D01*
X141960946Y-93363993D01*
X142160905Y-93324219D01*
X142349263Y-93246198D01*
X142518781Y-93132930D01*
X142662944Y-92988767D01*
X142776212Y-92819249D01*
X142854233Y-92630891D01*
X142894007Y-92430932D01*
X142894007Y-92227054D01*
X142854233Y-92027095D01*
X142776212Y-91838737D01*
X142662944Y-91669219D01*
X142518781Y-91525056D01*
X142349263Y-91411788D01*
X142160905Y-91333767D01*
X141960946Y-91293993D01*
X141757068Y-91293993D01*
X141557109Y-91333767D01*
X141368751Y-91411788D01*
X141199233Y-91525056D01*
X141055070Y-91669219D01*
X140941802Y-91838737D01*
X140863781Y-92027095D01*
X140824007Y-92227054D01*
X140824007Y-92289185D01*
X136866193Y-96247000D01*
X136804055Y-96247000D01*
X136604096Y-96286774D01*
X136415738Y-96364795D01*
X136246220Y-96478063D01*
X136102057Y-96622226D01*
X135988789Y-96791744D01*
X135910768Y-96980102D01*
X135870994Y-97180061D01*
X116660000Y-97180061D01*
X116660000Y-86980665D01*
X129121000Y-86980665D01*
X129121000Y-87263335D01*
X129176147Y-87540574D01*
X129284320Y-87801727D01*
X129441363Y-88036759D01*
X129641241Y-88236637D01*
X129876273Y-88393680D01*
X130137426Y-88501853D01*
X130414665Y-88557000D01*
X130697335Y-88557000D01*
X130974574Y-88501853D01*
X131235727Y-88393680D01*
X131470759Y-88236637D01*
X131592694Y-88114702D01*
X132242903Y-88114702D01*
X132314486Y-88358671D01*
X132569996Y-88479571D01*
X132844184Y-88548300D01*
X133126512Y-88562217D01*
X133406130Y-88520787D01*
X133672292Y-88425603D01*
X133797514Y-88358671D01*
X133869097Y-88114702D01*
X133056000Y-87301605D01*
X132242903Y-88114702D01*
X131592694Y-88114702D01*
X131670637Y-88036759D01*
X131804692Y-87836131D01*
X131819329Y-87863514D01*
X132063298Y-87935097D01*
X132876395Y-87122000D01*
X133235605Y-87122000D01*
X134048702Y-87935097D01*
X134292671Y-87863514D01*
X134413571Y-87608004D01*
X134433609Y-87528061D01*
X145523000Y-87528061D01*
X145523000Y-87731939D01*
X145562774Y-87931898D01*
X145640795Y-88120256D01*
X145754063Y-88289774D01*
X145898226Y-88433937D01*
X146067744Y-88547205D01*
X146256102Y-88625226D01*
X146456061Y-88665000D01*
X146659939Y-88665000D01*
X146859898Y-88625226D01*
X147048256Y-88547205D01*
X147217774Y-88433937D01*
X147261711Y-88390000D01*
X153982289Y-88390000D01*
X154026226Y-88433937D01*
X154195744Y-88547205D01*
X154384102Y-88625226D01*
X154584061Y-88665000D01*
X154787939Y-88665000D01*
X154987898Y-88625226D01*
X155176256Y-88547205D01*
X155345774Y-88433937D01*
X155489937Y-88289774D01*
X155603205Y-88120256D01*
X155681226Y-87931898D01*
X155721000Y-87731939D01*
X155721000Y-87528061D01*
X155681226Y-87328102D01*
X155603205Y-87139744D01*
X155489937Y-86970226D01*
X155345774Y-86826063D01*
X155176256Y-86712795D01*
X154987898Y-86634774D01*
X154787939Y-86595000D01*
X154584061Y-86595000D01*
X154384102Y-86634774D01*
X154195744Y-86712795D01*
X154026226Y-86826063D01*
X153982289Y-86870000D01*
X147261711Y-86870000D01*
X147217774Y-86826063D01*
X147048256Y-86712795D01*
X146859898Y-86634774D01*
X146659939Y-86595000D01*
X146456061Y-86595000D01*
X146256102Y-86634774D01*
X146067744Y-86712795D01*
X145898226Y-86826063D01*
X145754063Y-86970226D01*
X145640795Y-87139744D01*
X145562774Y-87328102D01*
X145523000Y-87528061D01*
X134433609Y-87528061D01*
X134482300Y-87333816D01*
X134496217Y-87051488D01*
X134454787Y-86771870D01*
X134359603Y-86505708D01*
X134292671Y-86380486D01*
X134048702Y-86308903D01*
X133235605Y-87122000D01*
X132876395Y-87122000D01*
X132063298Y-86308903D01*
X131819329Y-86380486D01*
X131805676Y-86409341D01*
X131670637Y-86207241D01*
X131592694Y-86129298D01*
X132242903Y-86129298D01*
X133056000Y-86942395D01*
X133869097Y-86129298D01*
X133797514Y-85885329D01*
X133542004Y-85764429D01*
X133267816Y-85695700D01*
X132985488Y-85681783D01*
X132705870Y-85723213D01*
X132439708Y-85818397D01*
X132314486Y-85885329D01*
X132242903Y-86129298D01*
X131592694Y-86129298D01*
X131470759Y-86007363D01*
X131235727Y-85850320D01*
X130974574Y-85742147D01*
X130697335Y-85687000D01*
X130414665Y-85687000D01*
X130137426Y-85742147D01*
X129876273Y-85850320D01*
X129641241Y-86007363D01*
X129441363Y-86207241D01*
X129284320Y-86442273D01*
X129176147Y-86703426D01*
X129121000Y-86980665D01*
X116660000Y-86980665D01*
X116660000Y-82408665D01*
X125311000Y-82408665D01*
X125311000Y-82691335D01*
X125366147Y-82968574D01*
X125474320Y-83229727D01*
X125631363Y-83464759D01*
X125831241Y-83664637D01*
X126066273Y-83821680D01*
X126327426Y-83929853D01*
X126604665Y-83985000D01*
X126887335Y-83985000D01*
X127164574Y-83929853D01*
X127425727Y-83821680D01*
X127660759Y-83664637D01*
X127860637Y-83464759D01*
X128017680Y-83229727D01*
X128125853Y-82968574D01*
X128181000Y-82691335D01*
X128181000Y-82408665D01*
X135471000Y-82408665D01*
X135471000Y-82691335D01*
X135526147Y-82968574D01*
X135634320Y-83229727D01*
X135791363Y-83464759D01*
X135991241Y-83664637D01*
X136226273Y-83821680D01*
X136487426Y-83929853D01*
X136764665Y-83985000D01*
X137047335Y-83985000D01*
X137324574Y-83929853D01*
X137585727Y-83821680D01*
X137820759Y-83664637D01*
X138020637Y-83464759D01*
X138177680Y-83229727D01*
X138285853Y-82968574D01*
X138341000Y-82691335D01*
X138341000Y-82408665D01*
X138285853Y-82131426D01*
X138177680Y-81870273D01*
X138020637Y-81635241D01*
X137820759Y-81435363D01*
X137585727Y-81278320D01*
X137324574Y-81170147D01*
X137047335Y-81115000D01*
X136764665Y-81115000D01*
X136487426Y-81170147D01*
X136226273Y-81278320D01*
X135991241Y-81435363D01*
X135791363Y-81635241D01*
X135634320Y-81870273D01*
X135526147Y-82131426D01*
X135471000Y-82408665D01*
X128181000Y-82408665D01*
X128125853Y-82131426D01*
X128017680Y-81870273D01*
X127860637Y-81635241D01*
X127660759Y-81435363D01*
X127425727Y-81278320D01*
X127164574Y-81170147D01*
X126887335Y-81115000D01*
X126604665Y-81115000D01*
X126327426Y-81170147D01*
X126066273Y-81278320D01*
X125831241Y-81435363D01*
X125631363Y-81635241D01*
X125474320Y-81870273D01*
X125366147Y-82131426D01*
X125311000Y-82408665D01*
X116660000Y-82408665D01*
X116660000Y-77328665D01*
X125311000Y-77328665D01*
X125311000Y-77611335D01*
X125366147Y-77888574D01*
X125474320Y-78149727D01*
X125631363Y-78384759D01*
X125831241Y-78584637D01*
X126066273Y-78741680D01*
X126327426Y-78849853D01*
X126604665Y-78905000D01*
X126887335Y-78905000D01*
X127164574Y-78849853D01*
X127425727Y-78741680D01*
X127660759Y-78584637D01*
X127860637Y-78384759D01*
X128017680Y-78149727D01*
X128125853Y-77888574D01*
X128181000Y-77611335D01*
X128181000Y-77328665D01*
X135471000Y-77328665D01*
X135471000Y-77611335D01*
X135526147Y-77888574D01*
X135634320Y-78149727D01*
X135791363Y-78384759D01*
X135991241Y-78584637D01*
X136226273Y-78741680D01*
X136487426Y-78849853D01*
X136764665Y-78905000D01*
X137047335Y-78905000D01*
X137324574Y-78849853D01*
X137585727Y-78741680D01*
X137820759Y-78584637D01*
X138020637Y-78384759D01*
X138177680Y-78149727D01*
X138285853Y-77888574D01*
X138341000Y-77611335D01*
X138341000Y-77328665D01*
X138285853Y-77051426D01*
X138177680Y-76790273D01*
X138020637Y-76555241D01*
X137820759Y-76355363D01*
X137585727Y-76198320D01*
X137324574Y-76090147D01*
X137047335Y-76035000D01*
X136764665Y-76035000D01*
X136487426Y-76090147D01*
X136226273Y-76198320D01*
X135991241Y-76355363D01*
X135791363Y-76555241D01*
X135634320Y-76790273D01*
X135526147Y-77051426D01*
X135471000Y-77328665D01*
X128181000Y-77328665D01*
X128125853Y-77051426D01*
X128017680Y-76790273D01*
X127860637Y-76555241D01*
X127660759Y-76355363D01*
X127425727Y-76198320D01*
X127164574Y-76090147D01*
X126887335Y-76035000D01*
X126604665Y-76035000D01*
X126327426Y-76090147D01*
X126066273Y-76198320D01*
X125831241Y-76355363D01*
X125631363Y-76555241D01*
X125474320Y-76790273D01*
X125366147Y-77051426D01*
X125311000Y-77328665D01*
X116660000Y-77328665D01*
X116660000Y-72248665D01*
X125311000Y-72248665D01*
X125311000Y-72531335D01*
X125366147Y-72808574D01*
X125474320Y-73069727D01*
X125631363Y-73304759D01*
X125831241Y-73504637D01*
X126066273Y-73661680D01*
X126327426Y-73769853D01*
X126604665Y-73825000D01*
X126887335Y-73825000D01*
X127164574Y-73769853D01*
X127425727Y-73661680D01*
X127660759Y-73504637D01*
X127860637Y-73304759D01*
X128017680Y-73069727D01*
X128125853Y-72808574D01*
X128181000Y-72531335D01*
X128181000Y-72248665D01*
X135471000Y-72248665D01*
X135471000Y-72531335D01*
X135526147Y-72808574D01*
X135634320Y-73069727D01*
X135791363Y-73304759D01*
X135991241Y-73504637D01*
X136226273Y-73661680D01*
X136487426Y-73769853D01*
X136764665Y-73825000D01*
X137047335Y-73825000D01*
X137324574Y-73769853D01*
X137585727Y-73661680D01*
X137820759Y-73504637D01*
X138020637Y-73304759D01*
X138177680Y-73069727D01*
X138285853Y-72808574D01*
X138341000Y-72531335D01*
X138341000Y-72248665D01*
X138285853Y-71971426D01*
X138177680Y-71710273D01*
X138020637Y-71475241D01*
X137820759Y-71275363D01*
X137585727Y-71118320D01*
X137324574Y-71010147D01*
X137047335Y-70955000D01*
X136764665Y-70955000D01*
X136487426Y-71010147D01*
X136226273Y-71118320D01*
X135991241Y-71275363D01*
X135791363Y-71475241D01*
X135634320Y-71710273D01*
X135526147Y-71971426D01*
X135471000Y-72248665D01*
X128181000Y-72248665D01*
X128125853Y-71971426D01*
X128017680Y-71710273D01*
X127860637Y-71475241D01*
X127660759Y-71275363D01*
X127425727Y-71118320D01*
X127164574Y-71010147D01*
X126887335Y-70955000D01*
X126604665Y-70955000D01*
X126327426Y-71010147D01*
X126066273Y-71118320D01*
X125831241Y-71275363D01*
X125631363Y-71475241D01*
X125474320Y-71710273D01*
X125366147Y-71971426D01*
X125311000Y-72248665D01*
X116660000Y-72248665D01*
X116660000Y-68660000D01*
X195340000Y-68660000D01*
X195340001Y-127340000D01*
G37*
G04 #@! TD.AperFunction*
M02*
