G04 #@! TF.GenerationSoftware,KiCad,Pcbnew,(5.1.9)-1*
G04 #@! TF.CreationDate,2021-05-07T14:06:33-04:00*
G04 #@! TF.ProjectId,TommyPROM-schematics,546f6d6d-7950-4524-9f4d-2d736368656d,rev?*
G04 #@! TF.SameCoordinates,Original*
G04 #@! TF.FileFunction,Legend,Top*
G04 #@! TF.FilePolarity,Positive*
%FSLAX46Y46*%
G04 Gerber Fmt 4.6, Leading zero omitted, Abs format (unit mm)*
G04 Created by KiCad (PCBNEW (5.1.9)-1) date 2021-05-07 14:06:33*
%MOMM*%
%LPD*%
G01*
G04 APERTURE LIST*
%ADD10C,0.150000*%
%ADD11C,0.400000*%
%ADD12C,0.120000*%
%ADD13C,1.701600*%
%ADD14O,1.701600X1.701600*%
%ADD15O,1.541600X2.101600*%
%ADD16C,1.901600*%
G04 APERTURE END LIST*
D10*
X154789333Y-124245714D02*
X154789333Y-124912380D01*
X154551238Y-123864761D02*
X154313142Y-124579047D01*
X154932190Y-124579047D01*
X155217904Y-123912380D02*
X155884571Y-123912380D01*
X155456000Y-124912380D01*
X156694095Y-124245714D02*
X156694095Y-124912380D01*
X156265523Y-124245714D02*
X156265523Y-124769523D01*
X156313142Y-124864761D01*
X156408380Y-124912380D01*
X156551238Y-124912380D01*
X156646476Y-124864761D01*
X156694095Y-124817142D01*
X157503619Y-124388571D02*
X157170285Y-124388571D01*
X157170285Y-124912380D02*
X157170285Y-123912380D01*
X157646476Y-123912380D01*
X171180285Y-122896380D02*
X171799333Y-122896380D01*
X171466000Y-123277333D01*
X171608857Y-123277333D01*
X171704095Y-123324952D01*
X171751714Y-123372571D01*
X171799333Y-123467809D01*
X171799333Y-123705904D01*
X171751714Y-123801142D01*
X171704095Y-123848761D01*
X171608857Y-123896380D01*
X171323142Y-123896380D01*
X171227904Y-123848761D01*
X171180285Y-123801142D01*
X172132666Y-122896380D02*
X172751714Y-122896380D01*
X172418380Y-123277333D01*
X172561238Y-123277333D01*
X172656476Y-123324952D01*
X172704095Y-123372571D01*
X172751714Y-123467809D01*
X172751714Y-123705904D01*
X172704095Y-123801142D01*
X172656476Y-123848761D01*
X172561238Y-123896380D01*
X172275523Y-123896380D01*
X172180285Y-123848761D01*
X172132666Y-123801142D01*
X173370761Y-122896380D02*
X173466000Y-122896380D01*
X173561238Y-122944000D01*
X173608857Y-122991619D01*
X173656476Y-123086857D01*
X173704095Y-123277333D01*
X173704095Y-123515428D01*
X173656476Y-123705904D01*
X173608857Y-123801142D01*
X173561238Y-123848761D01*
X173466000Y-123896380D01*
X173370761Y-123896380D01*
X173275523Y-123848761D01*
X173227904Y-123801142D01*
X173180285Y-123705904D01*
X173132666Y-123515428D01*
X173132666Y-123277333D01*
X173180285Y-123086857D01*
X173227904Y-122991619D01*
X173275523Y-122944000D01*
X173370761Y-122896380D01*
X131389523Y-83002380D02*
X130818095Y-83002380D01*
X131103809Y-83002380D02*
X131103809Y-82002380D01*
X131008571Y-82145238D01*
X130913333Y-82240476D01*
X130818095Y-82288095D01*
X132008571Y-82002380D02*
X132103809Y-82002380D01*
X132199047Y-82050000D01*
X132246666Y-82097619D01*
X132294285Y-82192857D01*
X132341904Y-82383333D01*
X132341904Y-82621428D01*
X132294285Y-82811904D01*
X132246666Y-82907142D01*
X132199047Y-82954761D01*
X132103809Y-83002380D01*
X132008571Y-83002380D01*
X131913333Y-82954761D01*
X131865714Y-82907142D01*
X131818095Y-82811904D01*
X131770476Y-82621428D01*
X131770476Y-82383333D01*
X131818095Y-82192857D01*
X131865714Y-82097619D01*
X131913333Y-82050000D01*
X132008571Y-82002380D01*
X132770476Y-83002380D02*
X132770476Y-82002380D01*
X133341904Y-83002380D02*
X132913333Y-82430952D01*
X133341904Y-82002380D02*
X132770476Y-82573809D01*
X131389523Y-77922380D02*
X130818095Y-77922380D01*
X131103809Y-77922380D02*
X131103809Y-76922380D01*
X131008571Y-77065238D01*
X130913333Y-77160476D01*
X130818095Y-77208095D01*
X132008571Y-76922380D02*
X132103809Y-76922380D01*
X132199047Y-76970000D01*
X132246666Y-77017619D01*
X132294285Y-77112857D01*
X132341904Y-77303333D01*
X132341904Y-77541428D01*
X132294285Y-77731904D01*
X132246666Y-77827142D01*
X132199047Y-77874761D01*
X132103809Y-77922380D01*
X132008571Y-77922380D01*
X131913333Y-77874761D01*
X131865714Y-77827142D01*
X131818095Y-77731904D01*
X131770476Y-77541428D01*
X131770476Y-77303333D01*
X131818095Y-77112857D01*
X131865714Y-77017619D01*
X131913333Y-76970000D01*
X132008571Y-76922380D01*
X132770476Y-77922380D02*
X132770476Y-76922380D01*
X133341904Y-77922380D02*
X132913333Y-77350952D01*
X133341904Y-76922380D02*
X132770476Y-77493809D01*
X131389523Y-72842380D02*
X130818095Y-72842380D01*
X131103809Y-72842380D02*
X131103809Y-71842380D01*
X131008571Y-71985238D01*
X130913333Y-72080476D01*
X130818095Y-72128095D01*
X132008571Y-71842380D02*
X132103809Y-71842380D01*
X132199047Y-71890000D01*
X132246666Y-71937619D01*
X132294285Y-72032857D01*
X132341904Y-72223333D01*
X132341904Y-72461428D01*
X132294285Y-72651904D01*
X132246666Y-72747142D01*
X132199047Y-72794761D01*
X132103809Y-72842380D01*
X132008571Y-72842380D01*
X131913333Y-72794761D01*
X131865714Y-72747142D01*
X131818095Y-72651904D01*
X131770476Y-72461428D01*
X131770476Y-72223333D01*
X131818095Y-72032857D01*
X131865714Y-71937619D01*
X131913333Y-71890000D01*
X132008571Y-71842380D01*
X132770476Y-72842380D02*
X132770476Y-71842380D01*
X133341904Y-72842380D02*
X132913333Y-72270952D01*
X133341904Y-71842380D02*
X132770476Y-72413809D01*
X187515809Y-125626761D02*
X187658666Y-125674380D01*
X187896761Y-125674380D01*
X187992000Y-125626761D01*
X188039619Y-125579142D01*
X188087238Y-125483904D01*
X188087238Y-125388666D01*
X188039619Y-125293428D01*
X187992000Y-125245809D01*
X187896761Y-125198190D01*
X187706285Y-125150571D01*
X187611047Y-125102952D01*
X187563428Y-125055333D01*
X187515809Y-124960095D01*
X187515809Y-124864857D01*
X187563428Y-124769619D01*
X187611047Y-124722000D01*
X187706285Y-124674380D01*
X187944380Y-124674380D01*
X188087238Y-124722000D01*
X188372952Y-124674380D02*
X188944380Y-124674380D01*
X188658666Y-125674380D02*
X188658666Y-124674380D01*
X189230095Y-125388666D02*
X189706285Y-125388666D01*
X189134857Y-125674380D02*
X189468190Y-124674380D01*
X189801523Y-125674380D01*
X189992000Y-124674380D02*
X190563428Y-124674380D01*
X190277714Y-125674380D02*
X190277714Y-124674380D01*
X190896761Y-124674380D02*
X190896761Y-125483904D01*
X190944380Y-125579142D01*
X190992000Y-125626761D01*
X191087238Y-125674380D01*
X191277714Y-125674380D01*
X191372952Y-125626761D01*
X191420571Y-125579142D01*
X191468190Y-125483904D01*
X191468190Y-124674380D01*
X191896761Y-125626761D02*
X192039619Y-125674380D01*
X192277714Y-125674380D01*
X192372952Y-125626761D01*
X192420571Y-125579142D01*
X192468190Y-125483904D01*
X192468190Y-125388666D01*
X192420571Y-125293428D01*
X192372952Y-125245809D01*
X192277714Y-125198190D01*
X192087238Y-125150571D01*
X191992000Y-125102952D01*
X191944380Y-125055333D01*
X191896761Y-124960095D01*
X191896761Y-124864857D01*
X191944380Y-124769619D01*
X191992000Y-124722000D01*
X192087238Y-124674380D01*
X192325333Y-124674380D01*
X192468190Y-124722000D01*
X123229714Y-91121523D02*
X124039238Y-91121523D01*
X124134476Y-91169142D01*
X124182095Y-91216761D01*
X124229714Y-91312000D01*
X124229714Y-91454857D01*
X124182095Y-91550095D01*
X123848761Y-91121523D02*
X123896380Y-91216761D01*
X123896380Y-91407238D01*
X123848761Y-91502476D01*
X123801142Y-91550095D01*
X123705904Y-91597714D01*
X123420190Y-91597714D01*
X123324952Y-91550095D01*
X123277333Y-91502476D01*
X123229714Y-91407238D01*
X123229714Y-91216761D01*
X123277333Y-91121523D01*
X123896380Y-90645333D02*
X123229714Y-90645333D01*
X122896380Y-90645333D02*
X122944000Y-90692952D01*
X122991619Y-90645333D01*
X122944000Y-90597714D01*
X122896380Y-90645333D01*
X122991619Y-90645333D01*
X123229714Y-90312000D02*
X123229714Y-89931047D01*
X122896380Y-90169142D02*
X123753523Y-90169142D01*
X123848761Y-90121523D01*
X123896380Y-90026285D01*
X123896380Y-89931047D01*
X123896380Y-89597714D02*
X122896380Y-89597714D01*
X123896380Y-89169142D02*
X123372571Y-89169142D01*
X123277333Y-89216761D01*
X123229714Y-89312000D01*
X123229714Y-89454857D01*
X123277333Y-89550095D01*
X123324952Y-89597714D01*
X123229714Y-88264380D02*
X123896380Y-88264380D01*
X123229714Y-88692952D02*
X123753523Y-88692952D01*
X123848761Y-88645333D01*
X123896380Y-88550095D01*
X123896380Y-88407238D01*
X123848761Y-88312000D01*
X123801142Y-88264380D01*
X123896380Y-87788190D02*
X122896380Y-87788190D01*
X123277333Y-87788190D02*
X123229714Y-87692952D01*
X123229714Y-87502476D01*
X123277333Y-87407238D01*
X123324952Y-87359619D01*
X123420190Y-87312000D01*
X123705904Y-87312000D01*
X123801142Y-87359619D01*
X123848761Y-87407238D01*
X123896380Y-87502476D01*
X123896380Y-87692952D01*
X123848761Y-87788190D01*
X123801142Y-86883428D02*
X123848761Y-86835809D01*
X123896380Y-86883428D01*
X123848761Y-86931047D01*
X123801142Y-86883428D01*
X123896380Y-86883428D01*
X123848761Y-85978666D02*
X123896380Y-86073904D01*
X123896380Y-86264380D01*
X123848761Y-86359619D01*
X123801142Y-86407238D01*
X123705904Y-86454857D01*
X123420190Y-86454857D01*
X123324952Y-86407238D01*
X123277333Y-86359619D01*
X123229714Y-86264380D01*
X123229714Y-86073904D01*
X123277333Y-85978666D01*
X123896380Y-85407238D02*
X123848761Y-85502476D01*
X123801142Y-85550095D01*
X123705904Y-85597714D01*
X123420190Y-85597714D01*
X123324952Y-85550095D01*
X123277333Y-85502476D01*
X123229714Y-85407238D01*
X123229714Y-85264380D01*
X123277333Y-85169142D01*
X123324952Y-85121523D01*
X123420190Y-85073904D01*
X123705904Y-85073904D01*
X123801142Y-85121523D01*
X123848761Y-85169142D01*
X123896380Y-85264380D01*
X123896380Y-85407238D01*
X123896380Y-84645333D02*
X123229714Y-84645333D01*
X123324952Y-84645333D02*
X123277333Y-84597714D01*
X123229714Y-84502476D01*
X123229714Y-84359619D01*
X123277333Y-84264380D01*
X123372571Y-84216761D01*
X123896380Y-84216761D01*
X123372571Y-84216761D02*
X123277333Y-84169142D01*
X123229714Y-84073904D01*
X123229714Y-83931047D01*
X123277333Y-83835809D01*
X123372571Y-83788190D01*
X123896380Y-83788190D01*
X122848761Y-82597714D02*
X124134476Y-83454857D01*
X122896380Y-82407238D02*
X122896380Y-81835809D01*
X123896380Y-82121523D02*
X122896380Y-82121523D01*
X123896380Y-81359619D02*
X123848761Y-81454857D01*
X123801142Y-81502476D01*
X123705904Y-81550095D01*
X123420190Y-81550095D01*
X123324952Y-81502476D01*
X123277333Y-81454857D01*
X123229714Y-81359619D01*
X123229714Y-81216761D01*
X123277333Y-81121523D01*
X123324952Y-81073904D01*
X123420190Y-81026285D01*
X123705904Y-81026285D01*
X123801142Y-81073904D01*
X123848761Y-81121523D01*
X123896380Y-81216761D01*
X123896380Y-81359619D01*
X123896380Y-80597714D02*
X123229714Y-80597714D01*
X123324952Y-80597714D02*
X123277333Y-80550095D01*
X123229714Y-80454857D01*
X123229714Y-80312000D01*
X123277333Y-80216761D01*
X123372571Y-80169142D01*
X123896380Y-80169142D01*
X123372571Y-80169142D02*
X123277333Y-80121523D01*
X123229714Y-80026285D01*
X123229714Y-79883428D01*
X123277333Y-79788190D01*
X123372571Y-79740571D01*
X123896380Y-79740571D01*
X123896380Y-79264380D02*
X122896380Y-79264380D01*
X123896380Y-78692952D01*
X122896380Y-78692952D01*
X123896380Y-78216761D02*
X123229714Y-78216761D01*
X122896380Y-78216761D02*
X122944000Y-78264380D01*
X122991619Y-78216761D01*
X122944000Y-78169142D01*
X122896380Y-78216761D01*
X122991619Y-78216761D01*
X123848761Y-77788190D02*
X123896380Y-77692952D01*
X123896380Y-77502476D01*
X123848761Y-77407238D01*
X123753523Y-77359619D01*
X123705904Y-77359619D01*
X123610666Y-77407238D01*
X123563047Y-77502476D01*
X123563047Y-77645333D01*
X123515428Y-77740571D01*
X123420190Y-77788190D01*
X123372571Y-77788190D01*
X123277333Y-77740571D01*
X123229714Y-77645333D01*
X123229714Y-77502476D01*
X123277333Y-77407238D01*
X123896380Y-76931047D02*
X122896380Y-76931047D01*
X123277333Y-76931047D02*
X123229714Y-76835809D01*
X123229714Y-76645333D01*
X123277333Y-76550095D01*
X123324952Y-76502476D01*
X123420190Y-76454857D01*
X123705904Y-76454857D01*
X123801142Y-76502476D01*
X123848761Y-76550095D01*
X123896380Y-76645333D01*
X123896380Y-76835809D01*
X123848761Y-76931047D01*
X123848761Y-75645333D02*
X123896380Y-75740571D01*
X123896380Y-75931047D01*
X123848761Y-76026285D01*
X123753523Y-76073904D01*
X123372571Y-76073904D01*
X123277333Y-76026285D01*
X123229714Y-75931047D01*
X123229714Y-75740571D01*
X123277333Y-75645333D01*
X123372571Y-75597714D01*
X123467809Y-75597714D01*
X123563047Y-76073904D01*
X123229714Y-75312000D02*
X123229714Y-74931047D01*
X122896380Y-75169142D02*
X123753523Y-75169142D01*
X123848761Y-75121523D01*
X123896380Y-75026285D01*
X123896380Y-74931047D01*
X193349619Y-87232666D02*
X193302000Y-87185047D01*
X193254380Y-87089809D01*
X193254380Y-86851714D01*
X193302000Y-86756476D01*
X193349619Y-86708857D01*
X193444857Y-86661238D01*
X193540095Y-86661238D01*
X193682952Y-86708857D01*
X194254380Y-87280285D01*
X194254380Y-86661238D01*
X193254380Y-86042190D02*
X193254380Y-85946952D01*
X193302000Y-85851714D01*
X193349619Y-85804095D01*
X193444857Y-85756476D01*
X193635333Y-85708857D01*
X193873428Y-85708857D01*
X194063904Y-85756476D01*
X194159142Y-85804095D01*
X194206761Y-85851714D01*
X194254380Y-85946952D01*
X194254380Y-86042190D01*
X194206761Y-86137428D01*
X194159142Y-86185047D01*
X194063904Y-86232666D01*
X193873428Y-86280285D01*
X193635333Y-86280285D01*
X193444857Y-86232666D01*
X193349619Y-86185047D01*
X193302000Y-86137428D01*
X193254380Y-86042190D01*
X193349619Y-85327904D02*
X193302000Y-85280285D01*
X193254380Y-85185047D01*
X193254380Y-84946952D01*
X193302000Y-84851714D01*
X193349619Y-84804095D01*
X193444857Y-84756476D01*
X193540095Y-84756476D01*
X193682952Y-84804095D01*
X194254380Y-85375523D01*
X194254380Y-84756476D01*
X194254380Y-83804095D02*
X194254380Y-84375523D01*
X194254380Y-84089809D02*
X193254380Y-84089809D01*
X193397238Y-84185047D01*
X193492476Y-84280285D01*
X193540095Y-84375523D01*
X193587714Y-82708857D02*
X194254380Y-82470761D01*
X193587714Y-82232666D01*
X194254380Y-81327904D02*
X194254380Y-81899333D01*
X194254380Y-81613619D02*
X193254380Y-81613619D01*
X193397238Y-81708857D01*
X193492476Y-81804095D01*
X193540095Y-81899333D01*
X194159142Y-80899333D02*
X194206761Y-80851714D01*
X194254380Y-80899333D01*
X194206761Y-80946952D01*
X194159142Y-80899333D01*
X194254380Y-80899333D01*
X193349619Y-80470761D02*
X193302000Y-80423142D01*
X193254380Y-80327904D01*
X193254380Y-80089809D01*
X193302000Y-79994571D01*
X193349619Y-79946952D01*
X193444857Y-79899333D01*
X193540095Y-79899333D01*
X193682952Y-79946952D01*
X194254380Y-80518380D01*
X194254380Y-79899333D01*
D11*
X118772952Y-94681047D02*
X118772952Y-93252476D01*
X121272952Y-93966761D02*
X118772952Y-93966761D01*
X121272952Y-92062000D02*
X121153904Y-92300095D01*
X121034857Y-92419142D01*
X120796761Y-92538190D01*
X120082476Y-92538190D01*
X119844380Y-92419142D01*
X119725333Y-92300095D01*
X119606285Y-92062000D01*
X119606285Y-91704857D01*
X119725333Y-91466761D01*
X119844380Y-91347714D01*
X120082476Y-91228666D01*
X120796761Y-91228666D01*
X121034857Y-91347714D01*
X121153904Y-91466761D01*
X121272952Y-91704857D01*
X121272952Y-92062000D01*
X121272952Y-90157238D02*
X119606285Y-90157238D01*
X119844380Y-90157238D02*
X119725333Y-90038190D01*
X119606285Y-89800095D01*
X119606285Y-89442952D01*
X119725333Y-89204857D01*
X119963428Y-89085809D01*
X121272952Y-89085809D01*
X119963428Y-89085809D02*
X119725333Y-88966761D01*
X119606285Y-88728666D01*
X119606285Y-88371523D01*
X119725333Y-88133428D01*
X119963428Y-88014380D01*
X121272952Y-88014380D01*
X121272952Y-86823904D02*
X119606285Y-86823904D01*
X119844380Y-86823904D02*
X119725333Y-86704857D01*
X119606285Y-86466761D01*
X119606285Y-86109619D01*
X119725333Y-85871523D01*
X119963428Y-85752476D01*
X121272952Y-85752476D01*
X119963428Y-85752476D02*
X119725333Y-85633428D01*
X119606285Y-85395333D01*
X119606285Y-85038190D01*
X119725333Y-84800095D01*
X119963428Y-84681047D01*
X121272952Y-84681047D01*
X119606285Y-83728666D02*
X121272952Y-83133428D01*
X119606285Y-82538190D02*
X121272952Y-83133428D01*
X121868190Y-83371523D01*
X121987238Y-83490571D01*
X122106285Y-83728666D01*
X121272952Y-81585809D02*
X118772952Y-81585809D01*
X118772952Y-80633428D01*
X118892000Y-80395333D01*
X119011047Y-80276285D01*
X119249142Y-80157238D01*
X119606285Y-80157238D01*
X119844380Y-80276285D01*
X119963428Y-80395333D01*
X120082476Y-80633428D01*
X120082476Y-81585809D01*
X121272952Y-77657238D02*
X120082476Y-78490571D01*
X121272952Y-79085809D02*
X118772952Y-79085809D01*
X118772952Y-78133428D01*
X118892000Y-77895333D01*
X119011047Y-77776285D01*
X119249142Y-77657238D01*
X119606285Y-77657238D01*
X119844380Y-77776285D01*
X119963428Y-77895333D01*
X120082476Y-78133428D01*
X120082476Y-79085809D01*
X118772952Y-76109619D02*
X118772952Y-75633428D01*
X118892000Y-75395333D01*
X119130095Y-75157238D01*
X119606285Y-75038190D01*
X120439619Y-75038190D01*
X120915809Y-75157238D01*
X121153904Y-75395333D01*
X121272952Y-75633428D01*
X121272952Y-76109619D01*
X121153904Y-76347714D01*
X120915809Y-76585809D01*
X120439619Y-76704857D01*
X119606285Y-76704857D01*
X119130095Y-76585809D01*
X118892000Y-76347714D01*
X118772952Y-76109619D01*
X121272952Y-73966761D02*
X118772952Y-73966761D01*
X120558666Y-73133428D01*
X118772952Y-72300095D01*
X121272952Y-72300095D01*
D12*
X153638000Y-122702000D02*
G75*
G03*
X153638000Y-122702000I-3270000J0D01*
G01*
X175736000Y-124814000D02*
X175736000Y-122074000D01*
X175736000Y-122074000D02*
X169196000Y-122074000D01*
X169196000Y-122074000D02*
X169196000Y-124814000D01*
X169196000Y-124814000D02*
X175736000Y-124814000D01*
X176506000Y-123444000D02*
X175736000Y-123444000D01*
X168426000Y-123444000D02*
X169196000Y-123444000D01*
X128556000Y-71020000D02*
X128556000Y-73760000D01*
X128556000Y-73760000D02*
X135096000Y-73760000D01*
X135096000Y-73760000D02*
X135096000Y-71020000D01*
X135096000Y-71020000D02*
X128556000Y-71020000D01*
X127786000Y-72390000D02*
X128556000Y-72390000D01*
X135866000Y-72390000D02*
X135096000Y-72390000D01*
X128556000Y-76100000D02*
X128556000Y-78840000D01*
X128556000Y-78840000D02*
X135096000Y-78840000D01*
X135096000Y-78840000D02*
X135096000Y-76100000D01*
X135096000Y-76100000D02*
X128556000Y-76100000D01*
X127786000Y-77470000D02*
X128556000Y-77470000D01*
X135866000Y-77470000D02*
X135096000Y-77470000D01*
X128556000Y-81180000D02*
X128556000Y-83920000D01*
X128556000Y-83920000D02*
X135096000Y-83920000D01*
X135096000Y-83920000D02*
X135096000Y-81180000D01*
X135096000Y-81180000D02*
X128556000Y-81180000D01*
X127786000Y-82550000D02*
X128556000Y-82550000D01*
X135866000Y-82550000D02*
X135096000Y-82550000D01*
X125109000Y-103790000D02*
X123851000Y-103790000D01*
X125109000Y-101950000D02*
X123851000Y-101950000D01*
X139079000Y-103790000D02*
X137821000Y-103790000D01*
X139079000Y-101950000D02*
X137821000Y-101950000D01*
X131177000Y-86202000D02*
X132435000Y-86202000D01*
X131177000Y-88042000D02*
X132435000Y-88042000D01*
X147330000Y-94640000D02*
G75*
G03*
X147330000Y-94640000I-2550000J0D01*
G01*
X145680000Y-94640000D02*
G75*
G03*
X145680000Y-94640000I-900000J0D01*
G01*
X147230000Y-95370000D02*
X191070000Y-95370000D01*
X191070000Y-95370000D02*
X191070000Y-72270000D01*
X191070000Y-72270000D02*
X140470000Y-72270000D01*
X140470000Y-72270000D02*
X140470000Y-95370000D01*
X140470000Y-95370000D02*
X142330000Y-95370000D01*
X140470000Y-93090000D02*
X142730000Y-93090000D01*
X152400000Y-96390000D02*
X149860000Y-96390000D01*
X137430000Y-105350000D02*
X135780000Y-105350000D01*
X135780000Y-105350000D02*
X135780000Y-123250000D01*
X135780000Y-123250000D02*
X141080000Y-123250000D01*
X141080000Y-123250000D02*
X141080000Y-105350000D01*
X141080000Y-105350000D02*
X139430000Y-105350000D01*
X139430000Y-105350000D02*
G75*
G02*
X137430000Y-105350000I-1000000J0D01*
G01*
X123460000Y-105350000D02*
X121810000Y-105350000D01*
X121810000Y-105350000D02*
X121810000Y-123250000D01*
X121810000Y-123250000D02*
X127110000Y-123250000D01*
X127110000Y-123250000D02*
X127110000Y-105350000D01*
X127110000Y-105350000D02*
X125460000Y-105350000D01*
X125460000Y-105350000D02*
G75*
G02*
X123460000Y-105350000I-1000000J0D01*
G01*
X186396000Y-123444000D02*
G75*
G03*
X186396000Y-123444000I-2500000J0D01*
G01*
X181336000Y-121899000D02*
X181336000Y-124989000D01*
X186886000Y-123443538D02*
G75*
G02*
X181336000Y-124988830I-2990000J-462D01*
G01*
X186886000Y-123444462D02*
G75*
G03*
X181336000Y-121899170I-2990000J462D01*
G01*
X152400000Y-114300000D02*
X149860000Y-114300000D01*
X149860000Y-114300000D02*
X149860000Y-116970000D01*
X152400000Y-116970000D02*
X190630000Y-116970000D01*
X147190000Y-116970000D02*
X149860000Y-116970000D01*
X149860000Y-101600000D02*
X149860000Y-98930000D01*
X149860000Y-101600000D02*
X187960000Y-101600000D01*
X187960000Y-101600000D02*
X187960000Y-98930000D01*
X152400000Y-114300000D02*
X152400000Y-116970000D01*
X152400000Y-114300000D02*
X187960000Y-114300000D01*
X187960000Y-114300000D02*
X187960000Y-116970000D01*
X190630000Y-116970000D02*
X190630000Y-98930000D01*
X190630000Y-98930000D02*
X147190000Y-98930000D01*
X147190000Y-98930000D02*
X147190000Y-116970000D01*
D10*
X155007333Y-122865142D02*
X154959714Y-122912761D01*
X154816857Y-122960380D01*
X154721619Y-122960380D01*
X154578761Y-122912761D01*
X154483523Y-122817523D01*
X154435904Y-122722285D01*
X154388285Y-122531809D01*
X154388285Y-122388952D01*
X154435904Y-122198476D01*
X154483523Y-122103238D01*
X154578761Y-122008000D01*
X154721619Y-121960380D01*
X154816857Y-121960380D01*
X154959714Y-122008000D01*
X155007333Y-122055619D01*
X155959714Y-122960380D02*
X155388285Y-122960380D01*
X155674000Y-122960380D02*
X155674000Y-121960380D01*
X155578761Y-122103238D01*
X155483523Y-122198476D01*
X155388285Y-122246095D01*
X172299333Y-126266380D02*
X171966000Y-125790190D01*
X171727904Y-126266380D02*
X171727904Y-125266380D01*
X172108857Y-125266380D01*
X172204095Y-125314000D01*
X172251714Y-125361619D01*
X172299333Y-125456857D01*
X172299333Y-125599714D01*
X172251714Y-125694952D01*
X172204095Y-125742571D01*
X172108857Y-125790190D01*
X171727904Y-125790190D01*
X173156476Y-125599714D02*
X173156476Y-126266380D01*
X172918380Y-125218761D02*
X172680285Y-125933047D01*
X173299333Y-125933047D01*
X131659333Y-70472380D02*
X131326000Y-69996190D01*
X131087904Y-70472380D02*
X131087904Y-69472380D01*
X131468857Y-69472380D01*
X131564095Y-69520000D01*
X131611714Y-69567619D01*
X131659333Y-69662857D01*
X131659333Y-69805714D01*
X131611714Y-69900952D01*
X131564095Y-69948571D01*
X131468857Y-69996190D01*
X131087904Y-69996190D01*
X131992666Y-69472380D02*
X132611714Y-69472380D01*
X132278380Y-69853333D01*
X132421238Y-69853333D01*
X132516476Y-69900952D01*
X132564095Y-69948571D01*
X132611714Y-70043809D01*
X132611714Y-70281904D01*
X132564095Y-70377142D01*
X132516476Y-70424761D01*
X132421238Y-70472380D01*
X132135523Y-70472380D01*
X132040285Y-70424761D01*
X131992666Y-70377142D01*
X131659333Y-75552380D02*
X131326000Y-75076190D01*
X131087904Y-75552380D02*
X131087904Y-74552380D01*
X131468857Y-74552380D01*
X131564095Y-74600000D01*
X131611714Y-74647619D01*
X131659333Y-74742857D01*
X131659333Y-74885714D01*
X131611714Y-74980952D01*
X131564095Y-75028571D01*
X131468857Y-75076190D01*
X131087904Y-75076190D01*
X132040285Y-74647619D02*
X132087904Y-74600000D01*
X132183142Y-74552380D01*
X132421238Y-74552380D01*
X132516476Y-74600000D01*
X132564095Y-74647619D01*
X132611714Y-74742857D01*
X132611714Y-74838095D01*
X132564095Y-74980952D01*
X131992666Y-75552380D01*
X132611714Y-75552380D01*
X131659333Y-80632380D02*
X131326000Y-80156190D01*
X131087904Y-80632380D02*
X131087904Y-79632380D01*
X131468857Y-79632380D01*
X131564095Y-79680000D01*
X131611714Y-79727619D01*
X131659333Y-79822857D01*
X131659333Y-79965714D01*
X131611714Y-80060952D01*
X131564095Y-80108571D01*
X131468857Y-80156190D01*
X131087904Y-80156190D01*
X132611714Y-80632380D02*
X132040285Y-80632380D01*
X132326000Y-80632380D02*
X132326000Y-79632380D01*
X132230761Y-79775238D01*
X132135523Y-79870476D01*
X132040285Y-79918095D01*
X124313333Y-101195142D02*
X124265714Y-101242761D01*
X124122857Y-101290380D01*
X124027619Y-101290380D01*
X123884761Y-101242761D01*
X123789523Y-101147523D01*
X123741904Y-101052285D01*
X123694285Y-100861809D01*
X123694285Y-100718952D01*
X123741904Y-100528476D01*
X123789523Y-100433238D01*
X123884761Y-100338000D01*
X124027619Y-100290380D01*
X124122857Y-100290380D01*
X124265714Y-100338000D01*
X124313333Y-100385619D01*
X124694285Y-100385619D02*
X124741904Y-100338000D01*
X124837142Y-100290380D01*
X125075238Y-100290380D01*
X125170476Y-100338000D01*
X125218095Y-100385619D01*
X125265714Y-100480857D01*
X125265714Y-100576095D01*
X125218095Y-100718952D01*
X124646666Y-101290380D01*
X125265714Y-101290380D01*
X138283333Y-101195142D02*
X138235714Y-101242761D01*
X138092857Y-101290380D01*
X137997619Y-101290380D01*
X137854761Y-101242761D01*
X137759523Y-101147523D01*
X137711904Y-101052285D01*
X137664285Y-100861809D01*
X137664285Y-100718952D01*
X137711904Y-100528476D01*
X137759523Y-100433238D01*
X137854761Y-100338000D01*
X137997619Y-100290380D01*
X138092857Y-100290380D01*
X138235714Y-100338000D01*
X138283333Y-100385619D01*
X139140476Y-100623714D02*
X139140476Y-101290380D01*
X138902380Y-100242761D02*
X138664285Y-100957047D01*
X139283333Y-100957047D01*
X131639333Y-85429142D02*
X131591714Y-85476761D01*
X131448857Y-85524380D01*
X131353619Y-85524380D01*
X131210761Y-85476761D01*
X131115523Y-85381523D01*
X131067904Y-85286285D01*
X131020285Y-85095809D01*
X131020285Y-84952952D01*
X131067904Y-84762476D01*
X131115523Y-84667238D01*
X131210761Y-84572000D01*
X131353619Y-84524380D01*
X131448857Y-84524380D01*
X131591714Y-84572000D01*
X131639333Y-84619619D01*
X131972666Y-84524380D02*
X132591714Y-84524380D01*
X132258380Y-84905333D01*
X132401238Y-84905333D01*
X132496476Y-84952952D01*
X132544095Y-85000571D01*
X132591714Y-85095809D01*
X132591714Y-85333904D01*
X132544095Y-85429142D01*
X132496476Y-85476761D01*
X132401238Y-85524380D01*
X132115523Y-85524380D01*
X132020285Y-85476761D01*
X131972666Y-85429142D01*
X139022380Y-84581904D02*
X139831904Y-84581904D01*
X139927142Y-84534285D01*
X139974761Y-84486666D01*
X140022380Y-84391428D01*
X140022380Y-84200952D01*
X139974761Y-84105714D01*
X139927142Y-84058095D01*
X139831904Y-84010476D01*
X139022380Y-84010476D01*
X139022380Y-83629523D02*
X139022380Y-83010476D01*
X139403333Y-83343809D01*
X139403333Y-83200952D01*
X139450952Y-83105714D01*
X139498571Y-83058095D01*
X139593809Y-83010476D01*
X139831904Y-83010476D01*
X139927142Y-83058095D01*
X139974761Y-83105714D01*
X140022380Y-83200952D01*
X140022380Y-83486666D01*
X139974761Y-83581904D01*
X139927142Y-83629523D01*
X137668095Y-104100380D02*
X137668095Y-104909904D01*
X137715714Y-105005142D01*
X137763333Y-105052761D01*
X137858571Y-105100380D01*
X138049047Y-105100380D01*
X138144285Y-105052761D01*
X138191904Y-105005142D01*
X138239523Y-104909904D01*
X138239523Y-104100380D01*
X138668095Y-104195619D02*
X138715714Y-104148000D01*
X138810952Y-104100380D01*
X139049047Y-104100380D01*
X139144285Y-104148000D01*
X139191904Y-104195619D01*
X139239523Y-104290857D01*
X139239523Y-104386095D01*
X139191904Y-104528952D01*
X138620476Y-105100380D01*
X139239523Y-105100380D01*
X123698095Y-104100380D02*
X123698095Y-104909904D01*
X123745714Y-105005142D01*
X123793333Y-105052761D01*
X123888571Y-105100380D01*
X124079047Y-105100380D01*
X124174285Y-105052761D01*
X124221904Y-105005142D01*
X124269523Y-104909904D01*
X124269523Y-104100380D01*
X125269523Y-105100380D02*
X124698095Y-105100380D01*
X124983809Y-105100380D02*
X124983809Y-104100380D01*
X124888571Y-104243238D01*
X124793333Y-104338476D01*
X124698095Y-104386095D01*
X187475904Y-122626380D02*
X187475904Y-121626380D01*
X187714000Y-121626380D01*
X187856857Y-121674000D01*
X187952095Y-121769238D01*
X187999714Y-121864476D01*
X188047333Y-122054952D01*
X188047333Y-122197809D01*
X187999714Y-122388285D01*
X187952095Y-122483523D01*
X187856857Y-122578761D01*
X187714000Y-122626380D01*
X187475904Y-122626380D01*
X188999714Y-122626380D02*
X188428285Y-122626380D01*
X188714000Y-122626380D02*
X188714000Y-121626380D01*
X188618761Y-121769238D01*
X188523523Y-121864476D01*
X188428285Y-121912095D01*
X146216666Y-108664285D02*
X146216666Y-108188095D01*
X146502380Y-108759523D02*
X145502380Y-108426190D01*
X146502380Y-108092857D01*
X146502380Y-107235714D02*
X146502380Y-107807142D01*
X146502380Y-107521428D02*
X145502380Y-107521428D01*
X145645238Y-107616666D01*
X145740476Y-107711904D01*
X145788095Y-107807142D01*
%LPC*%
D13*
X150368000Y-121452000D03*
X150368000Y-123952000D03*
D14*
X167386000Y-123444000D03*
D13*
X177546000Y-123444000D03*
D14*
X136906000Y-72390000D03*
D13*
X126746000Y-72390000D03*
D14*
X136906000Y-77470000D03*
D13*
X126746000Y-77470000D03*
D14*
X136906000Y-82550000D03*
D13*
X126746000Y-82550000D03*
X123230000Y-102870000D03*
X125730000Y-102870000D03*
X137200000Y-102870000D03*
X139700000Y-102870000D03*
X133056000Y-87122000D03*
X130556000Y-87122000D03*
D15*
X184150000Y-76200000D03*
X184150000Y-91440000D03*
X181610000Y-76200000D03*
X181610000Y-91440000D03*
X179070000Y-76200000D03*
X179070000Y-91440000D03*
X176530000Y-76200000D03*
X176530000Y-91440000D03*
X173990000Y-76200000D03*
X173990000Y-91440000D03*
X171450000Y-76200000D03*
X171450000Y-91440000D03*
X168910000Y-76200000D03*
X168910000Y-91440000D03*
X166370000Y-76200000D03*
X166370000Y-91440000D03*
X163830000Y-76200000D03*
X163830000Y-91440000D03*
X161290000Y-76200000D03*
X161290000Y-91440000D03*
X158750000Y-76200000D03*
X158750000Y-91440000D03*
X156210000Y-76200000D03*
X156210000Y-91440000D03*
X153670000Y-76200000D03*
X153670000Y-91440000D03*
X151130000Y-76200000D03*
G36*
G01*
X151850001Y-92490800D02*
X150409999Y-92490800D01*
G75*
G02*
X150359200Y-92440001I0J50799D01*
G01*
X150359200Y-90439999D01*
G75*
G02*
X150409999Y-90389200I50799J0D01*
G01*
X151850001Y-90389200D01*
G75*
G02*
X151900800Y-90439999I0J-50799D01*
G01*
X151900800Y-92440001D01*
G75*
G02*
X151850001Y-92490800I-50799J0D01*
G01*
G37*
D14*
X142240000Y-106680000D03*
X134620000Y-121920000D03*
X142240000Y-109220000D03*
X134620000Y-119380000D03*
X142240000Y-111760000D03*
X134620000Y-116840000D03*
X142240000Y-114300000D03*
X134620000Y-114300000D03*
X142240000Y-116840000D03*
X134620000Y-111760000D03*
X142240000Y-119380000D03*
X134620000Y-109220000D03*
X142240000Y-121920000D03*
G36*
G01*
X133769200Y-107480000D02*
X133769200Y-105880000D01*
G75*
G02*
X133820000Y-105829200I50800J0D01*
G01*
X135420000Y-105829200D01*
G75*
G02*
X135470800Y-105880000I0J-50800D01*
G01*
X135470800Y-107480000D01*
G75*
G02*
X135420000Y-107530800I-50800J0D01*
G01*
X133820000Y-107530800D01*
G75*
G02*
X133769200Y-107480000I0J50800D01*
G01*
G37*
X128270000Y-106680000D03*
X120650000Y-121920000D03*
X128270000Y-109220000D03*
X120650000Y-119380000D03*
X128270000Y-111760000D03*
X120650000Y-116840000D03*
X128270000Y-114300000D03*
X120650000Y-114300000D03*
X128270000Y-116840000D03*
X120650000Y-111760000D03*
X128270000Y-119380000D03*
X120650000Y-109220000D03*
X128270000Y-121920000D03*
G36*
G01*
X119799200Y-107480000D02*
X119799200Y-105880000D01*
G75*
G02*
X119850000Y-105829200I50800J0D01*
G01*
X121450000Y-105829200D01*
G75*
G02*
X121500800Y-105880000I0J-50800D01*
G01*
X121500800Y-107480000D01*
G75*
G02*
X121450000Y-107530800I-50800J0D01*
G01*
X119850000Y-107530800D01*
G75*
G02*
X119799200Y-107480000I0J50800D01*
G01*
G37*
D16*
X185166000Y-123444000D03*
G36*
G01*
X181675200Y-124344000D02*
X181675200Y-122544000D01*
G75*
G02*
X181726000Y-122493200I50800J0D01*
G01*
X183526000Y-122493200D01*
G75*
G02*
X183576800Y-122544000I0J-50800D01*
G01*
X183576800Y-124344000D01*
G75*
G02*
X183526000Y-124394800I-50800J0D01*
G01*
X181726000Y-124394800D01*
G75*
G02*
X181675200Y-124344000I0J50800D01*
G01*
G37*
D14*
X186690000Y-100330000D03*
X186690000Y-115570000D03*
X151130000Y-100330000D03*
X184150000Y-115570000D03*
X153670000Y-100330000D03*
X181610000Y-115570000D03*
X156210000Y-100330000D03*
X179070000Y-115570000D03*
X158750000Y-100330000D03*
X176530000Y-115570000D03*
X161290000Y-100330000D03*
X173990000Y-115570000D03*
X163830000Y-100330000D03*
X171450000Y-115570000D03*
X166370000Y-100330000D03*
X168910000Y-115570000D03*
X168910000Y-100330000D03*
X166370000Y-115570000D03*
X171450000Y-100330000D03*
X163830000Y-115570000D03*
X173990000Y-100330000D03*
X161290000Y-115570000D03*
X176530000Y-100330000D03*
X158750000Y-115570000D03*
X179070000Y-100330000D03*
X156210000Y-115570000D03*
X181610000Y-100330000D03*
X153670000Y-115570000D03*
X184150000Y-100330000D03*
G36*
G01*
X151930000Y-116420800D02*
X150330000Y-116420800D01*
G75*
G02*
X150279200Y-116370000I0J50800D01*
G01*
X150279200Y-114770000D01*
G75*
G02*
X150330000Y-114719200I50800J0D01*
G01*
X151930000Y-114719200D01*
G75*
G02*
X151980800Y-114770000I0J-50800D01*
G01*
X151980800Y-116370000D01*
G75*
G02*
X151930000Y-116420800I-50800J0D01*
G01*
G37*
M02*
